<?xml version="1.0" encoding="UTF-8" standalone="no"?>
<svg width="200px" height="200px" viewBox="0 0 200 200" version="1.1" xmlns="http://www.w3.org/2000/svg" xmlns:xlink="http://www.w3.org/1999/xlink" xmlns:sketch="http://www.bohemiancoding.com/sketch/ns">
    <!-- Generator: Sketch 3.0.4 (8053) - http://www.bohemiancoding.com/sketch -->
    <title>Artboard 1</title>
    <desc>Created with Sketch.</desc>
    <defs>
        <radialGradient cx="39.8685909%" cy="33.3113551%" fx="39.8685909%" fy="33.3113551%" r="65.1964091%" id="radialGradient-1">
            <stop stop-color="#160D28" stop-opacity="0.85" offset="0%"></stop>
            <stop stop-color="#160D28" offset="76.69%"></stop>
        </radialGradient>
    </defs>
    <g id="Page-1" stroke="none" stroke-width="1" fill="none" fill-rule="evenodd" sketch:type="MSPage">
        <g id="Artboard-1" sketch:type="MSArtboardGroup">
            <g id="shape" sketch:type="MSLayerGroup" fill="#1F1B1C">
                <g id="dark" sketch:type="MSShapeGroup">
                    <polygon id="Polygon-2" transform="translate(100.000000, 100.000000) scale(1, -1) translate(-100.000000, -100.000000) " points="100 0 186.60254 50 186.60254 150 100 200 13.3974596 150 13.3974596 50 "></polygon>
                    <polygon id="Polygon-3" transform="translate(100.000000, 100.000000) scale(1, -1) translate(-100.000000, -100.000000) " points="100 0 195.105652 69.0983006 158.778525 180.901699 41.2214748 180.901699 4.89434837 69.0983006 "></polygon>
                </g>
            </g>
            <g id="after-effects" sketch:type="MSLayerGroup" transform="translate(51.096361, 51.088624)">
                <rect id="Rectangle-path" fill="url(#radialGradient-1)" sketch:type="MSShapeGroup" x="4.08711255" y="4.1080721" width="89.9164761" height="87.912743"></rect>
                <path d="M0,0 L0,96.1284764 L98.0911099,96.1284764 L98.0911099,0 L0,0 L0,0 Z M7.02983359,7.05079314 L92.0421838,7.05079314 L92.0421838,90.1679294 L7.02983359,90.1679294 L7.02983359,7.05079314 L7.02983359,7.05079314 Z" id="Shape" fill="#8781BD" sketch:type="MSShapeGroup"></path>
                <path d="M27.7253367,54.4315445 L24.4883436,66.7003019 C24.4204975,67.038807 24.2856228,67.1665681 23.8809986,67.1665681 L17.8794826,67.1665681 C17.4748584,67.1665681 17.4070124,67.0310017 17.4748584,66.5569302 L29.0736751,25.75145 C29.2763959,25.0062457 29.4112706,24.4179698 29.4782993,22.3848849 C29.4782993,22.1137521 29.613174,21.9781857 29.8158948,21.9781857 L38.3804391,21.9781857 C38.6493711,21.9781857 38.7842458,22.0463797 38.8520919,22.3848849 L51.8679105,66.6243025 C51.9349392,66.9636293 51.8679105,67.1665681 51.530315,67.1665681 L44.7865793,67.1665681 C44.4498013,67.1665681 44.2470805,67.038807 44.1800518,66.7684959 L40.808184,54.4315445 L27.7253367,54.4315445 L27.7253367,54.4315445 Z M39.1958181,47.7625003 C38.049383,43.2210266 35.277912,33.260595 34.2663516,28.4479885 L34.199323,28.4479885 C33.3226373,33.260595 31.1090572,41.3867724 29.4231233,47.7583922 L39.1958181,47.7625003 L39.1958181,47.7625003 Z M61.1043762,51.9667013 C61.1722223,57.5253336 63.8026879,61.2529983 70.006516,61.2529983 C72.4338522,61.2529983 74.5141925,60.9305146 76.6721879,59.9811392 C76.9419373,59.8455728 77.1446581,59.9137668 77.1446581,60.2522719 L77.1446581,65.4042051 C77.1446581,65.8109043 77.0097834,66.013843 76.740034,66.2171926 C74.5824472,67.3021344 71.894762,67.776206 68.5228942,67.776206 C57.7333258,67.776206 53.6866756,59.7782004 53.6866756,50.8304085 C53.6866756,41.1378232 58.6766313,33.2076008 67.4443052,33.2076008 C76.3456276,33.2076008 79.447746,40.7311241 79.447746,46.8316112 C79.447746,48.7973237 79.3128713,50.424531 79.110968,51.1701461 C79.0431219,51.5086512 78.9082472,51.6281961 78.5714691,51.6955685 C77.7622208,51.8311349 75.334476,51.9667013 71.7598873,51.9667013 L61.1043762,51.9667013 L61.1043762,51.9667013 Z M69.3991711,46.3181021 C71.4897292,46.3181021 72.2323575,46.3181021 72.4342609,46.2507298 C72.4342609,45.979597 72.502107,45.7466693 72.502107,45.5437306 C72.502107,43.3068853 71.4227005,39.2008672 67.1745558,39.2008672 C63.263189,39.2008672 61.5772551,42.6573991 61.1722223,46.3176913 L69.3991711,46.3176913 L69.3991711,46.3181021 Z" id="Shape" fill="#8781BD" sketch:type="MSShapeGroup"></path>
            </g>
        </g>
    </g>
</svg>