<?xml version="1.0" encoding="UTF-8" standalone="no"?>
<svg width="200px" height="200px" viewBox="0 0 200 200" version="1.1" xmlns="http://www.w3.org/2000/svg" xmlns:xlink="http://www.w3.org/1999/xlink" xmlns:sketch="http://www.bohemiancoding.com/sketch/ns">
    <!-- Generator: Sketch 3.0.4 (8053) - http://www.bohemiancoding.com/sketch -->
    <title>Artboard 1</title>
    <desc>Created with Sketch.</desc>
    <defs></defs>
    <g id="Page-1" stroke="none" stroke-width="1" fill="none" fill-rule="evenodd" sketch:type="MSPage">
        <g id="Artboard-1" sketch:type="MSArtboardGroup">
            <g id="shape" sketch:type="MSLayerGroup" fill="#1F1B1C">
                <g id="dark" sketch:type="MSShapeGroup">
                    <polygon id="Polygon-2" transform="translate(100.000000, 100.000000) scale(1, -1) translate(-100.000000, -100.000000) " points="100 0 186.60254 50 186.60254 150 100 200 13.3974596 150 13.3974596 50 "></polygon>
                    <polygon id="Polygon-3" transform="translate(100.000000, 100.000000) scale(1, -1) translate(-100.000000, -100.000000) " points="100 0 195.105652 69.0983006 158.778525 180.901699 41.2214748 180.901699 4.89434837 69.0983006 "></polygon>
                </g>
            </g>
            <g id="apigee" sketch:type="MSLayerGroup" transform="translate(37.000000, 77.000000)">
                <g id="Group" sketch:type="MSShapeGroup">
                    <path d="M11.51744,28.5456471 C14.848,28.5456471 16.45824,25.1227059 16.45824,22.0168235 C16.45824,18.9109412 14.89792,15.4051765 11.51744,15.4051765 C7.99232,15.4051765 6.43712,18.9109412 6.43712,22.0168235 C6.43712,25.1227059 8.04224,28.5456471 11.51744,28.5456471 L11.51744,28.5456471 Z M22.87104,29.9885882 C22.87104,31.6437647 22.87104,34.2203529 19.79648,34.2203529 C17.92,34.2203529 17.16992,33.176 16.71936,31.4703529 C15.0784,33.4490588 13.07136,34.4830588 10.61632,34.4830588 C4.61312,34.4830588 0.02688,29.3014118 0.02688,22.0168235 C0.02688,14.9017647 4.74624,9.45482353 10.61632,9.45482353 C12.9792,9.45482353 15.29344,10.3956471 16.71936,12.4209412 C16.89728,10.846 18.24128,9.72529412 19.79648,9.72529412 C22.87104,9.72529412 22.87104,12.2941176 22.87104,13.9648235 L22.87104,29.9885882 L22.87104,29.9885882 Z" id="Shape" fill="#FC4C02"></path>
                    <path d="M36.1216,28.5430588 C39.45216,28.5430588 41.1008,25.0295294 41.1008,22.0168235 C41.1008,18.9588235 39.45088,15.4025882 36.1216,15.4025882 C32.68224,15.4025882 31.08736,18.6378824 31.08736,21.7903529 C31.08736,24.9441176 32.59392,28.5430588 36.1216,28.5430588 L36.1216,28.5430588 Z M24.67456,13.3294118 C24.67456,11.1721176 26.0032,9.72529412 27.87712,9.72529412 C29.64864,9.72529412 30.68288,10.7230588 31.08736,12.4209412 C32.28416,10.4448235 34.78016,9.45482353 37.1904,9.45482353 C44.0768,9.45482353 47.5072,15.9823529 47.5072,22.2821176 C47.5072,28.4084706 43.424,34.4830588 36.96512,34.4830588 C34.94784,34.4830588 32.77824,33.7143529 31.08864,32.2312941 L31.08864,40.1525882 C31.08864,42.3085882 29.75232,43.7489412 27.8784,43.7489412 C26.00448,43.7489412 24.67584,42.3085882 24.67584,40.1525882 L24.67584,13.3294118 L24.67456,13.3294118 Z" id="Shape" fill="#FC4C02"></path>
                    <path d="M49.02528,13.3294118 C49.02528,11.1721176 50.35776,9.72529412 52.2304,9.72529412 C54.0992,9.72529412 55.43552,11.1721176 55.43552,13.3294118 L55.43552,30.6058824 C55.43552,32.7748235 54.0992,34.2203529 52.2304,34.2203529 C50.35776,34.2203529 49.02528,32.7748235 49.02528,30.6058824 L49.02528,13.3294118 L49.02528,13.3294118 Z M55.84128,3.56141176 C55.84128,5.59317647 54.2336,7.29494118 52.22912,7.29494118 C50.31168,7.29494118 48.6208,5.54141176 48.6208,3.56141176 C48.6208,1.716 50.31168,-4.4408921e-15 52.22912,-4.4408921e-15 C54.14272,-9.03852157e-15 55.84128,1.67329412 55.84128,3.56141176 L55.84128,3.56141176 Z" id="Shape" fill="#FC4C02"></path>
                    <path d="M68.34688,15.4051765 C65.00096,15.4051765 63.36,18.9109412 63.36,21.9184706 C63.36,25.3867059 65.00224,28.5456471 68.34688,28.5456471 C71.77344,28.5456471 73.376,25.3025882 73.376,22.1514118 C73.376,19.0015294 71.86304,15.4051765 68.34688,15.4051765 L68.34688,15.4051765 Z M79.78624,32.0591765 C79.78624,39.8445882 74.752,43.7489412 67.46368,43.7489412 C64.82944,43.7489412 57.34912,42.4470588 57.34912,38.8985882 C57.34912,37.6704706 58.68288,36.0502353 59.93216,36.0502353 C61.9776,36.0502353 64.24448,38.0871765 67.95008,38.0871765 C71.0592,38.0871765 73.37728,36.2443529 73.37728,32.9508235 L73.37728,31.4263529 L73.2928,31.4263529 C71.9424,33.4102353 69.7728,34.4817647 66.82496,34.4817647 C60.11264,34.4817647 56.9472,28.4938824 56.9472,22.0530588 C56.9472,15.5294118 61.04576,9.45352941 67.50336,9.45352941 C69.68448,9.45352941 72.17536,10.4448235 73.376,12.4196471 C73.7792,10.7204706 74.79808,9.72270588 76.58368,9.72270588 C78.4576,9.72270588 79.78624,11.1695294 79.78624,13.3307059 L79.78624,32.0591765 L79.78624,32.0591765 Z" id="Shape" fill="#4A494A"></path>
                    <path d="M97.55008,19.8181176 C97.19552,16.9749412 95.4176,14.8642353 92.4352,14.8642353 C89.58592,14.8642353 87.6608,17.0629412 87.35104,19.8181176 L97.55008,19.8181176 L97.55008,19.8181176 Z M87.49184,24.1378824 C87.93472,27.3252941 90.5664,28.8135294 93.54112,28.8135294 C96.84096,28.8135294 99.10912,26.202 100.8,26.202 C102.18368,26.202 103.43168,27.5944706 103.43168,28.9947059 C103.43168,31.7796471 97.73056,34.4817647 92.96384,34.4817647 C85.74976,34.4817647 80.94464,29.1707059 80.94464,22.0129412 C80.94464,15.4491765 85.66144,9.45482353 92.43648,9.45482353 C99.37664,9.45482353 103.96416,15.8477647 103.96416,21.2468235 C103.96416,23.188 103.1168,24.1352941 101.15456,24.1352941 L87.49184,24.1352941 L87.49184,24.1378824 Z" id="Shape" fill="#4A494A"></path>
                    <path d="M121.60384,19.8970588 C121.25568,17.0590588 119.46752,14.9431765 116.4864,14.9431765 C113.63456,14.9431765 111.71712,17.1470588 111.41248,19.8970588 L121.60384,19.8970588 L121.60384,19.8970588 Z M111.54816,24.2181176 C111.99616,27.4236471 114.61504,28.8989412 117.60256,28.8989412 C120.89088,28.8989412 123.16416,26.2848235 124.85376,26.2848235 C126.23872,26.2848235 127.48416,27.6772941 127.48416,29.0723529 C127.48416,31.8624706 121.78304,34.5671765 117.02656,34.5671765 C109.80864,34.5671765 104.99968,29.2522353 104.99968,22.0983529 C104.99968,15.5190588 109.7216,9.53894118 116.4864,9.53894118 C123.43296,9.53894118 128.02816,15.928 128.02816,21.3296471 C128.02816,23.2734118 127.1808,24.2155294 125.20576,24.2155294 L111.54816,24.2155294 L111.54816,24.2181176 Z" id="Shape" fill="#4A494A"></path>
                </g>
            </g>
        </g>
    </g>
</svg>