<?xml version="1.0" encoding="UTF-8" standalone="no"?>
<svg width="200px" height="200px" viewBox="0 0 200 200" version="1.1" xmlns="http://www.w3.org/2000/svg" xmlns:xlink="http://www.w3.org/1999/xlink" xmlns:sketch="http://www.bohemiancoding.com/sketch/ns">
    <!-- Generator: Sketch 3.0.4 (8053) - http://www.bohemiancoding.com/sketch -->
    <title>Artboard 1</title>
    <desc>Created with Sketch.</desc>
    <defs></defs>
    <g id="Page-1" stroke="none" stroke-width="1" fill="none" fill-rule="evenodd" sketch:type="MSPage">
        <g id="Artboard-1" sketch:type="MSArtboardGroup">
            <g id="shape" sketch:type="MSLayerGroup" fill="#1F1B1C">
                <g id="dark" sketch:type="MSShapeGroup">
                    <polygon id="Polygon-2" transform="translate(100.000000, 100.000000) scale(1, -1) translate(-100.000000, -100.000000) " points="100 0 186.60254 50 186.60254 150 100 200 13.3974596 150 13.3974596 50 "></polygon>
                    <polygon id="Polygon-3" transform="translate(100.000000, 100.000000) scale(1, -1) translate(-100.000000, -100.000000) " points="100 0 195.105652 69.0983006 158.778525 180.901699 41.2214748 180.901699 4.89434837 69.0983006 "></polygon>
                </g>
            </g>
            <path d="M49,60.28 C49,55.48 54.0839107,51.4 64.2517321,48.04 C74.4195535,44.68 86.6689761,43 101,43 C115.411085,43 127.680523,44.68 137.808314,48.04 C147.936105,51.4 153,55.48 153,60.28 C153,61.24 150.117783,78.84 144.353349,113.08 C143.632794,116.76 139.189376,120.32 131.023095,123.76 C122.856813,127.2 112.849115,128.92 101,128.92 C89.1508853,128.92 79.1431871,127.2 70.9769053,123.76 C62.8106236,120.32 58.4072363,116.76 57.7667436,113.08 C51.9222479,79.96 49,62.36 49,60.28 L49,60.28 Z M61.8498845,130 L61.8498845,129.52 C61.8498845,128.16 62.4503464,127.48 63.6512702,127.48 C64.1316397,127.48 64.6120092,127.68 65.0923788,128.08 C68.8552733,131.04 73.73903,133.36 79.743649,135.04 C85.7482679,136.72 90.7921478,137.64 94.8752887,137.8 L101,138.16 C101.640493,138.16 102.501155,138.14 103.581986,138.1 C104.662818,138.06 106.764434,137.86 109.886836,137.5 C113.009238,137.14 115.991532,136.64 118.833718,136 C121.675905,135.36 124.818322,134.36 128.26097,133 C131.703618,131.64 134.625866,130 137.027714,128.08 L138.34873,127.48 C139.629715,127.48 140.270208,128.16 140.270208,129.52 C140.270208,129.68 140.230177,129.84 140.150115,130 C138.388761,139.68 137.187837,146.12 136.547344,149.32 C135.666667,153.24 131.823711,156.5 125.018476,159.1 C118.213241,161.7 110.207082,163 101,163 C91.7929176,163 83.786759,161.7 76.9815242,159.1 C70.1762895,156.5 66.3733641,153.24 65.5727483,149.32 C64.0515781,141.72 62.8106236,135.28 61.8498845,130 L61.8498845,130 Z M67.7344111,58.48 C67.7344111,60.4 70.9969207,62.06 77.52194,63.46 C84.0469592,64.86 91.8729792,65.56 101,65.56 C110.207082,65.56 118.073133,64.88 124.598152,63.52 C131.123172,62.16 134.385681,60.52 134.385681,58.6 C134.385681,56.6 131.123172,54.9 124.598152,53.5 C118.073133,52.1 110.207082,51.4 101,51.4 C91.7929176,51.4 83.9468822,52.08 77.4618938,53.44 C70.9769053,54.8 67.7344111,56.48 67.7344111,58.48 L67.7344111,58.48 Z M84.4272517,100.84 C84.4272517,105.4 86.0484988,109.3 89.2909931,112.54 C92.5334873,115.78 96.4364896,117.4 101,117.4 C105.56351,117.4 109.466513,115.78 112.709007,112.54 C115.951501,109.3 117.572748,105.4 117.572748,100.84 C117.572748,96.28 115.951501,92.38 112.709007,89.14 C109.466513,85.9 105.56351,84.28 101,84.28 C96.4364896,84.28 92.5334873,85.9 89.2909931,89.14 C86.0484988,92.38 84.4272517,96.28 84.4272517,100.84 L84.4272517,100.84 Z M92.7136259,100.84 C92.7136259,103.08 93.5142417,105.02 95.1154734,106.66 C96.7167052,108.3 98.678214,109.12 101,109.12 C103.321786,109.12 105.283295,108.3 106.884527,106.66 C108.485758,105.02 109.286374,103.08 109.286374,100.84 C109.286374,98.6 108.485758,96.66 106.884527,95.02 C105.283295,93.38 103.321786,92.56 101,92.56 C98.678214,92.56 96.7167052,93.38 95.1154734,95.02 C93.5142417,96.66 92.7136259,98.6 92.7136259,100.84 L92.7136259,100.84 Z" id="bitbucket" fill="#FFFFFF" sketch:type="MSShapeGroup"></path>
        </g>
    </g>
</svg>