<?xml version="1.0" encoding="UTF-8" standalone="no"?>
<svg width="200px" height="200px" viewBox="0 0 200 200" version="1.1" xmlns="http://www.w3.org/2000/svg" xmlns:xlink="http://www.w3.org/1999/xlink" xmlns:sketch="http://www.bohemiancoding.com/sketch/ns">
    <!-- Generator: Sketch 3.0.4 (8053) - http://www.bohemiancoding.com/sketch -->
    <title>Artboard 1</title>
    <desc>Created with Sketch.</desc>
    <defs>
        <linearGradient x1="5.9563125%" y1="94.7333256%" x2="94.0443047%" y2="5.80146512%" id="linearGradient-1">
            <stop stop-color="#070135" offset="0%"></stop>
            <stop stop-color="#612D50" offset="100%"></stop>
        </linearGradient>
    </defs>
    <g id="Page-1" stroke="none" stroke-width="1" fill="none" fill-rule="evenodd" sketch:type="MSPage">
        <g id="Artboard-1" sketch:type="MSArtboardGroup">
            <g id="shape" sketch:type="MSLayerGroup" fill="#1F1B1C">
                <g id="dark" sketch:type="MSShapeGroup">
                    <polygon id="Polygon-2" transform="translate(100.000000, 100.000000) scale(1, -1) translate(-100.000000, -100.000000) " points="100 0 186.60254 50 186.60254 150 100 200 13.3974596 150 13.3974596 50 "></polygon>
                    <polygon id="Polygon-3" transform="translate(100.000000, 100.000000) scale(1, -1) translate(-100.000000, -100.000000) " points="100 0 195.105652 69.0983006 158.778525 180.901699 41.2214748 180.901699 4.89434837 69.0983006 "></polygon>
                </g>
            </g>
            <g id="bootstrap" sketch:type="MSLayerGroup" transform="translate(55.000000, 52.000000)">
                <g id="layer1" transform="translate(0.012561, -0.004203)" sketch:type="MSShapeGroup">
                    <rect id="rect3050" fill="url(#linearGradient-1)" x="0" y="0" width="91.9999999" height="92.6896467"></rect>
                    <g id="text3836" transform="translate(23.347515, 17.782272)" fill="#FFFFFF">
                        <path d="M23.5186806,22.3558497 C25.8682002,22.3558856 27.6497272,21.8431221 28.8632689,20.8175592 C30.0767384,19.792068 30.6834876,18.2794149 30.6835237,16.2795927 C30.6834876,14.305494 30.0767384,12.8056596 28.8632689,11.7800895 C27.6497272,10.7289681 25.8682002,10.2033858 23.5186806,10.2033356 L15.2694318,10.2033356 L15.2694318,22.3558497 L23.5186806,22.3558497 M24.0221558,47.4684795 C27.0171595,47.4684867 29.2634267,46.8403546 30.7609792,45.5840689 C32.2842778,44.3278119 33.0459452,42.4305825 33.0459886,39.892388 C33.0459452,37.4054971 32.2971871,35.5467312 30.7997141,34.3160758 C29.3021617,33.0598259 27.042978,32.4316938 24.0221558,32.4316652 L15.2694318,32.4316652 L15.2694318,47.4684795 L24.0221558,47.4684795 M37.8870944,26.8168967 C41.0886389,27.7399026 43.5672799,29.4448438 45.3230462,31.9317204 C47.0786969,34.4186543 47.9565548,37.469598 47.9566053,41.0845657 C47.9565548,46.622429 46.0717465,50.7501746 42.3021878,53.467817 C38.5325353,56.1854666 32.8006623,57.5442949 25.1065689,57.5442949 L0.358807789,57.5442949 L0.358807789,0.127520175 L22.744104,0.127520175 C30.7738523,0.127577562 36.5831808,1.33257399 40.1721039,3.74250947 C43.7867443,6.15255254 45.5940898,10.0110977 45.5941476,15.3181593 C45.5940898,18.1127642 44.9357037,20.4971196 43.6189746,22.4712183 C42.3021445,24.4197584 40.3915178,25.8683179 37.8870944,26.8168967" id="path3841"></path>
                    </g>
                </g>
            </g>
        </g>
    </g>
</svg>