<?xml version="1.0" encoding="UTF-8" standalone="no"?>
<svg width="200px" height="200px" viewBox="0 0 200 200" version="1.1" xmlns="http://www.w3.org/2000/svg" xmlns:xlink="http://www.w3.org/1999/xlink" xmlns:sketch="http://www.bohemiancoding.com/sketch/ns">
    <!-- Generator: Sketch 3.0.4 (8053) - http://www.bohemiancoding.com/sketch -->
    <title>Artboard 1</title>
    <desc>Created with Sketch.</desc>
    <defs></defs>
    <g id="Page-1" stroke="none" stroke-width="1" fill="none" fill-rule="evenodd" sketch:type="MSPage">
        <g id="Artboard-1" sketch:type="MSArtboardGroup">
            <g id="shape" sketch:type="MSLayerGroup" fill="#1F1B1C">
                <g id="dark" sketch:type="MSShapeGroup">
                    <polygon id="Polygon-2" transform="translate(100.000000, 100.000000) scale(1, -1) translate(-100.000000, -100.000000) " points="100 0 186.60254 50 186.60254 150 100 200 13.3974596 150 13.3974596 50 "></polygon>
                    <polygon id="Polygon-3" transform="translate(100.000000, 100.000000) scale(1, -1) translate(-100.000000, -100.000000) " points="100 0 195.105652 69.0983006 158.778525 180.901699 41.2214748 180.901699 4.89434837 69.0983006 "></polygon>
                </g>
            </g>
            <g id="bower-logo" sketch:type="MSLayerGroup" transform="translate(39.000000, 47.000000)">
                <path d="M105.260742,7.87125333 C88.8351016,7.87125333 76.5859844,25.2337422 82.2485703,37.7050378 C105.495906,37.70528 96.0317031,16.2429378 105.260742,7.87125333 L105.260742,7.87125333 Z" id="Shape" fill="#00ACEE" sketch:type="MSShapeGroup"></path>
                <path d="M110.566828,54.7402844 C110.566828,49.22004 84.2587266,46.4734822 69.6034766,45.6174689 C54.9484687,44.7616978 1.40541406,54.9161378 7.74394531,68.3410622 C14.0827187,81.7664711 30.1659062,96.0411111 48.2650625,96.0411111 C57.6415937,96.0411111 68.5080625,89.43232 69.1060234,77.2979556 C79.9511797,73.6750378 110.566828,73.4831978 110.566828,54.7402844 L110.566828,54.7402844 Z" id="Shape" fill="#FFCC2F" sketch:type="MSShapeGroup"></path>
                <path d="M97.1125859,58.4101933 C98.8127422,60.13094 93.4260078,64.7794267 88.7314453,62.5914333 C90.8459844,67.3603044 81.5442891,71.3269356 77.0250703,67.92662 C77.5089609,71.7694756 68.2767734,73.9812067 65.3310469,69.6929044 C66.0905469,71.7375022 66.7253203,73.3015311 67.3240078,74.5879733 L67.3128672,74.5518822 C68.8444609,76.55724 70.9284844,78.17044 80.0020391,78.17044 C93.9827969,78.17044 116.565086,67.5492378 116.565086,59.7521044 C116.565086,53.2985778 114.145148,52.6937489 109.978555,53.1641444 C105.810992,53.63454 84.0233203,55.8990756 79.3888203,54.9890467 C81.9034531,55.5243578 94.5839062,57.9538467 97.1125859,58.4101933 L97.1125859,58.4101933 Z" id="Shape" fill="#2BAF2B" sketch:type="MSShapeGroup"></path>
                <path d="M48.0766406,4.3164 C21.3435,4.3164 -5.49014844,30.8932644 7.27991406,67.5499644 C15.9543437,72.7650089 27.5209766,70.6976422 30.1128672,67.9210489 C34.0309766,69.17358 37.5267109,69.7006556 40.6511719,69.7006556 C56.8891172,69.7006556 70.7647656,52.4459556 70.7647656,30.8828489 C70.7645234,8.76747556 56.1705469,4.3164 48.0766406,4.3164 L48.0766406,4.3164 Z" id="Shape" fill="#EF5734" sketch:type="MSShapeGroup"></path>
                <path d="M37.1292812,27.9819956 C37.1292812,33.9484133 41.9655234,38.7858333 47.9315703,38.7858333 C53.897375,38.7858333 58.7338594,33.9484133 58.7338594,27.9819956 C58.7338594,22.0153356 53.897375,17.1781578 47.9315703,17.1781578 C41.9655234,17.1784 37.1292812,22.0155778 37.1292812,27.9819956 L37.1292812,27.9819956 Z" id="Shape" fill="#FFCC2F" sketch:type="MSShapeGroup"></path>
                <path d="M41.4641953,27.9819956 C41.4641953,31.5540467 44.3597891,34.4502978 47.9315703,34.4502978 C51.5033516,34.4502978 54.3987031,31.5540467 54.3987031,27.9819956 C54.3987031,24.4097022 51.5033516,21.5136933 47.9315703,21.5136933 C44.3597891,21.5139356 41.4641953,24.4097022 41.4641953,27.9819956 L41.4641953,27.9819956 Z" id="Shape" fill="#543729" sketch:type="MSShapeGroup"></path>
                <ellipse id="Oval" fill="#FFFFFF" sketch:type="MSShapeGroup" cx="47.8465625" cy="25.1123889" rx="3.7684375" ry="2.3435"></ellipse>
                <path d="M70.0893047,22.4479444 C65.1789531,25.3078622 65.3414609,34.5663222 67.5233281,39.0840089 C71.7482891,37.5178 77.6351406,34.4113 78.5493984,33.8556422 C79.4631719,33.3002267 78.0437109,31.1938622 81.5910313,31.1938622 C86.5110703,31.1938622 90.9598125,32.7314889 92.236625,33.2852089 C91.4284453,31.6213844 81.3163906,22.4479444 70.0893047,22.4479444 L70.0893047,22.4479444 Z" id="Shape" fill="#CECECE" sketch:type="MSShapeGroup"></path>
                <path d="M121.629953,53.2397178 C115.251945,47.1102844 83.3602109,43.2843844 73.2970781,42.1706467 C73.7848437,41.0191222 74.1994687,39.8286 74.5424062,38.6024711 C75.9143984,38.0015178 77.3944062,37.4424689 78.9262422,36.9757067 C79.1127266,37.5260356 79.9911406,39.6353067 80.4919844,40.6361689 C100.727477,41.1944911 101.766703,25.5965911 102.589172,21.3233067 C103.393961,17.1449733 103.353031,13.1078556 110.293641,5.72710222 C99.9529609,2.71313111 85.0828906,10.3981156 80.1015781,21.8363333 C78.2299531,21.1348578 76.3539687,20.6167444 74.4983281,20.2965267 C73.1692031,14.9322733 66.2453047,-0.0125955556 48.0763984,-0.0125955556 C36.3097187,-0.0125955556 24.4435,4.84710889 15.5213125,13.3205267 C10.7134062,17.8864156 6.93697656,23.3083178 4.297375,29.4355711 C1.44585937,36.05502 -2.08721929e-14,43.3432444 -2.08721929e-14,51.0984733 C-2.08721929e-14,78.1074622 18.4367656,101.776933 28.8539766,101.776933 C33.4032266,101.776933 37.3167344,98.3695933 38.2353516,95.3156556 C39.00575,97.4096667 41.3687734,103.919873 42.1447422,105.577158 C43.2919844,108.02772 48.5971016,110.148376 50.9189531,107.605284 C53.9041562,109.264264 59.3817109,110.263189 62.3671562,105.839727 C68.1164453,107.056167 73.1997187,103.627027 73.3101562,99.5356511 C76.1313984,99.3849889 77.5152578,95.4232022 76.8991328,92.2687422 C76.4450312,89.9455889 71.5942578,81.6109644 69.7015625,78.7340911 C73.4477187,81.7812467 82.9356562,82.6440422 84.0877422,78.7360289 C90.1269297,83.47656 99.5385781,80.9889378 100.285,77.13276 C107.623523,79.0400178 116.040266,74.8517533 114.658344,69.7791356 C126.446578,68.9633311 124.93775,56.4186422 121.629953,53.2397178 L121.629953,53.2397178 Z M90.93075,32.4476044 C87.8256641,31.2285 83.8869687,30.4572644 81.1265156,30.4572644 C77.2117969,30.4572644 74.8274609,32.67602 71.1440312,32.67602 C70.3707266,32.67602 68.5255,32.6798956 67.0447656,32.1523356 C68.0186016,33.1737867 69.2305078,33.7279911 71.5797266,33.7279911 C72.9827188,33.7279911 75.7606094,33.0114978 78.0105313,32.3347289 C78.0417734,32.8085156 78.0914219,33.2789111 78.1582656,33.7459156 C73.9437188,34.7538022 69.5208906,37.4352022 68.2409297,38.1313489 C65.3940156,31.8437444 67.8413203,25.8979156 70.1050469,23.1530533 C80.2442266,23.1772756 88.4333125,30.1404378 90.93075,32.4476044 L90.93075,32.4476044 Z M95.3145859,31.9735756 L93.7631328,30.5253289 C92.17075,29.0334822 90.5105547,27.68382 88.8057969,26.4855467 C91.3446484,21.4470822 94.5354687,15.9454889 98.5654687,12.5420244 C94.1300469,14.3298667 89.7505703,19.6742578 87.1611016,25.3870689 C85.8416641,24.5480111 84.5018828,23.7995444 83.1502344,23.1453022 C86.7619766,15.4344 95.1549844,8.99468 104.405094,8.49158444 C98.2092109,14.11114 100.535422,25.3274822 95.3145859,31.9735756 L95.3145859,31.9735756 Z M82.5873906,37.2295556 C81.9041797,35.7486089 81.2124922,33.2886 81.2970156,31.8427756 C82.4481328,31.8156467 84.6556719,32.2472867 85.0109609,32.3310956 C84.8760625,33.0100444 84.8038906,34.4975311 84.8012266,34.6900978 C85.0199219,34.3132 85.6270859,33.0134356 85.8741172,32.5030733 C88.0845625,32.9255089 90.9905703,33.6315867 92.6943594,34.4258333 C90.6938906,35.7212378 87.2938203,37.1309711 82.5873906,37.2295556 L82.5873906,37.2295556 Z M68.7742266,19.8406644 C60.6897656,28.0355267 63.8822812,38.4021533 66.8255859,43.0881844 C62.6381641,50.0547378 54.4062109,54.8207022 44.8434375,56.9890756 C55.579125,56.9890756 61.8927109,54.2255622 65.5657266,51.5182444 C67.909375,49.7909578 69.1811016,48.0859556 69.8301641,47.1369289 C85.7467266,48.1666156 110.949484,53.2949444 113.408172,54.9561044 C114.394844,55.6229422 115.413,57.0978333 115.56243,58.50902 C103.601516,56.8342956 82.0419844,55.0723711 76.3961094,54.7729844 C80.4040703,55.34148 109.634164,60.8774689 114.701211,62.1733578 C113.158961,64.6885933 109.646273,66.4643244 104.351812,65.2304444 C107.212531,69.1285267 101.657477,73.8048689 93.9205547,71.22932 C95.6236172,75.0561889 88.7345937,78.5010733 80.9051562,74.5126422 C81.0046953,78.3409644 71.1922266,78.7820511 67.3128672,74.5518822 C67.3869766,75.0561889 67.847375,76.0212022 68.0462109,76.4433956 C66.7960391,87.6219511 57.6415937,94.5575 48.2650625,94.5575 C25.3071406,94.5575 5.30705469,75.9090533 5.30705469,51.0987156 C5.30705469,24.8679867 24.6893203,5.29546222 48.0766406,5.29546222 C61.4773594,5.29522 67.5305937,15.84424 68.7742266,19.8406644 L68.7742266,19.8406644 Z" id="Shape" fill="#543729" sketch:type="MSShapeGroup"></path>
            </g>
        </g>
    </g>
</svg>