<?xml version="1.0" encoding="UTF-8" standalone="no"?>
<svg width="200px" height="200px" viewBox="0 0 200 200" version="1.1" xmlns="http://www.w3.org/2000/svg" xmlns:xlink="http://www.w3.org/1999/xlink" xmlns:sketch="http://www.bohemiancoding.com/sketch/ns">
    <!-- Generator: Sketch 3.0.4 (8053) - http://www.bohemiancoding.com/sketch -->
    <title>Artboard 1</title>
    <desc>Created with Sketch.</desc>
    <defs>
        <linearGradient x1="49.9989479%" y1="1089.40468%" x2="49.9989479%" y2="-159.49118%" id="linearGradient-1">
            <stop stop-color="#473788" offset="30.33%"></stop>
            <stop stop-color="#2C2255" offset="87.2%"></stop>
        </linearGradient>
        <linearGradient x1="49.9995491%" y1="896.545115%" x2="49.9995491%" y2="-352.350746%" id="linearGradient-2">
            <stop stop-color="#473788" offset="30.33%"></stop>
            <stop stop-color="#2C2255" offset="87.2%"></stop>
        </linearGradient>
        <linearGradient x1="49.9995043%" y1="215.167263%" x2="49.9995043%" y2="-166.708677%" id="linearGradient-3">
            <stop stop-color="#473788" offset="30.33%"></stop>
            <stop stop-color="#2C2255" offset="86.31%"></stop>
        </linearGradient>
    </defs>
    <g id="Page-1" stroke="none" stroke-width="1" fill="none" fill-rule="evenodd" sketch:type="MSPage">
        <g id="Artboard-1" sketch:type="MSArtboardGroup">
            <g id="shape" sketch:type="MSLayerGroup" fill="#1F1B1C">
                <g id="dark" sketch:type="MSShapeGroup">
                    <polygon id="Polygon-2" transform="translate(100.000000, 100.000000) scale(1, -1) translate(-100.000000, -100.000000) " points="100 0 186.60254 50 186.60254 150 100 200 13.3974596 150 13.3974596 50 "></polygon>
                    <polygon id="Polygon-3" transform="translate(100.000000, 100.000000) scale(1, -1) translate(-100.000000, -100.000000) " points="100 0 195.105652 69.0983006 158.778525 180.901699 41.2214748 180.901699 4.89434837 69.0983006 "></polygon>
                </g>
            </g>
            <g id="eclipse" sketch:type="MSLayerGroup" transform="translate(35.000000, 83.000000)">
                <path d="M8.33217021,19.4274182 L3.70085106,19.4274182 C4.31406383,21.5706455 5.45197872,23.4918 7.11791489,25.1891909 C9.77378723,27.8957727 12.9673617,29.2468091 16.7019574,29.2468091 C17.4484894,29.2468091 18.1717872,29.1901636 18.8743404,29.0822273 C21.6873191,28.6496364 24.1501277,27.3538364 26.2602766,25.1891909 C27.937,23.4923636 29.0829362,21.5706455 29.7008511,19.4274182 L27.821383,19.4274182 L25.0731277,19.4274182 L8.33217021,19.4274182 L8.33217021,19.4274182 Z" id="Shape" fill="#2C2255" sketch:type="MSShapeGroup"></path>
                <g id="Group" transform="translate(3.319149, 12.963636)" fill="#2C2255" sketch:type="MSShapeGroup">
                    <path d="M2.45921277,0.0546727273 L0.0398297872,0.0546727273 C-0.0486808511,0.596327273 -0.108978723,1.14925455 -0.136361702,1.71627273 L2.73912766,1.71627273 L4.18157447,1.71627273 L25.0023191,1.71627273 L26.9028085,1.71627273 C26.8751489,1.14925455 26.8148511,0.596327273 26.7255106,0.0546727273" id="Shape"></path>
                    <path d="M-0.136361702,3.25922727 C-0.108978723,3.82652727 -0.0489574468,4.37945455 0.0398297872,4.92082727 L2.55519149,4.92082727 L4.46176596,4.92082727 L24.8324894,4.92082727 L26.7260638,4.92082727 C26.8151277,4.37945455 26.8759787,3.82652727 26.9036383,3.25922727" id="Shape"></path>
                </g>
                <path d="M29.7014043,11.4750727 C29.0840426,9.32592727 27.9378298,7.39603636 26.2602766,5.68652727 C24.1556596,3.54245455 21.699766,2.25567273 18.8959149,1.8228 C18.1867234,1.71317273 17.456234,1.65568182 16.7019574,1.65568182 C12.9673617,1.65568182 9.77351064,2.99967273 7.11791489,5.68652727 C5.45142553,7.39603636 4.31295745,9.32592727 3.70002128,11.4750727" id="Shape" fill="#2C2255" sketch:type="MSShapeGroup"></path>
                <path d="M2.3787234,15.4518091 C2.3787234,8.17413636 7.74329787,2.12716364 14.7220851,1.06358182 C14.5489362,1.0571 14.3749574,1.04977273 14.2001489,1.04977273 C6.36861702,1.04977273 0.0193617021,7.49805455 0.0193617021,15.4518091 C0.0193617021,23.4058455 6.36834043,29.8535636 14.2001489,29.8535636 C14.3755106,29.8535636 14.5494894,29.8470818 14.7231915,29.8403182 C7.74329787,28.7767364 2.3787234,22.7297636 2.3787234,15.4518091 L2.3787234,15.4518091 Z" id="Shape" fill="#F7941E" sketch:type="MSShapeGroup"></path>
                <rect id="Rectangle-path" fill="#F7941E" sketch:type="MSShapeGroup" x="77.4468085" y="0" width="2.82044681" height="3.63883636"></rect>
                <path d="M53.8058936,14.8797182 L53.8058936,16.2848636 L40.8377021,16.2848636 C40.9599574,18.2637909 41.545234,19.7706727 42.5927021,20.8063545 C43.6404468,21.8428818 45.0992128,22.3603 46.969,22.3603 C48.0521489,22.3603 49.1021064,22.2253091 50.1194255,21.9550455 C51.1361915,21.6847818 52.1446596,21.2781182 53.146766,20.7364636 L53.146766,23.4546 C52.1349787,23.8922636 51.0977447,24.2250909 50.0347872,24.4547727 C48.9718298,24.6836091 47.8939362,24.7983091 46.8005532,24.7983091 C44.0619787,24.7983091 41.8929149,23.9863909 40.2936383,22.3617091 C38.6943617,20.7373091 37.8947234,18.5413818 37.8947234,15.7716727 C37.8947234,12.9084 38.6534255,10.6355364 40.1708298,8.95449091 C41.688234,7.27288182 43.7350426,6.43193636 46.3098723,6.43193636 C48.6197234,6.43193636 50.4460851,7.18946364 51.7897872,8.70423636 C53.1340426,10.2176 53.8058936,12.2765636 53.8058936,14.8797182 L53.8058936,14.8797182 Z M50.9854468,14.0365182 C50.9647021,12.4645364 50.5329362,11.2098818 49.6901489,10.2731182 C48.8468085,9.33579091 47.7304681,8.86740909 46.3408511,8.86740909 C44.7670213,8.86740909 43.5074043,9.32029091 42.5622766,10.2263364 C41.6168723,11.1318182 41.0728085,12.4076091 40.9298085,14.0523 L50.9854468,14.0365182 L50.9854468,14.0365182 Z" id="Shape" fill="#2C2255" sketch:type="MSShapeGroup"></path>
                <path d="M68.4358723,7.52398182 L68.4358723,10.2097091 C67.6384468,9.76218182 66.8390851,9.42681818 66.0369574,9.20277273 C65.2345532,8.97872727 64.4246809,8.86712727 63.6070638,8.86712727 C61.7776596,8.86712727 60.3573404,9.45781818 59.3461064,10.6394818 C58.3343191,11.8211455 57.8284255,13.4796455 57.8284255,15.6135727 C57.8284255,17.7477818 58.3343191,19.4065636 59.3461064,20.5879455 C60.3573404,21.7701727 61.7776596,22.3603 63.6070638,22.3603 C64.4246809,22.3603 65.2345532,22.2487 66.0369574,22.0255 C66.8382553,21.8014545 67.6384468,21.4658091 68.4358723,21.0177182 L68.4358723,23.6727273 C67.6486809,24.0475455 66.8335532,24.3288 65.990766,24.5159273 C65.1471489,24.7036182 64.2512553,24.7971818 63.3003191,24.7971818 C60.7147021,24.7971818 58.6609787,23.9692 57.1385957,22.3138 C55.6156596,20.6586818 54.8544681,18.4252727 54.8544681,15.6138545 C54.8544681,12.7615727 55.6231277,10.5174545 57.1612766,8.88234545 C58.6991489,7.24808182 60.8073617,6.43052727 63.4839787,6.43052727 C64.3530426,6.43052727 65.2010851,6.52211818 66.0292128,6.70417273 C66.8567872,6.88594545 67.6589149,7.15959091 68.4358723,7.52398182" id="Shape" fill="#2C2255" sketch:type="MSShapeGroup"></path>
                <rect id="Rectangle-path" fill="#2C2255" sketch:type="MSShapeGroup" x="71.0851064" y="0" width="2.821" height="24.3014636"></rect>
                <path d="M77.3538723,6.85156364 L80.1743191,6.85156364 L80.1743191,24.3440182 L77.3538723,24.3440182 L77.3538723,6.85156364 L77.3538723,6.85156364 Z" id="Shape" fill="#2C2255" sketch:type="MSShapeGroup"></path>
                <path d="M86.4497234,21.7202909 L86.4497234,30.9977455 L83.6140638,30.9977455 L83.6140638,6.85156364 L86.4497234,6.85156364 L86.4497234,9.50713636 C87.0430213,8.46638182 87.791766,7.69279091 88.6956809,7.18777273 C89.6004255,6.6836 90.6808085,6.43024545 91.9379362,6.43024545 C94.0226383,6.43024545 95.7165106,7.27316364 97.019,8.96069091 C98.3220426,10.6476545 98.9731489,12.8652818 98.9731489,15.6135727 C98.9731489,18.3629909 98.3220426,20.5806182 97.019,22.2667364 C95.7165106,23.9531364 94.0226383,24.7971818 91.9379362,24.7971818 C90.6808085,24.7971818 89.6004255,24.5446727 88.6956809,24.0393727 C87.7909362,23.5352 87.0421915,22.7618909 86.4497234,21.7202909 M96.0456596,15.6135727 C96.0456596,13.4999364 95.6188723,11.8417182 94.7655745,10.6394818 C93.9122766,9.43724545 92.7397872,8.83612727 91.2472766,8.83612727 C89.754766,8.83612727 88.582,9.43724545 87.7292553,10.6394818 C86.8759574,11.8425636 86.4488936,13.4999364 86.4488936,15.6135727 C86.4488936,17.7277727 86.8759574,19.3862727 87.7292553,20.5879455 C88.582,21.7913091 89.754766,22.3915818 91.2472766,22.3915818 C92.7397872,22.3915818 93.9122766,21.7904636 94.7655745,20.5879455 C95.6188723,19.3862727 96.0456596,17.7277727 96.0456596,15.6135727" id="Shape" fill="#2C2255" sketch:type="MSShapeGroup"></path>
                <path d="M112.239234,7.36757273 L112.239234,10.0854273 C111.441532,9.6689 110.614234,9.35664545 109.755681,9.1481 C108.897128,8.94011818 108.008426,8.83640909 107.088468,8.83640909 C105.68834,8.83640909 104.63866,9.05453636 103.938043,9.4922 C103.237979,9.92958182 102.888638,10.5853727 102.888638,11.4598545 C102.888638,12.1257909 103.137851,12.6494091 103.639319,13.0295818 C104.139957,13.4094727 105.145936,13.7710455 106.659191,14.1151455 L107.624234,14.3335545 C109.627064,14.7712182 111.050702,15.3872727 111.893766,16.1842545 C112.737106,16.9806727 113.158638,18.0924455 113.158638,19.5181636 C113.158638,21.1428455 112.527447,22.4282182 111.264511,23.3759727 C110.002681,24.3226 108.268149,24.7971818 106.061191,24.7971818 C105.141787,24.7971818 104.183383,24.7058727 103.186255,24.5241 C102.189681,24.3420455 101.140553,24.0684 100.036106,23.7040091 L100.036106,20.7361818 C101.079149,21.2888273 102.105596,21.7022545 103.117383,21.9784364 C104.12917,22.2543364 105.130447,22.3918636 106.121766,22.3918636 C107.450532,22.3918636 108.471723,22.1607727 109.187553,21.6971818 C109.903106,21.2333091 110.260191,20.5803364 110.260191,19.7371364 C110.260191,18.9562182 110.002404,18.3573545 109.48683,17.9405455 C108.970426,17.5240182 107.838596,17.1232727 106.090787,16.7374636 L105.110255,16.5038364 C103.363277,16.1290182 102.100617,15.5538273 101.324213,14.7782636 C100.547255,14.0027 100.159191,12.9382727 100.159191,11.5841364 C100.159191,9.9386 100.731191,8.66872727 101.876021,7.77367273 C103.020574,6.87805455 104.645574,6.42996364 106.750468,6.42996364 C107.792957,6.42996364 108.773489,6.50774545 109.693723,6.66387273 C110.614234,6.82112727 111.462277,7.05503636 112.239234,7.36757273" id="Shape" fill="#2C2255" sketch:type="MSShapeGroup"></path>
                <path d="M129.980638,14.8797182 L129.980638,16.2848636 L117.012447,16.2848636 C117.134979,18.2637909 117.719979,19.7706727 118.768,20.8063545 C119.814915,21.8428818 121.274511,22.3603 123.143745,22.3603 C124.227447,22.3603 125.277128,22.2253091 126.29417,21.9550455 C127.311489,21.6847818 128.319681,21.2781182 129.321787,20.7364636 L129.321787,23.4546 C128.309723,23.8922636 127.272489,24.2250909 126.209532,24.4547727 C125.147128,24.6836091 124.068957,24.7983091 122.976128,24.7983091 C120.237,24.7983091 118.068213,23.9863909 116.469489,22.3617091 C114.86966,20.7373091 114.070021,18.5413818 114.070021,15.7716727 C114.070021,12.9084 114.829,10.6355364 116.346128,8.95449091 C117.863532,7.2726 119.91117,6.43193636 122.485447,6.43193636 C124.794745,6.43193636 126.62166,7.18946364 127.965362,8.70423636 C129.308511,10.2176 129.980638,12.2765636 129.980638,14.8797182 L129.980638,14.8797182 Z M127.160191,14.0365182 C127.13917,12.4645364 126.707681,11.2098818 125.864064,10.2731182 C125.020723,9.33579091 123.904106,8.86740909 122.515596,8.86740909 C120.942043,8.86740909 119.682149,9.32029091 118.737298,10.2263364 C117.791894,11.1318182 117.246723,12.4076091 117.104553,14.0523 L127.160191,14.0365182 L127.160191,14.0365182 Z" id="Shape" fill="#2C2255" sketch:type="MSShapeGroup"></path>
                <g id="Group" transform="translate(7.468085, 12.963636)" sketch:type="MSShapeGroup">
                    <path d="M18.4359362,1.71599091 C18.3905745,1.14643636 18.2965319,0.590972727 18.1560213,0.0543909091 L0.312829787,0.0543909091 C0.172319149,0.590409091 0.078,1.14615455 0.0326382979,1.71599091 L18.4359362,1.71599091 L18.4359362,1.71599091 Z" id="Shape" fill="url(#linearGradient-1)"></path>
                    <path d="M18.4359362,3.25922727 L0.0329148936,3.25922727 C0.0782765957,3.82878182 0.172042553,4.38396364 0.312829787,4.92082727 L18.1562979,4.92082727 C18.2968085,4.38424545 18.3905745,3.82878182 18.4359362,3.25922727 L18.4359362,3.25922727 Z" id="Shape" fill="url(#linearGradient-2)"></path>
                    <path d="M9.23442553,11.8975182 C12.9399787,11.8975182 16.1341064,9.67312727 17.6050426,6.46378182 L0.863808511,6.46378182 C2.33474468,9.67312727 5.52887234,11.8975182 9.23442553,11.8975182 L9.23442553,11.8975182 Z" id="Shape" fill="url(#linearGradient-3)"></path>
                </g>
                <g id="Group" transform="translate(3.042553, 11.554545)" fill="#FFFFFF" sketch:type="MSShapeGroup">
                    <path d="M3.09455319,4.66831818 L4.44544681,4.66831818 L22.8960426,4.66831818 L25.3198511,4.66831818 L27.1611489,4.66831818 C27.1738723,4.42285455 27.1810638,4.1757 27.1810638,3.92657273 C27.1810638,3.65743636 27.171383,3.39083636 27.1564468,3.1248 L25.3195745,3.1248 L22.895766,3.1248 L4.44517021,3.1248 L2.99885106,3.1248 L0.140234043,3.1248 C0.125297872,3.39027273 0.115617021,3.65743636 0.115617021,3.92657273 C0.115617021,4.1757 0.122808511,4.42285455 0.135531915,4.66831818 L3.09455319,4.66831818 L3.09455319,4.66831818 Z" id="Shape"></path>
                    <path d="M5.23540426,-0.0794727273 L0.657191489,-0.0794727273 C0.506723404,0.423009091 0.409638298,0.938454545 0.316425532,1.46404545 L2.67440426,1.46404545 L4.68221277,1.46404545 L22.5721489,1.46404545 L25.105766,1.46404545 L26.9166383,1.46404545 C26.8231489,0.939018182 26.7028298,0.423572727 26.5526383,-0.0794727273" id="Shape"></path>
                    <path d="M25.1774043,6.32963636 L22.6437872,6.32963636 L4.75412766,6.32963636 L2.84229787,6.32963636 L0.316148936,6.32963636 C0.40687234,6.85466364 0.510042553,7.36982727 0.658021277,7.87287273 L5.30676596,7.87287273 L22.0911489,7.87287273 L24.8465957,7.87287273 L26.6411489,7.87287273 C26.7888511,7.37039091 26.9080638,6.85522727 26.9990638,6.32963636 L25.1774043,6.32963636 L25.1774043,6.32963636 Z" id="Shape"></path>
                </g>
            </g>
        </g>
    </g>
</svg>