<?xml version="1.0" encoding="UTF-8" standalone="no"?>
<svg width="200px" height="200px" viewBox="0 0 200 200" version="1.1" xmlns="http://www.w3.org/2000/svg" xmlns:xlink="http://www.w3.org/1999/xlink" xmlns:sketch="http://www.bohemiancoding.com/sketch/ns">
    <!-- Generator: Sketch 3.0.4 (8053) - http://www.bohemiancoding.com/sketch -->
    <title>Artboard 1</title>
    <desc>Created with Sketch.</desc>
    <defs></defs>
    <g id="Page-1" stroke="none" stroke-width="1" fill="none" fill-rule="evenodd" sketch:type="MSPage">
        <g id="Artboard-1" sketch:type="MSArtboardGroup">
            <g id="shape" sketch:type="MSLayerGroup" fill="#1F1B1C">
                <g id="dark" sketch:type="MSShapeGroup">
                    <polygon id="Polygon-2" transform="translate(100.000000, 100.000000) scale(1, -1) translate(-100.000000, -100.000000) " points="100 0 186.60254 50 186.60254 150 100 200 13.3974596 150 13.3974596 50 "></polygon>
                    <polygon id="Polygon-3" transform="translate(100.000000, 100.000000) scale(1, -1) translate(-100.000000, -100.000000) " points="100 0 195.105652 69.0983006 158.778525 180.901699 41.2214748 180.901699 4.89434837 69.0983006 "></polygon>
                </g>
            </g>
            <g id="Pacghost" sketch:type="MSLayerGroup" transform="translate(51.000000, 45.000000)" fill="#C9D4CA">
                <g id="layer1" sketch:type="MSShapeGroup">
                    <path d="M63.9592423,42.0382044 C63.9498847,47.074893 60.504419,51.1489281 56.263581,51.1378126 C52.0227416,51.1267014 48.5924486,47.0346459 48.6018066,41.9979558 C48.6111642,36.9612658 52.0566298,32.8872321 56.2974686,32.8983462 C60.531692,32.9094427 63.9592613,36.9892351 63.9592613,42.0180801" id="path2837-1" fill-opacity="0.155740489"></path>
                    <g id="g2830" transform="translate(0.029975, 0.030019)" fill-opacity="0.0756906703">
                        <path d="M32.1167883,99.886576 C25.0922073,99.837136 22.2831927,90.3503772 15.2665708,90.2798567 C8.24994905,90.2093363 6.37106321,98.4429561 0.0195483212,98.9196901 C-0.336265255,79.9195249 0.725314745,58.1933947 4.40374146,38.8838319 C4.95382978,35.996193 5.68134832,33.6389269 6.35249197,30.8765731 C6.10898044,34.8841462 5.36475051,37.182386 5.45956248,40.5673757 C5.25236321,48.2935088 9.5755638,57.1757719 17.8812686,58.4484898 C37.034254,59.7595351 39.7813022,37.4614547 30.9415927,24.8618246 C21.1449299,16.6979591 10.6331299,22.2262442 6.37744234,30.4111857 C7.38047358,27.1874444 9.38773285,23.1193421 10.2994905,21.5416287 C18.3409358,8.90128655 34.2728219,-0.482964912 49.3413139,-0.0329605263 C65.315146,-0.421255848 81.4705504,8.1309386 89.0649825,22.4142646 C99.640873,45.8025906 99.7874701,72.884848 99.8929766,98.3044518 C91.847181,99.0193348 92.3087723,90.3311842 83.9144058,90.2080877 C75.8863606,90.090364 74.7433839,99.5937982 66.5840496,99.7457807 C59.260965,99.8821871 56.9032146,91.5303304 49.4681255,90.4375731 C42.0933533,90.3677909 39.7521314,99.9403143 32.1167883,99.886576 L32.1167883,99.886576 Z M78.9088788,39.1285088 C79.6592015,18.1648611 53.1130613,14.7203406 48.7825533,35.1303275 C47.5018277,43.0468699 49.1546088,53.0714985 56.9639927,57.0617953 C69.8590934,62.9944971 78.5704073,51.3252164 78.9088788,39.1285088 L78.9088788,39.1285088 Z" id="path2832"></path>
                    </g>
                    <path d="M21.0123367,42.2700634 C21.0029791,47.306752 17.5575134,51.380787 13.3166754,51.3696715 C9.07583601,51.3585604 5.64554302,47.2665049 5.65490098,42.2298148 C5.66425864,37.1931248 9.10972419,33.1190911 13.350563,33.1302052 C17.5847864,33.1413017 21.0123557,37.2210941 21.0123557,42.2499391" id="path2837" fill-opacity="0.16"></path>
                </g>
            </g>
        </g>
    </g>
</svg>