<?xml version="1.0" encoding="UTF-8" standalone="no"?>
<svg width="200px" height="200px" viewBox="0 0 200 200" version="1.1" xmlns="http://www.w3.org/2000/svg" xmlns:xlink="http://www.w3.org/1999/xlink" xmlns:sketch="http://www.bohemiancoding.com/sketch/ns">
    <!-- Generator: Sketch 3.0.4 (8053) - http://www.bohemiancoding.com/sketch -->
    <title>Artboard 1</title>
    <desc>Created with Sketch.</desc>
    <defs>
        <radialGradient cx="50.2573988%" cy="50.0812717%" fx="50.2573988%" fy="50.0812717%" r="50%" id="radialGradient-1">
            <stop stop-color="#FBB7D4" offset="0.561798%"></stop>
            <stop stop-color="#E6360B" offset="67.42%"></stop>
            <stop stop-color="#891600" offset="100%"></stop>
        </radialGradient>
    </defs>
    <g id="Page-1" stroke="none" stroke-width="1" fill="none" fill-rule="evenodd" sketch:type="MSPage">
        <g id="Artboard-1" sketch:type="MSArtboardGroup">
            <g id="shape" sketch:type="MSLayerGroup" fill="#1F1B1C">
                <g id="dark" sketch:type="MSShapeGroup">
                    <polygon id="Polygon-2" transform="translate(100.000000, 100.000000) scale(1, -1) translate(-100.000000, -100.000000) " points="100 0 186.60254 50 186.60254 150 100 200 13.3974596 150 13.3974596 50 "></polygon>
                    <polygon id="Polygon-3" transform="translate(100.000000, 100.000000) scale(1, -1) translate(-100.000000, -100.000000) " points="100 0 195.105652 69.0983006 158.778525 180.901699 41.2214748 180.901699 4.89434837 69.0983006 "></polygon>
                </g>
            </g>
            <g id="flash" sketch:type="MSLayerGroup" transform="translate(39.000000, 39.000000)">
                <g id="Group" sketch:type="MSShapeGroup">
                    <circle id="Oval" fill="url(#radialGradient-1)" cx="61" cy="61" r="61"></circle>
                    <g transform="translate(28.913295, 21.861272)" id="Shape">
                        <path d="M33.8144509,13.7443931 C33.8144509,13.7443931 33.8144509,13.7514451 33.8144509,13.7443931 C31.3321387,16.8684393 29.2306358,20.4015029 27.5593064,24.2660116 L23.0319075,35.3165318 C23.0248555,35.3447399 23.0107514,35.365896 23.0036994,35.394104 C21.5650867,39.4701734 20.1969942,42.8339884 19.0475145,45.125896 C19.0404624,45.147052 19.0334104,45.1611561 19.0193064,45.1823121 C17.5877457,48.3204624 16.2901734,50.626474 15.0419653,52.2413873 C13.5469364,54.0960694 11.9884393,55.3865896 10.1760694,56.2610405 C8.16624277,57.1989595 5.89549133,57.6643931 3.25803468,57.6643931 C2.31306358,57.6643931 1.55144509,58.4260116 1.55144509,59.3709827 L1.55144509,73.3974566 C1.55144509,74.3424277 2.31306358,75.1040462 3.25803468,75.1040462 C13.6879769,75.1040462 22.2350289,71.070289 28.673526,63.1085549 C30.5705202,60.6121387 32.2347977,57.9253179 33.7932948,54.8717919 C33.8073988,54.8435838 33.8215029,54.8083237 33.8356069,54.7801156 C33.8356069,54.7801156 36.5224277,48.6378035 37.220578,47.0440462 L52.1849711,47.0440462 C53.1299422,47.0440462 53.8915607,46.2753757 53.8915607,45.3374566 L53.8915607,31.3744509 C53.8915607,30.4294798 53.1299422,29.6678613 52.1849711,29.6678613 L44.2726012,29.6678613 C44.9002312,28.4055491 45.5278613,27.2701734 46.1695954,26.2758382 C47.3120231,24.5339884 48.4262428,23.2152601 49.4840462,22.3831214 C49.4981503,22.3690173 49.5193064,22.3549133 49.5404624,22.3408092 C50.8450867,21.2195376 52.1708671,20.4508671 53.7082081,19.9219653 C55.3865896,19.3366474 57.1989595,19.0545665 59.2440462,19.0545665 C60.1890173,19.0545665 60.9506358,18.292948 60.9506358,17.3479769 L60.9506358,3.45549133 C60.9506358,2.51052023 60.1819653,1.74890173 59.2440462,1.74890173 C48.7576879,1.74184971 40.2035838,5.78265896 33.8144509,13.7443931 L33.8144509,13.7443931 Z" fill="#FFFFFF"></path>
                        <path d="M59.2369942,0.0352601156 C48.2076301,0.0352601156 39.2021965,4.28763006 32.4816185,12.6724855 C32.4816185,12.6795376 32.4745665,12.6795376 32.4745665,12.6865896 C29.9076301,15.9234682 27.7215029,19.5834682 25.9937572,23.5819653 C25.9867052,23.6031214 25.9796532,23.6242775 25.9655491,23.6454335 L21.4522543,34.6677457 C21.4310983,34.7171098 21.4099422,34.773526 21.3958382,34.8228902 C19.6046243,39.8862428 18.3,42.8057803 17.5242775,44.3572254 C17.5101734,44.3924855 17.4890173,44.4277457 17.4749133,44.4630058 C16.1068208,47.4530636 14.8797688,49.6462428 13.730289,51.1553757 C12.3833526,52.8196532 11.0293642,53.9479769 9.46381503,54.7095954 C7.67260116,55.5417341 5.64867052,55.9507514 3.27213873,55.9507514 C1.38924855,55.9507514 -0.141040462,57.4810405 -0.141040462,59.3639306 L-0.141040462,73.3904046 C-0.141040462,75.2803468 1.38924855,76.8035838 3.27213873,76.8035838 C14.2380347,76.8035838 23.2364162,72.5582659 30.0204624,64.1734104 C30.0416185,64.1452023 30.0627746,64.1169942 30.0909827,64.0887861 C32.0091329,61.5500578 33.7298266,58.7856647 35.3376879,55.6404624 C35.365896,55.5769942 35.4011561,55.513526 35.4293642,55.4571098 L38.3700578,48.7435838 L52.2202312,48.7435838 C54.1031214,48.7435838 55.6334104,47.2132948 55.6334104,45.3304046 L55.6334104,31.3673988 C55.6334104,29.4845087 54.1031214,27.9542197 52.2202312,27.9542197 L47.1639306,27.9542197 C47.3190751,27.6932948 47.4742197,27.439422 47.6293642,27.1996532 C47.6223121,27.2067052 47.6223121,27.2137572 47.6152601,27.2208092 C48.6660116,25.62 49.6603468,24.4423121 50.5700578,23.7230058 C50.6053179,23.6947977 50.640578,23.6665896 50.6758382,23.6383815 C51.8182659,22.6652023 52.9677457,21.9952601 54.293526,21.5368786 C55.7885549,21.0220809 57.4175723,20.7682081 59.2652023,20.7682081 C61.1480925,20.7682081 62.6783815,19.2379191 62.6783815,17.3550289 L62.6783815,3.46254335 C62.6572254,1.56554913 61.1269364,0.0352601156 59.2369942,0.0352601156 L59.2369942,0.0352601156 L59.2369942,0.0352601156 Z M3.25803468,59.3709827 C6.19872832,59.3709827 8.73040462,58.8209249 10.9235838,57.7983815 C12.9052023,56.8393064 14.6893642,55.4006936 16.4030058,53.2780347 C17.7710983,51.5009249 19.1391908,49.0327168 20.5778035,45.8875145 C21.6708671,43.6943353 23.0389595,40.4080925 24.6186127,35.9653179 L29.1319075,24.9430058 C30.9090173,20.8387283 33.0316763,17.4819653 35.1543353,14.8163006 C41.2472832,7.22127168 49.2513295,3.45549133 59.2440462,3.45549133 L59.2440462,17.3479769 C56.9168786,17.3479769 54.9282081,17.693526 53.1510983,18.307052 C51.3739884,18.920578 49.8648555,19.816185 48.4262428,21.043237 C47.1286705,22.0728324 45.8945665,23.5749133 44.7309827,25.3520231 C43.6379191,27.0656647 42.6083237,29.0472832 41.5857803,31.3744509 L44.9989595,31.3744509 L45.3374566,31.3744509 L52.1920231,31.3744509 L52.1920231,45.3374566 L36.1063584,45.3374566 L32.2771098,54.0960694 C30.7045087,57.1778035 29.0613873,59.772948 27.3477457,62.0366474 C21.2547977,69.5682081 13.2507514,73.3974566 3.25803468,73.3974566 L3.25803468,59.3709827 L3.25803468,59.3709827 L3.25803468,59.3709827 Z" fill="#B12401"></path>
                    </g>
                </g>
            </g>
        </g>
    </g>
</svg>