<?xml version="1.0" encoding="UTF-8" standalone="no"?>
<svg width="200px" height="200px" viewBox="0 0 200 200" version="1.1" xmlns="http://www.w3.org/2000/svg" xmlns:xlink="http://www.w3.org/1999/xlink" xmlns:sketch="http://www.bohemiancoding.com/sketch/ns">
    <!-- Generator: Sketch 3.0.4 (8053) - http://www.bohemiancoding.com/sketch -->
    <title>Artboard 1</title>
    <desc>Created with Sketch.</desc>
    <defs></defs>
    <g id="Page-1" stroke="none" stroke-width="1" fill="none" fill-rule="evenodd" sketch:type="MSPage">
        <g id="Artboard-1" sketch:type="MSArtboardGroup">
            <g id="shape" sketch:type="MSLayerGroup" fill="#1F1B1C">
                <g id="dark" sketch:type="MSShapeGroup">
                    <polygon id="Polygon-2" transform="translate(100.000000, 100.000000) scale(1, -1) translate(-100.000000, -100.000000) " points="100 0 186.60254 50 186.60254 150 100 200 13.3974596 150 13.3974596 50 "></polygon>
                    <polygon id="Polygon-3" transform="translate(100.000000, 100.000000) scale(1, -1) translate(-100.000000, -100.000000) " points="100 0 195.105652 69.0983006 158.778525 180.901699 41.2214748 180.901699 4.89434837 69.0983006 "></polygon>
                </g>
            </g>
            <g id="github" sketch:type="MSLayerGroup" transform="translate(34.000000, 52.089844)" fill="#FDFDFD">
                <path d="M1.64416688,52.6341628 C7.39113361,51.1987938 15.2051258,49.243832 28.8953215,48.8802188 C28.517024,48.1234758 28.1753606,47.3400152 27.8728753,46.5321272 C22.5456737,46.4858167 6.13921581,47.2425597 0.519196236,48.6313638 C0.487395844,48.6412875 0.453305825,48.6435775 0.419215805,48.6435775 C0.231211891,48.6435775 0.057963359,48.5143155 0.0116619891,48.3239847 C-0.0420170716,48.1018473 0.0945974098,47.8725852 0.318980971,47.8163511 C5.88786551,46.4397607 21.8987266,45.6756386 27.5701356,45.6903969 C26.2937951,41.9364529 25.7300377,37.6356895 25.7300377,32.8346717 C25.7300377,24.3064274 28.3852432,21.0893791 31.9527383,16.5445953 C29.2245191,6.82525693 32.9314272,0.181491023 32.9314272,0.181491023 C32.9314272,0.181491023 38.6638929,-1.0070586 49.5012119,6.75451901 C55.3751258,4.23797957 71.0356737,4.02831036 78.4446561,6.19574039 C82.9933841,3.1886157 91.3100769,-1.07779651 94.6679438,0.115587715 C95.5756542,1.57996431 97.5330319,5.84408644 95.8539712,15.21686 C96.9959868,17.2720763 102.916457,21.6509567 102.940625,34.0280559 C102.842934,38.5924325 102.36949,42.4463765 101.491036,45.7071908 C115.620586,45.5875979 123.932445,46.7542646 129.657278,47.8087175 C129.881916,47.8550279 130.033286,48.0723307 129.994108,48.2993027 C129.955184,48.4995572 129.779392,48.6435775 129.584265,48.6435775 C129.555008,48.6435775 129.530586,48.6412875 129.501329,48.6387429 C123.785909,47.5794554 115.459803,46.4176233 101.247063,46.5468854 C100.998002,47.3743663 100.71994,48.1603714 100.4172,48.9097353 C105.254167,49.070804 118.539098,49.5883613 129.374128,52.9028651 C129.598766,52.9713129 129.720625,53.2054096 129.652445,53.4300915 C129.598766,53.6082086 129.432895,53.7252569 129.252269,53.7252569 C129.213345,53.7252569 129.169333,53.7204223 129.13041,53.7059185 C118.14401,50.3473943 104.57084,49.8860712 100.056457,49.7369618 C96.1274546,58.3702951 88.0694898,61.5919236 75.0430319,62.9318727 C79.2648518,65.589888 80.4753019,68.9237302 80.4753019,77.9453587 C80.4753019,86.9664783 80.3534428,88.1771653 80.3826992,90.2514656 C80.4267109,93.6568091 85.4145387,95.2868345 85.2293332,96.3827633 C85.0438733,97.4766564 81.0563587,97.300575 79.1920925,96.6491755 C73.9111923,94.8089719 74.4380612,90.4150788 74.4380612,90.4150788 L74.262523,78.3529923 C74.262523,78.3529923 74.6237755,71.8603714 72.227298,71.8603714 L72.227298,91.6038829 C72.227298,95.8947226 75.2290005,97.1982849 75.2290005,98.7847989 C75.2290005,101.511262 69.7433058,98.5262747 68.0543234,96.824748 C65.4762021,94.2374707 65.7692745,88.7509567 65.8326209,84.411262 C65.8911336,80.2201679 65.7936972,71.0550279 65.7936972,71.0550279 L64.0441669,71.0919236 C64.0441669,71.0919236 64.7615837,91.1138065 63.1217011,94.7624071 C61.001251,99.4463765 54.6050475,101.057572 54.6050475,98.9239847 C54.6050475,97.4886157 56.1813293,97.9453587 57.05266,94.7285648 C57.7967892,91.992178 57.5431493,71.5797099 57.5431493,71.5797099 C57.5431493,71.5797099 55.4934232,72.7929414 55.4934232,76.6150788 C55.4934232,78.3649516 55.4445778,88.360117 55.4445778,91.3356895 C55.4445778,95.0774198 50.1318773,97.2079541 47.5791962,97.2079541 C46.2858107,97.2079541 44.6777285,97.1448498 44.6777285,96.4590992 C44.6777285,94.7285648 49.5365739,93.7127887 49.5365739,90.1127887 C49.5365739,86.9911602 49.4681395,78.9611348 49.4681395,78.9611348 C49.4681395,78.9611348 47.0179829,79.3804732 43.5235015,79.3804732 C34.7140299,79.3804732 31.9270436,73.7570635 30.6018577,70.6107531 C28.8764956,66.5127887 26.6387657,64.587089 24.2618773,63.0491755 C22.8026209,62.1046462 22.4657911,60.9891246 24.1545191,60.6718218 C31.9537559,59.2026106 33.9475133,69.5173689 39.1551454,71.1598625 C42.8717207,72.3341628 47.6499203,71.8262747 50.0268088,70.2886157 C50.3417598,67.1372162 52.6112902,64.4135521 54.502523,62.9784376 C41.2565152,61.7066819 33.403345,57.1059185 29.3328949,49.7099898 C15.4765739,50.0420508 7.61399076,52.0092264 1.84997901,53.4491755 C1.43021385,53.5542646 1.0203704,53.6565546 0.625027938,53.7568091 C0.590937919,53.7639338 0.556593496,53.7664783 0.522503476,53.7664783 C0.334499562,53.7664783 0.163795061,53.6395063 0.11494966,53.4491755 C0.0587265683,53.224748 0.197885081,52.9952315 0.422523046,52.9389974 C0.81939193,52.8412875 1.22694575,52.7415419 1.64416688,52.6341628 L1.64416688,52.6341628 Z" id="XMLID_1_" sketch:type="MSShapeGroup"></path>
            </g>
        </g>
    </g>
</svg>