<?xml version="1.0" encoding="UTF-8" standalone="no"?>
<svg width="200px" height="200px" viewBox="0 0 200 200" version="1.1" xmlns="http://www.w3.org/2000/svg" xmlns:xlink="http://www.w3.org/1999/xlink" xmlns:sketch="http://www.bohemiancoding.com/sketch/ns">
    <!-- Generator: Sketch 3.0.4 (8053) - http://www.bohemiancoding.com/sketch -->
    <title>Artboard 1</title>
    <desc>Created with Sketch.</desc>
    <defs></defs>
    <g id="Page-1" stroke="none" stroke-width="1" fill="none" fill-rule="evenodd" sketch:type="MSPage">
        <g id="Artboard-1" sketch:type="MSArtboardGroup">
            <g id="shape" sketch:type="MSLayerGroup" fill="#1F1B1C">
                <g id="dark" sketch:type="MSShapeGroup">
                    <polygon id="Polygon-2" transform="translate(100.000000, 100.000000) scale(1, -1) translate(-100.000000, -100.000000) " points="100 0 186.60254 50 186.60254 150 100 200 13.3974596 150 13.3974596 50 "></polygon>
                    <polygon id="Polygon-3" transform="translate(100.000000, 100.000000) scale(1, -1) translate(-100.000000, -100.000000) " points="100 0 195.105652 69.0983006 158.778525 180.901699 41.2214748 180.901699 4.89434837 69.0983006 "></polygon>
                </g>
            </g>
            <g id="grunt" sketch:type="MSLayerGroup" transform="translate(37.000000, 41.000000)">
                <g id="Layer_1_1_" transform="translate(18.777778, 0.000000)" sketch:type="MSShapeGroup">
                    <g id="Group">
                        <path d="M5.73877778,29.4080567 C5.73877778,29.4080567 7.81047222,37.400197 8.10586111,40.0647254 C8.40233333,42.7285313 2.77911111,48.6485015 2.77911111,51.6088478 C2.77911111,54.569194 3.96138889,59.8971672 10.4729444,62.5616955 C16.9845,65.2258627 17.8713889,72.0336478 17.8713889,76.1787104 C17.8713889,80.3226896 15.5043056,88.3141075 15.5043056,88.3141075 C15.5043056,88.3141075 14.0251944,108.146549 22.0147778,111.698531 C30.0043611,115.250152 28.2295,115.250152 30.0043611,115.250152 C31.7795833,115.250152 44.8016111,120.57957 52.4954444,118.5074 C60.19,116.43523 62.26025,114.067603 62.26025,114.067603 C62.26025,114.067603 69.9555278,114.658878 72.3226111,107.850009 C74.6911389,101.042585 76.1698889,86.8346567 75.2819167,80.3219672 C74.3939444,73.8089164 73.2105833,65.2262239 78.5369722,62.2655164 C83.8651667,59.3051701 89.4873056,55.7542716 88.5993333,52.7935642 C87.7113611,49.8332179 82.9775556,45.6888776 82.9775556,45.6888776 C82.9775556,45.6888776 81.7934722,38.2894567 82.6807222,36.5131045 C83.5679722,34.7371134 88.8954444,30.2958716 85.9357778,27.0404299 C82.9779167,23.7846269 77.6493611,23.7846269 77.6493611,23.7846269 L70.8435,24.3759015 C70.8435,24.3759015 59.3020278,14.0161343 44.2090278,14.6081313 C29.11675,15.2001284 19.6458889,24.3759015 19.6458889,24.3759015 C19.6458889,24.3759015 14.6156111,22.5999104 10.1761111,24.3759015 C5.73661111,26.1526149 4.85152778,24.3755403 5.73877778,29.4080567 L5.73877778,29.4080567 Z" id="Shape" fill="#FBA919"></path>
                        <path d="M32.7798611,73.4802299 C32.7798611,73.4802299 26.9193889,82.4432597 22.6207222,88.8038866 C21.9555556,89.7877791 26.9193889,89.8560448 26.9193889,89.8560448 L32.7798611,73.4802299 L32.7798611,73.4802299 Z" id="Shape" fill="#E78724"></path>
                        <path d="M35.5701667,54.8975194 C35.5701667,54.8975194 33.8036111,59.3058925 32.8358333,61.6428179 C31.7853611,64.1834567 27.7802778,65.4472746 27.7802778,65.4472746 C27.7802778,65.4472746 29.8563056,63.2692746 29.8563056,57.7516746 C29.8563056,55.4367821 32.8441389,54.5164597 32.8441389,54.5164597 L35.5701667,54.8975194 L35.5701667,54.8975194 Z" id="Shape" fill="#E78724"></path>
                        <path d="M33.7855556,57.3901194 C33.7855556,57.3901194 30.1661389,61.6995254 23.4458611,59.2860269 C16.7241389,56.8732507 16.0351389,48.2533552 16.0351389,45.8398567 C16.0351389,43.4263582 28.7885,48.2533552 30.5124444,49.2878149 C32.2363889,50.3222746 35.5087778,54.4590299 33.7855556,57.3901194 L33.7855556,57.3901194 Z" id="Shape" fill="#E78724"></path>
                        <path d="M8.39980556,11.3411313 C8.39980556,11.3411313 14.6036944,10.1336597 18.7395,13.4093284 C22.8771111,16.6842746 24.0817778,19.2707851 24.0817778,19.2707851 L17.1105278,24.7981373 C17.1105278,24.7981373 13.7420833,23.2359731 12.7078611,18.7535552 C11.674,14.2714985 12.3633611,12.2033015 8.39980556,11.3411313 L8.39980556,11.3411313 Z" id="Shape" fill="#E78724"></path>
                        <path d="M31.9760278,44.9422896 C29.3048889,41.1497522 24.9029444,39.4954836 21.38825,39.2213373 C15.39525,38.7525075 12.5500556,40.8716328 12.5500556,40.8716328 C12.5500556,40.8716328 22.3650556,41.2873672 25.194,45.0036925 C30.4604444,51.9205582 38.1434444,52.4825761 39.3719444,50.963394 C37.9513333,51.0341881 36.3884444,50.3302209 34.7157778,48.748191 C33.6707222,47.7585194 32.8235556,46.1461493 31.9760278,44.9422896 L31.9760278,44.9422896 Z" id="Shape" fill="#E78724"></path>
                        <path d="M15.4071667,58.3523403 C15.4071667,58.3523403 4.51713889,54.6078418 6.58702778,50.8160269 C8.65475,47.0231284 7.00880556,44.9567373 7.00880556,44.9567373 C7.00880556,44.9567373 0.928055556,49.4969463 2.47758333,54.3232209 C3.42983333,57.2857343 5.02738889,59.4305045 13.7998611,63.5426985 C18.0075278,71.3600209 14.6686944,85.4310567 14.86875,85.4971552 C15.2020556,85.6080418 20.7765278,82.7412448 20.3959167,69.576806 C20.28,65.5343224 19.9568056,60.0156388 15.4071667,58.3523403 L15.4071667,58.3523403 Z" id="Shape" fill="#E78724"></path>
                        <path d="M29.6775556,18.0864299 C25.1113056,20.4067403 18.8557778,23.6379821 18.8557778,23.6379821 L21.3178333,24.8700149 C21.08275,25.2507134 20.9693611,25.4779045 20.9693611,25.4779045 L23.4964167,26.6272239 C23.4964167,26.6272239 29.6652778,31.097 33.4450278,33.9706597 C32.18475,30.0892687 28.4855278,23.991591 28.4855278,23.991591 C28.4855278,23.991591 27.4372222,21.189809 29.6775556,18.0864299 L29.6775556,18.0864299 Z" id="Shape" fill="#E78724"></path>
                        <path d="M44.84675,112.668699 C30.8118056,112.668699 26.0577778,105.541979 26.0577778,105.541979 L28.2511667,110.8844 C29.0802778,113.195681 37.9246111,120.387776 44.8254444,120.387776" id="Shape" fill="#E78724"></path>
                        <path d="M27.59575,100.72654 C27.59575,100.72654 28.8870833,108.620075 34.0574722,108.620075 C38.4511111,108.620075 39.7456944,101.952433 39.7456944,100.574478 L27.59575,100.72654 L27.59575,100.72654 Z" id="Shape" fill="#E78724"></path>
                        <path d="M18.9915556,88.8219463 C19.4508889,87.5570448 21.0592778,82.4432597 21.5760278,77.7892746 C22.1953333,72.2153284 21.9696389,64.0628179 21.9696389,64.0628179 C21.9696389,64.0628179 20.5901944,69.4066836 19.3837222,70.2702985 C18.1779722,71.1317463 15.9369167,76.9921194 15.9369167,76.9921194 C15.9369167,76.9921194 14.7365833,85.7171224 14.1653056,88.6496567 C15.74625,88.9664239 17.0773056,88.0345433 18.9915556,88.8219463 L18.9915556,88.8219463 Z" id="Shape" fill="#E78724"></path>
                        <path d="M6.50577778,54.2376179 C6.50577778,54.2376179 9.43475,53.2024358 10.2974444,46.825194 C11.1586944,40.4465075 9.2625,34.9303522 9.2625,34.9303522 C9.2625,34.9303522 9.43475,43.7218149 8.40125,45.4461552 C7.36630556,47.1694119 6.50577778,47.6866418 5.29858333,49.9282119 C4.09138889,52.1701433 5.81533333,53.5477373 6.50577778,54.2376179 L6.50577778,54.2376179 Z" id="Shape" fill="#E78724"></path>
                        <path id="Shape" fill="#FDC168" d="M10.0031389,12.8498388 L9.40513889,12.4709463 C7.64183333,12.5305433 10.0031389,12.8498388 10.0031389,12.8498388 L10.0031389,12.8498388 Z"></path>
                        <path d="M32.0616111,16.1981075 C32.0616111,16.1981075 29.3048889,15.7386687 27.9254444,13.6704716 C26.546,11.6015522 22.6402222,7.46371343 16.4135833,7.4174806 C10.1873056,7.37088657 4.02711111,9.07283284 4.02711111,9.07283284 L9.40441667,12.4713075 C9.97316667,12.4528866 10.9676667,12.4604716 12.6121667,12.5153731 C19.3606111,12.7396746 20.3995278,19.4163463 20.3995278,19.4163463 L44.1830278,16.1406776" id="Shape" fill="#FBA919"></path>
                        <path d="M34.3600833,53.0745731 C34.3600833,53.0745731 31.1425833,56.2928119 26.2015,55.2576299 C21.2604167,54.2238925 18.2725833,52.0401134 18.0429167,48.2472149 C17.81325,44.4546776 19.0778611,42.9607791 19.0778611,42.9607791 C19.0778611,42.9607791 24.5923889,44.6858418 27.2364444,46.9844806 C29.8790556,49.282397 31.8319444,52.9600746 34.3600833,53.0745731 L34.3600833,53.0745731 Z" id="Shape" fill="#FFFFFF"></path>
                        <path d="M30.4662222,51.9248925 C30.4662222,51.9248925 27.6759167,53.1999075 24.557,52.1614746 C20.4742778,50.7994119 20.2023611,46.5524925 20.2023611,46.5524925 C20.2023611,46.5524925 17.6976944,53.9042358 24.7198611,55.319394 C30.3521111,56.4542657 33.683,53.189794 33.683,53.189794 L30.4662222,51.9248925 L30.4662222,51.9248925 Z" id="Shape" fill="#C9C9C9"></path>
                        <path d="M32.4490833,14.6384716 C32.149,8.33346866 37.3165,3.31178806 39.1068889,3.09796119 C39.2058333,4.16637313 39.0072222,8.33382985 40.79725,9.61534627 C41.3183333,6.21145373 43.0805556,2.45864776 50.0391667,0 C48.5488611,3.95362985 49.8401944,7.26541791 50.4551667,8.80049254 C55.2070278,4.48639104 58.4086389,5.19938806 58.4086389,5.19938806 C58.4086389,5.19938806 55.107,10.8979463 56.3983333,14.6370269 C46.8592222,13.888994 32.4956667,15.6508985 32.4490833,14.6384716 L32.4490833,14.6384716 Z" id="Shape" fill="#463014"></path>
                        <path d="M12.2261389,24.2422597 C9.95005556,22.3535761 11.6465556,20.6007015 11.4667222,18.4548478 C11.3688611,17.3131134 11.2785833,16.2356716 10.9023056,15.6415075 C8.80786111,12.3333313 3.86677778,11.3295731 3.81730556,11.3190985 L1.49825,10.8647164 L3.03333333,9.06849851 C3.23230556,8.83588955 9.53658333,2.8194806 19.2923611,5.96981493 C26.1166389,8.17129254 31.1685833,15.6364507 31.3567222,15.9380478 L27.9348333,17.5475284 C27.89475,17.4839582 23.9008611,10.4670418 18.0461667,8.5787194 C13.3134444,7.05122985 8.95158333,8.50431343 7.08319444,9.45678209 C9.06930556,10.2499642 11.6660556,11.6943791 13.23075,14.1653075 C13.9688611,15.3323254 14.0934444,16.8016627 14.2136944,18.224406 C14.3722222,20.1080328 14.5206389,21.886191 15.9065833,23.0376776 L12.2261389,24.2422597 L12.2261389,24.2422597 Z" id="Shape" fill="#463014"></path>
                        <path d="M6.14719444,51.8132836 C6.14719444,51.8132836 9.01477778,48.256606 9.86411111,41.3357672 C10.1977778,38.6098358 9.60519444,33.2331015 8.65691667,31.1645433 C8.82916667,36.249794 7.53675,41.3357672 7.53675,41.3357672 C7.53675,41.3357672 6.66538889,50.7788239 6.14719444,51.8132836 L6.14719444,51.8132836 Z" id="Shape" fill="#463014"></path>
                        <path d="M21.268,20.6501851 C21.2665556,20.6426 20.3478889,16.627206 17.8009722,14.6001851 C14.2082778,11.7416955 9.8215,13.2623224 9.77925,13.2756866 L9.14225,11.3075403 C9.35458333,11.2385522 14.3686111,9.65832836 18.9893889,12.9072687 C23.6379722,16.1746299 24.1958889,19.1364209 24.2442778,19.4636627 L21.268,20.6501851 L21.268,20.6501851 Z" id="Shape" fill="#463014"></path>
                        <path d="M15.1536667,49.2625313 C15.1536667,49.2625313 13.6492778,47.1083701 13.91975,44.7392985 C14.0544444,43.569391 14.5964722,42.3684209 15.56425,41.9422119 C17.3625833,41.1519194 18.1595556,43.1908597 18.1595556,43.1908597 C18.1595556,43.1908597 15.6285278,43.8157254 15.1536667,49.2625313 L15.1536667,49.2625313 Z" id="Shape" fill="#463014"></path>
                        <path d="M31.6719722,52.5457851 C31.7348056,52.6631731 31.7669444,52.7289104 31.7669444,52.7289104 C31.7669444,52.7289104 27.0746667,56.2512746 22.26575,52.6768985 C19.69175,50.7618478 19.9347778,46.0247881 20.7234444,44.0158269 C22.7741944,44.4806836 24.5136667,45.3186537 25.9675,46.2971284 C24.1301667,44.6569463 22.5217778,43.4494746 22.5261111,43.4216627 L20.4378056,42.8303881 L16.3789167,41.4383463 C16.3269167,41.7478896 14.8463611,48.6889552 19.11975,53.4184299 C21.0137778,55.5155224 29.8935,60.2117672 34.1094722,52.1817015 L31.6719722,52.5457851 L31.6719722,52.5457851 Z" id="Shape" fill="#463014"></path>
                        <path d="M31.2325,53.0619313 C33.8743889,57.0838269 40.5401389,54.7855493 40.4253056,50.5335731 C40.4253056,50.5335731 35.9713611,52.9922209 32.0363333,48.4653761 C29.7389444,45.8225194 22.3773333,38.5354299 12.3940556,40.9572358 C19.2883889,42.4735284 28.4154722,48.7738358 31.2325,53.0619313 L31.2325,53.0619313 Z" id="Shape" fill="#463014"></path>
                        <path d="M11.4613056,64.4128149 C12.0968611,64.7801493 14.3382778,67.1019045 14.3397222,70.5744239 C14.3397222,72.3157403 14.1663889,81.0634985 13.3047778,86.4077254 C14.6008056,87.2500299 15.5035833,87.4291821 16.7941944,88.2877403 C17.4402222,82.0983194 17.9035278,73.1277045 17.6875833,69.5063731 C17.4405833,65.3782866 15.2309444,62.6079284 13.1816389,61.4264627 C12.5399444,61.0573224 11.8693611,60.6943224 11.1940833,60.3291552 C7.68408333,58.4321642 4.05455556,56.469797 4.05455556,53.119 C4.05455556,50.4978149 5.07325,49.6779045 6.15188889,48.8088716 L6.26816667,48.7146 C6.98388889,48.1363284 7.79386111,47.4804 8.27377778,46.4033194 C9.58316667,43.4585045 9.79730556,35.9572269 8.27377778,34.0530119 C7.51436111,33.1041552 5.4795,29.9133672 6.0645,27.7693194 C6.28730556,26.9508537 6.80261111,26.344409 7.64147222,25.9145881 C8.52908333,25.4598448 9.72833333,25.229403 11.2045556,25.229403 C14.1042778,25.229403 17.3203333,26.1121612 18.9796389,26.6376985 C24.9087222,28.5173522 32.0630556,33.9367075 34.1138056,35.5530507 C34.1726667,35.5982 34.2073333,35.6245672 34.2134722,35.6289015 L35.52575,36.5416388 L34.7049444,35.1680179 C34.6543889,35.0824149 29.4565556,26.5336746 20.1626389,23.3992328 C18.3545556,22.7895373 14.8023056,21.7662746 11.3114444,21.7662746 C9.23288889,21.7662746 7.46922222,22.1292746 6.07280556,22.8444388 C4.37088889,23.7152776 3.21822222,25.104791 2.73938889,26.8612776 C1.56577778,31.1670716 5.38813889,35.9612 5.5185,36.1143463 C5.96411111,36.9100567 6.15297222,42.6902448 5.12344444,45.0036925 C4.98188889,45.3229881 4.59369444,45.6368657 4.10222222,46.0334567 C3.94838889,46.1580687 3.77613889,46.2873761 3.59377778,46.4257134 C2.14138889,47.5222985 -0.0548888889,49.1790955 -0.0548888889,52.998 C-0.0548888889,58.223394 5.23972222,61.0566 9.49469444,63.3346507 C10.1927222,63.7102925 10.8589722,64.0657075 11.4613056,64.4128149 L11.4613056,64.4128149 Z" id="Shape" fill="#463014"></path>
                        <g transform="translate(0.722222, 4.695522)" id="Shape" fill="#463014">
                            <path d="M11.5039167,19.5467373 C9.22783333,17.6580537 10.9243333,15.9051791 10.7445,13.7593254 C10.6466389,12.617591 10.5563611,11.5401493 10.1800833,10.9459851 C8.08563889,7.63780896 3.14455556,6.63405075 3.09508333,6.62357612 L0.776027778,6.16919403 L2.31111111,4.37297612 C2.51008333,4.14036716 8.81436111,-1.87604179 18.5701389,1.27429254 C25.3944167,3.47577015 30.4463611,10.9409284 30.6345,11.2425254 L27.2126111,12.852006 C27.1725278,12.7884358 23.1786389,5.7715194 17.3239444,3.88319701 C12.5912222,2.35570746 8.22936111,3.80879104 6.36097222,4.7612597 C8.34708333,5.55444179 10.9438333,6.99885672 12.5085278,9.46978507 C13.2466389,10.636803 13.3712222,12.1061403 13.4914722,13.5288836 C13.65,15.4125104 13.7984167,17.1906687 15.1843611,18.3421552 L11.5039167,19.5467373 L11.5039167,19.5467373 Z"></path>
                            <path d="M11.4298889,19.9335761 L11.2829167,19.8118537 C9.59508333,18.4107821 9.89444444,17.0306597 10.1844167,15.6953254 C10.3162222,15.0791284 10.45525,14.4419821 10.3989167,13.7885821 C10.3068333,12.6898299 10.2183611,11.653203 9.88758333,11.1298328 C7.89316667,7.9802209 3.07341667,6.97104478 3.02575,6.96129254 L0.129277778,6.39313433 L2.04930556,4.14795224 C2.08433333,4.10605373 6.13202778,0.0191432836 12.9873611,0.0191432836 C14.8561111,0.0191432836 16.7707222,0.330131343 18.6755833,0.94560597 C25.7981389,3.2428 30.8793333,10.9828269 30.9273611,11.0594 L31.1328333,11.3880866 L27.0851389,13.2923015 L26.9226389,13.034409 C26.4871389,12.291794 22.64925,5.96114627 17.2199444,4.20935522 C15.8863611,3.77881194 14.4816389,3.56137313 13.0455,3.56137313 C10.4444167,3.56137313 8.33516667,4.27039701 7.21283333,4.74645075 C9.08844444,5.59128358 11.3630833,7.01330448 12.8024722,9.28377015 C13.585,10.5204985 13.71175,12.0320955 13.8359722,13.492403 C13.9883611,15.3084866 14.1324444,17.0162119 15.4060833,18.0737881 L15.8867222,18.4725463 L11.4298889,19.9335761 L11.4298889,19.9335761 Z"></path>
                        </g>
                        <g transform="translate(8.666667, 10.474627)" id="Shape" fill="#463014">
                            <path d="M12.6013333,10.1755582 C12.5998889,10.1679731 11.6812222,6.1525791 9.13430556,4.12555821 C5.54161111,1.26706866 1.15483333,2.78769552 1.11258333,2.8010597 L0.475583333,0.832913433 C0.687916667,0.763925373 5.70194444,-0.816298507 10.3227222,2.43264179 C14.9713056,5.70000299 15.5292222,8.66179403 15.5776111,8.98903582 L12.6013333,10.1755582 L12.6013333,10.1755582 Z"></path>
                            <path d="M12.3543333,10.6451104 L12.2647778,10.2499642 C12.2553889,10.2113164 11.3544167,6.33317612 8.91872222,4.39609254 C7.53061111,3.29047761 5.8565,2.72918209 3.94586111,2.72918209 C2.45447222,2.72918209 1.34622222,3.0853194 1.22525,3.12721791 L0.895916667,3.2366597 L0.0415277778,0.611140299 L0.369055556,0.505310448 C0.516027778,0.458716418 1.84672222,0.0437044776 3.72919444,0.0437044776 C6.21255556,0.0437044776 8.5605,0.77259403 10.5220556,2.15018806 C15.2869167,5.4995403 15.8686667,8.5967791 15.9185,8.93846866 L15.9603889,9.20864179 L12.3543333,10.6451104 L12.3543333,10.6451104 Z M3.94622222,2.04074627 C5.98722222,2.04074627 7.85669444,2.66850149 9.34880556,3.85538507 C11.5115,5.5782806 12.52875,8.61989552 12.8364167,9.7103403 L15.18075,8.77593134 C14.9684167,7.94807463 14.0338611,5.4634209 10.1251944,2.71509552 C8.255,1.40034925 6.10386111,0.734307463 3.72955556,0.734307463 C2.42666667,0.734307463 1.41447222,0.941632836 0.914333333,1.06805075 L1.33719444,2.37521194 C1.82758333,2.24337612 2.77116667,2.04074627 3.94622222,2.04074627 L3.94622222,2.04074627 Z"></path>
                        </g>
                        <path d="M33.8415278,106.726334 L33.8415278,106.726334 C32.8231944,106.726334 31.7839167,106.356833 31.0635,105.733051 C30.5120833,105.257719 28.6473056,103.544576 27.8250556,101.445678 C27.5181111,100.660803 27.5870833,100.033048 28.0323333,99.581194 C28.3392778,99.2716507 28.9762778,98.9014269 30.2694167,98.9014269 L31.1895278,98.8999821 C32.2858611,98.8988985 34.1318611,98.8988985 35.7095556,98.8988985 L37.22225,98.8988985 C38.2059167,98.8988985 38.9111667,99.1116418 39.3166944,99.5262925 C39.8374167,100.061582 39.6705833,100.742433 39.5250556,101.100737 C39.2715556,101.728493 38.2225278,103.771406 36.4465833,105.670564 C35.8106667,106.351054 34.8851389,106.726334 33.8415278,106.726334 L33.8415278,106.726334 Z" id="Shape" fill="#463014"></path>
                        <path d="M34.9089722,53.2985134 L31.2321389,53.0619313 C31.2321389,53.0619313 32.1721111,54.7190896 32.7809444,56.8624149 C33.4685,59.2867493 32.15225,62.8297015 32.15225,62.8297015 C32.15225,62.8297015 37.0546944,57.2781493 34.9089722,53.2985134 L34.9089722,53.2985134 Z" id="Shape" fill="#463014"></path>
                        <path d="M30.31925,116.437036 C17.2329444,115.43111 12.6287778,103.062743 12.6287778,100.486707 L16.0463333,100.488152 L14.3375556,100.486707 L16.0463333,100.486707 C16.0633056,101.600269 19.5411667,112.180364 30.5810556,113.029531 L30.31925,116.437036 L30.31925,116.437036 Z" id="Shape" fill="#463014"></path>
                        <path d="M26.6416944,94.2774209 C26.4373056,93.0952328 26.416,91.9740866 26.6655278,90.8724448 C25.6710278,90.1247731 23.8864167,89.8470149 22.5474167,89.4128597 C21.4525278,88.7197284 15.8495278,90.1233284 11.7845,85.2027821 C6.69138889,79.0411731 7.76316667,75.3624119 7.76316667,75.3624119 C6.45738889,76.8136896 5.19169444,76.2607015 3.20125,83.0273104 C1.20791667,89.7953642 4.13688889,94.5136418 9.59580556,99.2503403 C12.1748611,101.487937 15.8206389,102.409704 18.9565278,102.762591 C17.9060556,101.707543 20.7508889,101.602075 22.7117222,100.868128 C22.5553611,99.2846537 22.8171667,97.7474119 23.9976389,96.5096 C24.7093889,95.7633731 25.6251667,95.3172985 26.57525,94.9618836 C26.6283333,94.8390776 26.6731111,94.7256627 26.7236667,94.6079134 C26.69225,94.5002776 26.6615556,94.3915582 26.6416944,94.2774209 L26.6416944,94.2774209 Z" id="Shape" fill="#FFFFFF"></path>
                        <path d="M22.6853611,100.826952 C22.5719722,100.494654 22.4863889,100.155854 22.40225,99.8148866 C22.3116111,99.4424955 21.8602222,98.3874478 22.4166944,99.5920299 C22.2736944,99.2835701 22.1801667,98.9657194 22.1111944,98.6453403 C13.2704722,98.6341433 5.57916667,92.5628328 7.06513889,79.798597 C5.90777778,78.2617164 4.28711111,82.8976418 4.28711111,82.8976418 C4.28711111,82.8976418 -0.138666667,95.7518149 11.2919444,100.733764 C15.1005833,102.395257 18.4665,103.586113 19.2605833,103.105364 C20.9148333,103.441636 22.4080278,102.287982 22.9681111,101.529475 C22.8630278,101.296504 22.7673333,101.063173 22.6853611,100.826952 L22.6853611,100.826952 Z" id="Shape" fill="#C9C9C9"></path>
                        <path d="M26.4824444,92.4266627 C26.4961667,91.3492209 26.7160833,90.3057313 27.2368056,89.2658537 C27.2732778,89.1943373 27.3155278,89.1257104 27.3545278,89.056 C23.9525,89.0267433 20.0344444,88.7009463 16.6981389,87.3652507 C13.0310556,85.8980806 8.44386111,80.8785672 7.65555556,74.980991 C7.65555556,74.980991 0.749305556,80.3114925 2.77875,91.7208896 C4.68361111,102.434627 13.64675,105.927373 23.8690833,106.518287 C23.8745,106.448937 22.7193056,104.062167 23.0843889,102.601137 C17.2798889,103.023012 10.7889167,100.779997 7.65555556,95.6228687 C4.78688889,90.9027851 5.59144444,82.8441851 6.77047222,81.6634418 C9.64636111,90.7398866 19.9943611,92.5848657 26.4824444,92.4266627 L26.4824444,92.4266627 Z" id="Shape" fill="#463014"></path>
                        <path d="M27.5535,85.9287821 C25.714,91.3282716 21.9566389,95.697997 21.9566389,95.697997 C21.9566389,95.697997 27.1252222,95.4628597 27.4105,94.5479552 C27.62175,93.873606 32.0775,83.4405164 33.7877222,71.218794 C32.1789722,73.8623731 27.7109444,85.4664537 27.5535,85.9287821 L27.5535,85.9287821 Z" id="Shape" fill="#463014"></path>
                        <path d="M56.8363611,73.4802299 C56.8363611,73.4802299 62.6953889,82.4432597 66.9955,88.8038866 C67.6606667,89.7877791 62.6953889,89.8560448 62.6953889,89.8560448 L56.8363611,73.4802299 L56.8363611,73.4802299 Z" id="Shape" fill="#E78724"></path>
                        <path d="M54.0453333,54.8975194 C54.0453333,54.8975194 55.81225,59.3058925 56.7785833,61.6428179 C57.8290556,64.1834567 61.8337778,65.4472746 61.8337778,65.4472746 C61.8337778,65.4472746 59.7581111,63.2692746 59.7581111,57.7516746 C59.7581111,55.4367821 56.7706389,54.5164597 56.7706389,54.5164597 L54.0453333,54.8975194 L54.0453333,54.8975194 Z" id="Shape" fill="#E78724"></path>
                        <path d="M55.8295833,57.3901194 C55.8295833,57.3901194 59.449,61.6995254 66.1710833,59.2860269 C72.8931667,56.8725284 73.5818056,48.2533552 73.5818056,45.8398567 C73.5818056,43.4263582 60.8284444,48.2533552 59.1045,49.2878149 C57.3805556,50.3222746 54.1067222,54.4590299 55.8295833,57.3901194 L55.8295833,57.3901194 Z" id="Shape" fill="#E78724"></path>
                        <path d="M81.2160556,11.3411313 C81.2160556,11.3411313 75.0121667,10.1336597 70.8749167,13.4093284 C66.7391111,16.6842746 65.5322778,19.2707851 65.5322778,19.2707851 L72.5038889,24.7977761 C72.5038889,24.7977761 75.8737778,23.2356119 76.908,18.753194 C77.9415,14.2714985 77.2525,12.2033015 81.2160556,11.3411313 L81.2160556,11.3411313 Z" id="Shape" fill="#E78724"></path>
                        <path d="M57.6398333,44.9422896 C60.3109722,41.1497522 64.7114722,39.4954836 68.2276111,39.2213373 C74.2209722,38.7525075 77.0647222,40.8716328 77.0647222,40.8716328 C77.0647222,40.8716328 67.2497222,41.2873672 64.4204167,45.0036925 C59.1536111,51.9205582 51.4731389,52.4825761 50.2446389,50.963394 C51.6648889,51.0341881 53.2285,50.3302209 54.9000833,48.748191 C55.9447778,47.7585194 56.7923056,46.1461493 57.6398333,44.9422896 L57.6398333,44.9422896 Z" id="Shape" fill="#E78724"></path>
                        <path d="M74.2086944,58.3523403 C74.2086944,58.3523403 85.0972778,54.6078418 83.0291944,50.8160269 C80.9614722,47.0231284 82.6059722,44.9567373 82.6059722,44.9567373 C82.6059722,44.9567373 88.6881667,49.4969463 87.1371944,54.3232209 C86.1849444,57.2857343 84.5873889,59.4305045 75.8149167,63.5426985 C71.60725,71.3600209 74.9460833,85.4310567 74.7471111,85.4971552 C74.4134444,85.6080418 68.8396944,82.7412448 69.2203056,69.576806 C69.3358611,65.5343224 69.6590556,60.0156388 74.2086944,58.3523403 L74.2086944,58.3523403 Z" id="Shape" fill="#E78724"></path>
                        <path d="M59.9386667,18.0864299 C64.5034722,20.4067403 70.7600833,23.6379821 70.7600833,23.6379821 L68.2983889,24.8700149 C68.5334722,25.2507134 68.6472222,25.4779045 68.6472222,25.4779045 L66.1201667,26.6272239 C66.1201667,26.6272239 59.9509444,31.097 56.1711944,33.9706597 C57.4300278,30.0892687 61.12925,23.991591 61.12925,23.991591 C61.12925,23.991591 62.1793611,21.189809 59.9386667,18.0864299 L59.9386667,18.0864299 Z" id="Shape" fill="#E78724"></path>
                        <path d="M44.7698333,112.668699 C58.8026111,112.668699 63.5566389,105.541979 63.5566389,105.541979 L61.3646944,110.8844 C60.5355833,113.195681 51.6905278,120.387776 44.7911389,120.387776" id="Shape" fill="#E78724"></path>
                        <path d="M62.0201111,100.72654 C62.0201111,100.72654 60.7273333,108.620075 55.5583889,108.620075 C51.1654722,108.620075 49.8705278,101.952433 49.8705278,100.574478 L62.0201111,100.72654 L62.0201111,100.72654 Z" id="Shape" fill="#E78724"></path>
                        <path d="M70.6243056,88.8219463 C70.1649722,87.5570448 68.5565833,82.4432597 68.0383889,77.7892746 C67.4190833,72.2153284 67.6462222,64.0628179 67.6462222,64.0628179 C67.6462222,64.0628179 69.0253056,69.4066836 70.2303333,70.2702985 C71.4378889,71.1317463 73.6775,76.9921194 73.6775,76.9921194 C73.6775,76.9921194 74.8778333,85.7171224 75.4491111,88.6496567 C73.8685278,88.9664239 72.5389167,88.0345433 70.6243056,88.8219463 L70.6243056,88.8219463 Z" id="Shape" fill="#E78724"></path>
                        <path d="M83.1111667,54.2376179 C83.1111667,54.2376179 80.18075,53.2024358 79.3195,46.825194 C78.45825,40.4465075 80.3540833,34.9303522 80.3540833,34.9303522 C80.3540833,34.9303522 80.18075,43.7218149 81.2153333,45.4461552 C82.2502778,47.1701343 83.1111667,47.6866418 84.318,49.9282119 C85.5233889,52.1697821 83.8001667,53.5477373 83.1111667,54.2376179 L83.1111667,54.2376179 Z" id="Shape" fill="#E78724"></path>
                        <path id="Shape" fill="#FDC168" d="M79.6123611,12.8498388 L80.2114444,12.4709463 C81.9751111,12.5305433 79.6123611,12.8498388 79.6123611,12.8498388 L79.6123611,12.8498388 Z"></path>
                        <path d="M57.5531667,16.1981075 C57.5531667,16.1981075 60.3113333,15.7386687 61.6893333,13.6704716 C63.0684167,11.6015522 66.9756389,7.46371343 73.2026389,7.4174806 C79.4289167,7.37088657 85.5891111,9.07283284 85.5891111,9.07283284 L80.2114444,12.4713075 C79.6426944,12.4528866 78.6481944,12.4604716 77.00225,12.5153731 C70.2548889,12.7396746 69.2159722,19.4163463 69.2159722,19.4163463 L45.4331944,16.1406776" id="Shape" fill="#FBA919"></path>
                        <path d="M55.2557778,53.0745731 C55.2557778,53.0745731 58.4732778,56.2928119 63.4132778,55.2576299 C68.3547222,54.2238925 71.3421944,52.0401134 71.5722222,48.2472149 C71.8015278,44.4546776 70.5383611,42.9607791 70.5383611,42.9607791 C70.5383611,42.9607791 65.0223889,44.6858418 62.3797778,46.9844806 C59.7371667,49.2831194 57.7842778,52.9600746 55.2557778,53.0745731 L55.2557778,53.0745731 Z" id="Shape" fill="#FFFFFF"></path>
                        <path d="M59.1485556,51.9248925 C59.1485556,51.9248925 61.9399444,53.1999075 65.0577778,52.1614746 C69.1415833,50.7994119 69.4135,46.5524925 69.4135,46.5524925 C69.4135,46.5524925 71.9167222,53.9042358 64.8945556,55.319394 C59.2633889,56.4542657 55.9317778,53.189794 55.9317778,53.189794 L59.1485556,51.9248925 L59.1485556,51.9248925 Z" id="Shape" fill="#C9C9C9"></path>
                        <path d="M77.3893611,24.2422597 C79.6654444,22.3535761 77.9703889,20.6007015 78.1502222,18.4548478 C78.2462778,17.3131134 78.3365556,16.2356716 78.7131944,15.6415075 C80.808,12.3333313 85.7487222,11.3295731 85.7996389,11.3190985 L88.1190556,10.8647164 L86.5836111,9.06849851 C86.3846389,8.83588955 80.0803611,2.8194806 70.3231389,5.96981493 C63.4999444,8.17129254 58.448,15.6364507 58.2602222,15.9380478 L61.6806667,17.5475284 C61.7221944,17.4839582 65.7164444,10.4670418 71.5711389,8.5787194 C76.3035,7.05122985 80.6653611,8.50431343 82.5326667,9.45678209 C80.5476389,10.2499642 77.9498056,11.6943791 76.3851111,14.1653075 C75.647,15.3323254 75.5235,16.8016627 75.4036111,18.224406 C75.2450833,20.1080328 75.0952222,21.886191 73.7089167,23.0376776 L77.3893611,24.2422597 L77.3893611,24.2422597 Z" id="Shape" fill="#463014"></path>
                        <path d="M83.4672222,51.8132836 C83.4672222,51.8132836 80.6010833,48.256606 79.75175,41.3357672 C79.4180833,38.6098358 80.0095833,33.2331015 80.9575,31.1645433 C80.78525,36.249794 82.07875,41.3357672 82.07875,41.3357672 C82.07875,41.3357672 82.9504722,50.7788239 83.4672222,51.8132836 L83.4672222,51.8132836 Z" id="Shape" fill="#463014"></path>
                        <path d="M68.3478611,20.6501851 C68.3493056,20.6426 69.2679722,16.627206 71.81525,14.6001851 C75.4075833,11.7416955 79.7947222,13.2623224 79.8355278,13.2756866 L80.4743333,11.3075403 C80.2612778,11.2385522 75.2479722,9.65832836 70.62575,12.9072687 C65.9771667,16.1746299 65.4206944,19.1364209 65.3708611,19.4636627 L68.3478611,20.6501851 L68.3478611,20.6501851 Z" id="Shape" fill="#463014"></path>
                        <path d="M74.4621944,49.2625313 C74.4621944,49.2625313 75.9665833,47.1083701 75.6946667,44.7392985 C75.5614167,43.569391 75.0193889,42.3684209 74.0516111,41.9422119 C72.2532778,41.1519194 71.4559444,43.1908597 71.4559444,43.1908597 C71.4559444,43.1908597 73.9873333,43.8157254 74.4621944,49.2625313 L74.4621944,49.2625313 Z" id="Shape" fill="#463014"></path>
                        <path d="M57.94425,52.5457851 C57.8814167,52.6631731 57.8489167,52.7289104 57.8489167,52.7289104 C57.8489167,52.7289104 62.53975,56.2512746 67.3486667,52.6768985 C69.9244722,50.7618478 69.6810833,46.0247881 68.8909722,44.0158269 C66.8413056,44.4806836 65.1021944,45.3186537 63.6476389,46.2971284 C65.4853333,44.6569463 67.0937222,43.4494746 67.0879444,43.4216627 L69.1776944,42.8303881 L73.2362222,41.4390687 C73.2882222,41.7486119 74.7684167,48.6896776 70.4935833,53.4191522 C68.5999167,55.5162448 59.7201944,60.2124896 55.5053056,52.1824239 L57.94425,52.5457851 L57.94425,52.5457851 Z" id="Shape" fill="#463014"></path>
                        <path d="M58.3822778,53.0619313 C55.7403889,57.0838269 49.0764444,54.7855493 49.1916389,50.5335731 C49.1916389,50.5335731 53.6441389,52.9922209 57.5791667,48.4653761 C59.8765556,45.8225194 67.2396111,38.5354299 77.2225278,40.9572358 C70.3285556,42.4735284 61.20075,48.7738358 58.3822778,53.0619313 L58.3822778,53.0619313 Z" id="Shape" fill="#463014"></path>
                        <path d="M78.1556389,64.4128149 C77.5197222,64.7801493 75.2772222,67.1019045 75.2772222,70.5744239 C75.2757778,72.3157403 75.4494722,81.0634985 76.3121667,86.4077254 C75.0157778,87.2500299 74.113,87.4291821 72.8223889,88.2877403 C72.1763611,82.0983194 71.7116111,73.1277045 71.929,69.5063731 C72.1756389,65.3782866 74.3845556,62.6079284 76.4335,61.4264627 C77.0751944,61.0573224 77.7461389,60.6943224 78.4228611,60.3291552 C81.9328611,58.4321642 85.5623889,56.469797 85.5623889,53.119 C85.5623889,50.4978149 84.5426111,49.6779045 83.4639722,48.8088716 L83.3491389,48.7146 C82.6334167,48.1363284 81.822,47.4804 81.3435278,46.4033194 C80.0337778,43.4585045 79.8189167,35.9572269 81.3420833,34.0530119 C82.1015,33.1041552 84.1378056,29.9133672 83.5528056,27.7693194 C83.3285556,26.9508537 82.8128889,26.344409 81.9743889,25.9145881 C81.0864167,25.4598448 79.8889722,25.229403 78.4113056,25.229403 C75.5133889,25.229403 72.2955278,26.1121612 70.6376667,26.6376985 C64.7085833,28.5173522 57.55425,33.9367075 55.5020556,35.5530507 C55.4435556,35.5982 55.4096111,35.6245672 55.4031111,35.6289015 L54.0901111,36.5416388 L54.9109167,35.1680179 C54.9629167,35.0824149 60.1596667,26.5336746 69.4532222,23.3992328 C71.2616667,22.7895373 74.8135556,21.7662746 78.3047778,21.7662746 C80.3833333,21.7662746 82.1451944,22.1292746 83.5430556,22.8444388 C85.2453333,23.7152776 86.3972778,25.104791 86.8768333,26.8612776 C88.0504444,31.1670716 84.2277222,35.9612 84.0973611,36.1143463 C83.65175,36.9100567 83.46325,42.6902448 84.4913333,45.0036925 C84.6328889,45.3229881 85.0210833,45.6368657 85.5136389,46.0334567 C85.6674722,46.1580687 85.8382778,46.2873761 86.0220833,46.4257134 C87.4748333,47.5222985 89.6700278,49.1790955 89.6700278,52.998 C89.6700278,58.223394 84.3754167,61.0566 80.1218889,63.3346507 C79.4231389,63.7102925 78.7561667,64.0657075 78.1556389,64.4128149 L78.1556389,64.4128149 Z" id="Shape" fill="#463014"></path>
                        <path d="M71.8394444,23.6275075 C70.9973333,22.200791 68.8436667,19.4459642 63.8798333,17.0252418 C58.3403889,14.324594 51.9292222,12.9538627 44.8214722,12.9506119 L44.8214722,12.9491672 L44.80775,12.9491672 L44.7940278,12.9491672 L44.7940278,12.9498896 C37.6851944,12.9535015 31.2729444,14.3242328 25.7349444,17.0245194 C20.7711111,19.445603 18.6181667,22.2000687 17.7753333,23.6267851 L17.4138611,24.1053672 L21.6645,25.0516955 L21.7991944,24.8815731 L21.8703333,24.7255373 C21.9360556,24.4445284 22.5058889,22.9275134 27.2451111,20.6158716 C32.3115,18.1442209 38.2207222,16.8912388 44.8070278,16.8890716 C51.3940556,16.8912388 57.30075,18.1442209 62.3667778,20.6158716 C67.1063611,22.9275134 67.678,24.4445284 67.743,24.7255373 L67.8137778,24.8815731 L67.9470278,25.0516955 L72.1991111,24.1053672 L71.8394444,23.6275075 L71.8394444,23.6275075 Z" id="Shape" fill="#463014"></path>
                        <g transform="translate(57.777778, 4.695522)" id="Shape" fill="#463014">
                            <path d="M19.6115833,19.5467373 C21.8876667,17.6580537 20.1926111,15.9051791 20.3724444,13.7593254 C20.4685,12.617591 20.5587778,11.5401493 20.9354167,10.9459851 C23.0302222,7.63780896 27.9709444,6.63405075 28.0218611,6.62357612 L30.3412778,6.16919403 L28.8058333,4.37297612 C28.6068611,4.14036716 22.3025833,-1.87604179 12.5453611,1.27429254 C5.72216667,3.47577015 0.670222222,10.9409284 0.482444444,11.2425254 L3.90288889,12.852006 C3.94441667,12.7884358 7.93866667,5.7715194 13.7933611,3.88319701 C18.5257222,2.35570746 22.8875833,3.80879104 24.7548889,4.7612597 C22.7698611,5.55444179 20.1720278,6.99885672 18.6073333,9.46978507 C17.8692222,10.636803 17.7457222,12.1061403 17.6258333,13.5288836 C17.4673056,15.4125104 17.3174444,17.1906687 15.9311389,18.3421552 L19.6115833,19.5467373 L19.6115833,19.5467373 Z"></path>
                            <path d="M15.2309444,18.473991 L15.7097778,18.0752328 C16.9845,17.0176567 17.1275,15.3095701 17.2813333,13.4938478 C17.4048333,12.0328179 17.5323056,10.5212209 18.3148333,9.28521493 C19.7527778,7.01547164 22.0292222,5.59308955 23.9044722,4.74753433 C22.7817778,4.27184179 20.6721667,3.56281791 18.0707222,3.56281791 C16.6338611,3.56281791 15.2316667,3.78025672 13.8977222,4.2108 C8.46697222,5.96259104 4.62944444,12.2932388 4.19502778,13.0358537 L4.03216667,13.2933851 L-0.0155277778,11.3895313 L0.190305556,11.0608448 C0.237972222,10.9842716 5.31772222,3.24424478 12.4406389,0.947050746 C14.3455,0.331576119 16.25975,0.0209492537 18.1303056,0.0209492537 C24.9852778,0.0209492537 29.0333333,4.10858209 29.068,4.14975821 L30.9880278,6.3949403 L28.0911944,6.96309851 C28.0431667,6.97285075 23.2237778,7.98130448 21.2279167,11.1316388 C20.8971389,11.6553701 20.8104722,12.6909134 20.7165833,13.7903881 C20.6620556,14.4441493 20.7992778,15.0812955 20.9328889,15.6971313 C21.2225,17.0324657 21.5215,18.4136716 19.8329444,19.8136597 L19.6863333,19.9353821 L15.2309444,18.473991 L15.2309444,18.473991 Z"></path>
                        </g>
                        <g transform="translate(65.000000, 10.474627)" id="Shape" fill="#463014">
                            <path d="M3.34786111,10.1755582 C3.34930556,10.1679731 4.26797222,6.1525791 6.81525,4.12555821 C10.4075833,1.26706866 14.7947222,2.78769552 14.8355278,2.8010597 L15.4743333,0.832913433 C15.2612778,0.763925373 10.2479722,-0.816298507 5.62575,2.43264179 C0.977166667,5.70000299 0.420694444,8.66179403 0.370861111,8.98903582 L3.34786111,10.1755582 L3.34786111,10.1755582 Z"></path>
                            <path d="M-0.00902777778,9.20864179 L0.0310555556,8.93846866 C0.0816111111,8.5967791 0.663722222,5.50026269 5.42786111,2.15018806 C7.38797222,0.77259403 9.73663889,0.0437044776 12.22,0.0437044776 C14.1035556,0.0437044776 15.43425,0.45799403 15.5815833,0.505310448 L15.90875,0.611140299 L15.0547222,3.2366597 L14.7250278,3.12721791 C14.6018889,3.0856806 13.494,2.72918209 12.0033333,2.72918209 C10.0930556,2.72918209 8.42002778,3.28975522 7.03191667,4.39609254 C4.59586111,6.33389851 3.69416667,10.2116776 3.68586111,10.2499642 L3.59630556,10.6443881 L-0.00902777778,9.20864179 L-0.00902777778,9.20864179 Z M14.6123611,2.37521194 L15.0366667,1.06805075 C14.5361667,0.940910448 13.5228889,0.734307463 12.22,0.734307463 C9.84605556,0.734307463 7.69419444,1.40107164 5.82508333,2.71509552 C1.91497222,5.46414328 0.980416667,7.94807463 0.768444444,8.77593134 L3.11458333,9.7103403 C3.42152778,8.61917313 4.43769444,5.57755821 6.60147222,3.85538507 C8.09466667,2.66850149 9.96197222,2.04074627 12.0029722,2.04074627 C13.1765833,2.04074627 14.1219722,2.24337612 14.6123611,2.37521194 L14.6123611,2.37521194 Z"></path>
                        </g>
                        <path d="M53.1707222,105.670564 C51.3951389,103.771767 50.3446667,101.728493 50.0908056,101.100737 C49.9456389,100.743155 49.78025,100.061582 50.3009722,99.5262925 C50.7068611,99.1116418 51.4103056,98.8988985 52.3939722,98.8988985 L53.90775,98.8988985 C55.4854444,98.8988985 57.3303611,98.8988985 58.4274167,98.8999821 L59.3475278,98.9014269 C60.6399444,98.9014269 61.2765833,99.2712896 61.5831667,99.581194 C62.0287778,100.032325 62.0984722,100.660081 61.7915278,101.445678 C60.9692778,103.544937 59.1041389,105.258081 58.5527222,105.733051 C57.8305,106.356833 56.79375,106.726334 55.7754167,106.726334 L55.7754167,106.726334 C54.7314444,106.726334 53.8066389,106.351054 53.1707222,105.670564 L53.1707222,105.670564 Z" id="Shape" fill="#463014"></path>
                        <path d="M54.7076111,53.2985134 L58.3822778,53.0619313 C58.3822778,53.0619313 57.44375,54.7190896 56.8349167,56.8624149 C56.1473611,59.2867493 57.4636111,62.8297015 57.4636111,62.8297015 C57.4636111,62.8297015 52.5608056,57.2781493 54.7076111,53.2985134 L54.7076111,53.2985134 Z" id="Shape" fill="#463014"></path>
                        <path d="M44.8084722,40.1687493 C42.4652222,40.1687493 39.4098611,40.1044567 37.1175278,38.4566896 C37.1175278,38.4566896 40.1190833,43.7196478 44.8045,43.7196478 L44.8084722,43.053606 L44.8124444,43.7196478 C49.4982222,43.7196478 52.4994167,38.4566896 52.4994167,38.4566896 C50.2070833,40.1044567 47.1495556,40.1687493 44.8084722,40.1687493 L44.8084722,40.1687493 Z" id="Shape" fill="#E78724"></path>
                        <path d="M51.2604444,40.1434657 C48.9099722,41.566209 46.8108333,42.0592388 44.8084722,42.1029433 C42.80575,42.0592388 40.7073333,41.566209 38.3565,40.1434657 C38.3565,40.1434657 41.7794722,44.321397 44.7911389,44.3535433 L44.7911389,44.3560716 C44.7965556,44.3560716 44.8019722,44.3546269 44.8081111,44.3546269 C44.8135278,44.3546269 44.8189444,44.3560716 44.8250833,44.3560716 L44.8250833,44.3535433 C47.8360278,44.321397 51.2604444,40.1434657 51.2604444,40.1434657 L51.2604444,40.1434657 Z" id="Shape" fill="#463014"></path>
                        <path d="M59.2969722,116.437036 L59.0348056,113.02917 C70.0721667,112.180003 73.5500278,101.599907 73.5680833,100.486346 L76.9856389,100.486346 C76.9870833,103.062021 72.3814722,115.43111 59.2969722,116.437036 L59.2969722,116.437036 Z" id="Shape" fill="#463014"></path>
                        <path d="M62.9738056,94.2774209 C63.1792778,93.0952328 63.1991389,91.9740866 62.9499722,90.8724448 C63.9459167,90.1247731 65.7290833,89.8470149 67.0680833,89.4128597 C68.1629722,88.7197284 73.7674167,90.1233284 77.8324444,85.2027821 C82.9255556,79.0411731 81.8523333,75.3624119 81.8523333,75.3624119 C83.1591944,76.8136896 84.4238056,76.2607015 86.4156944,83.0273104 C88.4090278,89.7953642 85.4786111,94.5136418 80.0196944,99.2503403 C77.441,101.487937 73.7948611,102.409704 70.6589722,102.762591 C71.7094444,101.707543 68.8646111,101.602075 66.9048611,100.868128 C67.0615833,99.2846537 66.7983333,97.7474119 65.6182222,96.5096 C64.9079167,95.7633731 63.9906944,95.3172985 63.0413333,94.9618836 C62.9878889,94.8390776 62.9420278,94.7256627 62.8929167,94.6079134 C62.9243333,94.5002776 62.9539444,94.3915582 62.9738056,94.2774209 L62.9738056,94.2774209 Z" id="Shape" fill="#FFFFFF"></path>
                        <path d="M66.9290556,100.826952 C67.0438889,100.494654 67.1280278,100.155854 67.2121667,99.8148866 C67.30425,99.4424955 67.7556389,98.3874478 67.1984444,99.5920299 C67.3414444,99.2835701 67.4349722,98.9657194 67.5039444,98.6453403 C76.3446667,98.6341433 84.0359722,92.5628328 82.5485556,79.798597 C83.7059167,78.2617164 85.3276667,82.8976418 85.3276667,82.8976418 C85.3276667,82.8976418 89.7538056,95.7518149 78.3231944,100.733764 C74.5145556,102.395257 71.149,103.586113 70.3545556,103.105364 C68.6988611,103.441636 67.2056667,102.287982 66.6470278,101.529475 C66.7513889,101.296504 66.84925,101.063173 66.9290556,100.826952 L66.9290556,100.826952 Z" id="Shape" fill="#C9C9C9"></path>
                        <path d="M63.1319722,92.4266627 C63.1196944,91.3492209 62.8983333,90.3057313 62.3790556,89.2658537 C62.3422222,89.1943373 62.2999722,89.1257104 62.2613333,89.056 C65.663,89.0267433 69.5814167,88.7009463 72.9177222,87.3652507 C76.5844444,85.8980806 81.1716389,80.8785672 81.9603056,74.980991 C81.9603056,74.980991 88.8665556,80.3114925 86.8371111,91.7208896 C84.9308056,102.434627 75.96875,105.927373 65.7467778,106.518287 C65.7413611,106.448937 66.8969167,104.062167 66.5314722,102.601137 C72.3345278,103.023012 78.8255,100.779997 81.9606667,95.6228687 C84.8275278,90.9027851 84.0233333,82.8441851 82.8443056,81.6634418 C79.9695,90.7398866 69.6204167,92.5848657 63.1319722,92.4266627 L63.1319722,92.4266627 Z" id="Shape" fill="#463014"></path>
                        <g transform="translate(20.944444, 92.104478)" id="Shape" fill="#463014">
                            <path d="M46.3153889,3.00946866 C45.0941111,1.68894328 42.8487222,0.114859701 37.6714722,0.114859701 C37.6714722,0.114859701 27.85575,0.109080597 23.8813611,0.106552239 L23.8813611,0.106552239 L23.8643889,0.106552239 L23.8474167,0.106552239 L23.8474167,0.106552239 C19.8733889,0.109441791 10.0551389,0.114859701 10.0551389,0.114859701 C4.87933333,0.114859701 2.63394444,1.68930448 1.41194444,3.00946866 C-0.367972222,4.93138209 -0.647111111,7.6049403 0.584277778,10.9467075 C3.85630556,19.8414716 8.45433333,28.8781851 23.8466944,28.8908269 L23.8466944,28.8922716 C23.8524722,28.8922716 23.8575278,28.8908269 23.8636667,28.8908269 C23.8690833,28.8908269 23.8745,28.8922716 23.8806389,28.8922716 L23.8806389,28.8908269 C39.2715556,28.8774627 43.8695833,19.8414716 47.1426944,10.9467075 C48.3740833,7.6049403 48.0942222,4.93138209 46.3153889,3.00946866 L46.3153889,3.00946866 Z M43.9190556,10.3229254 C42.3601389,14.7894507 38.1705278,25.6007104 23.8633056,25.6194925 C9.55427778,25.6007104 5.36611111,14.7898119 3.80719444,10.3229254 C2.9445,7.84477313 3.01022222,6.01099104 4.00905556,4.87178507 C4.69119444,4.09305075 6.25841667,3.16369851 9.83016667,3.16369851 L13.5615278,3.16225373 C16.3142778,3.15972537 19.7704722,3.15683582 23.8636667,3.15539104 C27.9554167,3.15683582 31.4134167,3.15972537 34.1654444,3.16225373 L37.8953611,3.16369851 C41.4681944,3.16369851 43.0350556,4.09268955 43.7175556,4.87178507 C44.7153056,6.01207463 44.78175,7.84477313 43.9190556,10.3229254 L43.9190556,10.3229254 Z"></path>
                        </g>
                        <path d="M62.0616389,85.9287821 C63.9011389,91.3282716 67.6581389,95.697997 67.6581389,95.697997 C67.6581389,95.697997 62.4899167,95.4628597 62.2042778,94.5479552 C61.9944722,93.873606 57.5383611,83.4405164 55.8281389,71.218794 C57.4358056,73.8623731 61.9038333,85.4664537 62.0616389,85.9287821 L62.0616389,85.9287821 Z" id="Shape" fill="#463014"></path>
                    </g>
                </g>
            </g>
        </g>
    </g>
</svg>