<?xml version="1.0" encoding="UTF-8" standalone="no"?>
<svg width="200px" height="200px" viewBox="0 0 200 200" version="1.1" xmlns="http://www.w3.org/2000/svg" xmlns:xlink="http://www.w3.org/1999/xlink" xmlns:sketch="http://www.bohemiancoding.com/sketch/ns">
    <!-- Generator: Sketch 3.0.4 (8053) - http://www.bohemiancoding.com/sketch -->
    <title>Artboard 1</title>
    <desc>Created with Sketch.</desc>
    <defs></defs>
    <g id="Page-1" stroke="none" stroke-width="1" fill="none" fill-rule="evenodd" sketch:type="MSPage">
        <g id="Artboard-1" sketch:type="MSArtboardGroup">
            <g id="shape" sketch:type="MSLayerGroup" fill="#1F1B1C">
                <g id="dark" sketch:type="MSShapeGroup">
                    <polygon id="Polygon-2" transform="translate(100.000000, 100.000000) scale(1, -1) translate(-100.000000, -100.000000) " points="100 0 186.60254 50 186.60254 150 100 200 13.3974596 150 13.3974596 50 "></polygon>
                    <polygon id="Polygon-3" transform="translate(100.000000, 100.000000) scale(1, -1) translate(-100.000000, -100.000000) " points="100 0 195.105652 69.0983006 158.778525 180.901699 41.2214748 180.901699 4.89434837 69.0983006 "></polygon>
                </g>
            </g>
            <g id="jira" sketch:type="MSLayerGroup" transform="translate(35.000000, 71.000000)" fill="#003366">
                <g id="layer1" transform="translate(0.000000, -0.265259)" sketch:type="MSShapeGroup">
                    <g id="g4088" transform="translate(0.268229, 0.003651)">
                        <path d="M65.1437821,49.2105296 L57.4832835,49.2105296 L57.4832835,12.4081448 L65.1437821,12.4081448 L65.1437821,49.2105296 L65.1437821,49.2105296 Z" id="path3938"></path>
                        <path d="M77.881797,19.363782 L86.7923603,19.363782 C89.0131998,19.363782 90.2254178,20.6143527 90.2254178,22.7517211 L90.2254178,26.0793183 C90.2254178,28.2165915 89.0131998,30.6939155 86.7923603,30.6939155 L77.881797,30.6939155 L77.881797,19.363782 L77.881797,19.363782 Z M92.7912278,49.3081577 L101.15695,49.3081577 L92.3097696,36.6144451 C95.2014955,35.5219324 96.9942856,32.2550141 96.9942856,28.9092901 L96.9942856,19.5300941 C96.9942856,15.3039515 94.2204902,12.4845628 90.0619986,12.4845628 L78.2799097,12.4845628 L70.3164731,12.4845628 L70.3164731,49.3081577 L77.881797,49.3081577 L77.881797,37.1685746 L85.0808185,37.1685746 L92.7912278,49.3081577 L92.7912278,49.3081577 Z" id="path3950"></path>
                        <path d="M129.445554,49.2105296 L118.69463,12.4081521 L115.907595,12.4081521 L111.129529,12.4081521 L108.342272,12.4081521 L97.5913394,49.2105296 L105.156901,49.2105296 L113.518681,20.574049 L117.745427,35.0557634 L113.518681,35.0557634 L110.581459,41.6613014 L119.635479,41.6613014 L121.880238,49.2105296 L129.445554,49.2105296 L129.445554,49.2105296 Z" id="path3954"></path>
                        <path d="M51.9120034,41.4173408 L51.9120034,12.4081008 L44.4836429,12.4081008 L44.4836429,39.707493 C44.4836429,44.0122141 42.5058358,44.3258986 41.9951392,44.5278197 C41.0640353,44.8959211 39.4885251,45.1141014 39.4885251,45.1141014 L41.2697095,51.653138 C53.2358728,51.3301521 51.9120034,41.4173408 51.9120034,41.4173408" id="path3958"></path>
                        <path d="M-0.260094989,12.5857651 C-0.260094989,12.5857651 -0.608531916,20.0906248 10.3413419,31.016169 C21.2909837,41.9418085 22.5354669,46.3796056 21.9381796,49.4464338 L29.9016191,49.4464338 C29.9016191,49.4464338 30.6254208,36.7677352 18.2820313,27.8653352 C18.2820313,27.8653352 9.78491088,20.1852282 8.40021768,14.0873566 C8.40021768,14.0873566 4.21735088,14.0851594 1.30705755,11.7062839 C1.30705755,11.7062839 -0.262416989,10.7498868 -0.260094989,12.5857651" id="path3962"></path>
                        <path d="M16.6893901,29.920507 C18.8881865,31.5063606 20.6654224,33.2134254 22.1130251,34.9475887 C23.1690133,33.8030028 24.3508198,32.5745577 25.6781743,31.2503887 C36.6278211,20.3247713 36.2796134,12.5858823 36.2796134,12.5858823 C36.2819195,10.7497769 34.7122244,11.7649048 34.7122244,11.7649048 C31.8019347,14.1438535 27.6190701,14.2044811 27.6190701,14.2044811 C26.234606,20.3023527 17.7372535,28.0994817 17.7372535,28.0994817 C17.1620202,28.5144563 16.6241601,28.9402704 16.1041741,29.3710648 C16.4723422,29.7237859 16.6893901,29.920507 16.6893901,29.920507" id="path3966"></path>
                        <path d="M16.5844173,41.7741634 C15.1714046,39.9173972 13.2866887,37.7438704 10.7935439,35.1544901 C5.70929209,42.5803099 6.11762033,49.918169 6.11762033,49.918169 L14.0810599,49.918169 C13.7277476,48.030862 14.0202425,45.6429634 16.5844173,41.7741634" id="path3970"></path>
                        <path d="M13.9991845,14.7672749 L21.8895005,14.7672749 C21.8895005,14.7672749 22.920418,14.6198293 22.6690151,16.0069915 C22.3115243,17.9797031 18.0520539,21.9772434 18.0520539,21.9772434 C18.0520539,21.9772434 14.9377121,19.03824 13.5506976,16.2775893 C13.5506976,16.2775893 12.9905522,14.7672749 13.9991845,14.7672749" id="path3974"></path>
                        <path d="M31.8513583,6.4744907 C31.8513583,8.40968169 30.3076484,9.97850704 28.4034362,9.97850704 C26.4992204,9.97850704 24.9552799,8.40968169 24.9552799,6.4744907 C24.9552799,4.53905803 26.4992204,2.97024 28.4034362,2.97024 C30.3076484,2.97024 31.8513583,4.53905803 31.8513583,6.4744907" id="path3978"></path>
                        <path d="M11.5444118,6.4744907 C11.5444118,8.40968169 10.0007048,9.97850704 8.0964897,9.97850704 C6.19227458,9.97850704 4.64833555,8.40968169 4.64833555,6.4744907 C4.64833555,4.53905803 6.19227458,2.97024 8.0964897,2.97024 C10.0007048,2.97024 11.5444118,4.53905803 11.5444118,6.4744907" id="path3982"></path>
                        <path d="M21.8969284,3.64194085 C21.8969284,5.57712451 20.3532222,7.14594986 18.4490071,7.14594986 C16.5447927,7.14594986 15.0008529,5.57712451 15.0008529,3.64194085 C15.0008529,1.70650085 16.5447927,0.137682817 18.4490071,0.137682817 C20.3532222,0.137682817 21.8969284,1.70650085 21.8969284,3.64194085" id="path3986"></path>
                    </g>
                </g>
            </g>
        </g>
    </g>
</svg>