<?xml version="1.0" encoding="UTF-8" standalone="no"?>
<svg width="200px" height="200px" viewBox="0 0 200 200" version="1.1" xmlns="http://www.w3.org/2000/svg" xmlns:xlink="http://www.w3.org/1999/xlink" xmlns:sketch="http://www.bohemiancoding.com/sketch/ns">
    <!-- Generator: Sketch 3.0.4 (8053) - http://www.bohemiancoding.com/sketch -->
    <title>Artboard 1</title>
    <desc>Created with Sketch.</desc>
    <defs></defs>
    <g id="Page-1" stroke="none" stroke-width="1" fill="none" fill-rule="evenodd" sketch:type="MSPage">
        <g id="Artboard-1" sketch:type="MSArtboardGroup">
            <g id="shape" sketch:type="MSLayerGroup" fill="#1F1B1C">
                <g id="dark" sketch:type="MSShapeGroup">
                    <polygon id="Polygon-2" transform="translate(100.000000, 100.000000) scale(1, -1) translate(-100.000000, -100.000000) " points="100 0 186.60254 50 186.60254 150 100 200 13.3974596 150 13.3974596 50 "></polygon>
                    <polygon id="Polygon-3" transform="translate(100.000000, 100.000000) scale(1, -1) translate(-100.000000, -100.000000) " points="100 0 195.105652 69.0983006 158.778525 180.901699 41.2214748 180.901699 4.89434837 69.0983006 "></polygon>
                </g>
            </g>
            <g id="jquery" sketch:type="MSLayerGroup" transform="translate(43.000000, 39.000000)" fill="#0868AC">
                <path d="M7.31412234,26.4726154 C-2.88295213,41.2172308 -1.61354787,60.4 6.17613617,76.0664615 C6.36133511,76.4420677 6.55546489,76.8116431 6.74662181,77.1812431 C6.86910904,77.4156185 6.98407234,77.656 7.11101277,77.8873723 C7.18272872,78.0255262 7.2633266,78.1608 7.33801543,78.2930215 C7.4709016,78.5424123 7.60682181,78.7798031 7.74421011,79.0231877 C7.98615053,79.4528738 8.23406117,79.8795569 8.48792979,80.3062646 C8.62831543,80.5406277 8.76720851,80.7750031 8.91207181,81.0093785 C9.19283085,81.4661046 9.48106489,81.9168246 9.77525691,82.3675323 C9.89774415,82.55984 10.0171851,82.7521477 10.142633,82.9384369 C10.5488521,83.5484185 10.9640144,84.1553846 11.3925851,84.7533292 C11.4032287,84.7687138 11.4149122,84.7864369 11.4283697,84.8013292 C11.4956569,84.8974523 11.5702846,84.9906338 11.638942,85.0867938 C12.0093154,85.6006031 12.3916293,86.1084185 12.7784207,86.61024 C12.9203356,86.7935262 13.0636574,86.9768246 13.2070282,87.1601108 C13.552016,87.5958154 13.9029617,88.0285169 14.2598899,88.4611569 C14.3927761,88.6234215 14.5272037,88.7856615 14.6616069,88.9449231 C15.1409979,89.5128369 15.6293319,90.0777354 16.1281016,90.6305846 C16.1372771,90.6392 16.1490585,90.6516308 16.157916,90.6606154 C16.1788729,90.6846154 16.196759,90.6996308 16.2146452,90.7236308 C16.7014989,91.2584862 17.2002931,91.7813169 17.7051186,92.3041846 C17.8619101,92.4664492 18.0217234,92.6287138 18.1830048,92.7879754 C18.5742739,93.1846031 18.9715133,93.5752369 19.3732548,93.9628431 C19.5360287,94.1190892 19.6973223,94.2783508 19.8601085,94.4285908 C20.3962287,94.9364062 20.9383436,95.4352 21.4909064,95.9220062 C21.5000819,95.9306215 21.5072633,95.9373908 21.516292,95.9430523 C21.6103473,96.0272369 21.7074489,96.1053169 21.8000484,96.1864369 C22.2869021,96.6101169 22.7827112,97.0307938 23.2814686,97.4455138 C23.484566,97.6107815 23.6906729,97.7730462 23.8952628,97.9383015 C24.3029622,98.2658215 24.7151394,98.5903508 25.1302894,98.9088615 C25.3498293,99.0771323 25.5693569,99.2453908 25.7903894,99.4136738 C26.2488601,99.7532062 26.7103282,100.086745 27.1762617,100.414277 C27.3464984,100.537502 27.5107894,100.657662 27.6810261,100.774843 C27.7287388,100.807951 27.7721697,100.840935 27.8198824,100.874043 C28.2619473,101.180529 28.7144356,101.474991 29.1655048,101.769477 C29.3596468,101.898708 29.5522963,102.033883 29.7479431,102.160086 C30.4408793,102.601797 31.1443367,103.037502 31.8551346,103.458178 C32.0477718,103.56944 32.2434186,103.677526 32.4375484,103.788714 C32.9602479,104.092197 33.4859324,104.389674 34.0190431,104.681145 C34.3072771,104.837391 34.6029739,104.984628 34.8941931,105.134868 C35.2705245,105.333182 35.643883,105.534498 36.0261968,105.726806 C36.1127527,105.769022 36.2024282,105.810991 36.2875404,105.85296 C36.4413713,105.928037 36.5966824,106.000197 36.7505011,106.078326 C37.343375,106.363791 37.9407511,106.643237 38.544134,106.913674 C38.6725915,106.970782 38.7965223,107.027889 38.9234628,107.084948 C39.6149064,107.388418 40.3122713,107.679889 41.0157287,107.959348 C41.1844851,108.028394 41.354734,108.094572 41.524983,108.160652 C42.1761032,108.413071 42.8362277,108.662474 43.4993128,108.896837 C43.5829691,108.926868 43.6636037,108.953945 43.7472234,108.983852 C44.474525,109.239274 45.2093138,109.47664 45.9484947,109.708012 C46.1247138,109.759089 46.3024255,109.816197 46.4801372,109.867274 C47.2328245,110.095643 47.9766053,110.369071 48.7531,110.513305 C98.0685255,119.560812 112.393366,80.6991508 112.393366,80.6991508 C100.362409,96.4677662 79.0066638,100.626535 58.7727809,95.9963815 C58.0066606,95.8221046 57.2629777,95.5817231 56.5147436,95.35936 C56.325067,95.3022523 56.1384,95.2452677 55.9517207,95.1880862 C55.2214463,94.9627323 54.4970931,94.7253538 53.7773644,94.4759508 C53.6787335,94.4400123 53.5787324,94.4038277 53.4786702,94.3677662 C52.8335202,94.1393969 52.1958085,93.8990154 51.5611064,93.6526277 C51.3818899,93.5805046 51.2026734,93.5113969 51.0234814,93.4392862 C50.3275479,93.1628431 49.636141,92.8743754 48.9536037,92.5739077 C48.8132181,92.5137231 48.6788149,92.4506708 48.5399218,92.3905969 C47.9530059,92.1231754 47.3720723,91.8527508 46.7941239,91.5732923 C46.6268723,91.4921846 46.4595963,91.4140431 46.2893473,91.3299077 C45.8354644,91.1071385 45.386475,90.8696 44.938709,90.6382154 C44.638975,90.4794462 44.3343473,90.3292923 44.0370601,90.1631385 C43.4901984,89.8689846 42.9531239,89.5625231 42.4184963,89.2499077 C42.2374324,89.1477538 42.0539218,89.0492923 41.8716346,88.9434462 C41.1608367,88.5225231 40.4586027,88.0868308 39.763709,87.6449846 C39.5716346,87.5219077 39.3844537,87.3902154 39.1948261,87.2634462 C38.6907835,86.9360615 38.1891878,86.6025231 37.6949324,86.2603692 C37.5309963,86.1483692 37.3731771,86.0289846 37.2116878,85.9182154 C36.7345601,85.5785231 36.2623261,85.2351385 35.7937622,84.8868308 C35.5808899,84.7280615 35.3716878,84.5680615 35.1649324,84.4092923 C34.7355176,84.0782154 34.3085495,83.7446769 33.8852516,83.4025231 C33.6940947,83.2492923 33.5029378,83.0960369 33.314766,82.9427815 C32.777141,82.49808 32.2454862,82.0503508 31.7212819,81.5906585 C31.6660819,81.5426585 31.6062819,81.4945354 31.5465553,81.4434215 C30.979067,80.9416246 30.4220144,80.4277908 29.8709809,79.9109908 C29.7111798,79.75776 29.5558564,79.6074954 29.3990527,79.4542523 C28.9913532,79.0636308 28.5896362,78.6700062 28.1953574,78.26736 C28.0370612,78.1080985 27.8787527,77.9518523 27.7234415,77.7925908 C27.2216622,77.2757785 26.7288261,76.7529231 26.2464255,76.2211446 C26.2225691,76.1940677 26.1971835,76.1700677 26.1733271,76.1429908 C25.6625681,75.5810831 25.1637739,75.0071754 24.675391,74.4272985 C24.5425048,74.2680492 24.4140473,74.1148062 24.282617,73.95856 C23.9182261,73.5168492 23.5568202,73.0691323 23.2043697,72.6183754 C23.072242,72.4559138 22.9401144,72.28976 22.8092101,72.1223754 C22.3846888,71.5685292 21.9699548,71.0159138 21.5637846,70.4546831 C10.3301197,55.0392985 6.29447606,33.77776 15.2730399,16.3168369" id="Shape" sketch:type="MSShapeGroup"></path>
                <path d="M38.9678723,14.0504615 C31.5934362,24.7265231 31.9936117,39.0178462 37.7462543,50.3089231 C38.7110064,52.2019692 39.7952117,54.0379077 41.00785,55.7867077 C42.1129633,57.3792 43.3375787,59.2753231 44.8040734,60.5553231 C45.3357404,61.1442708 45.8912883,61.7181785 46.4587277,62.2830769 C46.6020128,62.4303138 46.748442,62.5715446 46.8948101,62.7157785 C47.4458803,63.2536369 48.0059059,63.7824862 48.5853101,64.2963323 C48.6091665,64.3143015 48.6301234,64.3383015 48.6539798,64.3565169 C48.6600968,64.3626708 48.6662138,64.3651323 48.6703367,64.3719015 C49.311009,64.9368123 49.9725282,65.4806892 50.6446665,66.0154708 C50.7940686,66.1295631 50.9418559,66.2498585 51.0926894,66.36704 C51.7662223,66.88688 52.4532372,67.3976862 53.1580404,67.8844554 C53.1789973,67.89984 53.1968835,67.9144862 53.2178404,67.9295015 C53.528475,68.1458462 53.8450798,68.3471754 54.1601798,68.5544985 C54.3109644,68.6536985 54.4543963,68.7588308 54.6067223,68.8519754 C55.1100064,69.1764923 55.6192362,69.492 56.1374457,69.7954831 C56.210691,69.8405292 56.2822723,69.8796677 56.3539883,69.9216369 C56.8005309,70.1800369 57.2530191,70.4354462 57.7070734,70.6818462 C57.8653697,70.7719385 58.0266511,70.8501169 58.1879447,70.9342523 C58.5015644,71.0995077 58.815184,71.2677908 59.1347617,71.42704 C59.1824745,71.45104 59.2318633,71.4720862 59.2780468,71.4932554 C59.9276867,71.8147569 60.5832968,72.1242708 61.2523766,72.4187323 C61.3956617,72.4818708 61.5435957,72.5388554 61.6884468,72.5990154 C62.2230867,72.8273846 62.763709,73.0497477 63.3072553,73.2600862 C63.5372431,73.3472246 63.7702037,73.43136 64.0001915,73.5154831 C64.4930277,73.6987692 64.9873441,73.8670523 65.4861383,74.0353108 C65.7116362,74.1074338 65.9326809,74.1825477 66.1581787,74.2516677 C66.867533,74.4740185 67.5679074,74.7534646 68.3072106,74.8766646 C106.383221,81.2227569 115.173381,51.7308185 115.173381,51.7308185 C107.249391,63.2121723 91.9042319,68.6895877 75.528966,64.4138954 C74.8016644,64.2215877 74.0848596,64.0112492 73.3724713,63.7858708 C73.1544362,63.7197785 72.9408665,63.6477169 72.7243239,63.5755569 C72.218067,63.4102769 71.714783,63.236 71.2159888,63.0527015 C70.9875059,62.9685169 70.7590229,62.8844431 70.5349931,62.7973046 C69.9884005,62.5869662 69.4477782,62.3676185 68.911658,62.1392492 C68.7653144,62.0761108 68.6174415,62.0191262 68.4740707,61.9529477 C67.8020426,61.6584738 67.1404378,61.3489846 66.4878739,61.0244554 C66.1518537,60.8592 65.8218037,60.6849231 65.491766,60.5136492 C65.300609,60.4145723 65.1079596,60.3153354 64.9167904,60.2161723 C64.4926606,59.9848 64.0715282,59.7444185 63.656317,59.5010338 C63.557833,59.4439262 63.4547122,59.3897723 63.35465,59.3297477 C62.8394133,59.0262646 62.3316516,58.7137723 61.8283309,58.3922585 C61.6730197,58.2930585 61.5236787,58.1849231 61.3683553,58.0827569 C61.0368128,57.8664123 60.7052824,57.6470646 60.3797223,57.4247015 C59.6778064,56.93792 58.9953181,56.4271015 58.321834,55.91024 C58.1665229,55.7870031 58.0112117,55.6668554 57.8588856,55.5436554 C50.6909601,49.8501169 45.0094707,42.0704246 42.3081941,33.2482708 C39.4772367,24.0987323 40.0877154,13.8279631 44.9923431,5.49319385" id="Shape" sketch:type="MSShapeGroup"></path>
                <path d="M65.5903723,4.76923077 C61.2430053,11.2055385 60.8159149,19.1987692 63.8325851,26.3076923 C67.0135585,33.8528 73.5323457,39.7723077 81.1400851,42.5784615 C81.4537048,42.6957538 81.7673245,42.8008123 82.0854218,42.9089846 C82.2242782,42.9510769 82.361691,42.9992 82.5020888,43.0411323 C82.9501117,43.1823631 83.3951495,43.3476308 83.8581101,43.4347692 C104.882312,47.5212923 110.584599,32.5813538 112.102844,30.3824615 C107.10744,37.6180308 98.7126846,39.3547692 88.4128441,36.8398154 C87.5992803,36.6404308 86.7049718,36.3450462 85.9207697,36.0656615 C84.9151314,35.7050462 83.9241739,35.2939692 82.9613548,34.8287385 C81.1323654,33.9450462 79.3890144,32.8718154 77.7728973,31.6435077 C68.5557697,24.6084308 62.8302378,11.1868923 68.8444931,0.256430769" id="Shape" sketch:type="MSShapeGroup"></path>
            </g>
        </g>
    </g>
</svg>