<?xml version="1.0" encoding="UTF-8" standalone="no"?>
<svg width="200px" height="200px" viewBox="0 0 200 200" version="1.1" xmlns="http://www.w3.org/2000/svg" xmlns:xlink="http://www.w3.org/1999/xlink" xmlns:sketch="http://www.bohemiancoding.com/sketch/ns">
    <!-- Generator: Sketch 3.0.4 (8053) - http://www.bohemiancoding.com/sketch -->
    <title>Artboard 1</title>
    <desc>Created with Sketch.</desc>
    <defs></defs>
    <g id="Page-1" stroke="none" stroke-width="1" fill="none" fill-rule="evenodd" sketch:type="MSPage">
        <g id="Artboard-1" sketch:type="MSArtboardGroup">
            <g id="shape" sketch:type="MSLayerGroup" fill="#1F1B1C">
                <g id="dark" sketch:type="MSShapeGroup">
                    <polygon id="Polygon-2" transform="translate(100.000000, 100.000000) scale(1, -1) translate(-100.000000, -100.000000) " points="100 0 186.60254 50 186.60254 150 100 200 13.3974596 150 13.3974596 50 "></polygon>
                    <polygon id="Polygon-3" transform="translate(100.000000, 100.000000) scale(1, -1) translate(-100.000000, -100.000000) " points="100 0 195.105652 69.0983006 158.778525 180.901699 41.2214748 180.901699 4.89434837 69.0983006 "></polygon>
                </g>
            </g>
            <g id="javascript" sketch:type="MSLayerGroup" transform="translate(54.000000, 54.000000)">
                <rect id="Rectangle-path" fill="#F0DB4F" sketch:type="MSShapeGroup" x="0" y="0" width="92" height="92"></rect>
                <path d="M84.4703422,70.0581749 C83.7969582,65.8604563 81.0596958,62.3361217 72.9528517,59.0479087 C70.1368821,57.7536122 66.9973384,56.826616 66.061597,54.6927757 C65.7292776,53.4509506 65.6855513,52.7513308 65.8954373,51.9992395 C66.4988593,49.5593156 69.4110266,48.7984791 71.7197719,49.4980989 C73.2064639,49.9965779 74.6144487,51.1422053 75.4627376,52.969962 C79.4330798,50.3988593 79.4243346,50.4163498 82.1965779,48.6498099 C81.1821293,47.0756654 80.639924,46.3498099 79.9752852,45.6764259 C77.5878327,43.0091255 74.3346008,41.6361217 69.1311787,41.7410646 C68.2304183,41.8547529 67.3209125,41.9771863 66.4201521,42.0908745 C63.8228137,42.7467681 61.3479087,44.1110266 59.8961977,45.9387833 C55.5410646,50.8798479 56.7828897,59.5288973 62.0825095,63.0882129 C67.3034221,67.0060837 74.9730038,67.8980989 75.9524715,71.5623574 C76.9057034,76.0486692 72.6555133,77.5003802 68.4315589,76.9844106 C65.318251,76.3372624 63.586692,74.7543726 61.7152091,71.8771863 C58.2695817,73.8711027 58.2695817,73.8711027 54.7277567,75.9087452 C55.5673004,77.7452471 56.4505703,78.5760456 57.8585551,80.1676806 C64.5224335,86.9277567 81.1996198,86.5954373 84.1904943,76.3634981 C84.3129278,76.0136882 85.1174905,73.669962 84.4703422,70.0581749 L84.4703422,70.0581749 Z M50.0140684,42.28327 L41.4087452,42.28327 C41.4087452,49.71673 41.3737643,57.0977186 41.3737643,64.5311787 C41.3737643,69.2623574 41.6186312,73.6 40.8490494,74.9292776 C39.5897338,77.5441065 36.3277567,77.2205323 34.8410646,76.713308 C33.3281369,75.969962 32.5585551,74.9117871 31.6665399,73.4163498 C31.421673,72.9878327 31.2380228,72.6555133 31.1768061,72.6292776 C28.8418251,74.0547529 26.5155894,75.4889734 24.1806084,76.9144487 C25.3437262,79.3019011 27.0577947,81.3745247 29.2528517,82.7212928 C32.5323194,84.6889734 36.939924,85.2923954 41.5486692,84.2342205 C44.548289,83.3596958 47.1368821,81.5494297 48.4923954,78.7946768 C50.4513308,75.1828897 50.0315589,70.8102662 50.0140684,65.9741445 C50.0577947,58.0859316 50.0140684,50.1977186 50.0140684,42.28327 L50.0140684,42.28327 Z" id="Shape" fill="#323330" sketch:type="MSShapeGroup"></path>
            </g>
        </g>
    </g>
</svg>