<?xml version="1.0" encoding="UTF-8" standalone="no"?>
<svg width="200px" height="200px" viewBox="0 0 200 200" version="1.1" xmlns="http://www.w3.org/2000/svg" xmlns:xlink="http://www.w3.org/1999/xlink" xmlns:sketch="http://www.bohemiancoding.com/sketch/ns">
    <!-- Generator: Sketch 3.0.4 (8053) - http://www.bohemiancoding.com/sketch -->
    <title>Artboard 1</title>
    <desc>Created with Sketch.</desc>
    <defs></defs>
    <g id="Page-1" stroke="none" stroke-width="1" fill="none" fill-rule="evenodd" sketch:type="MSPage">
        <g id="Artboard-1" sketch:type="MSArtboardGroup">
            <g id="shape" sketch:type="MSLayerGroup" fill="#1F1B1C">
                <g id="dark" sketch:type="MSShapeGroup">
                    <polygon id="Polygon-2" transform="translate(100.000000, 100.000000) scale(1, -1) translate(-100.000000, -100.000000) " points="100 0 186.60254 50 186.60254 150 100 200 13.3974596 150 13.3974596 50 "></polygon>
                    <polygon id="Polygon-3" transform="translate(100.000000, 100.000000) scale(1, -1) translate(-100.000000, -100.000000) " points="100 0 195.105652 69.0983006 158.778525 180.901699 41.2214748 180.901699 4.89434837 69.0983006 "></polygon>
                </g>
            </g>
            <path d="M64.1087347,70.0109053 L64.1087347,107.829579 C64.1087347,112.38071 64.6063673,113.053036 69.0563265,114.349949 L67.9905306,120.685992 C65.6173061,120.139644 63.3276735,119.892992 61.2613878,119.069492 C57.316898,117.498079 56.6964898,113.868579 56.6795102,110.139623 C56.6272653,99.4487097 56.6612245,88.7591227 56.6612245,78.0682097 L56.6612245,75.9557531 C54.8483265,76.0963184 53.1843265,76.0817314 51.5804082,76.3907097 C49.7387755,76.7447749 48.6847347,78.2817097 48.6233469,80.529427 C48.5371429,83.6629705 48.5946122,86.7991662 48.5436735,89.9327097 C48.5201633,91.3688618 48.4561633,92.8129705 48.2863673,94.2371879 C47.9676735,96.9185357 46.7529796,99.102601 44.5260408,100.562623 C44.5456327,100.762862 44.516898,100.915362 44.5691429,100.952492 C47.908898,103.323536 48.4835918,106.877449 48.5423673,110.622318 C48.5880816,113.603362 48.5397551,116.584405 48.5580408,119.565449 C48.5854694,124.059557 49.7322449,125.274253 54.1730612,125.560688 L54.8914286,125.672079 L54.8914286,131.538688 C51.8063673,131.457797 48.7931429,131.331818 46.0346122,129.832014 C42.9613061,128.161144 41.925551,125.266297 41.7766531,121.99484 C41.6225306,118.610666 41.6813061,115.214557 41.6473469,111.823753 C41.6408163,111.207123 41.6656327,110.58784 41.6303673,109.972536 C41.4083265,106.042014 39.9023673,104.314123 36.0950204,103.651079 C36.0662857,103.47471 36.0062041,103.278449 36.004898,103.080862 C35.9970612,101.43784 36.0009796,99.7948184 36.0009796,98.203514 L36.2726531,97.9515575 C40.2772245,96.9702531 41.5898776,95.3113184 41.6395102,91.0598836 C41.6708571,88.336101 41.5937959,85.6109923 41.6656327,82.8885357 C41.7139592,81.046601 41.7897143,79.1834488 42.1123265,77.3759923 C42.8254694,73.3818184 45.6884898,70.967014 50.2703673,70.341101 C51.6222041,70.1567749 52.9910204,70.0427314 54.352,70.0241662 C57.5337143,69.9790792 60.7167347,70.0109053 64.1087347,70.0109053 L64.1087347,70.0109053 Z M77.0210612,105.429362 C76.5482449,109.383753 79.5510204,113.006623 83.7123265,113.795644 C87.652898,114.540905 91.4524082,113.85134 95.3877551,112.604818 C95.7025306,114.457362 96.0460408,116.250231 96.2693878,118.056362 C96.3033469,118.332188 95.8370612,118.859971 95.5066122,118.964731 C89.7361633,120.79871 83.9147755,121.404731 78.1234286,119.149057 C74.555102,117.759318 71.9715918,115.173449 70.5962449,111.542623 C68.4150204,105.779449 68.3902041,99.9751662 70.9593469,94.330014 C74.714449,86.0777749 84.068898,83.929514 91.0697143,87.2367749 C95.3002449,89.2351879 97.3443265,92.9535357 98.0718367,97.4144923 C98.4858776,99.9658836 98.4506122,102.592862 98.6334694,105.430688 C91.2003265,105.429362 84.0950204,105.429362 77.0210612,105.429362 L77.0210612,105.429362 Z M91.0096327,99.8611227 C91.0945306,95.047427 88.4091429,92.0398618 84.196898,92.0663836 C80.1701224,92.0929053 76.8995918,95.5937749 77.0014694,99.8611227 L91.0096327,99.8611227 L91.0096327,99.8611227 Z M145.44751,131.599688 L145.44751,125.642905 L147.129796,125.523557 C150.295837,125.264971 151.705143,123.839427 151.786122,120.621014 C151.86449,117.539188 151.788735,114.45471 151.843592,111.371557 C151.87102,109.885014 151.954612,108.387862 152.171429,106.919884 C152.54498,104.377775 153.823673,102.338253 156.170776,100.792036 C152.017306,98.1173184 151.877551,94.0263401 151.834449,89.9128184 C151.805714,87.086927 151.863184,84.2583836 151.809633,81.4324923 C151.735184,77.5934705 150.337633,76.1917966 146.547265,76.0233836 L145.501061,75.9477966 L145.501061,70.0268184 C148.793796,70.098427 152.059102,70.204514 154.944327,72.1008184 C157.63102,73.8671662 158.470857,76.6652097 158.602776,79.675427 C158.762122,83.3181879 158.679837,86.9702314 158.747755,90.6182966 C158.769959,91.6897749 158.822204,92.7930792 159.089959,93.8207966 C159.780898,96.4597097 161.583347,97.8255792 164.314449,97.9184053 L164.314449,103.696166 C161.698286,103.812862 159.826612,105.077949 159.121306,107.719514 C158.84702,108.744579 158.771265,109.846557 158.750367,110.915384 C158.679837,114.511731 158.75298,118.112057 158.62498,121.705753 C158.423837,127.406601 155.465469,130.583905 149.872653,131.241644 C148.435918,131.41271 146.986122,131.477688 145.44751,131.599688 L145.44751,131.599688 Z M146.81502,87.3388836 L145.46449,93.308927 C142.33502,92.2546879 139.253878,91.5319705 136.021224,92.0610792 C133.986286,92.393927 132.784653,93.3022966 132.533878,94.7464053 C132.258286,96.3151662 133.009306,97.7022531 134.879673,98.6424488 C136.460082,99.4354488 138.137143,100.026884 139.764571,100.725731 C140.740245,101.144775 141.721143,101.561166 142.669388,102.04121 C147.234286,104.351253 148.814694,107.316384 148.290939,112.53321 C147.923918,116.191884 145.328653,118.88384 140.766367,119.904927 C135.326367,121.119623 129.938612,120.777492 124.515592,118.704818 L125.702857,112.694992 C128.038204,113.236036 130.257306,113.940188 132.528653,114.214688 C134.408163,114.441449 136.358204,114.261101 138.257306,114.070144 C139.505959,113.94284 140.558694,113.294384 140.868245,111.864862 C141.185633,110.39821 140.77551,109.121188 139.554286,108.366644 C138.054857,107.43971 136.415673,106.739536 134.826122,105.967753 C132.916571,105.039492 130.928653,104.257101 129.089633,103.204188 C123.684898,100.106449 123.734531,90.5122097 129.745306,87.5974705 C131.528163,86.7341879 133.546122,86.2130357 135.513143,85.9292531 C139.324408,85.377601 143.03249,86.170601 146.81502,87.3388836 L146.81502,87.3388836 Z M122.305633,87.0683618 L120.89502,93.3195357 C117.760327,92.2361227 114.72098,91.5531879 111.535347,92.0504705 C109.402449,92.3819923 108.204735,93.2983184 107.950041,94.8219923 C107.692735,96.3615792 108.462041,97.7181662 110.385959,98.6702966 C112.061714,99.499101 113.835429,100.12634 115.556898,100.860992 C116.395429,101.219036 117.228735,101.591666 118.042449,102.002753 C122.769306,104.395014 124.422857,107.614753 123.670531,112.919101 C123.152,116.573797 120.012082,119.383775 115.385796,120.122405 C110.68898,120.870318 106.024816,120.749644 101.436408,119.257797 C100.313143,118.890471 99.8403265,118.447557 100.187755,117.198384 C100.597878,115.730405 100.844735,114.212036 101.166041,112.704275 C103.48702,113.238688 105.707429,113.94284 107.976163,114.214688 C109.855673,114.440123 111.80702,114.258449 113.707429,114.067492 C115.039673,113.934884 116.075429,113.176362 116.360163,111.703079 C116.634449,110.28284 116.145959,109.048253 114.988735,108.363992 C113.251592,107.338927 111.372082,106.560514 109.555265,105.67734 C107.871673,104.860471 106.130612,104.14571 104.517551,103.20684 C99.1062857,100.057384 99.1911837,90.5347531 105.290776,87.4569053 C108.003592,86.0883836 110.878367,85.5751879 113.826286,85.8125575 C116.613551,86.0366662 119.372082,86.6188184 122.305633,87.0683618 L122.305633,87.0683618 Z" id="less" fill="#2A4F84" sketch:type="MSShapeGroup"></path>
        </g>
    </g>
</svg>