<?xml version="1.0" encoding="UTF-8" standalone="no"?>
<svg width="200px" height="200px" viewBox="0 0 200 200" version="1.1" xmlns="http://www.w3.org/2000/svg" xmlns:xlink="http://www.w3.org/1999/xlink" xmlns:sketch="http://www.bohemiancoding.com/sketch/ns">
    <!-- Generator: Sketch 3.0.4 (8053) - http://www.bohemiancoding.com/sketch -->
    <title>Artboard 1</title>
    <desc>Created with Sketch.</desc>
    <defs></defs>
    <g id="Page-1" stroke="none" stroke-width="1" fill="none" fill-rule="evenodd" sketch:type="MSPage">
        <g id="Artboard-1" sketch:type="MSArtboardGroup">
            <g id="shape" sketch:type="MSLayerGroup" fill="#1F1B1C">
                <g id="dark" sketch:type="MSShapeGroup">
                    <polygon id="Polygon-2" transform="translate(100.000000, 100.000000) scale(1, -1) translate(-100.000000, -100.000000) " points="100 0 186.60254 50 186.60254 150 100 200 13.3974596 150 13.3974596 50 "></polygon>
                    <polygon id="Polygon-3" transform="translate(100.000000, 100.000000) scale(1, -1) translate(-100.000000, -100.000000) " points="100 0 195.105652 69.0983006 158.778525 180.901699 41.2214748 180.901699 4.89434837 69.0983006 "></polygon>
                </g>
            </g>
            <g id="mysql" sketch:type="MSLayerGroup" transform="translate(41.000000, 61.000000)">
                <g id="Group" transform="translate(-0.081871, 38.738104)" fill="#00618A" sketch:type="MSShapeGroup">
                    <path d="M0,18.8796269 L4.01717846,18.8796269 L4.01717846,2.98513433 L10.2363005,16.8413731 C10.9700836,18.5185522 11.9745503,19.1118806 13.9443497,19.1118806 C15.9144308,19.1118806 16.8800764,18.5185522 17.6141723,16.8413731 L23.8330128,2.98513433 L23.8330128,18.8796269 L27.8505041,18.8796269 L27.8505041,3.01114925 C27.8505041,1.46310448 27.2321831,0.714626866 25.9576897,0.327850746 C22.9061569,-0.626865672 20.8587779,0.198716418 19.9316092,2.26298507 L13.8285436,15.9380597 L7.91858205,2.26298507 C7.03020308,0.198716418 4.9443159,-0.626865672 1.8928081,0.327850746 C0.618005077,0.714626866 0,1.46310448 0,3.01114925 L0,18.8796269 L0,18.8796269 Z" id="Shape"></path>
                </g>
                <g id="Group" transform="translate(31.108123, 44.637851)" fill="#00618A" sketch:type="MSShapeGroup">
                    <path d="M0.000625641026,0.0426268657 L4.01661538,0.0426268657 L4.01661538,8.79931343 C3.97907692,9.27510448 4.16895897,10.3915522 6.36965128,10.4263433 C7.4923641,10.4438955 15.0347795,10.4263433 15.1051641,10.4263433 L15.1051641,0 L19.1305385,0 C19.1489949,0 19.1264718,14.2185672 19.1267846,14.2790597 C19.1489949,17.7857463 14.7842103,18.5473881 12.7724615,18.6063134 L0.0879025641,18.6063134 L0.0879025641,15.8985672 C0.110112821,15.8985672 12.7630769,15.9010746 12.7949846,15.8979403 C15.3804462,15.6243134 15.0751333,14.3367313 15.0748205,13.9032537 L15.0748205,12.8476119 L6.53638462,12.8476119 C2.56387692,12.8109403 0.0340974359,11.0738955 0.00281538462,9.07544776 C6.96805894e-15,8.89020896 0.0885282051,0.130074627 0.000625641026,0.0426268657 L0.000625641026,0.0426268657 Z" id="Shape"></path>
                </g>
                <g id="Group" transform="translate(53.334646, 39.040254)" fill="#E48E00" sketch:type="MSShapeGroup">
                    <path d="M0,18.5774776 L11.5493333,18.5774776 C12.9013436,18.5774776 14.2148769,18.2938209 15.2578205,17.8032985 C16.9958513,17.0037313 17.8457846,15.920194 17.8457846,14.5006567 L17.8457846,11.559403 C17.8457846,10.3981343 16.8801077,9.31428358 14.9872308,8.59213433 C13.9827641,8.20473134 12.7468103,7.99849254 11.5493333,7.99849254 L6.68215897,7.99849254 C5.06018462,7.99849254 4.28751795,7.50828358 4.09450769,6.42474627 C4.05571795,6.29561194 4.05571795,6.1921791 4.05571795,6.06335821 L4.05571795,4.23165672 C4.05571795,4.12822388 4.05571795,4.02479104 4.09450769,3.89597015 C4.28751795,3.07038806 4.71264103,2.8378209 6.14160513,2.709 C6.25766154,2.709 6.41188205,2.68298507 6.52793846,2.68298507 L18.0003179,2.68298507 L18.0003179,0 L6.72094872,0 C5.09866154,0 4.24872821,0.103119403 3.47637436,0.335059701 C1.08142051,1.08353731 0.0384769231,2.27050746 0.0384769231,4.33477612 L0.0384769231,6.68270149 C0.0384769231,8.48901493 2.08588718,10.0370597 5.52347179,10.3981343 C5.91011795,10.4238358 6.29613846,10.4495373 6.68215897,10.4495373 L10.8539333,10.4495373 C11.0087795,10.4495373 11.1633128,10.4495373 11.2790564,10.4755522 C12.5538,10.5789851 13.0943538,10.8109254 13.481,11.2754328 C13.7124872,11.5073731 13.7897538,11.7399403 13.7897538,11.9978955 L13.7897538,14.3458209 C13.7897538,14.629791 13.5967436,14.9911791 13.2107231,15.3005373 C12.8628667,15.610209 12.2835231,15.8167612 11.5108564,15.8684776 C11.3563231,15.8684776 11.2405795,15.8941791 11.0860462,15.8941791 L0,15.8941791 L0,18.5774776 L0,18.5774776 Z" id="Shape"></path>
                </g>
                <g id="Group" transform="translate(96.241108, 39.040254)" fill="#E48E00" sketch:type="MSShapeGroup">
                    <path d="M0,13.9073284 C0,16.6680448 2.04709744,18.216403 6.18039487,18.5260746 C6.56641538,18.5517761 6.95306154,18.5774776 7.33908205,18.5774776 L17.8073077,18.5774776 L17.8073077,15.8941791 L7.26181538,15.8941791 C4.90565128,15.8941791 4.01724103,15.3005373 4.01724103,13.8816269 L4.01724103,0 L0,0 L0,13.9073284 L0,13.9073284 Z" id="Shape"></path>
                </g>
                <g id="Group" transform="translate(73.744308, 39.074418)" fill="#E48E00" sketch:type="MSShapeGroup">
                    <path d="M0,14.0138955 L0,4.44729851 C0,2.0169403 1.70330769,0.542865672 5.07050769,0.0774179104 C5.41898974,0.0260149254 5.80626154,0 6.15443077,0 L13.7797436,0 C14.1667026,0 14.5154974,0.0260149254 14.9024564,0.0774179104 C18.2699692,0.542865672 19.9729641,2.0169403 19.9729641,4.44729851 L19.9729641,14.0138955 C19.9729641,15.9857015 19.2497231,17.0410299 17.5827026,17.7287015 L21.5398821,21.3074776 L16.8754154,21.3074776 L13.6740103,18.4119851 L10.4510205,18.6166567 L6.15443077,18.6166567 C5.41898974,18.6166567 4.64507179,18.5129104 3.79326154,18.2803433 C1.23876923,17.5823284 0,16.2377015 0,14.0138955 L0,14.0138955 Z M4.33600513,13.7813284 C4.33600513,13.9107761 4.37448205,14.0399104 4.41327179,14.1950597 C4.64538462,15.306806 5.69051795,15.927403 7.27745641,15.927403 L10.9271333,15.927403 L7.5746359,12.8949403 L12.2391026,12.8949403 L15.1630359,15.5396866 C15.7017128,15.2519552 16.0564513,14.8118955 16.1803282,14.2467761 C16.2188051,14.1176418 16.2188051,13.988194 16.2188051,13.8590597 L16.2188051,4.6801791 C16.2188051,4.57674627 16.2188051,4.44729851 16.1803282,4.31785075 C15.9479026,3.28383582 14.9027692,2.68925373 13.3546205,2.68925373 L7.27745641,2.68925373 C5.49719487,2.68925373 4.33600513,3.465 4.33600513,4.6801791 L4.33600513,13.7813284 L4.33600513,13.7813284 Z" id="Shape"></path>
                </g>
                <g id="Group" transform="translate(75.887128, 0.112027)" fill="#00618A" sketch:type="MSShapeGroup">
                    <path d="M41.6955333,34.4766716 C39.2261282,34.409597 37.3398205,34.6396567 35.7272308,35.3210597 C35.2689487,35.5147612 34.5382,35.5197761 34.4634359,36.0952388 C34.7152564,36.3597761 34.754359,36.7547015 34.9545641,37.0800448 C35.3396462,37.704403 35.9896872,38.5409552 36.5696564,38.9797612 C37.2034308,39.459 37.8566,39.9717761 38.5360462,40.3867612 C39.7444718,41.125209 41.0936667,41.5467761 42.257359,42.2864776 C42.9430615,42.7224627 43.6243846,43.271597 44.2935077,43.7636866 C44.624159,44.0069104 44.8465744,44.3852239 45.2763897,44.5375522 L45.2763897,44.4673433 C45.0505333,44.1792985 44.9923487,43.7831194 44.7849487,43.4822239 C44.4808872,43.1775672 44.1765128,42.872597 43.8721385,42.5676269 C42.9796615,41.3806567 41.8466256,40.3381791 40.6422667,39.4721642 C39.6819077,38.7813582 37.5322051,37.8482687 37.1314821,36.7283731 C37.1080205,36.7048657 37.0848718,36.6813582 37.0610974,36.6578507 C37.7421077,36.5810597 38.5394872,36.3340746 39.1679436,36.1654478 C40.2237128,35.881791 41.1671795,35.9551343 42.257359,35.6730448 C42.7488,35.5323134 43.240241,35.3912687 43.7319949,35.2508507 L43.7319949,34.9693881 C43.1808051,34.4027015 42.7879026,33.6529701 42.1869744,33.140194 C40.6147385,31.7987015 38.8986051,30.4584627 37.1314821,29.3408866 C36.1514154,28.7210418 34.9401744,28.3182493 33.9016103,27.7929985 C33.5521897,27.6163791 32.9384359,27.5245433 32.7075744,27.2301045 C32.1620154,26.5331239 31.8648359,25.6497761 31.4440923,24.8380164 C30.5625641,23.1374239 29.6969897,21.2800836 28.9161897,19.491009 C28.3834564,18.2709403 28.0356,17.067703 27.3714821,15.9731328 C24.1832154,10.7210015 20.7512615,7.55084776 15.4348769,4.43488657 C14.3037179,3.77222687 12.9416974,3.51051045 11.5024103,3.16861791 C10.7303692,3.12179104 9.95770256,3.07465075 9.18534872,3.02782388 C8.71392821,2.83039254 8.22342564,2.25248507 7.78109744,1.97243284 C6.01991795,0.857655672 1.50247692,-1.56716418 0.198015385,1.62072985 C-0.625641026,3.63293731 1.4289641,5.5965 2.16377949,6.61606567 C2.67962051,7.33138209 3.33998462,8.13333134 3.70848718,8.93772537 C3.95092308,9.46636119 3.99284103,9.99650149 4.20024103,10.5560104 C4.7107641,11.9340179 5.15465641,13.4332299 5.81502051,14.7068642 C6.1488,15.3511881 6.51667692,16.0300836 6.93867179,16.6064239 C7.19737436,16.9599761 7.64064103,17.1157522 7.71071282,17.6618149 C7.27714359,18.2697179 7.25243077,19.2133701 7.00874359,19.983506 C5.91136923,23.4505433 6.32523077,27.7599313 7.92155385,30.3258806 C8.41143077,31.1135373 9.56511282,32.8029403 11.1514256,32.1550746 C12.5390974,31.5887015 12.2290923,29.833791 12.6260615,28.2854955 C12.715841,27.9343881 12.6607846,27.6763701 12.8365897,27.4412955 L12.8365897,27.5116925 C13.257959,28.3558925 13.6793282,29.2000612 14.1006974,30.0441045 C15.0360308,31.553597 16.6961692,33.1311045 18.1029231,34.1955224 C18.8324205,34.7474776 19.406759,35.7018806 20.3499128,36.0247164 L20.3499128,35.954194 L20.2795282,35.954194 C20.096841,35.6686567 19.8109231,35.5504925 19.577559,35.3210597 C19.0279333,34.7813284 18.4169949,34.1102687 17.9624667,33.4918657 C16.6830308,31.7513731 15.5521846,29.8463284 14.5220667,27.8633955 C14.03,26.9166716 13.6023744,25.872 13.1875744,24.9084134 C13.0277231,24.5368388 13.0296,23.9751672 12.6964462,23.7826567 C12.2422308,24.4887896 11.5731077,25.0596448 11.2218103,25.8934075 C10.6599846,27.2261239 10.5874103,28.8514299 10.3793846,30.5368209 C10.2561333,30.5810149 10.3108769,30.5506119 10.2386154,30.6070299 C9.26073846,30.3707015 8.91694872,29.3619806 8.5537641,28.4966866 C7.63438462,26.3081731 7.46358462,22.7841851 8.27253846,20.265094 C8.48181538,19.6134358 9.42778462,17.5605134 9.04489231,16.9584403 C8.86220513,16.3575896 8.25908718,16.0101806 7.92155385,15.5510642 C7.50393846,14.9835627 7.08694872,14.2364015 6.79790256,13.5810761 C6.04556923,11.8746537 5.69427179,9.9591403 4.90221026,8.23435075 C4.52369744,7.4097403 3.88335385,6.57535075 3.35750256,5.84229403 C2.77534359,5.03025224 2.12342564,4.43212836 1.67233846,3.44992388 C1.51186154,3.1009791 1.29382564,2.54234776 1.53188205,2.18362388 C1.60758462,1.94149701 1.71425641,1.84050896 1.95325128,1.76152388 C2.36054359,1.44687179 3.49483077,1.86621045 3.91901538,2.04282985 C5.04516923,2.51144328 5.98488205,2.95770896 6.93867179,3.59071791 C7.39664103,3.89496716 7.85961538,4.48324925 8.41299487,4.64610896 L9.04489231,4.64610896 C10.0334051,4.87381791 11.1407897,4.7168194 12.0642359,4.9977806 C13.6965333,5.49488507 15.1592821,6.26806119 16.4878308,7.10856269 C20.5351026,9.66899552 23.8441179,13.3138746 26.1076872,17.6618149 C26.4718103,18.3618358 26.6294718,19.0300433 26.9501128,19.772597 C27.5973385,21.269991 28.4125487,22.8108269 29.0563333,24.2751224 C29.6988667,25.7360955 30.3251333,27.2105149 31.2332513,28.4262896 C31.7109282,29.0653791 33.5550051,29.4082119 34.3930513,29.7629552 C34.9805282,30.0118209 35.9430769,30.2710299 36.4995846,30.6070299 C37.5625487,31.2495672 38.5923538,32.0143433 39.5893128,32.718 C40.0876359,33.0696716 41.6192051,33.8410299 41.6955333,34.4766716 L41.6955333,34.4766716 Z" id="Shape"></path>
                </g>
                <g id="Group" transform="translate(84.932021, 7.773981)" fill="#00618A" sketch:type="MSShapeGroup">
                    <path d="M1.26410769,0.00949701493 C0.749205128,4.23272528e-15 0.385082051,0.0658208955 0,0.150008955 L0,0.22040597 L0.0703846154,0.22040597 C0.315948718,0.726035821 0.749517949,1.05141045 1.05326667,1.48698806 C1.28725641,1.97948507 1.52124615,2.47198209 1.75554872,2.96416567 C1.77869744,2.94087761 1.80247179,2.91733881 1.82562051,2.89405075 C2.26044103,2.58704328 2.45970769,2.0958 2.45751795,1.34619403 C2.28327692,1.16252239 2.25762564,0.932055224 2.10653333,0.712871642 C1.90570256,0.420877612 1.51717949,0.254977612 1.26410769,0.00949701493 L1.26410769,0.00949701493 Z" id="Shape"></path>
                </g>
                <g id="Group" transform="translate(115.934097, 51.891940)" fill="#E48E00" sketch:type="MSShapeGroup">
                    <path d="M0,2.96601493 C0,4.73816418 1.39736923,5.93234328 2.96053333,5.93234328 C4.52369744,5.93234328 5.92106667,4.73816418 5.92106667,2.96601493 C5.92106667,1.1941791 4.52369744,0 2.96053333,0 C1.39736923,0 0,1.1941791 0,2.96601493 L0,2.96601493 Z M5.25788718,2.96601493 C5.25788718,4.31064179 4.2318359,5.31550746 2.96053333,5.31550746 C1.67390256,5.31550746 0.663179487,4.31064179 0.663179487,2.96601493 C0.663179487,1.62138806 1.67390256,0.616522388 2.96053333,0.616522388 C4.2318359,0.616522388 5.25788718,1.62138806 5.25788718,2.96601493 L5.25788718,2.96601493 Z M3.75822564,4.65886567 L4.42109231,4.65886567 L3.45041026,3.1719403 C3.97125641,3.11646269 4.36572308,2.86320896 4.36572308,2.24637313 C4.36572308,1.55807463 3.93184103,1.27347761 3.09504615,1.27347761 L1.77650769,1.27347761 L1.77650769,4.65886567 L2.34490256,4.65886567 L2.34490256,3.19544776 L2.87388205,3.19544776 L3.75822564,4.65886567 L3.75822564,4.65886567 Z M2.34490256,2.72091045 L2.34490256,1.74801493 L2.99994872,1.74801493 C3.33967179,1.74801493 3.75009231,1.81132836 3.75009231,2.2068806 C3.75009231,2.68110448 3.37908718,2.72091045 2.95271282,2.72091045 L2.34490256,2.72091045 L2.34490256,2.72091045 Z" id="Shape"></path>
                </g>
            </g>
        </g>
    </g>
</svg>