<?xml version="1.0" encoding="UTF-8" standalone="no"?>
<svg width="200px" height="200px" viewBox="0 0 200 200" version="1.1" xmlns="http://www.w3.org/2000/svg" xmlns:xlink="http://www.w3.org/1999/xlink" xmlns:sketch="http://www.bohemiancoding.com/sketch/ns">
    <!-- Generator: Sketch 3.0.4 (8053) - http://www.bohemiancoding.com/sketch -->
    <title>Artboard 1</title>
    <desc>Created with Sketch.</desc>
    <defs></defs>
    <g id="Page-1" stroke="none" stroke-width="1" fill="none" fill-rule="evenodd" sketch:type="MSPage">
        <g id="Artboard-1" sketch:type="MSArtboardGroup">
            <g id="shape" sketch:type="MSLayerGroup" fill="#1F1B1C">
                <g id="dark" sketch:type="MSShapeGroup">
                    <polygon id="Polygon-2" transform="translate(100.000000, 100.000000) scale(1, -1) translate(-100.000000, -100.000000) " points="100 0 186.60254 50 186.60254 150 100 200 13.3974596 150 13.3974596 50 "></polygon>
                    <polygon id="Polygon-3" transform="translate(100.000000, 100.000000) scale(1, -1) translate(-100.000000, -100.000000) " points="100 0 195.105652 69.0983006 158.778525 180.901699 41.2214748 180.901699 4.89434837 69.0983006 "></polygon>
                </g>
            </g>
            <g id="neo4j" sketch:type="MSLayerGroup" transform="translate(33.000000, 28.000000)">
                <g id="Group" transform="translate(29.795000, 16.108844)" sketch:type="MSShapeGroup">
                    <g transform="translate(9.595000, 74.000000)">
                        <ellipse id="Oval" fill="#8CB6C1" cx="22.085165" cy="22.0152517" rx="22.085165" ry="22.0152517"></ellipse>
                        <g transform="translate(1.515000, 1.510204)">
                            <ellipse id="Oval" fill="#C9FAA2" cx="20.666115" cy="20.6006939" rx="20.666115" ry="20.6006939"></ellipse>
                            <path d="M0.587315,21.4745986 C0.587315,10.0972245 9.83942,0.873904762 21.25343,0.873904762 C26.955385,0.873904762 32.118,3.17545578 35.85702,6.89810884 C32.072045,2.67658503 26.570575,0.0161088435 20.443915,0.0161088435 C9.03041,0.0161088435 -0.2222,9.23993197 -0.2222,20.6168027 C-0.2222,26.3092653 2.094235,31.4605714 5.838305,35.1892653 C2.57348,31.5471565 0.587315,26.7431973 0.587315,21.4745986 L0.587315,21.4745986 Z" id="Shape" fill="#ADE871"></path>
                        </g>
                    </g>
                    <g transform="translate(39.895000, 15.605442)" id="Shape">
                        <path d="M52.919455,26.5805986 C52.919455,41.1696735 41.05347,53.0041361 26.41756,53.0041361 C11.78064,53.0041361 -0.084335,41.1696735 -0.084335,26.5805986 C-0.084335,11.9910204 11.780135,0.162598639 26.41756,0.162598639 C41.05347,0.162598639 52.919455,11.9910204 52.919455,26.5805986 L52.919455,26.5805986 Z" fill="#8CB6C1"></path>
                        <g transform="translate(1.515000, 2.013605)">
                            <path d="M49.7021,24.5669932 C49.7021,38.2192381 38.597655,49.2925578 24.90256,49.2925578 C11.206455,49.2925578 0.10302,38.2192381 0.10302,24.5669932 C0.10302,10.9147483 11.206455,-0.153034014 24.90256,-0.153034014 C38.59816,-0.153034014 49.7021,10.9147483 49.7021,24.5669932 L49.7021,24.5669932 Z" fill="#C9FAA2"></path>
                            <path d="M1.074135,25.5969524 C1.074135,11.9437007 12.17757,0.875918367 25.87418,0.875918367 C32.715415,0.875918367 38.909745,3.63858503 43.397175,8.10526531 C38.855205,3.03953741 32.25435,-0.153034014 24.90256,-0.153034014 C11.206455,-0.153034014 0.10302,10.9147483 0.10302,24.5669932 C0.10302,31.3976463 2.88254,37.5809252 7.375525,42.0591837 C3.458745,37.683619 1.074135,31.9186667 1.074135,25.5969524 L1.074135,25.5969524 Z" fill="#ADE871"></path>
                        </g>
                    </g>
                    <g>
                        <ellipse id="Oval" fill="#8CB6C1" cx="15.46007" cy="15.4111293" rx="15.46007" ry="15.4111293"></ellipse>
                        <g transform="translate(1.010000, 1.006803)">
                            <ellipse id="Oval" fill="#C9FAA2" cx="14.46623" cy="14.4204354" rx="14.46623" ry="14.4204354"></ellipse>
                            <path d="M0.445915,15.0214966 C0.445915,7.05768707 6.922035,0.601061224 14.91164,0.601061224 C18.903665,0.601061224 22.51694,2.21295238 25.13385,4.81805442 C22.485125,1.86258503 18.633995,0.000503401361 14.34604,0.000503401361 C6.35593,0.000503401361 -0.12019,6.45712925 -0.12019,14.4209388 C-0.12019,18.4053605 1.501365,22.0122313 4.1208,24.6218639 C1.83618,22.0721361 0.445915,18.7099184 0.445915,15.0214966 L0.445915,15.0214966 Z" id="Shape" fill="#ADE871"></path>
                        </g>
                    </g>
                    <path d="M15.987795,61.2382721 C15.987795,63.3837687 14.24403,65.1215102 12.092225,65.1215102 C9.94143,65.1215102 8.19716,63.3837687 8.19716,61.2382721 C8.19716,59.0932789 9.94143,57.3510068 12.092225,57.3510068 C14.244535,57.3510068 15.987795,59.0937823 15.987795,61.2382721 L15.987795,61.2382721 Z" id="Shape" fill="#FFFFFF"></path>
                    <ellipse id="Oval" fill="#FFFFFF" cx="17.53057" cy="71.3390204" rx="3.89557" ry="3.8832381"></ellipse>
                    <ellipse id="Oval" fill="#FFFFFF" cx="9.95557" cy="48.6859592" rx="3.89557" ry="3.8832381"></ellipse>
                    <ellipse id="Oval" fill="#FFFFFF" cx="9.45057" cy="37.6111293" rx="3.89557" ry="3.8832381"></ellipse>
                    <ellipse id="Oval" fill="#FFFFFF" cx="38.23557" cy="10.9308571" rx="3.89557" ry="3.8832381"></ellipse>
                    <ellipse id="Oval" fill="#FFFFFF" cx="48.33557" cy="14.4546667" rx="3.89557" ry="3.8832381"></ellipse>
                    <ellipse id="Oval" fill="#FFFFFF" cx="59.95057" cy="84.9308571" rx="3.89557" ry="3.8832381"></ellipse>
                    <ellipse id="Oval" fill="#FFFFFF" cx="67.020065" cy="76.875932" rx="3.895065" ry="3.88273469"></ellipse>
                </g>
                <rect id="Rectangle-path" sketch:type="MSShapeGroup" x="127.26" y="34.2312925" width="468.66727" height="95.4428844"></rect>
            </g>
        </g>
    </g>
</svg>