<?xml version="1.0" encoding="UTF-8" standalone="no"?>
<svg width="200px" height="200px" viewBox="0 0 200 200" version="1.1" xmlns="http://www.w3.org/2000/svg" xmlns:xlink="http://www.w3.org/1999/xlink" xmlns:sketch="http://www.bohemiancoding.com/sketch/ns">
    <!-- Generator: Sketch 3.0.4 (8053) - http://www.bohemiancoding.com/sketch -->
    <title>Artboard 1</title>
    <desc>Created with Sketch.</desc>
    <defs></defs>
    <g id="Page-1" stroke="none" stroke-width="1" fill="none" fill-rule="evenodd" sketch:type="MSPage">
        <g id="Artboard-1" sketch:type="MSArtboardGroup">
            <g id="shape" sketch:type="MSLayerGroup" fill="#1F1B1C">
                <g id="dark" sketch:type="MSShapeGroup">
                    <polygon id="Polygon-2" transform="translate(100.000000, 100.000000) scale(1, -1) translate(-100.000000, -100.000000) " points="100 0 186.60254 50 186.60254 150 100 200 13.3974596 150 13.3974596 50 "></polygon>
                    <polygon id="Polygon-3" transform="translate(100.000000, 100.000000) scale(1, -1) translate(-100.000000, -100.000000) " points="100 0 195.105652 69.0983006 158.778525 180.901699 41.2214748 180.901699 4.89434837 69.0983006 "></polygon>
                </g>
            </g>
            <g id="nodejs" sketch:type="MSLayerGroup" transform="translate(38.000000, 79.000000)">
                <g id="layer1" transform="translate(0.012281, -0.092741)" sketch:type="MSShapeGroup">
                    <path d="M65.6556003,0.0927940252 C65.5655308,0.0938946541 65.4744274,0.115407547 65.3940452,0.162591509 C65.2335513,0.256886792 65.1324878,0.43006195 65.1324878,0.616283962 L65.1324878,13.9652708 C65.1324878,14.0964349 65.071456,14.2136409 64.9581184,14.2794211 C64.8444949,14.3453664 64.7058415,14.3453664 64.5919408,14.2794211 L62.4123115,13.0230421 C62.0875645,12.8356469 61.6909083,12.8357591 61.3660887,13.0230421 L52.6650083,18.0485535 C52.3397025,18.2363406 52.1418958,18.5976176 52.1418958,18.9733591 L52.1418958,29.0243818 C52.1418958,29.3998415 52.3399819,29.7436428 52.6650083,29.9317645 L61.3660887,34.9572758 C61.6913944,35.1451179 62.0870058,35.1451179 62.4123115,34.9572758 L71.1133919,29.9317645 C71.4384183,29.7436428 71.6365044,29.3998415 71.6365044,29.0243818 L71.6365044,3.96662484 C71.6365044,3.58545063 71.428654,3.22773522 71.0959552,3.04179057 L65.9171555,0.145142138 C65.8358296,0.0997455975 65.7456699,0.0918166667 65.6556003,0.0928226415 L65.6556003,0.0927940252 Z M9.68271235,12.6390943 C9.51678308,12.6457862 9.36089306,12.6748296 9.21191218,12.7612686 L0.510829611,17.7867799 C0.18661269,17.9743425 -0.0122807107,18.3159667 -0.0122807107,18.6941648 L0.00511861252,32.1827465 C0.00511861252,32.3703664 0.101839932,32.5445827 0.266675973,32.636494 C0.428238917,32.7332635 0.628768866,32.7332635 0.789786294,32.636494 L5.95114924,29.6699909 C6.27809594,29.4756154 6.49169628,29.137511 6.49169628,28.7626082 L6.49169628,22.4632972 C6.49169628,22.0875557 6.68921269,21.7426956 7.0148088,21.5559123 L9.21187479,20.2821148 C9.37585516,20.1872428 9.55190068,20.1425154 9.73498511,20.1425154 C9.91431252,20.1425154 10.098653,20.1871877 10.2580976,20.2821148 L12.4551636,21.5559123 C12.7807487,21.7426956 12.9782739,22.0875557 12.9782739,22.4632972 L12.9782739,28.7626082 C12.9782739,29.137511 13.194008,29.4777947 13.5188232,29.6699909 L18.6801861,32.636494 C18.8422814,32.7332635 19.0425298,32.7332635 19.2032964,32.636494 C19.363511,32.5445827 19.4648516,32.3703664 19.4648516,32.1827465 L19.4822509,18.6941648 C19.4822509,18.3159667 19.2855616,17.9743425 18.9591406,17.7867799 L10.2580778,12.7612686 C10.1109095,12.6748296 9.95432876,12.645905 9.78727766,12.6390943 L9.68265516,12.6390943 L9.68271235,12.6390943 Z M87.8703853,12.7612686 C87.6886052,12.7610484 87.5104832,12.8070569 87.3472728,12.9008657 L78.6461924,17.926377 C78.321166,18.1142192 78.1230821,18.4580204 78.1230821,18.8337619 L78.1230821,28.8847824 C78.1230821,29.2627009 78.3358135,29.6053862 78.6636291,29.7921673 L87.2949626,34.7129802 C87.6137112,34.8951277 88.0029061,34.9087513 88.3237465,34.7302821 L93.5548585,31.8161557 C93.7208582,31.7240198 93.8331531,31.5519255 93.8338504,31.3624632 C93.8349503,31.1729459 93.736203,31.0030836 93.5722953,30.9087708 L84.8189025,25.8832594 C84.6549948,25.7897302 84.5399107,25.6002129 84.5399107,25.4120912 L84.5399107,22.2711472 C84.5399107,22.0833601 84.6563893,21.9112635 84.8189025,21.8175097 L87.539081,20.2469827 C87.700897,20.153284 87.8996782,20.153284 88.0621914,20.2469827 L90.7823699,21.8175097 C90.9448831,21.9112635 91.043925,22.0833601 91.043925,22.2711472 L91.043925,24.7490591 C91.043925,24.9371236 91.142967,25.1089406 91.3054802,25.2026943 C91.4686907,25.2967277 91.6660795,25.2971173 91.8285927,25.2026943 L97.0422658,22.1665038 C97.3658976,21.9783821 97.5653761,21.6336871 97.5653761,21.2591211 L97.5653761,18.8335858 C97.5653761,18.4589604 97.3665949,18.1143226 97.0422658,17.9262009 L88.3934956,12.9006896 C88.2306305,12.8062116 88.0521653,12.761317 87.8703853,12.7610925 L87.8703853,12.7612686 Z M61.8543255,20.2646368 C61.8996892,20.2646368 61.9530882,20.2757972 61.9938215,20.299256 L64.9755552,22.0268031 C65.0564631,22.0737075 65.1150511,22.1600915 65.1150511,22.2536208 L65.1150511,25.7086601 C65.1150511,25.8024689 65.0570218,25.8889079 64.9755552,25.9355349 L61.9938215,27.6630248 C61.9126342,27.7093723 61.8134536,27.7093723 61.7322663,27.6630248 L58.7505327,25.9355349 C58.6693453,25.8886305 58.6110367,25.8024689 58.6110367,25.7086601 L58.6110367,22.2536208 C58.6110367,22.1600915 58.6696247,22.0739321 58.7505327,22.0268031 L61.7322663,20.2995355 C61.7729997,20.2760833 61.8089553,20.2649164 61.8543255,20.2649164 L61.8543255,20.2646368 Z" id="path22" fill="#404137"></path>
                    <path d="M113.938755,12.516973 C113.637091,12.516973 113.343804,12.5794006 113.084341,12.7263698 L104.871495,17.4726846 C104.340015,17.778906 104.01708,18.3577333 104.01708,18.9733591 L104.01708,28.4485679 C104.01708,29.0638591 104.340015,29.6420151 104.871495,29.9491874 L107.016251,31.1881434 C108.058288,31.7020843 108.442602,31.6941553 108.916888,31.6941553 C110.459718,31.6941553 111.340636,30.757344 111.340636,29.129078 L111.340636,19.7760456 C111.340636,19.6438182 111.226249,19.5491708 111.096517,19.5491708 L110.067734,19.5491708 C109.935908,19.5491708 109.823613,19.6438182 109.823613,19.7760456 L109.823613,29.129078 C109.823613,29.8507978 109.072426,30.5765943 107.853229,29.9666632 L105.621289,28.6579648 C105.542473,28.6149698 105.481791,28.5390836 105.481791,28.4485679 L105.481791,18.9733591 C105.481791,18.8834025 105.541776,18.7920503 105.621289,18.7465415 L113.816696,14.0176475 C113.893418,13.9735343 113.984787,13.9735343 114.060814,14.0176475 L122.256221,18.7465415 C122.33434,18.7934459 122.395717,18.8806664 122.395717,18.9733591 L122.395717,28.4485679 C122.395717,28.5390836 122.350353,28.6317764 122.273658,28.6753877 L114.060814,33.4042818 C113.990368,33.4461607 113.893418,33.4461607 113.816696,33.4042818 L111.706814,32.1479028 C111.64404,32.1110494 111.558251,32.1138406 111.497569,32.1479028 C110.915173,32.4783028 110.805667,32.5167192 110.25954,32.7062937 C110.124927,32.7531981 109.920563,32.8261808 110.329289,33.0552877 L113.084341,34.6780814 C113.346593,34.8299616 113.638838,34.9048991 113.938755,34.9048991 C114.242856,34.9048991 114.530917,34.8299616 114.79317,34.6780814 L123.006013,29.9491874 C123.537495,29.6398381 123.860428,29.0638591 123.860428,28.4485679 L123.860428,18.9733591 C123.860428,18.3577333 123.537495,17.7801915 123.006013,17.4726846 L114.79317,12.7263698 C114.535798,12.5794006 114.240419,12.516973 113.938755,12.516973 L113.938755,12.516973 Z M35.8208291,12.7088918 C35.6395176,12.7088918 35.4600934,12.7546802 35.2977188,12.848489 L26.5966384,17.8565796 C26.2713327,18.0441972 26.0735259,18.4059783 26.0735259,18.7813852 L26.0735259,28.8324057 C26.0735259,29.2082594 26.2715438,29.5517811 26.5966384,29.7397906 L35.2977188,34.7653019 C35.6230245,34.9533113 36.0186359,34.9533113 36.3439416,34.7653019 L45.045022,29.7397906 C45.369769,29.5517811 45.5681345,29.2082594 45.5681345,28.8324057 L45.5681345,18.7813852 C45.5681345,18.4054214 45.3703277,18.0441972 45.045022,17.8565796 L36.3439416,12.848489 C36.181567,12.7546802 36.0021406,12.7088918 35.8208291,12.7088918 L35.8208291,12.7088918 Z M126.127243,12.7613808 L126.127243,13.0056764 L126.807288,13.0056764 L126.807288,14.802966 L127.08628,14.802966 L127.08628,13.0056764 L127.783762,13.0056764 L127.783762,12.7613808 L126.127243,12.7613808 L126.127243,12.7613808 Z M128.02788,12.7613808 L128.02788,14.802966 L128.289435,14.802966 L128.289435,13.598966 C128.289435,13.5498274 128.291657,13.4738311 128.289435,13.3721484 C128.286092,13.268566 128.289435,13.1782748 128.289435,13.1277956 L128.289435,13.0753088 L128.864858,14.8027987 L129.14385,14.8027987 L129.736709,13.0753088 C129.736709,13.1852 129.722038,13.291294 129.71931,13.3894019 C129.71821,13.4848858 129.71931,13.5565852 129.71931,13.5987987 L129.71931,14.8027987 L129.980865,14.8027987 L129.980865,12.7612135 L129.597251,12.7612135 L129.004391,14.4887607 L128.428969,12.7612135 L128.027918,12.7612135 L128.02788,12.7613808 Z M116.135821,19.2875645 C113.797165,19.2875645 112.404295,20.2835654 112.404295,21.9399173 C112.404295,23.7367623 113.786704,24.230434 116.031199,24.452673 C118.716504,24.7157321 118.925747,25.1102899 118.925747,25.6392522 C118.925747,26.5567431 118.194786,26.9479506 116.467125,26.9479506 C114.296563,26.9479506 113.819485,26.4056994 113.659761,25.3251591 C113.640954,25.2092915 113.551652,25.1157623 113.433082,25.1157623 L112.369422,25.1157623 C112.238296,25.1157623 112.125304,25.2286119 112.125304,25.3600579 C112.125304,26.7431896 112.877187,28.3788827 116.467125,28.3788827 C119.065942,28.3788827 120.564829,27.358034 120.564829,25.5694547 C120.564829,23.7963415 119.354001,23.3204252 116.833303,22.9868994 C114.286099,22.6496314 114.043378,22.4845723 114.043378,21.8875978 C114.043378,21.3948176 114.249134,20.7358623 116.135821,20.7358623 C117.820936,20.7358623 118.443787,21.0995409 118.699065,22.2365918 C118.721385,22.3434673 118.815546,22.4285085 118.925747,22.4285085 L119.989406,22.4285085 C120.054969,22.4285085 120.11844,22.3883047 120.163778,22.341233 C120.208415,22.2909783 120.239802,22.2343575 120.233525,22.1667921 C120.068919,20.208573 118.763931,19.2875645 116.135821,19.2875645 L116.135821,19.2875645 Z M87.8529486,21.6782009 C87.8181851,21.6782009 87.779713,21.6782009 87.7483261,21.6955028 L86.0743704,22.6726852 C86.0115964,22.7084226 85.9697479,22.7749248 85.9697479,22.8471811 L85.9697479,24.7666472 C85.9697479,24.8389035 86.0115964,24.9051283 86.0743704,24.9411453 L87.7483261,25.9008497 C87.8110978,25.937144 87.8780577,25.937144 87.9401321,25.9008497 L89.6140878,24.9411453 C89.6761645,24.9054079 89.7187103,24.8389035 89.7187103,24.7666472 L89.7187103,22.8471811 C89.7187103,22.7749248 89.6761931,22.708645 89.6140878,22.6726852 L87.9401321,21.6955028 C87.9091081,21.6770783 87.8877384,21.6782009 87.8529486,21.6782009 L87.8529486,21.6782009 Z" id="path28" fill="#83CD29"></path>
                </g>
            </g>
        </g>
    </g>
</svg>