<?xml version="1.0" encoding="UTF-8" standalone="no"?>
<svg width="200px" height="200px" viewBox="0 0 200 200" version="1.1" xmlns="http://www.w3.org/2000/svg" xmlns:xlink="http://www.w3.org/1999/xlink" xmlns:sketch="http://www.bohemiancoding.com/sketch/ns">
    <!-- Generator: Sketch 3.0.4 (8053) - http://www.bohemiancoding.com/sketch -->
    <title>Artboard 1</title>
    <desc>Created with Sketch.</desc>
    <defs>
        <linearGradient x1="9.1197607e-05%" y1="49.9999396%" x2="99.9998176%" y2="49.9998793%" id="linearGradient-1">
            <stop stop-color="#E4E4E4" offset="0%"></stop>
            <stop stop-color="#B3B1B3" offset="100%"></stop>
        </linearGradient>
        <linearGradient x1="4.53753449e-05%" y1="50.0001109%" x2="99.9999546%" y2="50.0001109%" id="linearGradient-2">
            <stop stop-color="#FFFFFF" offset="0%"></stop>
            <stop stop-color="#CDCBCA" offset="100%"></stop>
        </linearGradient>
        <linearGradient x1="-18.7299369%" y1="90.5256199%" x2="59.5452368%" y2="30.130719%" id="linearGradient-3">
            <stop stop-color="#969796" offset="0%"></stop>
            <stop stop-color="#59595C" offset="100%"></stop>
        </linearGradient>
        <linearGradient x1="-18.7464558%" y1="90.5167984%" x2="59.5587237%" y2="30.1209687%" id="linearGradient-4">
            <stop stop-color="#969796" offset="0%"></stop>
            <stop stop-color="#59595C" offset="100%"></stop>
        </linearGradient>
        <linearGradient x1="-18.7331762%" y1="90.5216545%" x2="59.560286%" y2="30.1264844%" id="linearGradient-5">
            <stop stop-color="#969796" offset="0%"></stop>
            <stop stop-color="#59595C" offset="100%"></stop>
        </linearGradient>
        <linearGradient x1="12.2728604%" y1="26.1279857%" x2="87.7295707%" y2="73.8738747%" id="linearGradient-6">
            <stop stop-color="#CDCAC8" offset="35.58%"></stop>
            <stop stop-color="#969796" offset="100%"></stop>
        </linearGradient>
        <linearGradient x1="0.000311707095%" y1="49.9999546%" x2="99.9998753%" y2="49.9999546%" id="linearGradient-7">
            <stop stop-color="#FFFFFF" offset="0%"></stop>
            <stop stop-color="#E4E4E4" offset="100%"></stop>
        </linearGradient>
    </defs>
    <g id="Page-1" stroke="none" stroke-width="1" fill="none" fill-rule="evenodd" sketch:type="MSPage">
        <g id="Artboard-1" sketch:type="MSArtboardGroup">
            <g id="shape" sketch:type="MSLayerGroup" fill="#1F1B1C">
                <g id="dark" sketch:type="MSShapeGroup">
                    <polygon id="Polygon-2" transform="translate(100.000000, 100.000000) scale(1, -1) translate(-100.000000, -100.000000) " points="100 0 186.60254 50 186.60254 150 100 200 13.3974596 150 13.3974596 50 "></polygon>
                    <polygon id="Polygon-3" transform="translate(100.000000, 100.000000) scale(1, -1) translate(-100.000000, -100.000000) " points="100 0 195.105652 69.0983006 158.778525 180.901699 41.2214748 180.901699 4.89434837 69.0983006 "></polygon>
                </g>
            </g>
            <g id="phonegap" sketch:type="MSLayerGroup" transform="translate(45.000000, 36.000000)">
                <path d="M54.7759035,75.9567742 L0.021745614,103.079677 L56.4000088,130.202581 L110.961053,103.079677 L54.7759035,75.9567742 Z" id="Shape" opacity="0.1" fill="#000000" sketch:type="MSShapeGroup"></path>
                <path d="M2.57831579,41.9367742 L55.9401053,14.7651613 L109.344737,40.9887097 L55.9800263,68.2087097 L2.57831579,41.9367742 L2.57831579,41.9367742 Z" id="Shape" fill="url(#linearGradient-1)" sketch:type="MSShapeGroup"></path>
                <path d="M83.6177281,18.7432258 L75.4864912,22.7841935 L75.4864912,20.3577419 L67.3591491,10.66 L59.2298596,14.7012903 L59.2298596,12.2780645 L51.1008947,2.58032258 L20.2162807,17.933871 L20.2162807,73.6964516 L52.725,89.8587097 L91.7444211,70.463871 L91.7444211,28.4409677 L83.6177281,18.7432258 Z" id="Shape" fill="url(#linearGradient-2)" sketch:type="MSShapeGroup"></path>
                <path d="M51.1008947,2.58032258 L51.1008947,2.58032258 L59.2298596,13.8958065 L49.4764649,18.7432258 L51.1008947,2.58032258 Z" id="Shape" opacity="0.1" fill="#343433" sketch:type="MSShapeGroup"></path>
                <path d="M51.1008947,2.58032258 L59.2298596,12.2780645 L51.1008947,15.5112903 L51.1008947,2.58032258 Z" id="Shape" fill="url(#linearGradient-3)" sketch:type="MSShapeGroup"></path>
                <path d="M67.3591491,10.66 L67.3591491,10.66 L75.4864912,21.9754839 L65.7350439,26.826129 L67.3591491,10.66 Z" id="Shape" opacity="0.1" fill="#343433" sketch:type="MSShapeGroup"></path>
                <path d="M67.3591491,10.66 L75.4864912,20.3577419 L67.3591491,23.5932258 L67.3591491,10.66 Z" id="Shape" fill="url(#linearGradient-4)" sketch:type="MSShapeGroup"></path>
                <path d="M83.6177281,18.7432258 L83.6177281,18.7432258 L91.7444211,30.0551613 L81.9871316,34.906129 L83.6177281,18.7432258 Z" id="Shape" opacity="0.1" fill="#343433" sketch:type="MSShapeGroup"></path>
                <path d="M83.6177281,18.7432258 L91.7444211,28.4409677 L83.6177281,31.6735484 L83.6177281,18.7432258 Z" id="Shape" fill="url(#linearGradient-5)" sketch:type="MSShapeGroup"></path>
                <path d="M108.045842,41.7229032 L108.045842,86.936129 L55.9800263,112.814516 L55.9800263,67.603871 L108.045842,41.7229032 Z" id="Shape" fill="url(#linearGradient-6)" sketch:type="MSShapeGroup"></path>
                <path d="M3.91485965,41.7167742 L3.91485965,86.9303226 L55.9767807,112.814516 L55.9767807,67.5970968 L3.91485965,41.7167742 Z" id="Shape" fill="url(#linearGradient-7)" sketch:type="MSShapeGroup"></path>
                <path d="M90.6415614,56.2725806 C90.7863158,56.2022581 93.549307,54.866129 93.5600175,58.4235484 C93.5717018,61.9835484 93.6346667,81.5564516 93.647,85.1141935 C93.6583596,88.673871 90.8953684,90.0109677 90.750614,90.0806452 L79.1264474,95.7051613 C78.9813684,95.7751613 76.2183772,97.1109677 76.2070175,93.5509677 C76.1959825,89.993871 76.1245789,68.0180645 76.1210088,66.8612903 C76.1093246,63.3035484 78.8719912,61.9674194 79.0173947,61.8964516 L90.6415614,56.2725806 L90.6415614,56.2725806 Z M92.1819298,82.2596774 C92.1712193,78.6996774 92.1309737,66.2445161 92.119614,62.6867742 C92.1131228,60.9064516 90.7327632,61.5751613 90.6600614,61.61 L79.0362193,67.233871 C78.9625439,67.2687097 77.5825088,67.9374194 77.5873772,69.7174194 C77.5902982,70.5177419 77.6389825,85.7303226 77.6503421,89.29 C77.6568333,91.0706452 79.0365439,90.4019355 79.1098947,90.3674194 L90.7337368,84.7432258 C90.806114,84.7083871 92.1874474,84.0396774 92.1819298,82.2596774 L92.1819298,82.2596774 Z" id="Shape" fill="#343434" sketch:type="MSShapeGroup"></path>
                <path d="M109.173044,38.6632258 L94.3412368,31.566129 L94.3412368,28.4409677 C94.3412368,27.8374194 94.1286491,27.2529032 93.7398246,26.7893548 L85.6124825,17.0916129 C84.8500877,16.1822581 83.522307,15.9054839 82.4561228,16.4351613 L77.5945175,18.8516129 C77.5584912,18.8019355 69.3535789,9.0083871 69.3535789,9.0083871 C68.5911842,8.09967742 67.2627544,7.82129032 66.1968947,8.35225806 L61.3352895,10.7693548 C61.300886,10.7206452 53.095,0.929032258 53.095,0.929032258 C52.3335789,0.0193548387 51.0041754,-0.258064516 49.9389649,0.272580645 L19.0546754,15.6258065 C18.175114,16.0629032 17.6197895,16.9564516 17.6197895,17.933871 L17.6197895,32.2193548 L2.7152807,39.6287097 C1.8357193,40.0658065 1.28039474,40.9593548 1.28039474,41.9367742 L1.28039474,87.1458065 C1.28039474,88.1367742 1.85194737,89.0409677 2.75033333,89.4706452 L54.8537982,114.404516 C55.5720526,114.74871 56.4288947,114.741935 57.1419561,114.387419 L109.207447,88.5087097 C110.087009,88.0719355 110.643307,87.1780645 110.643307,86.2012903 L110.643307,40.9883871 C110.642982,39.9970968 110.071105,39.0932258 109.173044,38.6632258 L109.173044,38.6632258 Z M90.9414561,28.2390323 L84.1045702,30.9587097 L84.1045702,20.0803226 L90.9414561,28.2390323 L90.9414561,28.2390323 Z M67.8459912,11.9967742 L74.6838509,20.1558065 L67.8459912,22.8780645 L67.8459912,11.9967742 L67.8459912,11.9967742 Z M66.872307,11.4432258 L66.872307,23.5935484 C66.872307,23.9303226 67.2257544,24.1674194 67.5402544,24.0429032 L74.9996491,21.0732258 L74.9996491,22.4854839 L52.5072193,33.663871 C52.3423421,33.7458065 52.2381579,33.9132258 52.2381579,34.0967742 L52.2381579,36.8154839 L48.7273772,38.5203226 L47.9247368,43.4396774 L52.2381579,41.3458065 L52.2381579,44.2722581 L47.4031667,46.6196774 L46.6089649,51.5367742 L52.2381579,48.8041935 L52.2381579,55.2983871 L49.3592982,55.3683871 L49.7523421,52.9374194 L46.1185526,54.7009677 L45.1614211,60.6016129 L52.2381579,60.436129 L52.2381579,65.1977419 L36.9555351,57.6006452 L36.9555351,26.316129 L66.872307,11.4432258 L66.872307,11.4432258 Z M51.5877368,3.91709677 L58.4272193,12.076129 L51.5877368,14.7964516 L51.5877368,3.91709677 L51.5877368,3.91709677 Z M20.7031228,18.2329032 L50.6140526,3.36322581 L50.6140526,15.5112903 C50.6140526,15.8477419 50.9675,16.0851613 51.2816754,15.9606452 L58.7430175,12.9929032 L58.7430175,14.4025806 L36.2509123,25.5845161 C36.0860351,25.6664516 35.9818509,25.833871 35.9818509,26.0170968 L35.9818509,29.6641935 L33.8877807,30.7248387 L33.9462018,46.8222581 C33.9507456,48.1035484 33.6962895,49.5077419 32.6456842,50.3645161 C32.1176228,50.7951613 31.3425702,51.2696774 30.6376228,51.0035484 C30.0482193,50.7812903 29.7269035,50.1612903 29.4227895,49.6545161 L27.0255789,52.6648387 L20.7027982,49.5219355 L20.7027982,18.2329032 L20.7031228,18.2329032 Z M35.9818509,51.5083871 L35.9818509,57.1164516 L31.8774474,55.076129 C33.5434211,54.2906452 34.9757105,53.0445161 35.9818509,51.5083871 L35.9818509,51.5083871 Z M17.6197895,35.1048387 L17.6197895,47.9887097 L4.66102632,41.5467742 L17.6197895,35.1048387 L17.6197895,35.1048387 Z M55.4899386,111.845484 L45.5067544,107.067742 L4.40170175,86.6316129 L4.40170175,42.5 L55.4899386,67.896129 L55.4899386,111.845484 L55.4899386,111.845484 Z M55.9852193,67.0603226 L53.2118421,65.6819355 L53.2118421,34.3958065 L83.130886,19.5264516 L83.130886,31.673871 C83.130886,32.0106452 83.4843333,32.2477419 83.7988333,32.1232258 L91.2575789,29.156129 L91.2575789,49.5274194 L82.6135351,53.8241935 L84.6855351,34.7445161 L63.9506053,43.94 L64.6042719,62.7764516 L55.9852193,67.0603226 L55.9852193,67.0603226 Z M70.4233333,52.6009677 L79.883,48.4041935 L79.1037281,55.5683871 L76.4828947,56.8712903 L76.9217018,52.8416129 L67.9255088,56.8312903 L67.6022456,47.5270968 L80.6028772,41.7616129 L80.2374211,45.0467742 L70.3142807,49.4487097 L70.4233333,52.6009677 L70.4233333,52.6009677 Z M70.6625351,59.7645161 L68.071886,61.0522581 L67.9787368,58.3696774 L70.5839912,57.2151613 L70.6625351,59.7645161 L70.6625351,59.7645161 Z M107.559,86.4435484 L56.4665439,111.838065 L56.4665439,67.9029032 L107.559,42.506129 L107.559,86.4435484 L107.559,86.4435484 Z M94.3412368,47.9945161 L94.3412368,34.4306452 L108.046167,40.9883871 L94.3412368,47.9945161 L94.3412368,47.9945161 Z" id="Shape" fill="#343433" sketch:type="MSShapeGroup"></path>
            </g>
        </g>
    </g>
</svg>