<?xml version="1.0" encoding="UTF-8" standalone="no"?>
<svg width="200px" height="200px" viewBox="0 0 200 200" version="1.1" xmlns="http://www.w3.org/2000/svg" xmlns:xlink="http://www.w3.org/1999/xlink" xmlns:sketch="http://www.bohemiancoding.com/sketch/ns">
    <!-- Generator: Sketch 3.0.4 (8053) - http://www.bohemiancoding.com/sketch -->
    <title>Artboard 1</title>
    <desc>Created with Sketch.</desc>
    <defs></defs>
    <g id="Page-1" stroke="none" stroke-width="1" fill="none" fill-rule="evenodd" sketch:type="MSPage">
        <g id="Artboard-1" sketch:type="MSArtboardGroup">
            <g id="shape" sketch:type="MSLayerGroup" fill="#1F1B1C">
                <g id="dark" sketch:type="MSShapeGroup">
                    <polygon id="Polygon-2" transform="translate(100.000000, 100.000000) scale(1, -1) translate(-100.000000, -100.000000) " points="100 0 186.60254 50 186.60254 150 100 200 13.3974596 150 13.3974596 50 "></polygon>
                    <polygon id="Polygon-3" transform="translate(100.000000, 100.000000) scale(1, -1) translate(-100.000000, -100.000000) " points="100 0 195.105652 69.0983006 158.778525 180.901699 41.2214748 180.901699 4.89434837 69.0983006 "></polygon>
                </g>
            </g>
            <g id="photoshop" sketch:type="MSLayerGroup" transform="translate(51.096361, 51.088624)">
                <g id="layer1" transform="translate(-0.236508, 0.072592)" sketch:type="MSShapeGroup">
                    <rect id="rect2998" fill="#9CD0FF" x="0" y="0" width="98.0907012" height="98.0907012"></rect>
                    <path d="M6.89956456,49.3780235 L6.89956456,7.47751791 L48.7917774,7.47751791 C87.921764,7.47751791 90.6864022,7.49004752 90.7205555,7.66737182 C90.7406635,7.77178691 90.7442506,26.6270157 90.7285886,49.5678774 L90.7000433,91.2785342 L48.7998433,91.2785342 L6.89963529,91.2785342 L6.89963529,49.3780235 L6.89956456,49.3780235 Z M64.5763712,73.4064908 C67.5300004,73.1819076 70.1241,72.4748537 71.9740216,71.3901633 C74.2573222,70.0513644 76.3504824,67.280133 76.8548952,64.9281484 C77.2016319,63.311369 77.0104644,60.8970344 76.3876216,59.0268133 C75.9910291,57.8359548 75.4327087,57.0272543 74.1604137,55.8008026 C72.4558038,54.15762 71.5571539,53.6438757 67.7429411,52.1320874 C63.5891248,50.4856865 62.4872376,49.7170101 62.2184411,48.2781966 C61.9838661,47.0225781 62.5148775,45.7906245 63.5610555,45.1632952 C64.4181217,44.649369 64.7775841,44.5624095 66.3292939,44.4935926 C68.4304372,44.4004137 70.4038664,44.8215147 72.5447958,45.8198922 C73.6034817,46.3135841 73.9179223,46.3673857 74.0071629,46.0700903 C74.2978428,45.1016677 75.6593683,40.0848574 75.6593683,39.9822005 C75.6593683,39.6147495 72.3288359,38.5320144 69.9050753,38.1115197 C67.1047979,37.6256992 63.4289757,37.8489991 61.0914477,38.646923 C58.0011806,39.7018101 55.2902009,42.0049292 54.2786628,44.434754 C53.0249495,47.4463114 53.3036985,50.9932974 54.992894,53.522874 C56.4416903,55.6924669 58.6878401,57.1253945 63.3889072,58.8791054 C66.326116,59.9748097 67.6236516,60.8834994 68.0083561,62.11419 C68.6298071,64.1021996 67.811237,65.770704 65.848891,66.5158268 C65.2918124,66.7273549 64.9824159,66.7613869 63.6947302,66.7527627 C60.530784,66.7315432 58.2521315,66.2180364 55.5565774,64.9186956 C54.4645406,64.3923055 54.2522672,64.4298489 54.0535759,65.1845254 C53.9842508,65.447819 53.8077374,66.0958171 53.6613173,66.6245212 C53.2464175,68.1226987 52.5886417,70.7800319 52.5886417,70.9580231 C52.5886417,71.0467105 52.9051518,71.2568644 53.2954653,71.4273379 C55.7993401,72.5209151 58.5591301,73.2288835 61.0139798,73.4073598 C62.7249794,73.5317566 62.9295283,73.531706 64.5763712,73.4063493 L64.5763712,73.4064908 Z M29.5663883,72.6668548 C29.7247962,72.5084461 29.7441009,71.5653 29.7441009,63.9855731 L29.7441009,55.4820048 L32.7693059,55.4741738 C35.8604097,55.4661407 37.1071453,55.3689605 39.3003565,54.9650422 C41.4754285,54.5644635 42.6909613,54.1592772 44.5591247,53.212069 C46.9582994,51.9956308 48.4056254,50.8336358 49.7180217,49.0701892 C53.0194648,44.6341162 53.5561191,38.3211431 51.0666296,33.2059147 C48.1263339,27.1643945 41.470588,24.6860933 29.9702841,25.3505819 C26.3392803,25.5603822 21.3899539,26.1546595 20.9512143,26.4335242 L20.6967578,26.5952622 L20.6967578,49.5842114 C20.6967578,67.3137204 20.7278131,72.6042168 20.8324679,72.7088744 C20.9331649,72.8095711 22.054583,72.8445883 25.178427,72.8445883 C28.8551314,72.8445883 29.4111924,72.8220552 29.5663883,72.6668699 L29.5663883,72.6668548 Z M31.4970236,48.2359344 C31.186021,48.2120878 30.6643851,48.1630303 30.3378326,48.1268915 L29.7441009,48.0611969 L29.7441009,40.3370007 L29.7441009,32.6128044 L30.1681948,32.5451698 C31.4428866,32.3418819 33.7483868,32.253629 35.0614728,32.3578521 C38.309865,32.6156993 40.3130597,33.3889733 41.7994023,34.9588374 C42.4797965,35.6774661 42.8881486,36.394756 43.2200842,37.4543871 C43.5824077,38.6110115 43.581808,41.2212829 43.2189727,42.5714797 C42.4197645,45.5449987 40.1329809,47.3598166 36.3552399,48.0186013 C35.3504308,48.1938238 32.5702842,48.3181954 31.4970883,48.2359344 L31.4970236,48.2359344 Z" id="path2996" fill="#2B3773"></path>
                </g>
            </g>
        </g>
    </g>
</svg>