<?xml version="1.0" encoding="UTF-8" standalone="no"?>
<svg width="200px" height="200px" viewBox="0 0 200 200" version="1.1" xmlns="http://www.w3.org/2000/svg" xmlns:xlink="http://www.w3.org/1999/xlink" xmlns:sketch="http://www.bohemiancoding.com/sketch/ns">
    <!-- Generator: Sketch 3.0.4 (8053) - http://www.bohemiancoding.com/sketch -->
    <title>Artboard 1</title>
    <desc>Created with Sketch.</desc>
    <defs>
        <radialGradient cx="25.5273232%" cy="4.62090951%" fx="25.5273232%" fy="4.62090951%" r="50%" id="radialGradient-1">
            <stop stop-color="#DDDCE9" offset="0%"></stop>
            <stop stop-color="#5664A3" offset="37%"></stop>
            <stop stop-color="#000000" offset="100%"></stop>
        </radialGradient>
    </defs>
    <g id="Page-1" stroke="none" stroke-width="1" fill="none" fill-rule="evenodd" sketch:type="MSPage">
        <g id="Artboard-1" sketch:type="MSArtboardGroup">
            <g id="shape" sketch:type="MSLayerGroup" fill="#1F1B1C">
                <g id="dark" sketch:type="MSShapeGroup">
                    <polygon id="Polygon-2" transform="translate(100.000000, 100.000000) scale(1, -1) translate(-100.000000, -100.000000) " points="100 0 186.60254 50 186.60254 150 100 200 13.3974596 150 13.3974596 50 "></polygon>
                    <polygon id="Polygon-3" transform="translate(100.000000, 100.000000) scale(1, -1) translate(-100.000000, -100.000000) " points="100 0 195.105652 69.0983006 158.778525 180.901699 41.2214748 180.901699 4.89434837 69.0983006 "></polygon>
                </g>
            </g>
            <g id="php" sketch:type="MSLayerGroup" transform="translate(35.000000, 66.000000)">
                <ellipse id="ellipse3860" stroke="url(#radialGradient-1)" stroke-width="2.44863014" fill="#6C7EB7" sketch:type="MSShapeGroup" cx="65" cy="33.8356164" rx="65" ry="33.8356164"></ellipse>
                <path d="M18.2534247,53.869863 L25.3767123,17.8082192 L41.8493151,17.8082192 C48.9726027,18.2534247 52.5342466,21.8150685 52.5342466,28.0479452 C52.5342466,38.7328767 44.0753425,44.9657534 36.5068493,44.5205479 L28.4931507,44.5205479 L26.7123288,53.869863 L18.2534247,53.869863 L18.2534247,53.869863 Z M30.2739726,37.8424658 L32.5,24.4863014 L38.2876712,24.4863014 C41.4041096,24.4863014 43.630137,25.8219178 43.630137,28.4931507 C43.1849315,36.0616438 39.6232877,37.3972603 35.6164384,37.8424658 L30.2739726,37.8424658 L30.2739726,37.8424658 Z" id="p" stroke="#FFFFFF" stroke-width="0.890410959" fill="#000000" sketch:type="MSShapeGroup"></path>
                <path d="M49.8630137,44.5205479 L56.9863014,8.45890411 L65.4452055,8.45890411 L63.6643836,17.8082192 L71.6780822,17.8082192 C78.8013699,18.2534247 81.4726027,21.8150685 80.5821918,26.2671233 L77.4657534,44.5205479 L68.5616438,44.5205479 L71.6780822,28.0479452 C72.1232877,25.8219178 72.1232877,24.4863014 69.0068493,24.4863014 L62.3287671,24.4863014 L58.3219178,44.5205479 L49.8630137,44.5205479 L49.8630137,44.5205479 Z" id="h" stroke="#FFFFFF" stroke-width="0.890410959" fill="#000000" sketch:type="MSShapeGroup"></path>
                <g id="p2" transform="translate(77.910959, 17.808219)" stroke="#FFFFFF" stroke-width="0.890410959" fill="#000000" sketch:type="MSShapeGroup">
                    <path d="M0,36.0616438 L7.12328767,0 L23.5958904,0 C30.7191781,0.445205479 34.2808219,4.00684932 34.2808219,10.239726 C34.2808219,20.9246575 25.8219178,27.1575342 18.2534247,26.7123288 L10.239726,26.7123288 L8.45890411,36.0616438 L0,36.0616438 L0,36.0616438 Z M12.0205479,20.0342466 L14.2465753,6.67808219 L20.0342466,6.67808219 C23.1506849,6.67808219 25.3767123,8.01369863 25.3767123,10.6849315 C24.9315068,18.2534247 21.369863,19.5890411 17.3630137,20.0342466 L12.0205479,20.0342466 L12.0205479,20.0342466 Z" id="p"></path>
                </g>
            </g>
        </g>
    </g>
</svg>