<?xml version="1.0" encoding="UTF-8" standalone="no"?>
<svg width="200px" height="200px" viewBox="0 0 200 200" version="1.1" xmlns="http://www.w3.org/2000/svg" xmlns:xlink="http://www.w3.org/1999/xlink" xmlns:sketch="http://www.bohemiancoding.com/sketch/ns">
    <!-- Generator: Sketch 3.0.4 (8053) - http://www.bohemiancoding.com/sketch -->
    <title>Artboard 1</title>
    <desc>Created with Sketch.</desc>
    <defs></defs>
    <g id="Page-1" stroke="none" stroke-width="1" fill="none" fill-rule="evenodd" sketch:type="MSPage">
        <g id="Artboard-1" sketch:type="MSArtboardGroup">
            <g id="shape" sketch:type="MSLayerGroup" fill="#1F1B1C">
                <g id="dark" sketch:type="MSShapeGroup">
                    <polygon id="Polygon-2" transform="translate(100.000000, 100.000000) scale(1, -1) translate(-100.000000, -100.000000) " points="100 0 186.60254 50 186.60254 150 100 200 13.3974596 150 13.3974596 50 "></polygon>
                    <polygon id="Polygon-3" transform="translate(100.000000, 100.000000) scale(1, -1) translate(-100.000000, -100.000000) " points="100 0 195.105652 69.0983006 158.778525 180.901699 41.2214748 180.901699 4.89434837 69.0983006 "></polygon>
                </g>
            </g>
            <g id="postgresql" sketch:type="MSLayerGroup">
                <g id="orginal"></g>
                <g id="Layer_x0020_3" transform="translate(43.825926, 49.463196)" sketch:type="MSShapeGroup">
                    <path d="M83.1561083,83.879377 C83.9289285,77.4446651 83.6973279,76.5010383 88.4927411,77.5433629 L89.7102125,77.65024 C93.3975439,77.8179171 98.2210547,77.0575082 101.05482,75.7417199 C107.154998,72.9127478 110.772222,68.1894332 104.757155,69.4305166 C91.0365279,72.2594887 90.0932126,67.6160593 90.0932126,67.6160593 C104.581476,46.130758 110.638008,18.8571878 105.410219,12.1811845 C91.1513734,-6.028551 66.4696853,2.58241903 66.056678,2.80598853 L65.9251922,2.830254 C63.2141838,2.26805851 60.1801895,1.93215897 56.7719244,1.87708453 C50.5629023,1.77511503 45.8515091,3.50396159 42.2776592,6.2132422 C42.2776592,6.2132422 -1.753176,-11.9171534 0.295220245,29.0140591 C0.730869307,37.7212731 12.7828265,94.9002626 27.1570632,77.6295189 C32.4107672,71.3142259 37.4879746,65.9744593 37.4879746,65.9744593 C40.0091197,67.6485041 43.0275648,68.5024305 46.1933177,68.1957041 L46.4380122,67.9871301 C46.3613577,68.7712592 46.3951839,69.5382117 46.5359446,70.4461219 C42.8336096,74.5813397 43.9215047,75.3073953 36.5181985,76.8303943 C29.0281445,78.3732965 33.4285547,81.1202022 36.3007832,81.8380784 C39.7837934,82.7086362 47.8412551,83.9418128 53.2870047,76.3240912 L53.070135,77.1932858 C54.5227532,78.3547566 54.424548,85.5414253 54.6305061,90.6761623 C54.8367369,95.811172 55.1807278,100.602921 56.2279769,103.428076 C57.275226,106.252685 58.5109744,113.5296 68.240652,111.445496 C76.3723131,109.703835 82.589519,107.19713 83.1561083,83.8791043" id="Shape" stroke="#000000" stroke-width="8" fill="#000000"></path>
                    <path d="M104.758519,69.4299713 C91.0365279,72.2589434 90.0932126,67.615514 90.0932126,67.615514 C104.581476,46.1288494 110.638008,18.854734 105.41131,12.1795487 C91.1524646,-6.02909629 66.4696853,2.58241903 66.0577692,2.80598853 L65.9251922,2.82970871 C63.2141838,2.26724057 60.1801895,1.93215897 56.7702877,1.87653924 C50.5612656,1.77484239 45.8515091,3.5034163 42.2776592,6.21215161 C42.2776592,6.21215161 -1.75399438,-11.9174261 0.293856285,29.0135139 C0.729505346,37.7212731 12.7811897,94.9002626 27.155972,77.6295189 C32.4099488,71.3142259 37.4863379,65.9744593 37.4863379,65.9744593 C40.0077557,67.6485041 43.0262008,68.5024305 46.1905898,68.1957041 L46.4363755,67.9871301 C46.3599937,68.7712592 46.3949111,69.5382117 46.5348535,70.4461219 C42.8317,74.5813397 43.9198679,75.3073953 36.5171074,76.8303943 C29.0265078,78.3732965 33.4269179,81.1202022 36.2999648,81.8380784 C39.782975,82.7086362 47.8409823,83.9418128 53.2856408,76.3240912 L53.0684982,77.1932858 C54.5194797,78.3547566 55.5383583,84.7485715 55.3675905,90.5444744 C55.1968226,96.34065 55.0827955,100.319914 56.2260673,103.428076 C57.3693392,106.536237 58.508792,113.5296 68.2403792,111.445496 C76.3720403,109.703835 80.5858607,105.190458 81.172091,97.6618912 C81.588099,92.3095829 82.5295047,93.1008008 82.5889734,88.3155956 L83.3440621,86.0501822 C84.2148146,78.7948068 83.4823677,76.4541432 88.4921955,77.5428176 L89.7096669,77.6496947 C93.3969984,77.8173718 98.2229643,77.0569629 101.055365,75.7411746 C107.154452,72.9122025 110.771676,68.188888 104.757973,69.4299713 L104.758519,69.4299713 Z" id="Shape" fill="#336791"></path>
                    <path d="M53.8748718,73.5889092 C53.4970547,87.0892351 53.9698035,100.683624 55.2914814,103.987545 C56.6139778,107.291466 59.4441963,113.717725 69.1766018,111.633894 C77.3074446,109.891688 80.2658755,106.520151 81.5496353,99.0782857 C82.4951329,93.6030142 84.3179301,78.3970167 84.5517129,75.2814939" id="Shape" stroke="#FFFFFF" stroke-width="3"></path>
                    <path d="M42.2097339,5.91060544 C42.2097339,5.91060544 -1.85192676,-12.088375 0.196469487,28.842565 C0.632118549,37.5503243 12.6846213,94.7312222 27.0591308,77.4596606 C32.3120164,71.1435497 37.0626917,66.1898495 37.0626917,66.1898495" id="Shape" stroke="#FFFFFF" stroke-width="3"></path>
                    <path d="M66.009485,2.62549706 C64.4843041,3.10344502 90.519314,-6.88683975 105.315287,12.0091451 C110.541712,18.6846031 104.485181,45.9587185 89.9971898,67.4459283" id="Shape" stroke="#FFFFFF" stroke-width="3"></path>
                    <path d="M89.996917,67.4459283 C89.996917,67.4459283 90.9410506,72.090721 104.663314,69.2598404 C110.675653,68.018757 107.057338,72.7426169 100.959615,75.5729522 C95.9552431,77.8942579 84.7355748,78.4891709 84.5522585,75.2814939 C84.0806009,67.0053328 90.4573902,69.5196718 89.9971898,67.4459283 C89.5811818,65.5783051 86.7294127,63.7453079 84.8430549,59.1744022 C83.1962087,55.1847773 62.2569562,24.5895643 90.6499814,29.133478 C91.6901379,28.9183605 83.2447657,2.1410056 56.6729009,1.70559037 C30.1070375,1.27017514 30.9786084,34.3581881 30.9786084,34.3581881" id="Shape" stroke="#FFFFFF" stroke-width="3"></path>
                    <path d="M46.4380122,70.2762636 C42.7343132,74.4112088 43.8235723,75.1372643 36.4202662,76.6608087 C28.9296665,78.2039835 33.3306223,80.9503439 36.2028508,81.6679475 C39.685861,82.5390506 47.7438683,83.7722272 53.1885268,76.152597 C54.8465574,73.8326545 53.1787063,70.1309435 50.9011646,69.1873166 C49.8007211,68.7317256 48.3292802,68.1608054 46.4380122,70.2762636 L46.4380122,70.2762636 Z" id="Shape" stroke="#FFFFFF" stroke-width="3"></path>
                    <path d="M46.1955,70.2040125 C45.8223204,67.7728306 46.994781,64.8797867 48.2512617,61.4951627 C50.1395289,56.4168633 54.4962923,51.3377461 51.0110998,35.2287459 C48.4133002,23.2244271 30.9892473,32.7304931 30.9783356,34.3581881 C30.9676967,35.9853378 31.7664321,42.6084478 30.6872664,50.3210502 C29.2791133,60.3852219 37.0946084,68.8969489 46.0942941,68.0261185" id="Shape" stroke="#FFFFFF" stroke-width="3"></path>
                    <path d="M42.0496049,34.1141701 C41.9710408,34.6700948 43.067938,36.1535602 44.4981873,36.3517736 C45.9259814,36.550805 47.1480902,35.3915154 47.2255632,34.836136 C47.3030362,34.2802114 46.2075029,33.6678491 44.7767081,33.4688177 C43.3480956,33.2695137 42.1254412,33.5596087 42.0498777,34.1141701 L42.0496049,34.1141701 Z" id="Shape" stroke="#FFFFFF" stroke-width="3" fill="#FFFFFF"></path>
                    <path d="M85.5392205,32.9807818 C85.6166935,33.5367065 84.5211602,35.0201719 83.0906382,35.2183853 C81.6617529,35.4174167 80.4396441,34.2581271 80.3613527,33.7027477 C80.2857893,33.1468231 81.3815954,32.5344608 82.8107534,32.3354294 C84.2399115,32.136398 85.4617475,32.4262204 85.5392205,32.9810545 L85.5392205,32.9807818 Z" id="Shape" stroke="#FFFFFF" stroke-width="3" fill="#FFFFFF"></path>
                    <path d="M90.6499814,29.133478 C90.885401,33.4941738 89.7102125,36.4643763 89.5620863,41.1064425 C89.3427614,47.853879 92.7807609,55.5768419 87.600438,63.3093474" id="Shape" stroke="#FFFFFF" stroke-width="3"></path>
                </g>
            </g>
        </g>
    </g>
</svg>