<?xml version="1.0" encoding="UTF-8" standalone="no"?>
<svg width="200px" height="200px" viewBox="0 0 200 200" version="1.1" xmlns="http://www.w3.org/2000/svg" xmlns:xlink="http://www.w3.org/1999/xlink" xmlns:sketch="http://www.bohemiancoding.com/sketch/ns">
    <!-- Generator: Sketch 3.0.4 (8053) - http://www.bohemiancoding.com/sketch -->
    <title>Artboard 1</title>
    <desc>Created with Sketch.</desc>
    <defs>
        <linearGradient x1="194.008406%" y1="155.542681%" x2="268.529399%" y2="219.653053%" id="linearGradient-1">
            <stop stop-color="#5A9FD4" offset="0%"></stop>
            <stop stop-color="#306998" offset="100%"></stop>
        </linearGradient>
        <linearGradient x1="243.61426%" y1="236.634708%" x2="217.056916%" y2="199.273525%" id="linearGradient-2">
            <stop stop-color="#FFD43B" offset="0%"></stop>
            <stop stop-color="#FFE873" offset="100%"></stop>
        </linearGradient>
        <radialGradient cx="272.17159%" cy="977.528996%" fx="272.17159%" fy="977.528996%" r="23.3760609%" id="radialGradient-3">
            <stop stop-color="#525252" stop-opacity="0.49803922" offset="0%"></stop>
            <stop stop-color="#666666" stop-opacity="0" offset="100%"></stop>
        </radialGradient>
    </defs>
    <g id="Page-1" stroke="none" stroke-width="1" fill="none" fill-rule="evenodd" sketch:type="MSPage">
        <g id="Artboard-1" sketch:type="MSArtboardGroup">
            <g id="shape" sketch:type="MSLayerGroup" fill="#1F1B1C">
                <g id="dark" sketch:type="MSShapeGroup">
                    <polygon id="Polygon-2" transform="translate(100.000000, 100.000000) scale(1, -1) translate(-100.000000, -100.000000) " points="100 0 186.60254 50 186.60254 150 100 200 13.3974596 150 13.3974596 50 "></polygon>
                    <polygon id="Polygon-3" transform="translate(100.000000, 100.000000) scale(1, -1) translate(-100.000000, -100.000000) " points="100 0 195.105652 69.0983006 158.778525 180.901699 41.2214748 180.901699 4.89434837 69.0983006 "></polygon>
                </g>
            </g>
            <g id="python" sketch:type="MSLayerGroup" transform="translate(39.000000, 41.000000)">
                <g id="g4608" transform="translate(0.145725, 0.048017)" sketch:type="MSShapeGroup">
                    <path d="M59.1851875,-0.0470207725 C54.2332875,-0.0239615451 49.5043312,0.399463519 45.3433438,1.13764704 C33.0855813,3.30876103 30.86005,7.85310189 30.8600438,16.2336397 L30.8600438,27.301787 L59.8266375,27.301787 L59.8266375,30.9911694 L30.8600438,30.9911694 L19.9891313,30.9911694 C11.5706375,30.9911694 4.19915625,36.0641931 1.89345625,45.7148433 C-0.76615,56.7767118 -0.8841125,63.6795167 1.89345625,75.2298962 C3.95250625,83.827548 8.8697875,89.9535701 17.2882875,89.9535701 L27.2476625,89.9535701 L27.2476625,76.6853408 C27.2476625,67.0998204 35.519975,58.6446033 45.3433438,58.6446033 L74.2761688,58.6446033 C82.33005,58.6446033 88.7594688,51.9962207 88.7594688,43.8870799 L88.7594688,16.2336397 C88.7594688,8.36331863 82.1370125,2.45116455 74.2761688,1.13764704 C69.3001438,0.307182747 64.1370813,-0.0700925322 59.1851875,-0.0470207725 L59.1851875,-0.0470207725 Z M43.5202687,8.8548812 C46.5123188,8.8548812 48.955725,11.3445822 48.955725,14.4058764 C48.9557188,17.4563052 46.5123188,19.9230221 43.5202687,19.9230221 C40.5174937,19.9230221 38.0848125,17.4563052 38.0848125,14.4058764 C38.0848125,11.3445822 40.5174937,8.8548812 43.5202687,8.8548812 L43.5202687,8.8548812 Z" id="path1948" fill="url(#linearGradient-1)"></path>
                    <path d="M92.37185,30.9911694 L92.37185,43.8870799 C92.37185,53.8850973 83.9172312,62.3001362 74.2761688,62.3001362 L45.3433438,62.3001362 C37.4181563,62.3001362 30.86005,69.1004904 30.8600438,77.0576596 L30.8600438,104.711081 C30.8600438,112.581408 37.6862625,117.210648 45.3433438,119.468611 C54.5125375,122.171653 63.3053125,122.660164 74.2761688,119.468611 C81.5686313,117.351767 88.7594687,113.091613 88.7594687,104.711081 L88.7594687,93.6429525 L59.8266375,93.6429525 L59.8266375,89.9535701 L88.7594687,89.9535701 L103.242762,89.9535701 C111.661269,89.9535701 114.798344,84.0663614 117.72605,75.2298962 C120.750275,66.1328743 120.621594,57.3846295 117.72605,45.7148433 C115.645556,37.3125997 111.671969,30.9911694 103.242762,30.9911694 L92.37185,30.9911694 L92.37185,30.9911694 Z M76.0992437,101.021711 C79.102025,101.021711 81.5347,103.488422 81.5347,106.538851 C81.5347,109.600126 79.1020187,112.089846 76.0992437,112.089846 C73.1071875,112.089846 70.6637875,109.600126 70.6637875,106.538851 C70.6637875,103.488422 73.1071875,101.021711 76.0992437,101.021711 L76.0992437,101.021711 Z" id="path1950" fill="url(#linearGradient-2)"></path>
                    <path d="M98.9729438,138.267389 C98.9729438,142.435174 81.5936941,145.813831 60.1553031,145.813831 C38.7169122,145.813831 21.3376625,142.435174 21.3376625,138.267389 C21.3376625,134.099604 38.7169122,130.720946 60.1553031,130.720946 C81.5936941,130.720946 98.9729438,134.099604 98.9729438,138.267389 L98.9729438,138.267389 Z" id="path1894" opacity="0.44382019" fill="url(#radialGradient-3)"></path>
                </g>
            </g>
        </g>
    </g>
</svg>