<?xml version="1.0" encoding="UTF-8" standalone="no"?>
<svg width="200px" height="200px" viewBox="0 0 200 200" version="1.1" xmlns="http://www.w3.org/2000/svg" xmlns:xlink="http://www.w3.org/1999/xlink" xmlns:sketch="http://www.bohemiancoding.com/sketch/ns">
    <!-- Generator: Sketch 3.0.4 (8053) - http://www.bohemiancoding.com/sketch -->
    <title>Artboard 1</title>
    <desc>Created with Sketch.</desc>
    <defs></defs>
    <g id="Page-1" stroke="none" stroke-width="1" fill="none" fill-rule="evenodd" sketch:type="MSPage">
        <g id="Artboard-1" sketch:type="MSArtboardGroup">
            <g id="shape" sketch:type="MSLayerGroup" fill="#1F1B1C">
                <g id="dark" sketch:type="MSShapeGroup">
                    <polygon id="Polygon-2" transform="translate(100.000000, 100.000000) scale(1, -1) translate(-100.000000, -100.000000) " points="100 0 186.60254 50 186.60254 150 100 200 13.3974596 150 13.3974596 50 "></polygon>
                    <polygon id="Polygon-3" transform="translate(100.000000, 100.000000) scale(1, -1) translate(-100.000000, -100.000000) " points="100 0 195.105652 69.0983006 158.778525 180.901699 41.2214748 180.901699 4.89434837 69.0983006 "></polygon>
                </g>
            </g>
            <g id="ruby_on_rails" sketch:type="MSLayerGroup" transform="translate(56.000000, 45.000000)">
                <g id="layer1" transform="translate(-0.004806, 0.022210)" sketch:type="MSShapeGroup">
                    <g id="g14301" transform="translate(0.059803, -0.123733)">
                        <g id="g14292" transform="translate(-0.059806, -0.019130)">
                            <path d="M10.5381026,0.120733333 C5.40275815,0.0974 -0.0462018462,5.214 0.00516992308,10.5999 L0.00516992308,49.6936333 L0.00516992308,60.5374 L0.00516992308,110.120733 L75.4619007,110.120733 C80.5972485,110.143733 86.0462052,105.017033 85.9948334,99.6311667 L85.9948334,60.5374 L85.9948334,49.6936333 L85.9948334,0.120733333 L10.5381026,0.120733333 L10.5381026,0.120733333 Z M12.6777661,2.08946667 L83.7828142,2.08946667 L83.7828142,49.4124 L83.7828142,59.7665667 L83.7828142,97.0790667 C83.8312255,102.2202 78.6884718,107.111167 73.8494007,107.0895 L2.74435262,107.0895 L2.74435262,59.7665667 L2.74435262,49.4124 L2.74435262,12.0999 C2.69595446,6.95883333 7.838685,2.0673 12.6777661,2.08946667 L12.6777661,2.08946667 Z" id="rect13917-4-2" fill="#000000"></path>
                            <path d="M12.6674295,2.0374 C7.82834846,2.01506667 2.67528138,6.90673333 2.72367954,12.0478 L2.72367954,49.3603 L2.72367954,59.7144667 L2.72367954,64.7040667 L11.5614199,49.6519667 L3.29218915,28.9853 L20.6937533,2.08946667 L12.6674295,2.0374 L12.6674295,2.0374 Z M2.72367954,67.6624 L2.73919262,107.0947 L20.4379331,107.0947 L2.72368946,67.6611 L2.72368946,67.6612667 L2.72367954,67.6611 L2.72367954,67.6624 Z M83.7815175,68.1103333 L67.9162243,107.089467 L73.8463708,107.089467 C78.685442,107.111133 83.8281957,102.220167 83.7797843,97.0790333 L83.7814382,68.1108333 L83.7815175,68.1108333 L83.7815175,68.1103333 Z M43.2933361,83.6593333 L22.5698367,107.0895 L67.6319712,107.0945 L43.2933361,83.6591333 L43.2933361,83.6593 L43.2933361,83.6593333 Z" id="path14091-9" fill="#8B1E25"></path>
                            <path d="M20.7003356,2.07943333 L20.938076,26.4179667 L3.28201469,28.9779333 L11.4491337,49.4075667 L21.1344702,26.3034 L45.2806241,16.9700667 L20.7003356,2.07943333 L20.7003356,2.07943333 Z M11.2837458,50.1263 L2.71475869,64.7200667 L2.76644138,66.5742333 L21.7960087,72.2739333 L21.5117555,107.084633 L22.576419,107.084633 L43.2960087,83.6679667 L67.6282202,107.100267 L67.9176433,107.089933 L83.7816465,68.1133667 L83.7816432,66.9258333 L43.2960054,83.3034667 L21.7977982,72.2684333 L11.2837458,50.1263667 L11.2837458,50.1263 L11.2837458,50.1263 Z" id="path14232" fill="#A42F38"></path>
                            <path d="M20.7023864,2.07466667 L3.27675546,28.9839667 L20.9474368,26.4166333 L20.7023864,2.07466667 L20.7023864,2.07466667 Z M2.73748254,66.533 L2.73748254,67.6684 L2.72716254,67.6684 L20.4233164,107.085067 L21.5229025,107.0894 L21.7980595,72.2726667 L2.73748254,66.5331 L2.73748254,66.533 L2.73748254,66.533 Z" id="path14234-3" fill="#932630"></path>
                            <path d="M76.7384615,50.0374 L67.1434316,26.0410667 L43.4961538,16.8707333 L67.45625,2.0999 L67.1397766,26.0401333 L83.7846499,31.2321 L83.7801515,32.7013 L76.9038792,50.0374 L83.7828472,66.9267333 L66.9793337,73.7239333 L76.7384615,50.0374 L76.7384615,50.0374 Z" id="path14278" fill="#C68A66"></path>
                            <path d="M43.5271635,16.8437333 L67.45625,2.10416667 L20.7764423,2.09383333 L43.5271635,16.8437333 L43.5271635,16.8437333 Z M67.1358173,26.0311667 L83.7848782,31.2338 L67.45625,2.09366667 L67.1358173,26.0311667 L67.1358173,26.0311667 Z M83.7776442,32.6978333 L76.8314904,50.0624 L83.7776442,66.9269667 L83.7776442,32.6978333 L83.7776442,32.6978333 Z" id="path14280" fill="#BE785F"></path>
                            <path d="M83.8293269,1.9271 L67.45625,2.09376667 L83.7822155,31.2340667 L83.8293269,1.9271 L83.8293269,1.9271 Z M43.1653846,16.5416667 L21.1692308,26.0416667 L10.75,49.875 L21.7939414,72.2756333 L43.2924331,83.3160667 L66.9820625,73.7239667 L76.7798077,50.0312667 L67.1461538,26.0416667 L43.1653846,16.5416667 L43.1653846,16.5416667 Z" id="path14282" fill="#AA4042"></path>
                        </g>
                        <path d="M53.9646295,5.4371 C53.5790849,5.4441 53.308949,5.49043333 53.2410718,5.5621 C53.1053142,5.70546667 53.2248972,6.3817 53.4994853,7.0621 C53.9465993,8.17 54.1368975,8.31323333 55.3807353,8.4267 C56.1446237,8.49636667 56.9504867,8.5716 57.1689565,8.60376667 C57.3874262,8.63576667 57.6632282,8.51016667 57.7788122,8.32253333 C57.8943995,8.13486667 57.816037,7.48016667 57.6134276,6.8642 C57.2678498,5.8135 57.1343448,5.72846667 55.3703988,5.52043333 C54.8533138,5.45946667 54.3501742,5.43006667 53.9646295,5.4371 L53.9646295,5.4371 Z M40.3410718,7.9996 C39.6081997,7.9996 37.2447245,9.32816667 37.0437161,9.85376667 C36.8171127,10.4463 39.1002308,13.3537667 39.7932353,13.3537667 C40.0600437,13.3537667 40.8723137,12.9529667 41.6021295,12.4683667 C42.3319454,11.9837333 42.935543,11.4157 42.935543,11.1975333 C42.935543,10.5835667 40.8379302,7.9996 40.3410718,7.9996 L40.3410718,7.9996 Z M71.5677545,10.3433667 C70.7657582,10.3433667 71.4699825,11.6239 72.7047738,12.4058667 C74.1957922,13.3500667 74.9478026,13.5561 74.9478026,13.0308667 C74.9478026,12.6744667 72.0155665,10.3433667 71.5677545,10.3433667 L71.5677545,10.3433667 Z M56.5694372,10.4579333 C55.4378724,10.4859333 54.3317569,10.6558333 52.476168,10.9892 C48.5836261,11.6884667 43.8282561,13.2059667 42.2119853,14.2704333 C36.0866188,18.3045667 30.7830782,24.2667 25.9629468,32.5412667 C19.0900253,44.3397667 15.3082249,58.1219 14.0655911,75.8433667 L13.8485238,78.8954333 C13.8846835,78.9134333 13.9302734,78.9312 13.9828988,78.9475333 L31.1622257,78.9475333 C40.6898581,78.9475333 48.5556827,78.8772 48.6413122,78.7912667 C48.7269418,78.7053333 48.1624708,76.7066333 47.3802545,74.3537667 C44.8449679,66.7277333 43.2205867,57.8235333 43.204293,51.4996 C43.1828922,43.1914333 45.7374925,33.9786333 49.7369853,27.9475333 C51.8860095,24.7068667 55.2176429,21.3833667 56.3316968,21.3746 C56.7580485,21.3712667 57.7694118,20.9187 58.5850622,20.3642 C59.4007094,19.8096667 61.1162738,19.0333 62.3889084,18.6454333 C66.3305894,17.4441333 71.6457797,18.1280667 76.5603026,20.4579333 C78.2968345,21.2812 78.7425791,21.3846333 78.9790526,21.0100333 C79.5813735,20.0558667 79.2265408,19.3477 77.3252065,17.7600333 C72.3019729,13.5654667 66.8682845,11.3561 59.8874661,10.6558667 C58.7062131,10.5373667 57.8477247,10.4652667 57.0552545,10.4579333 C56.8901577,10.4546 56.7310908,10.4539333 56.5694372,10.4579333 L56.5694372,10.4579333 Z M25.2497257,19.9371 C24.505442,20.0754333 22.0237069,23.3108 22.4485238,23.6975333 C23.3593531,24.5266333 26.412105,26.3524667 26.6451584,26.2079333 C26.7952019,26.1149 27.3638703,25.3785333 27.9165526,24.5725333 C28.4692382,23.7665 28.9191968,22.9674 28.9191968,22.8017 C28.9191968,22.5443333 26.7143024,20.7772 25.3737642,19.9579333 C25.3409518,19.9379333 25.2993444,19.9279333 25.2497257,19.9372667 L25.2497257,19.9371 Z M71.4643892,20.4996 C71.1995356,20.4998 70.9715265,20.5488667 70.8545334,20.6662667 C70.6717139,20.8497 70.6158933,21.2520333 70.7304949,21.5517 C71.0028272,22.2637667 73.4490045,22.1323667 73.4490045,21.4058667 C73.4490045,20.9542 72.2589465,20.499 71.4643892,20.4996 L71.4643892,20.4996 Z M61.5516488,20.8329333 C61.4138172,20.8362667 61.2425681,20.8664 61.0348218,20.9162667 C59.8259331,21.2064333 58.9365045,21.6693333 58.9365045,22.0100333 C58.9365045,22.1590667 59.2415068,22.5518667 59.6083795,22.8850333 C59.9752522,23.2181667 60.269918,23.6999667 60.269918,23.9475333 C60.269918,24.4934 60.5311926,24.5071 61.8927545,24.0308667 C63.0898051,23.6121333 63.1204343,23.4719667 62.4509276,21.8642 C62.1244418,21.0801333 61.9651401,20.8262 61.5516488,20.8329333 L61.5516488,20.8329333 Z M53.0343411,27.4058667 C52.6235786,27.4058667 51.5975622,28.5187 51.5975622,28.9683667 C51.5975622,29.5459667 53.2669678,32.0933667 53.6441968,32.0933667 C53.7990299,32.0933667 54.1622344,31.7172 54.4607834,31.2600333 C54.9761185,30.4708333 54.9577046,30.3511 54.1196776,28.9162667 C53.6341944,28.0850333 53.1497398,27.4058667 53.0343411,27.4058667 L53.0343411,27.4058667 Z M13.7968411,38.4475333 C13.3483081,38.4475333 11.9155911,41.9169667 11.9155911,42.9996 C11.9155911,43.4030667 15.5832,45.0537333 16.6187161,45.1142 C16.9949595,45.1362 17.3784632,44.4801333 17.8901103,42.9162667 C18.4847176,41.0988333 18.53214,40.6117 18.1795334,40.2912667 C17.6262358,39.7884667 14.4426647,38.4475333 13.7968411,38.4475333 L13.7968411,38.4475333 Z M47.504293,38.5829333 C47.4074934,38.6022667 47.3292632,38.6753333 47.2562161,38.7912667 C47.0830882,39.0660333 46.9385916,39.4616667 46.9357834,39.6767 C46.9331372,39.8917 46.847683,40.2997667 46.7393892,40.5829333 C46.6119239,40.9162333 47.052965,41.5742333 47.9901103,42.4475333 C49.6119314,43.9588 49.7805344,44.0214667 50.0677545,43.2704333 C50.5745558,41.9452667 50.2469818,40.9035333 48.9203988,39.6037667 C48.2253765,38.9228 47.8539822,38.6201 47.6076584,38.5829333 C47.5707082,38.5772667 47.5365595,38.5766 47.504293,38.5829333 L47.504293,38.5829333 Z M45.7470815,51.5621 C45.3705668,51.5471 45.2686998,51.8406333 45.2716007,52.4267 C45.2808622,54.3001 45.6132853,54.7709 47.5456392,55.6350333 C50.0829203,56.7696667 50.2947515,56.7553667 50.0677545,55.4371 C49.7608768,53.6549667 49.7047254,53.5784333 47.8660718,52.5204333 C46.7722643,51.8910333 46.1235961,51.5770667 45.7470815,51.5621 L45.7470815,51.5621 Z M7.16078338,61.2079333 C6.60037762,61.2079333 5.050651,66.2578 5.36222569,67.0725333 C5.53032262,67.5120667 6.77337654,67.7222667 9.94131223,67.8433667 L11.4711199,67.8954333 L12.0809757,65.2079333 C12.4483776,63.5938667 12.5754492,62.4226333 12.3910718,62.2600333 C12.0920697,61.9963 8.17739931,61.2079333 7.16078338,61.2079333 L7.16078338,61.2079333 Z M48.1968411,67.9996 C48.0972994,68.0032667 48.0330144,68.0189333 48.0107834,68.0412667 C47.9008158,68.1516 48.0692369,69.0636667 48.3828988,70.0621 C48.8652959,71.5976333 49.0939765,71.8929333 49.8610238,72.0100333 C51.1363905,72.2046667 54.6054949,72.2822 54.6054949,72.1142 C54.6054949,71.4166333 53.1893495,68.9278 52.7139084,68.7912667 C51.2993804,68.3850667 48.8936362,67.9748667 48.1968411,67.9996 L48.1968411,67.9996 Z M72.498043,84.3746 C71.7055199,84.3746 70.8850766,84.4026 70.2343411,84.4683667 C68.3198818,84.6612667 67.6761322,84.8889333 66.8439565,85.6350333 C65.9341294,86.4507 65.8028305,86.7979667 65.6966007,88.6871 C65.6000624,90.4039 65.7039107,91.0352667 66.2547738,91.9162667 C67.1073579,93.2797667 68.0894548,93.6701333 70.7201584,93.6767 C73.2179755,93.6827 73.7069285,93.9402333 73.5627065,95.2079333 L73.4490045,96.1767 L69.6968411,96.2704333 L65.9446776,96.3641667 L65.9446776,98.0308333 L65.9446776,99.6871 L70.1309757,99.6871 C73.2199336,99.6871 74.5668822,99.5617333 75.2889084,99.1871 C76.6646835,98.4732333 77.2838603,97.0727667 77.2838603,94.6558333 C77.2838603,92.7615667 77.1905999,92.5052333 76.1468411,91.4579333 C74.9979803,90.3051667 74.8515719,90.2668 71.2783315,90.1767 C69.8292546,90.1401333 69.2833795,89.8068667 69.2833795,88.9579333 C69.2833795,88.0142 70.5426378,87.6454333 73.8004468,87.6454333 L76.6119853,87.6454333 L76.6119853,86.1767 L76.6119853,84.6975333 L74.6066968,84.4683667 C74.0549837,84.4041 73.2905661,84.3737333 72.498043,84.3746 L72.498043,84.3746 Z M47.2665526,84.5933667 L45.5196776,84.6975333 L43.7624661,84.8017 L43.6694372,91.8225 C43.6197325,95.6830333 43.6623257,99.0251333 43.7521295,99.2600333 C43.8545886,99.5278667 44.5391155,99.6871 45.5920334,99.6871 L47.2665526,99.6871 L47.2665526,92.1454333 L47.2665526,84.5933667 L47.2665526,84.5933667 Z M9.91030262,84.6350333 L9.91030262,92.1662667 L9.91030262,99.6871 L11.7295334,99.6871 L13.5487642,99.6871 L13.6521295,97.7704333 C13.7113108,96.6319 13.8960553,95.8433 14.1172738,95.8433667 C14.322913,95.8433667 15.2013368,96.7121 16.060543,97.7704333 L17.6213603,99.6871 L19.6059757,99.6871 C20.6965185,99.6871 21.5905911,99.6056 21.5905911,99.4996 C21.5905911,99.3936 20.9069242,98.4301667 20.0814565,97.3537667 C19.2559888,96.2773667 18.5826584,95.2857 18.5826584,95.1558333 C18.5826584,95.0260333 19.2559888,94.2917667 20.0814565,93.5204333 L21.569918,92.1246 C21.5752434,92.1066 21.585398,92.0908333 21.5905911,92.0725 L21.5905911,89.5100333 C21.5905911,86.9951667 21.5488513,86.8694333 20.4535718,85.7704333 L19.3165526,84.6350333 L14.6134276,84.6350333 L9.91030262,84.6350333 L9.91030262,84.6350333 Z M32.6300142,84.6350333 C27.0794286,84.6467 26.9242449,84.8957 26.9242449,93.4787667 L26.9242449,99.6871 L28.5884276,99.6871 C30.2464382,99.6871 30.2578695,99.6837667 30.2629468,98.6037667 C30.2711168,96.8661667 30.5855428,96.6358 32.7850622,96.7496 L34.7593411,96.8433667 L34.8627065,98.2912667 L34.9660718,99.7287667 L36.6922738,99.6246 L38.4288122,99.5204333 L38.5321776,93.9996 C38.6924452,85.2555333 38.292317,84.6231 32.6300142,84.6350333 L32.6300142,84.6350333 Z M52.6002065,84.6350333 L52.6002065,92.1662667 L52.6002065,99.7079333 L57.5203988,99.6141667 L62.4405911,99.5204333 L62.4405911,97.8537667 L62.4405911,96.1767 L59.4429949,96.0100333 L56.4350622,95.8433667 L56.3420334,90.2391667 L56.2593411,84.6350333 L54.4297738,84.6350333 L52.6002065,84.6350333 L52.6002065,84.6350333 Z M16.0295334,87.9787667 C16.5504883,87.9857667 17.0573095,88.0574667 17.3939565,88.1871 C18.1393813,88.4741333 18.1393813,91.5042667 17.3939565,91.7912667 C16.4962355,92.1369333 14.4039217,92.0158 13.9828988,91.5933667 C13.7627752,91.3724667 13.5797738,90.6518333 13.5797738,89.9891667 C13.5797738,89.3266 13.7627752,88.6059 13.9828988,88.3850333 C14.2460389,88.121 15.1612741,87.9671667 16.0295334,87.9787667 L16.0295334,87.9787667 Z M32.6196776,87.9891 C33.4379015,87.9891 34.2685027,88.1309667 34.5216007,88.3849333 C34.7417243,88.6058 34.9247257,89.5503667 34.9247257,90.4890667 C34.9247257,91.4278 34.7417243,92.3723667 34.5216007,92.5932667 C33.9164319,93.2004333 31.4075837,93.0980667 30.7487642,92.437 C30.0710114,91.7569333 30.2279316,88.7496333 30.9658315,88.2807667 C31.2214069,88.1183333 31.7186292,88.0268333 32.2682353,87.9995 C32.3827377,87.9938333 32.5027871,87.9891667 32.6196776,87.9891667 L32.6196776,87.9891 L32.6196776,87.9891 Z" id="rect14031" fill="#F2F2F2"></path>
                    </g>
                </g>
            </g>
        </g>
    </g>
</svg>