<?xml version="1.0" encoding="UTF-8" standalone="no"?>
<svg width="200px" height="200px" viewBox="0 0 200 200" version="1.1" xmlns="http://www.w3.org/2000/svg" xmlns:xlink="http://www.w3.org/1999/xlink" xmlns:sketch="http://www.bohemiancoding.com/sketch/ns">
    <!-- Generator: Sketch 3.0.4 (8053) - http://www.bohemiancoding.com/sketch -->
    <title>Artboard 1</title>
    <desc>Created with Sketch.</desc>
    <defs></defs>
    <g id="Page-1" stroke="none" stroke-width="1" fill="none" fill-rule="evenodd" sketch:type="MSPage">
        <g id="Artboard-1" sketch:type="MSArtboardGroup">
            <g id="shape" sketch:type="MSLayerGroup" fill="#1F1B1C">
                <g id="dark" sketch:type="MSShapeGroup">
                    <polygon id="Polygon-2" transform="translate(100.000000, 100.000000) scale(1, -1) translate(-100.000000, -100.000000) " points="100 0 186.60254 50 186.60254 150 100 200 13.3974596 150 13.3974596 50 "></polygon>
                    <polygon id="Polygon-3" transform="translate(100.000000, 100.000000) scale(1, -1) translate(-100.000000, -100.000000) " points="100 0 195.105652 69.0983006 158.778525 180.901699 41.2214748 180.901699 4.89434837 69.0983006 "></polygon>
                </g>
            </g>
            <g id="redis" sketch:type="MSLayerGroup" transform="translate(36.000000, 81.000000)">
                <g id="Group" transform="translate(-0.278509, -0.284722)" sketch:type="MSShapeGroup">
                    <g transform="translate(58.765351, 3.701389)" id="Shape" fill="#636466">
                        <path d="M11.0403662,9.18741667 C11.0403662,10.2178264 10.2123596,11.1374792 9.13258114,11.1374792 C8.30457456,11.1374792 7.58490789,11.3584236 6.97302412,11.8367569 C6.28928509,12.2786458 5.74925658,12.9038958 5.31756798,13.6028889 C4.45363377,14.7805 4.02222368,16.1784861 3.84202851,16.6932639 L3.84202851,23.6843333 C3.84202851,24.7514722 2.94244518,25.6346806 1.86266667,25.6346806 C0.818815789,25.6346806 -0.0448399123,24.7514722 -0.0448399123,23.6843333 L-0.0448399123,9.18741667 C-0.0448399123,8.12027778 0.818815789,7.27408333 1.86266667,7.27408333 C2.94244518,7.27408333 3.84202851,8.1205625 3.84202851,9.18741667 L3.84202851,9.44509028 C4.05787281,9.18741667 4.34585088,8.89329861 4.59790132,8.70908333 C5.78574123,7.89990278 7.33313596,7.23735417 9.13258114,7.27408333 C10.2123596,7.27408333 11.0403662,8.1205625 11.0403662,9.18741667 L11.0403662,9.18741667 Z"></path>
                        <path d="M9.98342544,16.435875 C10.0196316,11.4318819 13.8346447,7.23735417 18.7650855,7.23735417 C23.4440329,7.23735417 27.1509846,10.8063472 27.4392412,15.7733264 L27.4392412,15.9572569 C27.4392412,16.031 27.4392412,16.2146458 27.4033136,16.2883889 C27.2949737,17.1715972 26.5393794,17.7604028 25.5314561,17.7604028 L14.0864167,17.7604028 C14.2663333,18.6068819 14.6620943,19.5632639 15.3101842,20.1887986 C16.066057,21.0720069 17.5056689,21.7337014 18.7650855,21.8441736 C20.0607083,21.9543611 21.6083816,21.6235139 22.5082434,20.9245208 C23.2638377,20.1147708 24.7396557,20.2255278 25.2075504,20.8137639 C25.6754452,21.3293958 26.0352785,22.4332639 25.2075504,23.2054306 C23.4437544,24.8608056 21.3204035,25.6338264 18.764807,25.6338264 C13.8346447,25.5976667 10.0196316,21.4398681 9.98342544,16.435875 L9.98342544,16.435875 Z M13.9065,14.6330139 L24.0918443,14.6330139 C23.732011,13.1612847 21.8963596,10.9905625 18.7650855,10.7328889 C15.7062237,10.8798056 14.1944781,13.1245556 13.9065,14.6330139 L13.9065,14.6330139 Z"></path>
                        <path d="M45.7765373,23.6476042 C45.7765373,24.7147431 44.9126031,25.6346806 43.8328246,25.6346806 C42.8611075,25.6346806 42.1055132,24.9356875 41.925318,24.0524792 C40.5578399,25.0088611 38.83025,25.6346806 37.0305263,25.6346806 C32.1719408,25.6346806 28.2847939,21.4401528 28.2847939,16.4728889 C28.2847939,11.4318819 32.1719408,7.23735417 37.0305263,7.23735417 C38.7943224,7.23735417 40.5216338,7.825875 41.8531842,8.78254167 L41.8531842,1.8655 C41.8531842,0.798361111 42.7171184,-0.121576389 43.8325461,-0.121576389 C44.9123246,-0.121576389 45.7762588,0.798361111 45.7762588,1.8655 L45.7762588,16.435875 C45.7762588,16.435875 45.7762588,16.435875 45.7762588,16.4728889 L45.7762588,23.6476042 L45.7765373,23.6476042 Z M37.0308048,11.2479514 C35.735182,11.2479514 34.5473421,11.7997431 33.6480373,12.7564097 C32.7481754,13.6763472 32.2081469,15.0005903 32.2081469,16.4726042 C32.2081469,17.8705903 32.7478969,19.1951181 33.6480373,20.1150556 C34.5473421,21.0720069 35.735182,21.6237986 37.0308048,21.6237986 C38.3623553,21.6237986 39.5142675,21.0720069 40.4138509,20.1150556 C41.3134342,19.1954028 41.8534627,17.8705903 41.8534627,16.4726042 C41.8534627,15.0005903 41.3137127,13.6763472 40.4138509,12.7564097 C39.5142675,11.7997431 38.3623553,11.2479514 37.0308048,11.2479514 L37.0308048,11.2479514 Z"></path>
                        <path d="M52.6239539,2.63823611 C52.6239539,3.74210417 51.7962259,4.66175694 50.6802412,4.66175694 C49.6004627,4.66175694 48.736807,3.74210417 48.736807,2.63823611 L48.736807,1.8655 C48.736807,0.761631944 49.6004627,-0.121576389 50.6802412,-0.121576389 C51.7962259,-0.121576389 52.6239539,0.761631944 52.6239539,1.8655 L52.6239539,2.63823611 L52.6239539,2.63823611 Z M52.6239539,9.29788889 L52.6239539,23.6476042 C52.6239539,24.7514722 51.7962259,25.6346806 50.6802412,25.6346806 C49.6004627,25.6346806 48.736807,24.7514722 48.736807,23.6476042 L48.736807,9.29788889 C48.736807,8.1205625 49.6004627,7.27408333 50.6802412,7.27408333 C51.7965044,7.27408333 52.6239539,8.1205625 52.6239539,9.29788889 L52.6239539,9.29788889 Z"></path>
                        <path d="M55.0982259,20.3727292 C55.7460373,19.4900903 57.006011,19.3796181 57.7975329,20.0786111 C58.7333224,20.8883611 60.3531294,21.7339861 61.7565351,21.6975417 C62.7282522,21.6975417 63.628114,21.3666944 64.2040702,20.9985486 C64.7078925,20.5569444 64.8516031,20.1893681 64.8516031,19.8946806 C64.8516031,19.71075 64.8156754,19.6372917 64.7438202,19.5265347 C64.707614,19.4163472 64.5639035,19.2691458 64.2756469,19.0855 C63.7718246,18.7173542 62.6920461,18.3124792 61.3964232,18.0550903 L61.3604956,18.0550903 C60.244511,17.8344306 59.1647325,17.5400278 58.2292215,17.0981389 C57.2575044,16.6200903 56.3935702,15.9578264 55.7457588,14.9644306 C55.3499978,14.3021667 55.1341535,13.4927014 55.1341535,12.6465069 C55.1341535,10.9538333 56.069943,9.51883333 57.2575044,8.59889583 C58.5171996,7.71597222 60.0289452,7.23763889 61.6846798,7.23763889 C64.167864,7.23763889 65.9313816,8.45197917 67.0832939,9.26115972 C67.9472281,9.84996528 68.199,11.0643056 67.6589715,11.9836736 C67.0832939,12.8668819 65.8954539,13.1245556 64.9958706,12.4990208 C63.8442368,11.7265694 62.8363136,11.1374792 61.6846798,11.1374792 C60.784818,11.1374792 59.9930175,11.4318819 59.5251228,11.7997431 C59.0572281,12.1311597 58.9494452,12.4622917 58.9494452,12.6462222 C58.9494452,12.7931389 58.9494452,12.8301528 59.0213004,12.9403403 C59.0575066,13.0137986 59.1652895,13.161 59.4173399,13.3082014 C59.8855132,13.6393333 60.8210241,13.9704653 62.0447917,14.1914097 L62.0807193,14.2284236 L62.1169254,14.2284236 C63.3047654,14.4487986 64.4204715,14.7802153 65.4640439,15.2952778 C66.435761,15.7368819 67.4077566,16.435875 68.0196404,17.466 C68.4516075,18.2017222 68.7033794,19.0482014 68.7033794,19.8943958 C68.7033794,21.6972569 67.7316623,23.206 66.435761,24.1623819 C65.1401382,25.0820347 63.5203311,25.6343958 61.7568136,25.6343958 C58.9497237,25.5976667 56.7901667,24.2731389 55.3505548,23.0958125 C54.5584759,22.4335486 54.450693,21.1821944 55.0982259,20.3727292 L55.0982259,20.3727292 Z"></path>
                    </g>
                    <g>
                        <path d="M45.6124956,32.0412153 C43.084193,33.3885208 29.9864825,38.8939097 27.1980526,40.379875 C24.4096228,41.8664097 22.860557,41.8518889 20.6578311,40.7753542 C18.4551053,39.6988194 4.51685526,33.9431597 2.00609868,32.7162917 C0.751138158,32.103 0.0913508772,31.5856597 0.0913508772,31.0967917 L0.0913508772,26.2009931 C0.0913508772,26.2009931 18.2370329,22.1624931 21.1666667,21.0882361 C24.0960219,20.0136944 25.1123004,19.9749722 27.6052325,20.9085764 C30.098443,21.8421806 45.0047895,24.5917431 47.4687566,25.5142431 C47.4687566,25.5142431 47.4676425,29.8867222 47.4676425,30.3405694 C47.4679211,30.8245972 46.8994846,31.3556042 45.6124956,32.0412153 L45.6124956,32.0412153 Z" id="Shape" fill="#A41E11"></path>
                        <path d="M45.6124956,27.1442778 C43.084193,28.4910139 29.9864825,33.9969722 27.1980526,35.4829375 C24.4096228,36.9694722 22.860557,36.9549514 20.6578311,35.8784167 C18.4548268,34.8024514 4.51685526,29.0456528 2.00609868,27.8193542 C-0.504657895,26.5924861 -0.557296053,25.748 1.90917763,24.7608681 C4.37537281,23.7731667 18.2370329,18.2133958 21.1669452,17.1388542 C24.0963004,16.0648819 25.1125789,16.0255903 27.605511,16.9594792 C30.0987215,17.8930833 43.1181711,23.1909097 45.5818596,24.1134097 C48.0461053,25.0367639 48.1407982,25.7969722 45.6124956,27.1442778 L45.6124956,27.1442778 Z" id="Shape" fill="#D82C20"></path>
                        <path d="M45.6124956,24.0578889 C43.084193,25.4051944 29.9864825,30.9105833 27.1980526,32.3971181 C24.4096228,33.8830833 22.860557,33.8685625 20.6578311,32.7920278 C18.4548268,31.7160625 4.51685526,25.9598333 2.00609868,24.7329653 C0.751138158,24.1196736 0.0913508772,23.6029028 0.0913508772,23.1140347 L0.0913508772,18.2176667 C0.0913508772,18.2176667 18.2370329,14.1794514 21.1666667,13.1049097 C24.0960219,12.0306528 25.1123004,11.9916458 27.6052325,12.92525 C30.098443,13.8588542 45.0047895,16.6078472 47.4687566,17.5306319 C47.4687566,17.5306319 47.4676425,21.9031111 47.4676425,22.3575278 C47.4679211,22.8412708 46.8994846,23.3722778 45.6124956,24.0578889 L45.6124956,24.0578889 Z" id="Shape" fill="#A41E11"></path>
                        <path d="M45.6124956,19.1609514 C43.084193,20.5082569 29.9864825,26.0136458 27.1980526,27.5001806 C24.4096228,28.9861458 22.860557,28.971625 20.6578311,27.8950903 C18.4548268,26.819125 4.51685526,21.0626111 2.00609868,19.8360278 C-0.504657895,18.6094444 -0.557296053,17.7649583 1.90917763,16.7772569 C4.37537281,15.790125 18.2370329,10.2300694 21.1669452,9.1558125 C24.0963004,8.08155556 25.1125789,8.04254861 27.605511,8.97615278 C30.0987215,9.90975694 43.1181711,15.2072986 45.5818596,16.1300833 C48.0461053,17.0531528 48.1407982,17.8136458 45.6124956,19.1609514 L45.6124956,19.1609514 Z" id="Shape" fill="#D82C20"></path>
                        <path d="M45.6124956,15.7790208 C43.084193,17.1263264 29.9864825,22.632 27.1980526,24.1185347 C24.4096228,25.6045 22.860557,25.5899792 20.6578311,24.5134444 C18.4548268,23.4374792 4.51685526,17.6809653 2.00609868,16.4543819 C0.751138158,15.8410903 0.0913508772,15.3240347 0.0913508772,14.8354514 L0.0913508772,9.93908333 C0.0913508772,9.93908333 18.2370329,5.90086806 21.1666667,4.82661111 C24.0960219,3.75206944 25.1123004,3.71334722 27.6052325,4.64695139 C30.098443,5.58055556 45.0047895,8.32954861 47.4687566,9.25233333 C47.4687566,9.25233333 47.4676425,13.6248125 47.4676425,14.0789444 C47.4679211,14.5624028 46.8994846,15.0934097 45.6124956,15.7790208 L45.6124956,15.7790208 Z" id="Shape" fill="#A41E11"></path>
                        <path d="M45.6124956,10.8820833 C43.084193,12.2293889 29.9864825,17.7350625 27.1980526,19.2213125 C24.4096228,20.7072778 22.860557,20.6927569 20.6578311,19.6165069 C18.4551053,18.5402569 4.51685526,12.7840278 2.00609868,11.5574444 C-0.504657895,10.3308611 -0.557296053,9.48609028 1.90917763,8.49867361 C4.37537281,7.51125694 18.2370329,1.95177083 21.1669452,0.877229167 C24.0963004,-0.1973125 25.1125789,-0.236034722 27.605511,0.697854167 C30.0987215,1.63145833 43.1181711,6.929 45.5818596,7.85178472 C48.0461053,8.77428472 48.1407982,9.5350625 45.6124956,10.8820833 L45.6124956,10.8820833 Z" id="Shape" fill="#D82C20"></path>
                        <path d="M24.5240899,3.92347222 L27.6481228,2.87882639 L26.8025702,4.9481875 L29.9862039,6.16622917 L25.8826557,6.60156944 L24.9630197,8.86340278 L23.4771754,6.34047917 L18.7372346,5.90513889 L22.2745746,4.60025694 L21.2134561,2.59894444 L24.5240899,3.92347222 Z" id="Shape" fill="#FFFFFF"></path>
                        <path d="M24.718489,17.1348681 L17.0547632,13.8861875 L28.0335789,12.1633333 L24.718489,17.1348681 Z" id="Shape" fill="#FFFFFF"></path>
                        <ellipse id="Oval" fill="#FFFFFF" cx="14.2231645" cy="9.72810417" rx="5.86790132" ry="2.32532639"></ellipse>
                    </g>
                    <path d="M34.8397763,6.78379167 L41.3365504,9.41092361 L34.8433969,12.0315069 L34.8397763,6.78379167 Z" id="Shape" fill="#7A0C00"></path>
                    <path d="M34.8397763,6.78379167 L34.8433969,12.0315069 L34.1401623,12.3150903 L27.6506294,9.69080556 L34.8397763,6.78379167 Z" id="Shape" fill="#AD2115"></path>
                </g>
            </g>
        </g>
    </g>
</svg>