<?xml version="1.0" encoding="UTF-8" standalone="no"?>
<svg width="200px" height="200px" viewBox="0 0 200 200" version="1.1" xmlns="http://www.w3.org/2000/svg" xmlns:xlink="http://www.w3.org/1999/xlink" xmlns:sketch="http://www.bohemiancoding.com/sketch/ns">
    <!-- Generator: Sketch 3.0.4 (8053) - http://www.bohemiancoding.com/sketch -->
    <title>Artboard 1</title>
    <desc>Created with Sketch.</desc>
    <defs></defs>
    <g id="Page-1" stroke="none" stroke-width="1" fill="none" fill-rule="evenodd" sketch:type="MSPage">
        <g id="Artboard-1" sketch:type="MSArtboardGroup">
            <g id="shape" sketch:type="MSLayerGroup" fill="#1F1B1C">
                <g id="dark" sketch:type="MSShapeGroup">
                    <polygon id="Polygon-2" transform="translate(100.000000, 100.000000) scale(1, -1) translate(-100.000000, -100.000000) " points="100 0 186.60254 50 186.60254 150 100 200 13.3974596 150 13.3974596 50 "></polygon>
                    <polygon id="Polygon-3" transform="translate(100.000000, 100.000000) scale(1, -1) translate(-100.000000, -100.000000) " points="100 0 195.105652 69.0983006 158.778525 180.901699 41.2214748 180.901699 4.89434837 69.0983006 "></polygon>
                </g>
            </g>
            <g id="redmine" sketch:type="MSLayerGroup" transform="translate(39.000000, 49.000000)">
                <g id="g10" transform="translate(61.500000, 41.896875) scale(1, -1) translate(-61.500000, -41.896875) translate(0.000000, 0.396875)" sketch:type="MSShapeGroup">
                    <g id="g12">
                        <g id="g14">
                            <g id="g16-Clipped">
                                <g id="g16" transform="translate(0.000000, -0.000000)">
                                    <path d="M36.5132717,75.6485594 L48.3450299,61.8385 C48.8523786,61.1818042 48.1800491,60.6960292 48.1800491,60.6960292 C43.4388988,58.1328781 40.0083555,54.2596427 37.0738102,49.8243 C36.4910983,48.9442958 35.8627197,49.5835292 35.8627197,49.5835292 L20.8705906,60.8365229 C20.8705906,60.8365229 20.2261098,61.2163323 20.7902119,61.9672198 C25.1801513,67.8102781 29.1680655,71.9310313 35.5446368,75.8212 C35.5446368,75.8212 36.0277004,76.277474 36.5132717,75.6485594" id="path22" fill="#D52C24"></path>
                                    <path d="M15.5257428,53.150774 L33.2441455,44.5657063 C34.0860751,44.238549 33.6647803,43.470199 33.6647803,43.470199 C31.2169942,37.6312417 29.7254364,32.7017896 28.5746628,26.7290854 C28.3818333,25.7290927 27.7048844,26.0495031 27.7048844,26.0495031 L7.7747104,34.7234708 C7.7747104,34.7234708 7.17717659,34.9477052 7.42670665,35.7171135 C8.31142572,38.4498625 12.8195176,49.3587656 14.6291715,52.9238938 C14.6291715,52.9238938 14.9461985,53.4644375 15.5257428,53.150774" id="path24" fill="#C82624"></path>
                                    <path d="M5.61191859,25.5725917 C9.66478247,24.3215094 26.6706532,20.3956219 26.6706532,20.3956219 C27.6899701,20.0809 27.3862736,19.3145344 27.3862736,19.3145344 C26.2127987,10.0541177 26.4675289,2.98683229 26.4675289,0.545125 C26.4675289,-0.537417708 25.6812967,-0.378270833 25.6812967,-0.378270833 L0.864087245,-0.378270833 C-0.214474952,-0.378270833 0.0221693189,0.595792708 0.0221693189,0.595792708 C0.224785588,3.68030521 1.11207308,12.4581219 4.5338817,25.0423667 C4.5338817,25.0423667 4.70400983,25.8531823 5.61191859,25.5725917" id="path26" fill="#AC1F22"></path>
                                    <path d="M86.8164249,75.6485594 L74.9853266,61.8385 C74.4779778,61.1818042 75.1503073,60.6960292 75.1503073,60.6960292 C79.8914576,58.1328781 83.322001,54.2596427 86.2565462,49.8243 C86.8391262,48.9442958 87.4676368,49.5835292 87.4676368,49.5835292 L102.459766,60.8365229 C102.459766,60.8365229 103.104247,61.2163323 102.540145,61.9672198 C98.1500732,67.8102781 94.1622909,71.9310313 87.7857197,75.8212 C87.7857197,75.8212 87.3026561,76.277474 86.8164249,75.6485594" id="path28" fill="#D52C24"></path>
                                    <path d="M61.6657062,63.8281667 C63.6568256,63.8281667 67.344079,63.6374021 69.0846917,63.3480802 C69.9935376,63.1971354 70.2184393,63.7991948 70.2184393,63.7991948 L77.6656696,79.3982344 C77.6656696,79.3982344 78.1643073,79.9852125 77.1212331,80.3676677 C71.5624383,82.4062823 68.6057197,83.3442302 61.6657062,83.3442302 C54.8076551,83.3442302 51.7679181,82.4062823 46.2084634,80.3676677 C45.1660491,79.9852125 45.664027,79.3982344 45.664027,79.3982344 L53.1113892,63.7991948 C53.1113892,63.7991948 53.336159,63.1971354 54.2456647,63.3480802 C55.9857495,63.6374021 59.6735308,63.8281667 61.6657062,63.8281667" id="path30" fill="#DF3D3C"></path>
                                    <path d="M107.804614,53.150774 L90.086211,44.5657062 C89.2442813,44.238549 89.6649162,43.470199 89.6649162,43.470199 C92.1133622,37.6312417 93.60492,32.7017896 94.7556936,26.7290854 C94.9485231,25.7290927 95.6249441,26.0495031 95.6249441,26.0495031 L115.55554,34.7234708 C115.55554,34.7234708 116.153167,34.9477052 115.903584,35.7171135 C115.018363,38.4498625 110.510826,49.3587656 108.701185,52.9238938 C108.701185,52.9238938 108.384158,53.4644375 107.804614,53.150774" id="path32" fill="#C82624"></path>
                                    <path d="M117.718372,25.5725917 C113.664993,24.3215094 96.6595713,20.3956219 96.6595713,20.3956219 C95.6403863,20.0809 95.9440829,19.3145344 95.9440829,19.3145344 C97.1174258,10.0541177 96.8622996,2.98683229 96.8622996,0.545125 C96.8622996,-0.537417708 97.6485318,-0.378270833 97.6485318,-0.378270833 L122.466253,-0.378270833 C123.544831,-0.378270833 123.308183,0.595792708 123.308183,0.595792708 C123.105587,3.68030521 122.217726,12.4581219 118.796422,25.0423667 C118.796422,25.0423667 118.626294,25.8531823 117.718372,25.5725917" id="path34" fill="#AC1F22"></path>
                                </g>
                            </g>
                        </g>
                    </g>
                </g>
            </g>
        </g>
    </g>
</svg>