<?xml version="1.0" encoding="UTF-8" standalone="no"?>
<svg width="200px" height="200px" viewBox="0 0 200 200" version="1.1" xmlns="http://www.w3.org/2000/svg" xmlns:xlink="http://www.w3.org/1999/xlink" xmlns:sketch="http://www.bohemiancoding.com/sketch/ns">
    <!-- Generator: Sketch 3.0.4 (8053) - http://www.bohemiancoding.com/sketch -->
    <title>Artboard 1</title>
    <desc>Created with Sketch.</desc>
    <defs>
        <linearGradient x1="84.7503645%" y1="111.399353%" x2="58.2543962%" y2="64.5837087%" id="linearGradient-1">
            <stop stop-color="#FB7655" offset="0%"></stop>
            <stop stop-color="#FB7655" offset="0%"></stop>
            <stop stop-color="#E42B1E" offset="41%"></stop>
            <stop stop-color="#990000" offset="99%"></stop>
            <stop stop-color="#990000" offset="100%"></stop>
        </linearGradient>
        <linearGradient x1="116.651024%" y1="60.8903211%" x2="1.74616041%" y2="19.2879503%" id="linearGradient-2">
            <stop stop-color="#871101" offset="0%"></stop>
            <stop stop-color="#871101" offset="0%"></stop>
            <stop stop-color="#911209" offset="99%"></stop>
            <stop stop-color="#911209" offset="100%"></stop>
        </linearGradient>
        <linearGradient x1="75.7744024%" y1="219.327131%" x2="38.9781357%" y2="7.82868176%" id="linearGradient-3">
            <stop stop-color="#871101" offset="0%"></stop>
            <stop stop-color="#871101" offset="0%"></stop>
            <stop stop-color="#911209" offset="99%"></stop>
            <stop stop-color="#911209" offset="100%"></stop>
        </linearGradient>
        <linearGradient x1="50.012428%" y1="7.23449921%" x2="66.4830414%" y2="79.1354134%" id="linearGradient-4">
            <stop stop-color="#FFFFFF" offset="0%"></stop>
            <stop stop-color="#FFFFFF" offset="0%"></stop>
            <stop stop-color="#E57252" offset="23%"></stop>
            <stop stop-color="#DE3B20" offset="46%"></stop>
            <stop stop-color="#A60003" offset="99%"></stop>
            <stop stop-color="#A60003" offset="100%"></stop>
        </linearGradient>
        <linearGradient x1="46.1741749%" y1="16.347907%" x2="49.9323342%" y2="83.0468449%" id="linearGradient-5">
            <stop stop-color="#FFFFFF" offset="0%"></stop>
            <stop stop-color="#FFFFFF" offset="0%"></stop>
            <stop stop-color="#E4714E" offset="23%"></stop>
            <stop stop-color="#BE1A0D" offset="56%"></stop>
            <stop stop-color="#A80D00" offset="99%"></stop>
            <stop stop-color="#A80D00" offset="100%"></stop>
        </linearGradient>
        <linearGradient x1="36.9653573%" y1="15.5936471%" x2="49.5282324%" y2="92.4776332%" id="linearGradient-6">
            <stop stop-color="#FFFFFF" offset="0%"></stop>
            <stop stop-color="#FFFFFF" offset="0%"></stop>
            <stop stop-color="#E46342" offset="18%"></stop>
            <stop stop-color="#C82410" offset="40%"></stop>
            <stop stop-color="#A80D00" offset="99%"></stop>
            <stop stop-color="#A80D00" offset="100%"></stop>
        </linearGradient>
        <linearGradient x1="13.6086166%" y1="58.3456855%" x2="85.7636612%" y2="-46.7167814%" id="linearGradient-7">
            <stop stop-color="#FFFFFF" offset="0%"></stop>
            <stop stop-color="#FFFFFF" offset="0%"></stop>
            <stop stop-color="#C81F11" offset="54%"></stop>
            <stop stop-color="#BF0905" offset="99%"></stop>
            <stop stop-color="#BF0905" offset="100%"></stop>
        </linearGradient>
        <linearGradient x1="27.6242038%" y1="21.1345847%" x2="50.7445145%" y2="79.0557818%" id="linearGradient-8">
            <stop stop-color="#FFFFFF" offset="0%"></stop>
            <stop stop-color="#FFFFFF" offset="0%"></stop>
            <stop stop-color="#DE4024" offset="31%"></stop>
            <stop stop-color="#BF190B" offset="99%"></stop>
            <stop stop-color="#BF190B" offset="100%"></stop>
        </linearGradient>
        <linearGradient x1="-20.6671297%" y1="122.281897%" x2="104.241521%" y2="-6.34211007%" id="linearGradient-9">
            <stop stop-color="#BD0012" offset="0%"></stop>
            <stop stop-color="#BD0012" offset="0%"></stop>
            <stop stop-color="#FFFFFF" offset="7%"></stop>
            <stop stop-color="#FFFFFF" offset="17%"></stop>
            <stop stop-color="#C82F1C" offset="27%"></stop>
            <stop stop-color="#820C01" offset="33%"></stop>
            <stop stop-color="#A31601" offset="46%"></stop>
            <stop stop-color="#B31301" offset="72%"></stop>
            <stop stop-color="#E82609" offset="99%"></stop>
            <stop stop-color="#E82609" offset="100%"></stop>
        </linearGradient>
        <linearGradient x1="58.7919609%" y1="65.2049657%" x2="11.9636556%" y2="50.1275621%" id="linearGradient-10">
            <stop stop-color="#8C0C01" offset="0%"></stop>
            <stop stop-color="#8C0C01" offset="0%"></stop>
            <stop stop-color="#990C00" offset="54%"></stop>
            <stop stop-color="#A80D0E" offset="99%"></stop>
            <stop stop-color="#A80D0E" offset="100%"></stop>
        </linearGradient>
        <linearGradient x1="79.3194899%" y1="62.7538068%" x2="23.088288%" y2="17.8876818%" id="linearGradient-11">
            <stop stop-color="#7E110B" offset="0%"></stop>
            <stop stop-color="#7E110B" offset="0%"></stop>
            <stop stop-color="#9E0C00" offset="99%"></stop>
            <stop stop-color="#9E0C00" offset="100%"></stop>
        </linearGradient>
        <linearGradient x1="92.8800277%" y1="74.1223655%" x2="59.8414537%" y2="39.7039965%" id="linearGradient-12">
            <stop stop-color="#79130D" offset="0%"></stop>
            <stop stop-color="#79130D" offset="0%"></stop>
            <stop stop-color="#9E120B" offset="99%"></stop>
            <stop stop-color="#9E120B" offset="100%"></stop>
        </linearGradient>
        <radialGradient cx="32.0008013%" cy="40.2100469%" fx="32.0008013%" fy="40.2100469%" r="69.5729556%" id="radialGradient-13">
            <stop stop-color="#A80D00" offset="0%"></stop>
            <stop stop-color="#A80D00" offset="0%"></stop>
            <stop stop-color="#7E0E08" offset="99%"></stop>
            <stop stop-color="#7E0E08" offset="100%"></stop>
        </radialGradient>
        <radialGradient cx="13.5493795%" cy="40.859922%" fx="13.5493795%" fy="40.859922%" r="88.3861936%" id="radialGradient-14">
            <stop stop-color="#A30C00" offset="0%"></stop>
            <stop stop-color="#A30C00" offset="0%"></stop>
            <stop stop-color="#800E08" offset="99%"></stop>
            <stop stop-color="#800E08" offset="100%"></stop>
        </radialGradient>
        <linearGradient x1="56.5701955%" y1="101.716594%" x2="3.10480737%" y2="11.9932603%" id="linearGradient-15">
            <stop stop-color="#8B2114" offset="0%"></stop>
            <stop stop-color="#8B2114" offset="0%"></stop>
            <stop stop-color="#9E100A" offset="43%"></stop>
            <stop stop-color="#B3100C" offset="99%"></stop>
            <stop stop-color="#B3100C" offset="100%"></stop>
        </linearGradient>
        <linearGradient x1="30.8698732%" y1="35.5989756%" x2="92.4707626%" y2="100.693616%" id="linearGradient-16">
            <stop stop-color="#B31000" offset="0%"></stop>
            <stop stop-color="#B31000" offset="0%"></stop>
            <stop stop-color="#910F08" offset="44%"></stop>
            <stop stop-color="#791C12" offset="99%"></stop>
            <stop stop-color="#791C12" offset="100%"></stop>
        </linearGradient>
    </defs>
    <g id="Page-1" stroke="none" stroke-width="1" fill="none" fill-rule="evenodd" sketch:type="MSPage">
        <g id="Artboard-1" sketch:type="MSArtboardGroup">
            <g id="shape" sketch:type="MSLayerGroup" fill="#1F1B1C">
                <g id="dark" sketch:type="MSShapeGroup">
                    <polygon id="Polygon-2" transform="translate(100.000000, 100.000000) scale(1, -1) translate(-100.000000, -100.000000) " points="100 0 186.60254 50 186.60254 150 100 200 13.3974596 150 13.3974596 50 "></polygon>
                    <polygon id="Polygon-3" transform="translate(100.000000, 100.000000) scale(1, -1) translate(-100.000000, -100.000000) " points="100 0 195.105652 69.0983006 158.778525 180.901699 41.2214748 180.901699 4.89434837 69.0983006 "></polygon>
                </g>
            </g>
            <g id="ruby" sketch:type="MSLayerGroup" transform="translate(51.000000, 49.000000)">
                <path d="M74.4242424,63.2290909 L19.5781818,95.7963636 L90.5934545,90.9774545 L96.0630303,19.369697 L74.4242424,63.2290909 Z" id="polygon3282" fill="url(#linearGradient-1)" sketch:type="MSShapeGroup"></path>
                <path d="M90.7098182,90.9284848 L84.6060606,48.8 L67.9801212,70.7539394 L90.7098182,90.9284848 Z" id="polygon3293" fill="url(#linearGradient-2)" sketch:type="MSShapeGroup"></path>
                <path d="M90.7922424,90.9284848 L46.0751515,87.4181818 L19.8157576,95.7047273 L90.7922424,90.9284848 Z" id="polygon3304" fill="url(#linearGradient-3)" sketch:type="MSShapeGroup"></path>
                <path d="M19.8787879,95.7139394 L31.049697,59.1175758 L6.46787879,64.3738182 L19.8787879,95.7139394 Z" id="polygon3319" fill="url(#linearGradient-4)" sketch:type="MSShapeGroup"></path>
                <path d="M67.9757576,70.8751515 L57.6969697,30.6133333 L28.2812121,58.1866667 L67.9757576,70.8751515 Z" id="polygon3334" fill="url(#linearGradient-5)" sketch:type="MSShapeGroup"></path>
                <path d="M93.7309091,31.1806061 L65.9248485,8.47030303 L58.1818182,33.5030303 L93.7309091,31.1806061 Z" id="polygon3349" fill="url(#linearGradient-6)" sketch:type="MSShapeGroup"></path>
                <path d="M80.7272727,0.373333333 L64.3733333,9.41090909 L54.0557576,0.252121212 L80.7272727,0.373333333 Z" id="polygon3362" fill="url(#linearGradient-7)" sketch:type="MSShapeGroup"></path>
                <path d="M0,76.649697 L6.85090909,64.1551515 L1.30909091,49.270303 L0,76.649697 Z" id="polygon3375" fill="url(#linearGradient-8)" sketch:type="MSShapeGroup"></path>
                <path d="M0.940606061,48.8 L6.51636364,64.6157576 L30.7442424,59.1801212 L58.4048485,33.4734545 L66.2109091,8.67878788 L53.9195152,0 L33.0225455,7.82060606 C26.4387879,13.9442424 13.6630303,26.0606061 13.2024242,26.2884848 C12.7466667,26.5212121 4.76606061,41.6048485 0.940606061,48.8 L0.940606061,48.8 Z" id="path3377" fill="#FFFFFF" sketch:type="MSShapeGroup"></path>
                <path d="M20.5187879,20.3878788 C34.7878788,6.24 53.1830303,-2.11878788 60.2424242,5.00363636 C67.2974545,12.1260606 59.8157576,29.4351515 45.5466667,43.5781818 C31.2775758,57.7212121 13.110303,66.5406061 6.05575758,59.4181818 C-1.00363636,52.3006061 6.24969697,34.5309091 20.5187879,20.3878788 L20.5187879,20.3878788 Z" id="path3400" fill="url(#linearGradient-9)" sketch:type="MSShapeGroup"></path>
                <path d="M19.8787879,95.6993939 L30.9624242,58.9866667 L67.7721212,70.8121212 C54.4630303,83.2921212 39.6606061,93.8424242 19.8787879,95.6993939 L19.8787879,95.6993939 Z" id="path3413" fill="url(#linearGradient-10)" sketch:type="MSShapeGroup"></path>
                <path d="M58.4533333,33.4012121 L67.9030303,70.8315152 C79.0206061,59.1418182 88.9987879,46.5745455 93.8855758,31.030303 L58.4533333,33.4012121 L58.4533333,33.4012121 Z" id="path3424" fill="url(#linearGradient-11)" sketch:type="MSShapeGroup"></path>
                <path d="M93.7890909,31.2193939 C97.5709091,19.8060606 98.4436364,3.43272727 80.6104242,0.392727273 L65.977697,8.47515152 L93.7890909,31.2193939 L93.7890909,31.2193939 Z" id="path3435" fill="url(#linearGradient-12)" sketch:type="MSShapeGroup"></path>
                <path d="M0,76.4848485 C0.523636364,95.321697 14.1139394,95.6024242 19.9030303,95.7677576 L6.53090909,64.5381818 L0,76.4848485 L0,76.4848485 Z" id="path3437" fill="#9E1209" sketch:type="MSShapeGroup"></path>
                <path d="M58.5061818,33.4593939 C67.0492121,38.710303 84.2666667,49.2557576 84.6157576,49.449697 C85.158303,49.7551515 92.0387879,37.8472727 93.6,31.1175758 L58.5061818,33.4593939 L58.5061818,33.4593939 Z" id="path3448" fill="url(#radialGradient-13)" sketch:type="MSShapeGroup"></path>
                <path d="M30.9478788,58.9866667 L45.7648485,87.5733333 C54.5260606,82.8218182 61.3866667,77.0327273 67.670303,70.8315152 L30.9478788,58.9866667 L30.9478788,58.9866667 Z" id="path3459" fill="url(#radialGradient-14)" sketch:type="MSShapeGroup"></path>
                <path d="M6.47272727,64.5769697 L4.37333333,89.5757576 C8.33454545,94.9866667 13.7842424,95.4569697 19.5006061,95.0351515 C15.3648485,84.7418182 7.1030303,64.16 6.47272727,64.5769697 L6.47272727,64.5769697 Z" id="path3472" fill="url(#linearGradient-15)" sketch:type="MSShapeGroup"></path>
                <path d="M65.8909091,8.53818182 L95.3260606,12.6690909 C93.7551515,6.01212121 88.9309091,1.71636364 80.7078788,0.373333333 L65.8909091,8.53818182 L65.8909091,8.53818182 Z" id="path3485" fill="url(#linearGradient-16)" sketch:type="MSShapeGroup"></path>
            </g>
        </g>
    </g>
</svg>