<?xml version="1.0" encoding="UTF-8" standalone="no"?>
<svg width="200px" height="200px" viewBox="0 0 200 200" version="1.1" xmlns="http://www.w3.org/2000/svg" xmlns:xlink="http://www.w3.org/1999/xlink" xmlns:sketch="http://www.bohemiancoding.com/sketch/ns">
    <!-- Generator: Sketch 3.0.4 (8053) - http://www.bohemiancoding.com/sketch -->
    <title>Artboard 1</title>
    <desc>Created with Sketch.</desc>
    <defs></defs>
    <g id="Page-1" stroke="none" stroke-width="1" fill="none" fill-rule="evenodd" sketch:type="MSPage">
        <g id="Artboard-1" sketch:type="MSArtboardGroup">
            <g id="shape" sketch:type="MSLayerGroup" fill="#1F1B1C">
                <g id="dark" sketch:type="MSShapeGroup">
                    <polygon id="Polygon-2" transform="translate(100.000000, 100.000000) scale(1, -1) translate(-100.000000, -100.000000) " points="100 0 186.60254 50 186.60254 150 100 200 13.3974596 150 13.3974596 50 "></polygon>
                    <polygon id="Polygon-3" transform="translate(100.000000, 100.000000) scale(1, -1) translate(-100.000000, -100.000000) " points="100 0 195.105652 69.0983006 158.778525 180.901699 41.2214748 180.901699 4.89434837 69.0983006 "></polygon>
                </g>
            </g>
            <g id="sass" sketch:type="MSLayerGroup" transform="translate(35.000000, 43.000000)">
                <g id="Group" sketch:type="MSShapeGroup">
                    <path d="M130,72.2371134 C128.636255,75.5100103 126.831815,78.2747216 122.726023,78.5091134 C125.071042,76.3505876 127.520965,74.3062268 127.414054,70.7423608 C128.251274,71.0409072 128.934402,72.1658866 130,71.2268041 L130,72.2371134 L130,72.2371134 Z" id="Shape" fill="#BE6E94"></path>
                    <path d="M96.3545946,40.9634948 C95.8842857,42.5815052 94.6033591,42.5067423 93.3239382,42.4319794 C91.830695,42.3455979 91.2213514,42.7032474 91.1465637,44.5415052 C91.0918533,45.8892577 91.137529,48.0841546 88.869305,48.4867629 C89.3622008,46.726299 89.7371429,44.9203711 90.3750965,43.2149691 C91.4818533,40.2603196 94.1139768,41.0635155 96.3545946,40.9634948 L96.3545946,40.9634948 Z" id="Shape" fill="#B86C91"></path>
                    <path d="M80.3304633,45.4821031 C78.029112,45.5987938 75.537529,44.8683402 73.7044788,47.0859691 C73.5408494,47.2839897 73.3210039,46.7237732 73.2642857,46.4206804 C74.7434749,44.6895155 77.6737452,44.3000412 80.3304633,45.4821031 L80.3304633,45.4821031 Z" id="Shape" fill="#AD6E8E"></path>
                    <path d="M41.6732819,44.8592474 C44.1643629,44.1762784 46.6579537,44.2197216 49.1540541,44.8319691 C46.6609653,45.0698969 44.1673745,45.060299 41.6732819,44.8592474 L41.6732819,44.8592474 Z" id="Shape" fill="#A06E89"></path>
                    <path d="M97.7042857,45.403299 C97.0372201,44.0777732 97.4844402,42.6744536 97.4211969,41.3064948 C98.5430116,41.4100515 98.8120463,42.0046186 98.4456371,43.0270515 C98.1660618,43.8075155 97.9492278,44.6107113 97.7042857,45.403299 L97.7042857,45.403299 Z" id="Shape" fill="#B86C91"></path>
                    <path d="M81.6580695,18.6599072 C81.0974131,17.0055258 81.1119691,15.3506392 81.6525483,13.6952474 C81.9321236,15.350134 81.9481853,17.0045155 81.6580695,18.6599072 L81.6580695,18.6599072 Z" id="Shape" fill="#A3748B"></path>
                    <path d="M118.327606,57.2294742 C112.886178,55.8094845 107.431699,56.0484227 102.197568,58.2190722 C100.54973,58.9030515 99.8093822,58.6858351 98.9751737,57.0546907 C97.0497683,53.2897732 96.6341699,49.4516082 97.7042857,45.403299 C97.3373745,44.0565567 98.4616988,42.6057526 97.4216988,41.3064948 C97.1496525,40.9276289 96.7716988,40.8831753 96.3545946,40.9634948 C95.4581467,41.6580825 94.3990734,41.7586082 93.3239382,41.8045773 C91.7408494,41.8717629 90.819305,42.3834845 90.6837838,44.2858969 C90.5778764,45.7680206 90.1316602,47.3769381 88.869305,48.4862577 C86.5408494,52.6613608 84.5511969,57.0405464 81.6635907,61.0903711 C79.2242085,56.902134 79.0671042,52.7790619 80.4042471,48.5246495 C80.7294981,47.4870619 81.2510039,46.4757423 80.3309653,45.4826082 C77.8584556,44.9047113 75.4818147,45.0542371 73.2647876,46.4206804 C69.6132432,56.6192474 64.9839382,66.3682268 60.0665251,75.9984948 C59.4642085,74.4820206 59.6524324,73.0802165 59.9847104,71.709732 C60.8530502,68.1291959 61.7806178,64.5638144 62.6760618,60.9888351 C63.107722,59.2667629 62.9591506,57.1835052 60.9403861,57.3885979 C58.1295753,57.6740103 58.8257529,56.0772165 58.7750579,54.6617732 C58.6249807,50.4780825 56.1996525,48.7443918 52.2660232,50.0941649 C48.9944402,51.2176289 46.5711197,53.5423505 44.322471,56.0615567 C43.6493822,56.8152474 42.9993822,57.561866 42.0999228,58.0594433 C38.5899228,60.002268 35.0824324,61.9496392 31.5879923,63.9212577 C30.8069884,64.3622577 30.2287645,64.5875567 29.4322008,63.7798144 C25.595444,59.8896186 20.9500772,56.9708351 16.8749035,53.3711031 C12.6345946,49.6258866 9.08494208,45.4735155 10.0115058,39.1035155 C10.6359073,34.8102062 12.7726255,31.3544433 15.7049035,28.4179794 C25.9839382,18.1244433 38.4498842,11.7685876 52.5169884,8.72907216 C58.3925869,7.45961856 64.4659459,7.16763918 70.2135521,9.84849485 C73.4183784,11.3422371 75.0978378,13.7902165 74.8192664,17.4429897 C74.3916216,23.0305052 71.2952124,27.1449897 67.3821622,30.6992577 C60.5649421,36.8919485 52.3905019,40.0249175 43.3221236,40.7094021 C39.2549807,41.0165361 35.3379151,40.1643402 32.1135135,37.3304227 C31.582471,36.8631546 31.1377606,35.8477938 30.3291506,36.5201546 C29.6565637,37.0788557 30.2664093,37.912866 30.5464865,38.5978557 C30.9741313,39.6425155 31.7626641,40.3982268 32.5727799,41.1256495 C35.165251,43.4508763 38.2686873,44.5314021 41.6737838,44.8587423 C44.1663707,44.5748454 46.6604633,44.6359691 49.154556,44.8314639 C53.8265251,44.3439897 58.4071429,43.3735876 62.6765637,41.4014639 C72.5339768,36.8469897 79.5785714,29.8303918 81.6580695,18.6594021 C81.4894208,17.0045155 81.4984556,15.3496289 81.6520463,13.6947423 C80.816834,7.45204124 76.6462934,4.16702062 71.2666023,2.11609278 C68.8417761,1.1926701 66.2573359,0.69256701 63.7451737,0 L54.2084942,0 C50.9514672,0.568298969 47.5930502,0.450597938 44.4118147,1.54880412 C30.8652124,6.22653608 18.1668726,12.3151649 8.08861004,22.9825155 C4.16803089,27.1318557 0.993320463,31.611567 0,37.3814433 L0,42.4329897 C0.672084942,45.9135052 2.39872587,48.8191546 4.76432432,51.3949381 C8.07054054,54.9946701 11.7381467,58.1604742 15.7992664,60.8670928 C18.099112,62.4002371 20.2915444,64.0874536 22.5602703,65.6645464 C23.94861,66.6298969 23.963166,67.2977113 22.4061776,68.1236392 C18.777722,70.0487835 15.2847876,72.2270103 12.1176062,74.8482577 C8.95694981,77.4644536 5.88262548,80.1968351 4.4676834,84.3047526 C2.10610039,91.1591959 4.79895753,96.8346082 11.042471,98 L16.5637066,98 C22.3424324,97.5377835 26.743861,94.6245567 30.2398069,90.1524227 C34.8133977,84.3012165 35.7540154,77.6351959 34.1834749,70.573134 C33.7477992,68.6146495 34.0635135,67.5058351 35.8564093,66.7965979 C36.7403089,66.4475361 37.4450193,65.6327216 38.5226641,65.5872577 C38.631583,66.8526701 38.0282625,67.8922784 38.2787259,68.9925052 C38.5929344,71.8289485 38.5256757,74.6704433 38.3299228,77.5139588 C38.4016988,79.8679794 39.3744402,81.9310309 40.5243629,83.8834536 C42.5662162,87.3488144 47.2040541,87.5064227 49.5204633,84.2294845 C51.0192278,82.1088454 52.0963707,79.7573505 53.1865637,76.9896082 C52.9300772,78.9405155 53.2156757,80.4963918 53.7818533,81.9800309 C54.9357915,85.0013608 57.4509653,85.6863505 59.9490734,83.6874536 C61.410695,82.5185258 62.4958687,81.0247835 63.3842857,79.3885876 C66.06861,74.4451443 68.7730116,69.5153402 70.9659459,64.3157835 C71.7916216,62.3608351 72.6097683,60.3801237 73.7275676,57.8907216 C74.2766795,60.6028969 74.8639382,62.6533196 75.92,64.4526804 C77.0388031,66.3576186 76.7020077,67.7452784 75.4451737,69.4658351 C73.3149807,72.3841134 70.4409266,74.6749897 68.6023552,77.8018969 C66.8897683,80.716134 67.982973,82.8670825 71.34139,82.9110309 C76.3591892,82.976701 80.6411583,81.1061134 83.9042085,77.1780309 C84.709305,76.2091443 85.3025869,75.074567 85.2102317,73.7217629 C84.8894981,72.1103196 84.9311583,70.4923093 85.1299228,68.8707629 C85.2488803,67.4568351 84.0096139,66.0242165 84.8563707,64.7017216 C87.0387645,61.292433 88.9079537,57.692701 91.02861,54.0394227 C91.9697297,55.8064536 91.8347104,57.6472371 93.0423552,58.9368969 C94.2013127,59.8249588 95.5469884,60.6564433 94.0698069,62.3466907 C93.0132432,63.2943608 91.9762548,64.2723402 91.02861,65.3361959 C88.927027,67.6962784 87.4051737,70.3811753 86.8866795,73.5373814 C86.3762162,76.6420619 88.3247104,78.9657732 91.0973745,78.6869278 C98.4300772,77.9509175 103.510116,71.693567 102.719073,64.2930515 C102.602625,63.2044433 102.771274,62.5199588 103.901622,62.1996907 C109.052934,60.7443402 114.162085,60.9716598 119.175869,62.7260619 C123.142124,64.114732 125.603089,67.081 127.016525,70.987866 C127.965676,71.6703299 128.872664,72.8301649 130,71.2227629 L130,68.6969897 C128.29695,62.6225052 124.324672,58.7944433 118.327606,57.2294742 L118.327606,57.2294742 Z M18.1262162,90.8212474 C16.2986873,91.4784536 14.2528185,92.0987835 12.696332,90.5535155 C11.0580309,88.9269175 11.7923552,86.7537423 12.4016988,84.8887113 C13.2494595,82.2942371 14.9535135,80.1634948 16.993861,78.4171753 C19.7795753,76.0308247 22.7530116,73.8707835 25.8830502,71.9527113 C28.3138996,70.4635155 28.4659846,70.5685876 28.6617375,73.5116186 C28.7003861,74.0965876 28.7289961,74.682567 28.7480695,75.0164742 C28.8173359,82.081567 24.4174131,88.5581546 18.1262162,90.8212474 L18.1262162,90.8212474 Z M54.2762548,59.3794124 C52.7779923,64.8881237 50.7010039,70.1947732 48.374556,75.4014021 C48.0683784,76.0863918 47.6798842,76.740567 47.2778378,77.3760515 C46.9686486,77.8650412 46.6313514,78.5081031 45.9833591,78.4277835 C45.2174131,78.3328144 44.987529,77.5265876 44.8444788,76.9229278 C44.5362934,75.6246804 44.3982625,74.284 44.2552124,73.3706804 C44.597529,67.1598041 46.5259459,61.9890412 50.1288031,57.4583093 C50.1810039,57.3926392 50.2286873,57.3214124 50.2899228,57.2653402 C51.4619305,56.2055258 52.8221622,54.5622577 54.3018533,55.3422165 C55.9255985,56.1974433 54.636139,58.0574227 54.2762548,59.3794124 L54.2762548,59.3794124 Z M72.8466795,78.8157423 C74.8358301,76.5218351 76.8249807,74.2279278 78.8141313,71.9340206 C78.6043243,75.6903505 76.1022008,77.5725567 72.8466795,78.8157423 L72.8466795,78.8157423 Z M91.3182239,74.6386186 C91.5661776,70.8615773 93.6060232,68.2620515 96.0961004,65.7246598 C97.6149421,69.697701 95.6855212,73.2858144 91.3182239,74.6386186 L91.3182239,74.6386186 Z" id="Shape" fill="#CC6598"></path>
                    <path d="M38.7676062,77.7523918 C38.0910039,74.7452062 38.3776062,71.7390309 38.7801544,68.7328557 C39.3638996,71.7400412 39.3950193,74.7467216 38.7676062,77.7523918 L38.7676062,77.7523918 Z" id="Shape" fill="#B06B8B"></path>
                    <path d="M94.7705019,62.6103814 C94.7755212,61.1024948 93.4940927,60.0532887 93.3510425,58.5984433 C95.2362934,59.4294227 96.0966023,60.6291649 94.7705019,62.6103814 L94.7705019,62.6103814 Z" id="Shape" fill="#B27495"></path>
                    <path d="M84.7047876,68.7182062 C84.9949035,70.3852165 85.0686873,72.0532371 84.7333977,73.7237835 C84.0643243,72.0582887 84.102973,70.390268 84.7047876,68.7182062 L84.7047876,68.7182062 Z" id="Shape" fill="#AA6A87"></path>
                </g>
            </g>
        </g>
    </g>
</svg>