<?xml version="1.0" encoding="UTF-8" standalone="no"?>
<svg width="200px" height="200px" viewBox="0 0 200 200" version="1.1" xmlns="http://www.w3.org/2000/svg" xmlns:xlink="http://www.w3.org/1999/xlink" xmlns:sketch="http://www.bohemiancoding.com/sketch/ns">
    <!-- Generator: Sketch 3.0.4 (8053) - http://www.bohemiancoding.com/sketch -->
    <title>Artboard 1</title>
    <desc>Created with Sketch.</desc>
    <defs></defs>
    <g id="Page-1" stroke="none" stroke-width="1" fill="none" fill-rule="evenodd" sketch:type="MSPage">
        <g id="Artboard-1" sketch:type="MSArtboardGroup">
            <g id="shape" sketch:type="MSLayerGroup" fill="#1F1B1C">
                <g id="dark" sketch:type="MSShapeGroup">
                    <polygon id="Polygon-2" transform="translate(100.000000, 100.000000) scale(1, -1) translate(-100.000000, -100.000000) " points="100 0 186.60254 50 186.60254 150 100 200 13.3974596 150 13.3974596 50 "></polygon>
                    <polygon id="Polygon-3" transform="translate(100.000000, 100.000000) scale(1, -1) translate(-100.000000, -100.000000) " points="100 0 195.105652 69.0983006 158.778525 180.901699 41.2214748 180.901699 4.89434837 69.0983006 "></polygon>
                </g>
            </g>
            <g id="sublime" sketch:type="MSLayerGroup" transform="translate(50.000000, 50.000000)">
                <g id="Group" sketch:type="MSShapeGroup">
                    <path d="M98,88.822335 C98,92.6378252 96.5271866,97 92.7600478,97 L8.28357895,97 C4.51644019,97 0,92.6373544 0,88.822335 L0,13.7857718 C0,9.97075243 4.51644019,8.00485437 8.28357895,8.00485437 L92.7600478,8.00485437 C96.5271866,8.00485437 98,9.97075243 98,13.7857718 L98,88.822335 L98,88.822335 Z" id="Shape" fill="#999999"></path>
                    <path d="M98,85.9970922 C98,89.8125825 96.5271866,94.1747573 92.7600478,94.1747573 L8.28357895,94.1747573 C4.51644019,94.1747573 0,89.8121117 0,85.9970922 L0,12.8440243 C0,9.02900485 4.51644019,7.0631068 8.28357895,7.0631068 L92.7600478,7.0631068 C96.5271866,7.0631068 98,9.02900485 98,12.8440243 L98,85.9970922 L98,85.9970922 Z" id="Shape" fill="#D9D9D9"></path>
                    <path d="M92.8421053,79.9374175 C92.8421053,83.3470146 90.3475598,86.1699029 86.9808612,86.1699029 L11.4880383,86.1699029 C8.12133971,86.1699029 5.15789474,83.3470146 5.15789474,79.9374175 L5.15789474,15.8265388 C5.15789474,12.4169417 8.12133971,9.88834951 11.4880383,9.88834951 L86.9808612,9.88834951 C90.3475598,9.88834951 92.8421053,12.4169417 92.8421053,15.8265388 L92.8421053,79.9374175 L92.8421053,79.9374175 Z" id="Shape" fill="#262626"></path>
                    <path d="M92.8421053,70.049068 C92.8421053,73.458665 90.3475598,76.2815534 86.9808612,76.2815534 L11.4880383,76.2815534 C8.12133971,76.2815534 5.15789474,73.458665 5.15789474,70.049068 L5.15789474,5.93818932 C5.15789474,2.52859223 8.12133971,0 11.4880383,0 L86.9808612,0 C90.3475598,0 92.8421053,2.52859223 92.8421053,5.93818932 L92.8421053,70.049068 L92.8421053,70.049068 Z" id="Shape" fill="#4C4C4C"></path>
                    <path d="M38.9313206,47.3124563 C41.8839809,49.8363398 45.6544019,51.6030583 49.0473589,51.6030583 C52.8801435,51.6030583 54.7646507,50.0882573 54.7646507,47.6279417 C54.7646507,45.0409612 52.4403158,44.220699 48.8583923,42.7063689 L43.5171579,40.4348738 C39.3069091,38.7312524 35.2856268,35.1978155 35.2856268,29.2031214 C35.2856268,22.3886359 41.3180191,16.9622864 49.8637129,16.9622864 C54.5756842,16.9622864 59.5403923,18.855199 63.0590144,22.3886359 L58.3461053,28.256665 C55.6443062,26.1744612 53.1305359,24.9756165 49.8637129,24.9756165 C46.6592536,24.9756165 44.6481435,26.3637524 44.6481435,28.6983447 C44.6481435,31.2222282 47.3499426,32.1055874 50.8695024,33.5568204 L56.1474354,35.7021214 C61.1112057,37.7212282 64.2523636,41.0658447 64.2523636,46.8703058 C64.2523636,53.6852621 58.5969665,59.6159175 48.7950909,59.6159175 C43.4547943,59.6159175 37.799866,57.5972816 33.6529187,53.6847913 L38.9313206,47.3124563 L38.9313206,47.3124563 Z" id="Shape" fill="#FF8100"></path>
                </g>
            </g>
        </g>
    </g>
</svg>