<?xml version="1.0" encoding="UTF-8" standalone="no"?>
<svg width="200px" height="200px" viewBox="0 0 200 200" version="1.1" xmlns="http://www.w3.org/2000/svg" xmlns:xlink="http://www.w3.org/1999/xlink" xmlns:sketch="http://www.bohemiancoding.com/sketch/ns">
    <!-- Generator: Sketch 3.0.4 (8053) - http://www.bohemiancoding.com/sketch -->
    <title>Artboard 1</title>
    <desc>Created with Sketch.</desc>
    <defs></defs>
    <g id="Page-1" stroke="none" stroke-width="1" fill="none" fill-rule="evenodd" sketch:type="MSPage">
        <g id="Artboard-1" sketch:type="MSArtboardGroup">
            <g id="shape" sketch:type="MSLayerGroup" fill="#1F1B1C">
                <g id="dark" sketch:type="MSShapeGroup">
                    <polygon id="Polygon-2" transform="translate(100.000000, 100.000000) scale(1, -1) translate(-100.000000, -100.000000) " points="100 0 186.60254 50 186.60254 150 100 200 13.3974596 150 13.3974596 50 "></polygon>
                    <polygon id="Polygon-3" transform="translate(100.000000, 100.000000) scale(1, -1) translate(-100.000000, -100.000000) " points="100 0 195.105652 69.0983006 158.778525 180.901699 41.2214748 180.901699 4.89434837 69.0983006 "></polygon>
                </g>
            </g>
            <g id="svg" sketch:type="MSLayerGroup" transform="translate(54.000000, 53.000000)">
                <g id="layer1" transform="translate(-0.021957, 0.044004)" sketch:type="MSShapeGroup">
                    <g id="_189263792" transform="translate(-0.017569, -0.036966)">
                        <rect id="_151141056" fill="#FF9900" x="0" y="0" width="92.6793355" height="92.2594048"></rect>
                        <rect id="_151140504" fill="#DE8500" x="46.87431" y="45.9856625" width="46.3413023" height="45.9882992"></rect>
                        <rect id="_151140120" fill="#FFB13B" x="0" y="0" width="46.3413023" height="46.1313295"></rect>
                        <g id="g107" transform="translate(0.679338, 0.000000)" fill="#FF9900">
                            <ellipse id="_151139416" cx="17.0265157" cy="46.0285373" rx="17.0265157" ry="16.9493684"></ellipse>
                            <ellipse id="_151137016" transform="translate(25.383458, 25.461392) rotate(45.000000) translate(-25.383458, -25.461392) " cx="25.3835606" cy="25.461494" rx="17.0265215" ry="16.9493742"></ellipse>
                            <ellipse id="_151136448" transform="translate(46.066276, 16.937226) rotate(90.000000) translate(-46.066276, -16.937226) " cx="46.0663784" cy="16.9373277" rx="17.0265178" ry="16.9493705"></ellipse>
                            <ellipse id="_151135880" transform="translate(66.746087, 25.468618) rotate(135.000000) translate(-66.746087, -25.468618) " cx="66.7461893" cy="25.4687203" rx="17.0265215" ry="16.9493742"></ellipse>
                            <ellipse id="_151135312" cx="75.4495688" cy="46.0285373" rx="17.0265157" ry="16.9493684"></ellipse>
                            <ellipse id="_151134744" transform="translate(66.738827, 66.644509) rotate(225.000000) translate(-66.738827, -66.644509) " cx="66.7389301" cy="66.644611" rx="17.0265215" ry="16.9493742"></ellipse>
                            <ellipse id="_151134176" transform="translate(46.056010, 75.168675) rotate(-90.000000) translate(-46.056010, -75.168675) " cx="46.0561122" cy="75.1687773" rx="17.0265178" ry="16.9493705"></ellipse>
                            <ellipse id="_151038344" transform="translate(25.376199, 66.637282) rotate(-45.000000) translate(-25.376199, -66.637282) " cx="25.3763013" cy="66.6373847" rx="17.0265215" ry="16.9493742"></ellipse>
                        </g>
                        <path d="M58.8537533,16.9409828 C58.8537533,10.2836587 53.4283915,4.88286584 46.7407522,4.88286584 C40.0531265,4.88286584 34.6277512,10.2836452 34.6277512,16.9409828 C29.8968086,12.2348845 22.2273902,12.2348845 17.4964816,16.9409828 C12.7689629,21.6504895 12.7689629,29.2851576 17.4964816,33.9946305 C10.8088558,33.9946305 5.38348054,39.3954098 5.38348054,46.0527474 C5.38348054,52.7100715 10.8088423,58.1108644 17.4964816,58.1108644 C12.7689629,62.820371 12.7689629,70.4550392 17.4964816,75.1645121 C22.2274242,79.8706104 29.8968425,79.8706104 34.6277512,75.1645121 C34.6277512,81.8218361 40.0531129,87.222629 46.7407522,87.222629 C53.428378,87.222629 58.8537533,81.8218497 58.8537533,75.1645121 C63.5846959,79.8706104 71.2541142,79.8706104 75.9850228,75.1645121 C80.7125416,70.4550054 80.7125416,62.8203372 75.9850228,58.1108644 C82.6726486,58.1108644 88.0945593,52.710085 88.0945593,46.0527474 C88.0945593,39.3954234 82.6726214,33.9946305 75.9850228,33.9946305 C80.7125416,29.2851238 80.7125416,21.6504556 75.9850228,16.9409828 C71.2540803,12.2348845 63.5846619,12.2348845 58.8537533,16.9409828 L58.8537533,16.9409828 Z" id="_151038768" fill="#000000"></path>
                        <path d="M51.3756025,21.5584843 L51.3756025,34.9106243 L60.8614003,25.4678066 C60.8614003,23.7992169 61.5010852,22.1272255 62.7804618,20.8536526 C65.3426251,18.3030984 69.495458,18.3030984 72.0541704,20.8536526 C74.6163337,23.4008052 74.6163337,27.5348148 72.0541704,30.085342 C70.7748006,31.3589149 69.0951922,31.9957081 67.4190144,31.9957081 L57.9332165,41.4385258 L71.3461305,41.4385258 C72.5331443,40.2568904 74.1716936,39.524758 75.9847103,39.524758 C79.6038962,39.524758 82.5389277,42.4498925 82.5389277,46.0526798 C82.5389277,49.6554671 79.6038962,52.5806016 75.9847103,52.5806016 C74.1716936,52.5806016 72.5331443,51.8484692 71.3461305,50.6668338 L57.9332165,50.6668338 L67.4190144,60.1096515 C69.095199,60.1096515 70.7748006,60.746438 72.0541704,62.0200176 C74.6163337,64.5705718 74.6163337,68.7045882 72.0541704,71.251707 C69.4954241,73.8022612 65.342598,73.8022612 62.7804618,71.251707 C61.501092,69.9781341 60.8614003,68.306136 60.8614003,66.637553 L51.3756025,57.1947353 L51.3756025,70.5468753 C52.5626162,71.7285107 53.298081,73.3596357 53.298081,75.1644377 C53.298081,78.767225 50.3596324,81.6889579 46.7404465,81.6889579 C43.1212607,81.6889579 40.1828121,78.767225 40.1828121,75.1644377 C40.1828121,73.3596357 40.9182768,71.7285107 42.1052906,70.5468753 L42.1052906,57.1947353 L32.6194927,66.637553 C32.6194927,68.3061427 31.9798078,69.9781341 30.7004313,71.251707 C28.1382679,73.8022612 23.985435,73.8022612 21.4267227,71.251707 C18.8645593,68.7045544 18.8645593,64.5705448 21.4267227,62.0200176 C22.7060924,60.7464447 24.3857008,60.1096515 26.0618786,60.1096515 L35.5476765,50.6668338 L22.1347625,50.6668338 C20.9477487,51.8484692 19.3091995,52.5806016 17.4961827,52.5806016 C13.8769968,52.5806016 10.9419653,49.6554671 10.9419653,46.0526798 C10.9419653,42.4498925 13.8769968,39.524758 17.4961827,39.524758 C19.3091995,39.524758 20.9477487,40.2568904 22.1347625,41.4385258 L35.5476765,41.4385258 L26.0618786,31.9957081 C24.385694,31.9957081 22.7060924,31.3589217 21.4267227,30.085342 C18.8645593,27.5347878 18.8645593,23.4007714 21.4267227,20.8536526 C23.985469,18.3030984 28.1382951,18.3030984 30.7004313,20.8536526 C31.979801,22.1272255 32.6194927,23.7992236 32.6194927,25.4678066 L42.1052906,34.9106243 L42.1052906,21.5584843 C40.9182768,20.3768489 40.1828121,18.7457239 40.1828121,16.9409219 C40.1828121,13.3381346 43.1212607,10.4164018 46.7404465,10.4164018 C50.3596324,10.4164018 53.298081,13.3381346 53.298081,16.9409219 C53.298081,18.7457239 52.5626162,20.3768489 51.3756025,21.5584843 L51.3756025,21.5584843 Z" id="_151037224" fill="#FFFFFF"></path>
                        <rect id="_151036536" fill="#000000" x="5.43470261" y="45.9856625" width="82.7039457" height="41.0965757"></rect>
                        <rect id="_151035984" fill="#000000" x="5.43470261" y="68.9784937" width="82.7039457" height="18.0351034"></rect>
                        <path d="M14.0548203,49.9350194 L80.0964433,49.9350194 C82.8022798,49.9350194 85.0121046,52.1348314 85.0121046,54.8284078 L85.0121046,71.3338117 C59.4896542,68.190739 34.1861544,63.8455876 9.13890081,64.2474211 L9.13890081,54.8284078 C9.13890081,52.1348314 11.3487256,49.9350194 14.0545621,49.9350194 L14.0548203,49.9350194 L14.0548203,49.9350194 Z" id="_151164400" fill="#3F3F3F"></path>
                        <path d="M57.4679041,48.8246009 L49.8328263,85.5340084 L43.5047944,85.5340084 L35.8656406,48.8246009 L42.1943517,48.8246009 L46.6684707,70.3256031 L51.1398722,48.8246009 L57.4679041,48.8246009 L57.4679041,48.8246009 Z" id="_151164136" stroke="#000000" stroke-width="2.11867569" fill="#FFFFFF"></path>
                        <path d="M68.2707342,64.0296249 L79.0735643,64.0296249 L79.0735643,74.780126 C79.0735643,80.7189376 74.2365771,85.5340084 68.2741309,85.5340084 C62.308288,85.5340084 57.4713008,80.7189376 57.4713008,74.780126 L57.4713008,74.780126 L57.4713008,59.5755754 L57.4678769,59.5755754 C57.4678769,53.6401721 62.3048642,48.8250742 68.270707,48.8250742 C74.2365499,48.8250742 79.0735372,53.640145 79.0735372,59.5755754 L72.7450909,59.5755754 C72.7450909,57.1169587 70.7405144,55.1248733 68.270707,55.1248733 C65.8008996,55.1248733 63.799747,57.1169654 63.799747,59.5755754 L63.799747,74.780126 C63.799747,77.2387427 65.8009064,79.2342364 68.270707,79.2342364 C70.7405144,79.2342364 72.7450909,77.2387427 72.7450909,74.7835344 L72.7450909,74.780126 L72.7450909,70.329424 L68.270707,70.329424 L68.270707,64.029652 L68.2707342,64.0296249 L68.2707342,64.0296249 Z" id="_151163752" stroke="#000000" stroke-width="2.11867569" fill="#FFFFFF"></path>
                        <path d="M17.4277326,67.1789665 C15.4744665,65.2311424 14.2635129,62.5443759 14.2635129,59.5749667 C14.2635129,53.6361551 19.1005001,48.8244656 25.066343,48.8244656 C31.028762,48.8244656 35.8657764,53.6361281 35.8657764,59.5749667 L29.540754,59.5749667 C29.540754,57.1163501 27.5361776,55.1208563 25.0663702,55.1208563 C22.5965628,55.1208563 20.5919863,57.1163501 20.5919863,59.5749667 C20.5919863,60.8042717 21.0914219,61.9143926 21.8987266,62.7214478 L21.9021504,62.7214478 C22.7128722,63.5284961 23.8314699,64.0256688 25.0663702,64.0256688 L25.0663702,64.0290771 C28.0492882,64.0290771 30.7482906,65.2311424 32.7015839,67.1789598 L32.7015839,67.1789598 C34.6582738,69.1233756 35.8658036,71.8135504 35.8658036,74.7795783 C35.8658036,80.7183899 31.0288164,85.5334607 25.0663702,85.5334607 C19.1005273,85.5334607 14.26354,80.7183899 14.26354,74.7795783 L20.5919863,74.7795783 C20.5919863,77.2415965 22.5965628,79.2336887 25.0663702,79.2336887 C27.5361776,79.2336887 29.540754,77.2415965 29.540754,74.7795783 C29.540754,73.5536749 29.0413184,72.4401524 28.2305967,71.6330972 L28.2305967,71.6330972 C27.4198749,70.8294504 26.3012773,70.3288762 25.066377,70.3288762 L25.066377,70.3288762 C22.0834589,70.3288762 19.3844565,69.1234094 17.4277666,67.1789936 L17.4277666,67.1789936 L17.4277326,67.1789665 L17.4277326,67.1789665 Z" id="_151162704" stroke="#000000" stroke-width="2.11867569" fill="#FFFFFF"></path>
                    </g>
                </g>
            </g>
        </g>
    </g>
</svg>