<?xml version="1.0" encoding="UTF-8" standalone="no"?>
<svg width="200px" height="200px" viewBox="0 0 200 200" version="1.1" xmlns="http://www.w3.org/2000/svg" xmlns:xlink="http://www.w3.org/1999/xlink" xmlns:sketch="http://www.bohemiancoding.com/sketch/ns">
    <!-- Generator: Sketch 3.0.4 (8053) - http://www.bohemiancoding.com/sketch -->
    <title>Artboard 1</title>
    <desc>Created with Sketch.</desc>
    <defs></defs>
    <g id="Page-1" stroke="none" stroke-width="1" fill="none" fill-rule="evenodd" sketch:type="MSPage">
        <g id="Artboard-1" sketch:type="MSArtboardGroup">
            <g id="shape" sketch:type="MSLayerGroup" fill="#1F1B1C">
                <g id="dark" sketch:type="MSShapeGroup">
                    <polygon id="Polygon-2" transform="translate(100.000000, 100.000000) scale(1, -1) translate(-100.000000, -100.000000) " points="100 0 186.60254 50 186.60254 150 100 200 13.3974596 150 13.3974596 50 "></polygon>
                    <polygon id="Polygon-3" transform="translate(100.000000, 100.000000) scale(1, -1) translate(-100.000000, -100.000000) " points="100 0 195.105652 69.0983006 158.778525 180.901699 41.2214748 180.901699 4.89434837 69.0983006 "></polygon>
                </g>
            </g>
            <path d="M97.1709965,126.840812 L97.1709965,65.5011809 C97.1709965,64.9420957 96.9912905,64.4828471 96.6318786,64.1234352 C96.2724667,63.7640233 95.8132182,63.5843174 95.254133,63.5843174 L66.5011809,63.5843174 C65.9420957,63.5843174 65.4828471,63.7640233 65.1234352,64.1234352 C64.7640233,64.4828471 64.5843174,64.9420957 64.5843174,65.5011809 L64.5843174,126.840812 C64.5843174,127.399897 64.7640233,127.859146 65.1234352,128.218558 C65.4828471,128.57797 65.9420957,128.757676 66.5011809,128.757676 L95.254133,128.757676 C95.8132182,128.757676 96.2724667,128.57797 96.6318786,128.218558 C96.9912905,127.859146 97.1709965,127.399897 97.1709965,126.840812 L97.1709965,126.840812 Z M137.42513,103.83845 L137.42513,65.5011809 C137.42513,64.9420957 137.245424,64.4828471 136.886012,64.1234352 C136.5266,63.7640233 136.067351,63.5843174 135.508266,63.5843174 L106.755314,63.5843174 C106.196229,63.5843174 105.73698,63.7640233 105.377568,64.1234352 C105.018156,64.4828471 104.83845,64.9420957 104.83845,65.5011809 L104.83845,103.83845 C104.83845,104.397536 105.018156,104.856784 105.377568,105.216196 C105.73698,105.575608 106.196229,105.755314 106.755314,105.755314 L135.508266,105.755314 C136.067351,105.755314 136.5266,105.575608 136.886012,105.216196 C137.245424,104.856784 137.42513,104.397536 137.42513,103.83845 L137.42513,103.83845 Z M147.009447,57.833727 L147.009447,142.17572 C147.009447,143.214021 146.630068,144.112551 145.871309,144.871309 C145.112551,145.630068 144.214021,146.009447 143.17572,146.009447 L58.833727,146.009447 C57.7954259,146.009447 56.8968961,145.630068 56.1381377,144.871309 C55.3793792,144.112551 55,143.214021 55,142.17572 L55,57.833727 C55,56.7954259 55.3793792,55.8968961 56.1381377,55.1381377 C56.8968961,54.3793792 57.7954259,54 58.833727,54 L143.17572,54 C144.214021,54 145.112551,54.3793792 145.871309,55.1381377 C146.630068,55.8968961 147.009447,56.7954259 147.009447,57.833727 L147.009447,57.833727 Z" id="trello" fill="#FFFFFF" sketch:type="MSShapeGroup"></path>
        </g>
    </g>
</svg>