<?xml version="1.0" encoding="UTF-8" standalone="no"?>
<svg width="200px" height="200px" viewBox="0 0 200 200" version="1.1" xmlns="http://www.w3.org/2000/svg" xmlns:xlink="http://www.w3.org/1999/xlink" xmlns:sketch="http://www.bohemiancoding.com/sketch/ns">
    <!-- Generator: Sketch 3.0.4 (8053) - http://www.bohemiancoding.com/sketch -->
    <title>Artboard 1</title>
    <desc>Created with Sketch.</desc>
    <defs></defs>
    <g id="Page-1" stroke="none" stroke-width="1" fill="none" fill-rule="evenodd" sketch:type="MSPage">
        <g id="Artboard-1" sketch:type="MSArtboardGroup">
            <g id="shape" sketch:type="MSLayerGroup" fill="#1F1B1C">
                <g id="dark" sketch:type="MSShapeGroup">
                    <polygon id="Polygon-2" transform="translate(100.000000, 100.000000) scale(1, -1) translate(-100.000000, -100.000000) " points="100 0 186.60254 50 186.60254 150 100 200 13.3974596 150 13.3974596 50 "></polygon>
                    <polygon id="Polygon-3" transform="translate(100.000000, 100.000000) scale(1, -1) translate(-100.000000, -100.000000) " points="100 0 195.105652 69.0983006 158.778525 180.901699 41.2214748 180.901699 4.89434837 69.0983006 "></polygon>
                </g>
            </g>
            <path d="M40,100 C40,89.12 42.68,79.08 48.04,69.88 C53.4,60.68 60.68,53.4 69.88,48.04 C79.08,42.68 89.12,40 100,40 C110.88,40 120.92,42.68 130.12,48.04 C139.32,53.4 146.6,60.68 151.96,69.88 C157.32,79.08 160,89.12 160,100 C160,110.88 157.32,120.92 151.96,130.12 C146.6,139.32 139.32,146.6 130.12,151.96 C120.92,157.32 110.88,160 100,160 C89.12,160 79.08,157.32 69.88,151.96 C60.68,146.6 53.4,139.32 48.04,130.12 C42.68,120.92 40,110.88 40,100 L40,100 Z M44.68,100 C44.68,110.8 47.54,120.68 53.26,129.64 C58.98,138.6 66.52,145.32 75.88,149.8 L49.48,77.44 C46.28,84.56 44.68,92.08 44.68,100 L44.68,100 Z M53.68,69.64 L57.28,69.64 C61.12,69.64 66.04,69.4 72.04,68.92 C73,68.84 73.7,69.16 74.14,69.88 C74.58,70.6 74.64,71.36 74.32,72.16 C74,72.96 73.36,73.4 72.4,73.48 L66.04,74.08 L86.2,133.96 L98.32,97.72 L89.68,74.08 C87.76,73.84 85.84,73.64 83.92,73.48 C82.96,73.4 82.32,72.96 82,72.16 C81.68,71.36 81.74,70.6 82.18,69.88 C82.62,69.16 83.32,68.84 84.28,68.92 L98.8,69.64 C102.72,69.64 107.64,69.4 113.56,68.92 C114.52,68.84 115.22,69.16 115.66,69.88 C116.1,70.6 116.16,71.36 115.84,72.16 C115.52,72.96 114.88,73.4 113.92,73.48 L107.68,74.08 L127.6,133.6 L133.12,115.12 C136,105.76 137.44,99.8 137.44,97.24 C137.44,92.12 135.88,87 132.76,81.88 C132.6,81.64 132.1,80.8 131.26,79.36 C130.42,77.92 129.88,76.98 129.64,76.54 C129.4,76.1 129.04,75.34 128.56,74.26 C128.08,73.18 127.76,72.24 127.6,71.44 C127.44,70.64 127.36,69.8 127.36,68.92 C127.36,66.28 128.26,63.98 130.06,62.02 C131.86,60.06 134.08,59.08 136.72,59.08 C136.8,59.08 136.92,59.1 137.08,59.14 C137.24,59.18 137.36,59.2 137.44,59.2 C126.96,49.52 114.48,44.68 100,44.68 C90.48,44.68 81.64,46.92 73.48,51.4 C65.32,55.88 58.72,61.96 53.68,69.64 L53.68,69.64 Z M84.4,153.16 C89.36,154.6 94.56,155.32 100,155.32 C106.4,155.32 112.52,154.28 118.36,152.2 L118,151.48 L100.96,104.8 L84.4,153.16 Z M127.84,147.88 C136.24,143 142.92,136.3 147.88,127.78 C152.84,119.26 155.32,110 155.32,100 C155.32,90.4 153.08,81.56 148.6,73.48 C148.84,75.16 148.96,77.04 148.96,79.12 C148.96,84.16 147.56,90.76 144.76,98.92 L127.84,147.88 Z" id="Shape" fill="#FFFFFF" sketch:type="MSShapeGroup"></path>
        </g>
    </g>
</svg>