<svg width="200" height="200" xmlns="http://www.w3.org/2000/svg" xmlns:sketch="http://www.bohemiancoding.com/sketch/ns"><title>Artboard 1</title><desc>Created with Sketch.</desc><defs><radialGradient cx="39.869%" cy="33.311%" fx="39.869%" fy="33.311%" r="65.196%" id="a"><stop stop-color="#160D28" stop-opacity=".85" offset="0%"/><stop stop-color="#160D28" offset="76.69%"/></radialGradient></defs><g sketch:type="MSArtboardGroup" fill="none"><g sketch:type="MSShapeGroup" transform="matrix(1 0 0 -1 0 200)" fill="#1F1B1C"><polygon points="100 0 186.60254 50 186.60254 150 100 200 13.3974596 150 13.3974596 50"/><polygon points="100 0 195.105652 69.0983006 158.778525 180.901699 41.2214748 180.901699 4.89434837 69.0983006"/></g><g sketch:type="MSLayerGroup" transform="translate(51.096 51.089)"><rect fill="url(#a)" sketch:type="MSShapeGroup" x="4.087" y="4.108" width="89.916" height="87.913"/><path d="M0 0v96.128h98.091v-96.128h-98.091zm7.03 7.051h85.012v83.117h-85.012v-83.117z" id="Shape" fill="#8781BD" sketch:type="MSShapeGroup"/><path d="M27.725 54.432l-3.237 12.269c-.068.339-.203.466-.607.466h-6.002c-.405 0-.472-.136-.405-.61l11.599-40.805c.203-.745.338-1.333.405-3.367 0-.271.135-.407.338-.407h8.565c.269 0 .404.068.472.407l13.016 44.239c.067.339 0 .542-.338.542h-6.744c-.337 0-.539-.128-.607-.398l-3.372-12.337h-13.083zm11.47-6.669c-1.146-4.541-3.918-14.502-4.929-19.315h-.067c-.877 4.813-3.09 12.939-4.776 19.31l9.773.004zm21.909 4.204c.068 5.559 2.698 9.286 8.902 9.286 2.427 0 4.508-.322 6.666-1.272.27-.136.472-.067.472.271v5.152c0 .407-.135.61-.405.813-2.158 1.085-4.845 1.559-8.217 1.559-10.79 0-14.836-7.998-14.836-16.946 0-9.693 4.99-17.623 13.758-17.623 8.901 0 12.003 7.524 12.003 13.624 0 1.966-.135 3.593-.337 4.339-.068.339-.203.458-.539.525-.809.136-3.237.271-6.812.271h-10.656zm8.295-5.649c2.091 0 2.833 0 3.035-.067l.068-.707c0-2.237-1.079-6.343-5.328-6.343-3.911 0-5.597 3.457-6.002 7.117h8.227z" fill="#8781BD" sketch:type="MSShapeGroup"/></g></g></svg>