<svg width="200" height="200" xmlns="http://www.w3.org/2000/svg" xmlns:sketch="http://www.bohemiancoding.com/sketch/ns"><title>Artboard 1</title><desc>Created with Sketch.</desc><g sketch:type="MSArtboardGroup" fill="none"><g sketch:type="MSShapeGroup" transform="matrix(1 0 0 -1 0 200)" fill="#1F1B1C"><polygon points="100 0 186.60254 50 186.60254 150 100 200 13.3974596 150 13.3974596 50"/><polygon points="100 0 195.105652 69.0983006 158.778525 180.901699 41.2214748 180.901699 4.89434837 69.0983006"/></g><g sketch:type="MSShapeGroup" transform="translate(37 77)"><path d="M11.517 28.546c3.331 0 4.941-3.423 4.941-6.529s-1.56-6.612-4.941-6.612c-3.525 0-5.08 3.506-5.08 6.612 0 3.106 1.605 6.529 5.08 6.529zm11.354 1.443c0 1.655 0 4.232-3.075 4.232-1.876 0-2.627-1.044-3.077-2.75-1.641 1.979-3.648 3.013-6.103 3.013-6.003 0-10.589-5.182-10.589-12.466 0-7.115 4.719-12.562 10.589-12.562 2.363 0 4.677.941 6.103 2.966.178-1.575 1.522-2.696 3.077-2.696 3.075 0 3.075 2.569 3.075 4.24v16.024z" id="Shape" fill="#FC4C02"/><path d="M36.122 28.543c3.331 0 4.979-3.514 4.979-6.526 0-3.058-1.65-6.614-4.979-6.614-3.439 0-5.034 3.235-5.034 6.388 0 3.154 1.507 6.753 5.034 6.753zm-11.447-15.214c0-2.157 1.329-3.604 3.203-3.604 1.772 0 2.806.998 3.21 2.696 1.197-1.976 3.693-2.966 6.103-2.966 6.886 0 10.317 6.528 10.317 12.827 0 6.126-4.083 12.201-10.542 12.201-2.017 0-4.187-.769-5.876-2.252v7.921c0 2.156-1.336 3.596-3.21 3.596-1.874 0-3.203-1.44-3.203-3.596v-26.823h-.001z" id="Shape" fill="#FC4C02"/><path d="M49.025 13.329c0-2.157 1.332-3.604 3.205-3.604 1.869 0 3.205 1.447 3.205 3.604v17.276c0 2.169-1.336 3.614-3.205 3.614-1.873 0-3.205-1.446-3.205-3.614v-17.276zm6.816-9.768c0 2.032-1.608 3.734-3.612 3.734-1.917 0-3.608-1.754-3.608-3.734 0-1.845 1.691-3.561 3.608-3.561 1.914 0 3.612 1.673 3.612 3.561z" id="Shape" fill="#FC4C02"/><path d="M68.347 15.405c-3.346 0-4.987 3.506-4.987 6.513 0 3.468 1.642 6.627 4.987 6.627 3.427 0 5.029-3.243 5.029-6.394 0-3.15-1.513-6.746-5.029-6.746zm11.439 16.654c0 7.785-5.034 11.69-12.323 11.69-2.634 0-10.115-1.302-10.115-4.85 0-1.228 1.334-2.848 2.583-2.848 2.045 0 4.312 2.037 8.018 2.037 3.109 0 5.427-1.843 5.427-5.136v-1.524h-.084c-1.35 1.984-3.52 3.055-6.468 3.055-6.712 0-9.878-5.988-9.878-12.429 0-6.524 4.099-12.6 10.556-12.6 2.181 0 4.672.991 5.873 2.966.403-1.699 1.422-2.697 3.208-2.697 1.874 0 3.203 1.447 3.203 3.608v18.728z" id="Shape" fill="#4A494A"/><path d="M97.55 19.818c-.355-2.843-2.132-4.954-5.115-4.954-2.849 0-4.774 2.199-5.084 4.954h10.199zm-10.058 4.32c.443 3.187 3.075 4.676 6.049 4.676 3.3 0 5.568-2.612 7.259-2.612 1.384 0 2.632 1.392 2.632 2.793 0 2.785-5.701 5.487-10.468 5.487-7.214 0-12.019-5.311-12.019-12.469 0-6.564 4.717-12.558 11.492-12.558 6.94 0 11.528 6.393 11.528 11.792 0 1.941-.847 2.888-2.81 2.888h-13.663v.003z" id="Shape" fill="#4A494A"/><path d="M121.604 19.897c-.348-2.838-2.136-4.954-5.117-4.954-2.852 0-4.769 2.204-5.074 4.954h10.191zm-10.056 4.321c.448 3.206 3.067 4.681 6.054 4.681 3.288 0 5.562-2.614 7.251-2.614 1.385 0 2.63 1.392 2.63 2.788 0 2.79-5.701 5.495-10.458 5.495-7.218 0-12.027-5.315-12.027-12.469 0-6.579 4.722-12.559 11.487-12.559 6.947 0 11.542 6.389 11.542 11.791 0 1.944-.847 2.886-2.822 2.886h-13.658v.003z" fill="#4A494A"/></g></g></svg>