<svg width="200" height="200" xmlns="http://www.w3.org/2000/svg" xmlns:sketch="http://www.bohemiancoding.com/sketch/ns"><title>Artboard 1</title><desc>Created with Sketch.</desc><defs><radialGradient fx="50%" fy="50%" r="46.024%" id="a"><stop stop-color="#fff" offset="0%"/><stop stop-color="#8ED8F8" offset="100%"/></radialGradient><radialGradient cx="57.598%" cy="-27.791%" fx="57.598%" fy="-27.791%" r="68.121%" id="b"><stop stop-color="#CDE7CA" offset="0%"/><stop stop-color="#6CC071" offset="100%"/></radialGradient></defs><g sketch:type="MSArtboardGroup" fill="none"><g sketch:type="MSShapeGroup" transform="matrix(1 0 0 -1 0 200)" fill="#1F1B1C"><polygon points="100 0 186.60254 50 186.60254 150 100 200 13.3974596 150 13.3974596 50"/><polygon points="100 0 195.105652 69.0983006 158.778525 180.901699 41.2214748 180.901699 4.89434837 69.0983006"/></g><g sketch:type="MSLayerGroup" transform="translate(62 67)"><g transform="translate(-19 -16)" sketch:type="MSShapeGroup"><path d="M58.753-.234c-31.293 0-55.807 39.842-58.125 73.498 9.821 17.047 33.496 23.466 58.125 23.466 24.622 0 48.309-6.418 58.125-23.468-2.325-33.652-26.834-73.495-58.125-73.495z" fill="url(#a)"/><path d="M108.694 65.244s-6.906-14.953-13.931-23.681c-7.026-8.723-15.613-18.228-20.69-18.228-5.073 0-19.251 25.13-25.759 25.13-6.508 0-9.889-11.396-17.89-11.396-8.002 0-20.717 27.471-20.717 27.471l-.856 4.657s4.418 19.603 50.629 19.603c46.214 0 49.909-19.275 49.909-19.275l-.694-4.281z" fill="url(#b)"/><path d="M49.034 59.187c-7.177 0-10.854-7.09-12.851-11.461-1.79-3.942-2.104-10.17-7.193-10.335.504-.199.981-.319 1.43-.319 8.002 0 11.387 11.394 17.89 11.394 6.506 0 20.686-25.13 25.759-25.13.96 0 2.032.335 3.207.936-.865-.115-1.97-.032-2.825.821-1.638 1.646-16.53 34.095-25.418 34.095z" fill="#0DB14B"/></g></g></g></svg>