<svg width="200" height="200" xmlns="http://www.w3.org/2000/svg" xmlns:sketch="http://www.bohemiancoding.com/sketch/ns"><title>Artboard 1</title><desc>Created with Sketch.</desc><g sketch:type="MSArtboardGroup" fill="none"><g sketch:type="MSShapeGroup" transform="matrix(1 0 0 -1 0 200)" fill="#1F1B1C"><polygon points="100 0 186.60254 50 186.60254 150 100 200 13.3974596 150 13.3974596 50"/><polygon points="100 0 195.105652 69.0983006 158.778525 180.901699 41.2214748 180.901699 4.89434837 69.0983006"/></g><path d="M49 60.28c0-4.8 5.084-8.88 15.252-12.24 10.168-3.36 22.417-5.04 36.748-5.04 14.411 0 26.681 1.68 36.808 5.04 10.128 3.36 15.192 7.44 15.192 12.24 0 .96-2.882 18.56-8.647 52.8-.721 3.68-5.164 7.24-13.33 10.68-8.166 3.44-18.174 5.16-30.023 5.16s-21.857-1.72-30.023-5.16c-8.166-3.44-12.57-7-13.21-10.68-5.844-33.12-8.767-50.72-8.767-52.8zm12.85 69.72v-.48c0-1.36.6-2.04 1.801-2.04.48 0 .961.2 1.441.6 3.763 2.96 8.647 5.28 14.651 6.96 6.005 1.68 11.048 2.6 15.132 2.76l6.125.36c.64 0 1.501-.02 2.582-.06 1.081-.04 3.182-.24 6.305-.6 3.122-.36 6.105-.86 8.947-1.5 2.842-.64 5.985-1.64 9.427-3 3.443-1.36 6.365-3 8.767-4.92l1.321-.6c1.281 0 1.921.68 1.921 2.04 0 .16-.04.32-.12.48-1.761 9.68-2.962 16.12-3.603 19.32-.881 3.92-4.724 7.18-11.529 9.78-6.805 2.6-14.811 3.9-24.018 3.9s-17.213-1.3-24.018-3.9c-6.805-2.6-10.608-5.86-11.409-9.78-1.521-7.6-2.762-14.04-3.723-19.32zm5.885-71.52c0 1.92 3.263 3.58 9.788 4.98 6.525 1.4 14.351 2.1 23.478 2.1 9.207 0 17.073-.68 23.598-2.04 6.525-1.36 9.788-3 9.788-4.92 0-2-3.263-3.7-9.788-5.1-6.525-1.4-14.391-2.1-23.598-2.1-9.207 0-17.053.68-23.538 2.04-6.485 1.36-9.727 3.04-9.727 5.04zm16.693 42.36c0 4.56 1.621 8.46 4.864 11.7 3.242 3.24 7.145 4.86 11.709 4.86s8.467-1.62 11.709-4.86c3.242-3.24 4.864-7.14 4.864-11.7s-1.621-8.46-4.864-11.7c-3.242-3.24-7.145-4.86-11.709-4.86s-8.467 1.62-11.709 4.86c-3.242 3.24-4.864 7.14-4.864 11.7zm8.286 0c0 2.24.801 4.18 2.402 5.82 1.601 1.64 3.563 2.46 5.885 2.46 2.322 0 4.283-.82 5.885-2.46 1.601-1.64 2.402-3.58 2.402-5.82s-.801-4.18-2.402-5.82c-1.601-1.64-3.563-2.46-5.885-2.46-2.322 0-4.283.82-5.885 2.46-1.601 1.64-2.402 3.58-2.402 5.82z" fill="#fff" sketch:type="MSShapeGroup"/></g></svg>