<svg width="200" height="200" xmlns="http://www.w3.org/2000/svg" xmlns:sketch="http://www.bohemiancoding.com/sketch/ns"><title>Artboard 1</title><desc>Created with Sketch.</desc><defs><linearGradient x1="5.956%" y1="94.733%" x2="94.044%" y2="5.801%" id="a"><stop stop-color="#070135" offset="0%"/><stop stop-color="#612D50" offset="100%"/></linearGradient></defs><g sketch:type="MSArtboardGroup" fill="none"><g sketch:type="MSShapeGroup" transform="matrix(1 0 0 -1 0 200)" fill="#1F1B1C"><polygon points="100 0 186.60254 50 186.60254 150 100 200 13.3974596 150 13.3974596 50"/><polygon points="100 0 195.105652 69.0983006 158.778525 180.901699 41.2214748 180.901699 4.89434837 69.0983006"/></g><g transform="translate(55 52) translate(.013 -.004)" sketch:type="MSShapeGroup"><rect fill="url(#a)" width="92" height="92.69"/><path d="M46.866 40.138c2.35 0 4.131-.513 5.345-1.538 1.213-1.025 1.82-2.538 1.82-4.538 0-1.974-.607-3.474-1.82-4.5-1.214-1.051-2.995-1.577-5.345-1.577h-8.249v12.153h8.249m.503 25.113c2.995 0 5.241-.628 6.739-1.884 1.523-1.256 2.285-3.153 2.285-5.692 0-2.487-.749-4.346-2.246-5.576-1.498-1.256-3.757-1.884-6.778-1.884h-8.753v15.037h8.753m13.865-20.652c3.202.923 5.68 2.628 7.436 5.115 1.756 2.487 2.634 5.538 2.634 9.153 0 5.538-1.885 9.666-5.654 12.383-3.77 2.718-9.502 4.076-17.196 4.076h-24.748v-57.417h22.385c8.03 0 13.839 1.205 17.428 3.615 3.615 2.41 5.422 6.269 5.422 11.576 0 2.795-.658 5.179-1.975 7.153-1.317 1.949-3.227 3.397-5.732 4.346" fill="#fff"/></g></g></svg>