<svg width="200" height="200" xmlns="http://www.w3.org/2000/svg" xmlns:sketch="http://www.bohemiancoding.com/sketch/ns"><title>Artboard 1</title><desc>Created with Sketch.</desc><g sketch:type="MSArtboardGroup" fill="none"><g sketch:type="MSShapeGroup" transform="matrix(1 0 0 -1 0 200)" fill="#1F1B1C"><polygon points="100 0 186.60254 50 186.60254 150 100 200 13.3974596 150 13.3974596 50"/><polygon points="100 0 195.105652 69.0983006 158.778525 180.901699 41.2214748 180.901699 4.89434837 69.0983006"/></g><g sketch:type="MSLayerGroup" transform="translate(39 47)"><path d="M105.261 7.871c-16.426 0-28.675 17.362-23.012 29.834 23.247 0 13.783-21.462 23.012-29.834z" id="Shape" fill="#00ACEE" sketch:type="MSShapeGroup"/><path d="M110.567 54.74c0-5.52-26.308-8.267-40.963-9.123-14.655-.856-68.198 9.299-61.86 22.724 6.339 13.425 22.422 27.7 40.521 27.7 9.377 0 20.243-6.609 20.841-18.743 10.845-3.623 41.461-3.815 41.461-22.558z" id="Shape" fill="#FFCC2F" sketch:type="MSShapeGroup"/><path d="M97.113 58.41c1.7 1.721-3.687 6.369-8.381 4.181 2.115 4.769-7.187 8.736-11.706 5.335.484 3.843-8.748 6.055-11.694 1.766.76 2.045 1.394 3.609 1.993 4.895l-.011-.036c1.532 2.005 3.616 3.619 12.689 3.619 13.981 0 36.563-10.621 36.563-18.418 0-6.454-2.42-7.058-6.587-6.588-4.168.47-25.955 2.735-30.59 1.825 2.515.535 15.195 2.965 17.724 3.421z" id="Shape" fill="#2BAF2B" sketch:type="MSShapeGroup"/><path d="M48.077 4.316c-26.733 0-53.567 26.577-40.797 63.234 8.674 5.215 20.241 3.148 22.833.371 3.918 1.253 7.414 1.78 10.538 1.78 16.238 0 30.114-17.255 30.114-38.818 0-22.115-14.594-26.566-22.688-26.566z" id="Shape" fill="#EF5734" sketch:type="MSShapeGroup"/><path d="M37.129 27.982c0 5.966 4.836 10.804 10.802 10.804 5.966 0 10.802-4.837 10.802-10.804 0-5.967-4.836-10.804-10.802-10.804-5.966 0-10.802 4.837-10.802 10.804z" id="Shape" fill="#FFCC2F" sketch:type="MSShapeGroup"/><path d="M41.464 27.982c0 3.572 2.896 6.468 6.467 6.468 3.572 0 6.467-2.896 6.467-6.468s-2.895-6.468-6.467-6.468c-3.572 0-6.467 2.896-6.467 6.468z" id="Shape" fill="#543729" sketch:type="MSShapeGroup"/><ellipse fill="#fff" sketch:type="MSShapeGroup" cx="47.847" cy="25.112" rx="3.768" ry="2.344"/><path d="M70.089 22.448c-4.91 2.86-4.748 12.118-2.566 16.636 4.225-1.566 10.112-4.673 11.026-5.228.914-.555-.506-2.662 3.042-2.662 4.92 0 9.369 1.538 10.646 2.091-.808-1.664-10.92-10.837-22.147-10.837z" id="Shape" fill="#CECECE" sketch:type="MSShapeGroup"/><path d="M121.63 53.24c-6.378-6.129-38.27-9.955-48.333-11.069.488-1.152.902-2.342 1.245-3.568 1.372-.601 2.852-1.16 4.384-1.627.186.55 1.065 2.66 1.566 3.66 20.235.558 21.275-15.04 22.097-19.313.805-4.178.764-8.215 7.704-15.596-10.341-3.014-25.211 4.671-30.192 16.109-1.872-.701-3.748-1.22-5.603-1.54-1.329-5.364-8.253-20.309-26.422-20.309-11.767 0-23.633 4.86-32.555 13.333-4.808 4.566-8.584 9.988-11.224 16.115-2.852 6.619-4.297 13.908-4.297 21.663 0 27.009 18.437 50.678 28.854 50.678 4.549 0 8.463-3.407 9.381-6.461.77 2.094 3.133 8.604 3.909 10.262 1.147 2.451 6.452 4.571 8.774 2.028 2.985 1.659 8.463 2.658 11.448-1.766 5.749 1.216 10.833-2.213 10.943-6.304 2.821-.151 4.205-4.112 3.589-7.267-.454-2.323-5.305-10.658-7.198-13.535 3.746 3.047 13.234 3.91 14.386.002 6.039 4.741 15.451 2.253 16.197-1.603 7.339 1.907 15.755-2.281 14.373-7.354 11.788-.816 10.279-13.36 6.972-16.539zm-30.699-20.792c-3.105-1.219-7.044-1.99-9.804-1.99-3.915 0-6.299 2.219-9.982 2.219-.773 0-2.619.004-4.099-.524.974 1.021 2.186 1.576 4.535 1.576 1.403 0 4.181-.716 6.431-1.393.031.474.081.944.148 1.411-4.215 1.008-8.637 3.689-9.917 4.385-2.847-6.288-.4-12.233 1.864-14.978 10.139.024 18.328 6.987 20.826 9.295zm4.384-.474l-1.551-1.448c-1.592-1.492-3.253-2.842-4.957-4.04 2.539-5.038 5.73-10.54 9.76-13.944-4.435 1.788-8.815 7.132-11.404 12.845-1.319-.839-2.659-1.588-4.011-2.242 3.612-7.711 12.005-14.151 21.255-14.654-6.196 5.62-3.87 16.836-9.091 23.482zm-12.727 5.256c-.683-1.481-1.375-3.941-1.29-5.387 1.151-.027 3.359.405 3.714.488-.135.679-.207 2.166-.21 2.359.219-.377.826-1.677 1.073-2.187 2.21.422 5.116 1.129 6.82 1.923-2 1.295-5.401 2.705-10.107 2.804zm-13.813-17.389c-8.084 8.195-4.892 18.561-1.949 23.248-4.187 6.967-12.419 11.733-21.982 13.901 10.736 0 17.049-2.764 20.722-5.471 2.344-1.727 3.615-3.432 4.264-4.381 15.917 1.03 41.119 6.158 43.578 7.819.987.667 2.005 2.142 2.154 3.553-11.961-1.675-33.52-3.437-39.166-3.736 4.008.568 33.238 6.104 38.305 7.4-1.542 2.515-5.055 4.291-10.349 3.057 2.861 3.898-2.694 8.574-10.431 5.999 1.703 3.827-5.186 7.272-13.015 3.283.1 3.828-9.713 4.269-13.592.039.074.504.535 1.469.733 1.892-1.25 11.179-10.405 18.114-19.781 18.114-22.958 0-42.958-18.648-42.958-43.459 0-26.231 19.382-45.803 42.77-45.803 13.401 0 19.454 10.549 20.698 14.545z" fill="#543729" sketch:type="MSShapeGroup"/></g></g></svg>