<svg width="200" height="200" xmlns="http://www.w3.org/2000/svg" xmlns:sketch="http://www.bohemiancoding.com/sketch/ns"><title>Artboard 1</title><desc>Created with Sketch.</desc><defs><linearGradient x1="49.999%" y1="1089.405%" x2="49.999%" y2="-159.491%" id="a"><stop stop-color="#473788" offset="30.33%"/><stop stop-color="#2C2255" offset="87.2%"/></linearGradient><linearGradient x1="50%" y1="896.545%" x2="50%" y2="-352.351%" id="b"><stop stop-color="#473788" offset="30.33%"/><stop stop-color="#2C2255" offset="87.2%"/></linearGradient><linearGradient x1="50%" y1="215.167%" x2="50%" y2="-166.709%" id="c"><stop stop-color="#473788" offset="30.33%"/><stop stop-color="#2C2255" offset="86.31%"/></linearGradient></defs><g sketch:type="MSArtboardGroup" fill="none"><g sketch:type="MSShapeGroup" transform="matrix(1 0 0 -1 0 200)" fill="#1F1B1C"><polygon points="100 0 186.60254 50 186.60254 150 100 200 13.3974596 150 13.3974596 50"/><polygon points="100 0 195.105652 69.0983006 158.778525 180.901699 41.2214748 180.901699 4.89434837 69.0983006"/></g><g sketch:type="MSLayerGroup" transform="translate(35 83)"><path d="M8.332 19.427h-4.631c.613 2.143 1.751 4.064 3.417 5.762 2.656 2.707 5.849 4.058 9.584 4.058.747 0 1.47-.057 2.172-.165 2.813-.433 5.276-1.728 7.386-3.893 1.677-1.697 2.823-3.619 3.441-5.762h-21.368000000000002z" id="Shape" fill="#2C2255" sketch:type="MSShapeGroup"/><g id="Group" fill="#2C2255" sketch:type="MSShapeGroup"><path d="M5.778 13.018h-2.419c-.089.542-.149 1.095-.176 1.662h27.038c-.028-.567-.088-1.12-.177-1.662" id="Shape"/><path d="M3.183 16.223c.027.567.087 1.12.176 1.662h26.686999999999998c.089-.541.15-1.094.178-1.662" id="Shape"/></g><path d="M29.701 11.475c-.617-2.149-1.764-4.079-3.441-5.789-2.105-2.144-4.561-3.431-7.364-3.864-.709-.11-1.44-.167-2.194-.167-3.735 0-6.928 1.344-9.584 4.031-1.666 1.71-2.805 3.639-3.418 5.789" id="Shape" fill="#2C2255" sketch:type="MSShapeGroup"/><path d="M2.379 15.452c0-7.278 5.365-13.325 12.343-14.388l-.522-.014c-7.832 0-14.181 6.448-14.181 14.402 0 7.954 6.349 14.402 14.181 14.402l.523-.013c-6.98-1.064-12.344-7.111-12.344-14.389z" id="Shape" fill="#F7941E" sketch:type="MSShapeGroup"/><rect id="Rectangle-path" fill="#F7941E" sketch:type="MSShapeGroup" x="77.447" width="2.82" height="3.639"/><path d="M53.806 14.88v1.405h-12.968c.122 1.979.708 3.486 1.755 4.521 1.048 1.037 2.507 1.554 4.376 1.554 1.083 0 2.133-.135 3.15-.405s2.025-.677 3.027-1.219v2.718c-1.012.438-2.049.77-3.112 1-1.063.229-2.141.344-3.234.344-2.739 0-4.908-.812-6.507-2.437-1.599-1.624-2.399-3.82-2.399-6.59 0-2.863.759-5.136 2.276-6.817 1.517-1.682 3.564-2.523 6.139-2.523 2.31 0 4.136.758 5.48 2.272 1.344 1.513 2.016 3.572 2.016 6.175zm-2.82-.843c-.021-1.572-.453-2.827-1.295-3.763-.843-.937-1.96-1.406-3.349-1.406-1.574 0-2.833.453-3.779 1.359-.945.905-1.489 2.181-1.632 3.826l10.056-.016z" id="Shape" fill="#2C2255" sketch:type="MSShapeGroup"/><path d="M68.436 7.524v2.686c-.797-.448-1.597-.783-2.399-1.007-.802-.224-1.612-.336-2.43-.336-1.829 0-3.25.591-4.261 1.772-1.012 1.182-1.518 2.84-1.518 4.974 0 2.134.506 3.793 1.518 4.974 1.011 1.182 2.432 1.772 4.261 1.772.818 0 1.627-.112 2.43-.335.801-.224 1.601-.56 2.399-1.008v2.655c-.787.375-1.602.656-2.445.843-.844.188-1.74.281-2.69.281-2.586 0-4.639-.828-6.162-2.483-1.523-1.655-2.284-3.889-2.284-6.7 0-2.852.769-5.096 2.307-6.732 1.538-1.634 3.646-2.452 6.323-2.452.869 0 1.717.092 2.545.274.828.182 1.63.455 2.407.82" id="Shape" fill="#2C2255" sketch:type="MSShapeGroup"/><rect fill="#2C2255" sketch:type="MSShapeGroup" x="71.085" width="2.821" height="24.301"/><path d="M77.354 6.852h2.82v17.492h-2.82v-17.492z" id="Shape" fill="#2C2255" sketch:type="MSShapeGroup"/><path d="M86.45 21.72v9.277h-2.836v-24.146h2.836v2.656c.593-1.041 1.342-1.814 2.246-2.319.905-.504 1.985-.758 3.242-.758 2.085 0 3.779.843 5.081 2.53 1.303 1.687 1.954 3.905 1.954 6.653 0 2.749-.651 4.967-1.954 6.653-1.302 1.686-2.996 2.53-5.081 2.53-1.257 0-2.338-.253-3.242-.758-.905-.504-1.653-1.277-2.246-2.319m9.596-6.107c0-2.114-.427-3.772-1.28-4.974-.853-1.202-2.026-1.803-3.518-1.803-1.493 0-2.665.601-3.518 1.803-.853 1.203-1.28 2.86-1.28 4.974 0 2.114.427 3.773 1.28 4.974.853 1.203 2.026 1.804 3.518 1.804 1.493 0 2.665-.601 3.518-1.804.853-1.202 1.28-2.86 1.28-4.974" id="Shape" fill="#2C2255" sketch:type="MSShapeGroup"/><path d="M112.239 7.368v2.718c-.798-.417-1.625-.729-2.484-.937-.859-.208-1.747-.312-2.667-.312-1.4 0-2.45.218-3.15.656-.7.437-1.049 1.093-1.049 1.968 0 .666.249 1.19.751 1.57.501.38 1.507.741 3.02 1.086l.965.218c2.003.438 3.426 1.054 4.27 1.851.843.796 1.265 1.908 1.265 3.334 0 1.625-.631 2.91-1.894 3.858-1.262.947-2.996 1.421-5.203 1.421-.919 0-1.878-.091-2.875-.273-.997-.182-2.046-.456-3.15-.82v-2.968c1.043.553 2.069.966 3.081 1.242s2.013.413 3.004.413c1.329 0 2.35-.231 3.066-.695.716-.464 1.073-1.117 1.073-1.96 0-.781-.258-1.38-.773-1.797-.516-.417-1.648-.817-3.396-1.203l-.981-.234c-1.747-.375-3.01-.95-3.786-1.726-.777-.776-1.165-1.84-1.165-3.194 0-1.646.572-2.915 1.717-3.81 1.145-.896 2.77-1.344 4.874-1.344 1.042 0 2.023.078 2.943.234.921.157 1.769.391 2.546.704" id="Shape" fill="#2C2255" sketch:type="MSShapeGroup"/><path d="M129.981 14.88v1.405h-12.968c.123 1.979.708 3.486 1.756 4.521 1.047 1.037 2.507 1.554 4.376 1.554 1.084 0 2.133-.135 3.15-.405s2.026-.677 3.028-1.219v2.718c-1.012.438-2.049.77-3.112 1-1.062.229-2.141.344-3.233.344-2.739 0-4.908-.812-6.507-2.437-1.6-1.624-2.399-3.82-2.399-6.59 0-2.863.759-5.136 2.276-6.817 1.517-1.682 3.565-2.523 6.139-2.523 2.309 0 4.136.758 5.48 2.272 1.343 1.513 2.015 3.572 2.015 6.175zm-2.82-.843c-.021-1.572-.453-2.827-1.296-3.763-.843-.937-1.96-1.406-3.348-1.406-1.574 0-2.833.453-3.778 1.359-.945.905-1.491 2.181-1.633 3.826l10.056-.016z" id="Shape" fill="#2C2255" sketch:type="MSShapeGroup"/><g id="Group" sketch:type="MSShapeGroup"><path d="M25.904 14.68c-.045-.57-.139-1.125-.28-1.662h-17.843c-.141.536-.235 1.092-.28 1.662h18.403z" id="Shape" fill="url(#a)"/><path d="M25.904 16.223h-18.403c.045.57.139 1.125.28 1.662h17.843c.141-.537.234-1.092.28-1.662z" id="Shape" fill="url(#b)"/><path d="M16.703 24.861c3.706 0 6.9-2.224 8.371-5.434h-16.741c1.471 3.209 4.665 5.434 8.371 5.434z" id="Shape" fill="url(#c)"/></g><g fill="#fff" sketch:type="MSShapeGroup"><path d="M6.137 16.223h24.067c.013-.245.02-.493.02-.742 0-.269-.01-.536-.025-.802h-27.017000000000003c-.015.265-.025.533-.025.802 0 .249.007.496.02.742h2.959z" id="Shape"/><path d="M8.278 11.475h-4.578c-.15.502-.248 1.018-.341 1.544h26.601c-.093-.525-.214-1.04-.364-1.544" id="Shape"/><path d="M28.22 17.884h-24.862c.091.525.194 1.04.342 1.543h25.982999999999997c.148-.502.267-1.018.358-1.543h-1.822z"/></g></g></g></svg>