<svg width="200" height="200" xmlns="http://www.w3.org/2000/svg" xmlns:sketch="http://www.bohemiancoding.com/sketch/ns"><title>Artboard 1</title><desc>Created with Sketch.</desc><g sketch:type="MSArtboardGroup" fill="none"><g sketch:type="MSShapeGroup" transform="matrix(1 0 0 -1 0 200)" fill="#1F1B1C"><polygon points="100 0 186.60254 50 186.60254 150 100 200 13.3974596 150 13.3974596 50"/><polygon points="100 0 195.105652 69.0983006 158.778525 180.901699 41.2214748 180.901699 4.89434837 69.0983006"/></g><g sketch:type="MSShapeGroup" transform="translate(51 45)" fill="#C9D4CA"><path d="M63.959 42.038c-.009 5.037-3.455 9.111-7.696 9.1-4.241-.011-7.671-4.103-7.662-9.14.009-5.037 3.455-9.111 7.696-9.1 4.234.011 7.662 4.091 7.662 9.12" fill-opacity=".156"/><path d="M32.147 99.917c-7.025-.049-9.834-9.536-16.85-9.607-7.017-.071-8.896 8.163-15.247 8.64-.356-19 .706-40.726 4.384-60.036.55-2.888 1.278-5.245 1.949-8.007-.244 4.008-.988 6.306-.893 9.691-.207 7.726 4.116 16.608 12.422 17.881 19.153 1.311 21.9-20.987 13.06-33.587-9.797-8.164-20.308-2.636-24.564 5.549 1.003-3.224 3.01-7.292 3.922-8.87 8.041-12.64 23.973-22.025 39.042-21.575 15.974-.388 32.129 8.164 39.724 22.447 10.576 23.388 10.722 50.471 10.828 75.89-8.046.715-7.584-7.973-15.979-8.096-8.028-.118-9.171 9.386-17.33 9.538-7.323.136-9.681-8.215-17.116-9.308-7.375-.07-9.716 9.503-17.351 9.449zm46.792-60.758c.75-20.964-25.796-24.408-30.126-3.998-1.281 7.917.372 17.941 8.181 21.931 12.895 5.933 21.606-5.737 21.945-17.933z" fill-opacity=".076"/><path d="M21.012 42.27c-.009 5.037-3.455 9.111-7.696 9.1-4.241-.011-7.671-4.103-7.662-9.14.009-5.037 3.455-9.111 7.696-9.1 4.234.011 7.662 4.091 7.662 9.12" fill-opacity=".16"/></g></g></svg>