<svg width="200" height="200" xmlns="http://www.w3.org/2000/svg" xmlns:sketch="http://www.bohemiancoding.com/sketch/ns"><title>Artboard 1</title><desc>Created with Sketch.</desc><defs><radialGradient cx="50.257%" cy="50.081%" fx="50.257%" fy="50.081%" id="a"><stop stop-color="#FBB7D4" offset=".562%"/><stop stop-color="#E6360B" offset="67.42%"/><stop stop-color="#891600" offset="100%"/></radialGradient></defs><g sketch:type="MSArtboardGroup" fill="none"><g sketch:type="MSShapeGroup" transform="matrix(1 0 0 -1 0 200)" fill="#1F1B1C"><polygon points="100 0 186.60254 50 186.60254 150 100 200 13.3974596 150 13.3974596 50"/><polygon points="100 0 195.105652 69.0983006 158.778525 180.901699 41.2214748 180.901699 4.89434837 69.0983006"/></g><g sketch:type="MSShapeGroup" transform="translate(39 39)"><circle fill="url(#a)" cx="61" cy="61" r="61"/><g><path d="M62.728 35.606c-2.482 3.124-4.584 6.657-6.255 10.522l-4.527 11.051-.028.078c-1.439 4.076-2.807 7.44-3.956 9.732l-.028.056c-1.432 3.138-2.729 5.444-3.977 7.059-1.495 1.855-3.054 3.145-4.866 4.02-2.01.938-4.281 1.403-6.918 1.403-.945 0-1.707.762-1.707 1.707v14.026c0 .945.762 1.707 1.707 1.707 10.43 0 18.977-4.034 25.415-11.995 1.897-2.496 3.561-5.183 5.12-8.237l.042-.092 3.385-7.736h14.964c.945 0 1.707-.769 1.707-1.707v-13.963c0-.945-.762-1.707-1.707-1.707h-7.912c.628-1.262 1.255-2.398 1.897-3.392 1.142-1.742 2.257-3.061 3.314-3.893l.056-.042c1.305-1.121 2.63-1.89 4.168-2.419 1.678-.585 3.491-.867 5.536-.867.945 0 1.707-.762 1.707-1.707v-13.892c0-.945-.769-1.707-1.707-1.707-10.486-.007-19.04 4.034-25.43 11.995z" fill="#fff"/><path d="M88.15 21.897c-11.029 0-20.035 4.252-26.755 12.637l-.007.014c-2.567 3.237-4.753 6.897-6.481 10.895l-.028.063-4.513 11.022-.056.155c-1.791 5.063-3.096 7.983-3.872 9.534l-.049.106c-1.368 2.99-2.595 5.183-3.745 6.692-1.347 1.664-2.701 2.793-4.266 3.554-1.791.832-3.815 1.241-6.192 1.241-1.883 0-3.413 1.53-3.413 3.413v14.026c0 1.89 1.53 3.413 3.413 3.413 10.966 0 19.964-4.245 26.748-12.63l.071-.085c1.918-2.539 3.639-5.303 5.247-8.448l.092-.183 2.941-6.714h13.85c1.883 0 3.413-1.53 3.413-3.413v-13.963c0-1.883-1.53-3.413-3.413-3.413h-5.056c.155-.261.31-.515.465-.755l-.014.021c1.051-1.601 2.045-2.778 2.955-3.498l.106-.085c1.142-.973 2.292-1.643 3.618-2.102 1.495-.515 3.124-.769 4.972-.769 1.883 0 3.413-1.53 3.413-3.413v-13.892c-.021-1.897-1.551-3.427-3.441-3.427zm-55.979 59.336c2.941 0 5.472-.55 7.666-1.573 1.982-.959 3.766-2.398 5.479-4.52 1.368-1.777 2.736-4.245 4.175-7.391 1.093-2.193 2.461-5.479 4.041-9.922l4.513-11.022c1.777-4.104 3.9-7.461 6.022-10.127 6.093-7.595 14.097-11.361 24.09-11.361v13.892c-2.327 0-4.316.346-6.093.959-1.777.614-3.286 1.509-4.725 2.736-1.298 1.03-2.532 2.532-3.695 4.309-1.093 1.714-2.123 3.695-3.145 6.022h10.606v13.963h-16.086l-3.829 8.759c-1.573 3.082-3.216 5.677-4.929 7.941-6.093 7.532-14.097 11.361-24.09 11.361v-14.026z" fill="#B12401"/></g></g></g></svg>