<svg width="200" height="200" xmlns="http://www.w3.org/2000/svg" xmlns:sketch="http://www.bohemiancoding.com/sketch/ns"><title>Artboard 1</title><desc>Created with Sketch.</desc><g sketch:type="MSArtboardGroup" fill="none"><g sketch:type="MSShapeGroup" transform="matrix(1 0 0 -1 0 200)" fill="#1F1B1C"><polygon points="100 0 186.60254 50 186.60254 150 100 200 13.3974596 150 13.3974596 50"/><polygon points="100 0 195.105652 69.0983006 158.778525 180.901699 41.2214748 180.901699 4.89434837 69.0983006"/></g><path d="M35.644 104.724c5.747-1.435 13.561-3.39 27.251-3.754-.378-.757-.72-1.54-1.022-2.348-5.327-.046-21.734.71-27.354 2.099l-.1.012c-.188 0-.361-.129-.408-.32-.054-.222.083-.451.307-.508 5.569-1.377 21.58-2.141 27.251-2.126-1.276-3.754-1.84-8.055-1.84-12.856 0-8.528 2.655-11.745 6.223-16.29-2.728-9.719.979-16.363.979-16.363s5.732-1.189 16.57 6.573c5.874-2.517 21.534-2.726 28.943-.559 4.549-3.007 12.865-7.274 16.223-6.08.908 1.464 2.865 5.728 1.186 15.101 1.142 2.055 7.062 6.434 7.087 18.811-.098 4.564-.571 8.418-1.45 11.679 14.13-.12 22.441 1.047 28.166 2.102.225.046.376.264.337.491-.039.2-.215.344-.41.344l-.083-.005c-5.715-1.059-14.042-2.221-28.254-2.092-.249.827-.527 1.613-.83 2.363 4.837.161 18.122.679 28.957 3.993.225.068.346.303.278.527-.054.178-.22.295-.4.295l-.122-.019c-10.986-3.359-24.56-3.82-29.074-3.969-3.929 8.633-11.987 11.855-25.013 13.195 4.222 2.658 5.432 5.992 5.432 15.013s-.122 10.232-.093 12.306c.044 3.405 5.032 5.035 4.847 6.131-.185 1.094-4.173.918-6.037.266-5.281-1.84-4.754-6.234-4.754-6.234l-.176-12.062s.361-6.493-2.035-6.493v19.744c0 4.291 3.002 5.594 3.002 7.181 0 2.726-5.486-.259-7.175-1.96-2.578-2.587-2.285-8.074-2.222-12.413.059-4.191-.039-13.356-.039-13.356l-1.75.037s.717 20.022-.922 23.67c-2.12 4.684-8.517 6.295-8.517 4.162 0-1.435 1.576-.979 2.448-4.195.744-2.736.49-23.149.49-23.149s-2.05 1.213-2.05 5.035c0 1.75-.049 11.745-.049 14.721 0 3.742-5.313 5.872-7.865 5.872-1.293 0-2.901-.063-2.901-.749 0-1.731 4.859-2.746 4.859-6.346 0-3.122-.068-11.152-.068-11.152s-2.45.419-5.945.419c-8.809 0-11.596-5.623-12.922-8.77-1.725-4.098-3.963-6.024-6.34-7.562-1.459-.945-1.796-2.06-.107-2.377 7.799-1.469 9.793 8.846 15.001 10.488 3.717 1.174 8.495.666 10.872-.871.315-3.151 2.584-5.875 4.476-7.31-13.246-1.272-21.099-5.873-25.17-13.268-13.856.332-21.719 2.299-27.483 3.739l-1.225.308-.103.01c-.188 0-.359-.127-.408-.317-.056-.224.083-.454.308-.51l1.222-.305z" sketch:type="MSShapeGroup" fill="#FDFDFD"/></g></svg>