<svg width="200" height="200" xmlns="http://www.w3.org/2000/svg" xmlns:sketch="http://www.bohemiancoding.com/sketch/ns"><title>Artboard 1</title><desc>Created with Sketch.</desc><g sketch:type="MSArtboardGroup" fill="none"><g sketch:type="MSShapeGroup" transform="matrix(1 0 0 -1 0 200)" fill="#1F1B1C"><polygon points="100 0 186.60254 50 186.60254 150 100 200 13.3974596 150 13.3974596 50"/><polygon points="100 0 195.105652 69.0983006 158.778525 180.901699 41.2214748 180.901699 4.89434837 69.0983006"/></g><g transform="translate(37 41) translate(18.778)" sketch:type="MSShapeGroup"><path d="M5.739 29.408s2.072 7.992 2.367 10.657c.296 2.664-5.327 8.584-5.327 11.544 0 2.96 1.182 8.288 7.694 10.953 6.512 2.664 7.398 9.472 7.398 13.617 0 4.144-2.367 12.135-2.367 12.135s-1.479 19.832 6.51 23.384l7.99 3.552c1.775 0 14.797 5.329 22.491 3.257 7.695-2.072 9.765-4.44 9.765-4.44s7.695.591 10.062-6.218c2.369-6.807 3.847-21.015 2.959-27.528-.888-6.513-2.071-15.096 3.255-18.056 5.328-2.96 10.95-6.511 10.062-9.472-.888-2.96-5.622-7.105-5.622-7.105s-1.184-7.399-.297-9.176c.887-1.776 6.215-6.217 3.255-9.473-2.958-3.256-8.286-3.256-8.286-3.256l-6.806.591s-11.541-10.36-26.634-9.768c-15.092.592-24.563 9.768-24.563 9.768s-5.03-1.776-9.47 0c-4.439 1.777-5.325 0-4.437 5.032z" id="Shape" fill="#FBA919"/><path d="M32.78 73.48s-5.86 8.963-10.159 15.324c-.665.984 4.299 1.052 4.299 1.052l5.86-16.376z" id="Shape" fill="#E78724"/><path d="M35.57 54.898s-1.767 4.408-2.734 6.745c-1.05 2.541-5.056 3.804-5.056 3.804s2.076-2.178 2.076-7.696c0-2.315 2.988-3.235 2.988-3.235l2.726.381z" id="Shape" fill="#E78724"/><path d="M33.786 57.39s-3.619 4.309-10.34 1.896c-6.722-2.413-7.411-11.033-7.411-13.446 0-2.413 12.753 2.413 14.477 3.448 1.724 1.034 4.996 5.171 3.273 8.102z" id="Shape" fill="#E78724"/><path d="M8.4 11.341s6.204-1.207 10.34 2.068c4.138 3.275 5.342 5.861 5.342 5.861l-6.971 5.527s-3.368-1.562-4.403-6.045c-1.034-4.482-.345-6.55-4.308-7.412z" id="Shape" fill="#E78724"/><path d="M31.976 44.942c-2.671-3.793-7.073-5.447-10.588-5.721-5.993-.469-8.838 1.65-8.838 1.65s9.815.416 12.644 4.132c5.266 6.917 12.949 7.479 14.178 5.96-1.421.071-2.983-.633-4.656-2.215-1.045-.99-1.892-2.602-2.74-3.806z" id="Shape" fill="#E78724"/><path d="M15.407 58.352s-10.89-3.744-8.82-7.536c2.068-3.793.422-5.859.422-5.859s-6.081 4.54-4.531 9.366c.952 2.963 2.55 5.107 11.322 9.219 4.208 7.817.869 21.888 1.069 21.954.333.111 5.908-2.756 5.527-15.92-.116-4.042-.439-9.561-4.989-11.224z" id="Shape" fill="#E78724"/><path d="M29.678 18.086c-4.566 2.32-10.822 5.552-10.822 5.552l2.462 1.232c-.235.381-.348.608-.348.608l2.527 1.149s6.169 4.47 9.949 7.343c-1.26-3.881-4.959-9.979-4.959-9.979s-1.048-2.802 1.192-5.905z" id="Shape" fill="#E78724"/><path d="M44.847 112.669c-14.035 0-18.789-7.127-18.789-7.127l2.193 5.342c.829 2.311 9.673 9.503 16.574 9.503" id="Shape" fill="#E78724"/><path d="M27.596 100.727s1.291 7.894 6.462 7.894c4.394 0 5.688-6.668 5.688-8.046l-12.15.152z" id="Shape" fill="#E78724"/><path d="M18.992 88.822c.459-1.265 2.068-6.379 2.584-11.033.619-5.574.394-13.726.394-13.726s-1.379 5.344-2.586 6.207c-1.206.861-3.447 6.722-3.447 6.722s-1.2 8.725-1.772 11.658c1.581.317 2.912-.615 4.826.172z" id="Shape" fill="#E78724"/><path d="M6.506 54.238s2.929-1.035 3.792-7.412c.861-6.379-1.035-11.895-1.035-11.895s.172 8.791-.861 10.516c-1.035 1.723-1.895 2.24-3.103 4.482-1.207 2.242.517 3.62 1.207 4.309z" id="Shape" fill="#E78724"/><path id="Shape" fill="#FDC168" d="M10.003 12.85l-.598-.379c-1.763.06.598.379.598.379z"/><path d="M32.062 16.198s-2.757-.459-4.136-2.528-5.285-6.207-11.512-6.253c-6.226-.047-12.386 1.655-12.386 1.655l5.377 3.398c.569-.018 1.563-.011 3.208.044 6.748.224 7.787 6.901 7.787 6.901l23.783-3.276" id="Shape" fill="#FBA919"/><path d="M34.36 53.075s-3.218 3.218-8.159 2.183c-4.941-1.034-7.929-3.218-8.159-7.01-.23-3.793 1.035-5.286 1.035-5.286s5.515 1.725 8.159 4.024c2.643 2.298 4.596 5.976 7.124 6.09z" id="Shape" fill="#fff"/><path d="M30.466 51.925s-2.79 1.275-5.909.237c-4.083-1.362-4.355-5.609-4.355-5.609s-2.505 7.352 4.517 8.767c5.632 1.135 8.963-2.13 8.963-2.13l-3.217-1.265z" id="Shape" fill="#C9C9C9"/><path d="M32.449 14.638c-.3-6.305 4.867-11.327 6.658-11.541.099 1.068-.1 5.236 1.69 6.517.521-3.404 2.283-7.157 9.242-9.615-1.49 3.954-.199 7.265.416 8.8 4.752-4.314 7.953-3.601 7.953-3.601s-3.302 5.699-2.01 9.438c-9.539-.748-23.903 1.014-23.949.001z" id="Shape" fill="#463014"/><path d="M12.226 24.242c-2.276-1.889-.58-3.642-.759-5.787-.098-1.142-.188-2.219-.564-2.813-2.094-3.308-7.036-4.312-7.085-4.322l-2.319-.454 1.535-1.796c.199-.233 6.503-6.249 16.259-3.099 6.824 2.201 11.876 9.667 12.064 9.968l-3.422 1.609c-.04-.064-4.034-7.08-9.889-8.969-4.733-1.527-9.095-.074-10.963.878 1.986.793 4.583 2.238 6.148 4.709.738 1.167.863 2.636.983 4.059.159 1.884.307 3.662 1.693 4.813l-3.68 1.205z" id="Shape" fill="#463014"/><path d="M6.147 51.813s2.868-3.557 3.717-10.478c.334-2.726-.259-8.103-1.207-10.171.172 5.085-1.12 10.171-1.12 10.171s-.871 9.443-1.39 10.478z" id="Shape" fill="#463014"/><path d="M21.268 20.65c-.001-.008-.92-4.023-3.467-6.05-3.593-2.858-7.979-1.338-8.022-1.324l-.637-1.968c.212-.069 5.226-1.649 9.847 1.6 4.649 3.267 5.206 6.229 5.255 6.556l-2.976 1.187z" id="Shape" fill="#463014"/><path d="M15.154 49.263s-1.504-2.154-1.234-4.523c.135-1.17.677-2.371 1.644-2.797 1.798-.79 2.595 1.249 2.595 1.249s-2.531.625-3.006 6.072z" id="Shape" fill="#463014"/><path d="M31.672 52.546l.095.183s-4.692 3.522-9.501-.052c-2.574-1.915-2.331-6.652-1.542-8.661 2.051.465 3.79 1.303 5.244 2.281-1.837-1.64-3.446-2.848-3.441-2.875l-2.088-.591-4.059-1.392c-.052.31-1.533 7.251 2.741 11.98 1.894 2.097 10.774 6.793 14.99-1.237l-2.438.364z" id="Shape" fill="#463014"/><path d="M31.233 53.062c2.642 4.022 9.308 1.724 9.193-2.528 0 0-4.454 2.459-8.389-2.068-2.297-2.643-9.659-9.93-19.642-7.508 6.894 1.516 16.021 7.817 18.838 12.105z" id="Shape" fill="#463014"/><path d="M11.461 64.413c.636.367 2.877 2.689 2.878 6.162 0 1.741-.173 10.489-1.035 15.833 1.296.842 2.199 1.021 3.489 1.88.646-6.189 1.109-15.16.893-18.781-.247-4.128-2.457-6.898-4.506-8.08-.642-.369-1.312-.732-1.988-1.097-3.51-1.897-7.14-3.859-7.14-7.21 0-2.621 1.019-3.441 2.097-4.31l.116-.094c.716-.578 1.526-1.234 2.006-2.311 1.309-2.945 1.524-10.446 0-12.35-.759-.949-2.794-4.14-2.209-6.284.223-.818.738-1.425 1.577-1.855.888-.455 2.087-.685 3.563-.685 2.9 0 6.116.883 7.775 1.408 5.929 1.88 13.083 7.299 15.134 8.915l.1.076 1.312.913-.821-1.374c-.051-.086-5.248-8.634-14.542-11.769-1.808-.61-5.36-1.633-8.851-1.633-2.079 0-3.842.363-5.239 1.078-1.702.871-2.855 2.26-3.333 4.017-1.174 4.306 2.649 9.1 2.779 9.253.446.796.634 6.576-.395 8.889-.142.319-.53.633-1.021 1.03l-.508.392c-1.452 1.097-3.649 2.753-3.649 6.572 0 5.225 5.295 8.059 9.55 10.337.698.376 1.364.731 1.967 1.078z" id="Shape" fill="#463014"/><g id="Shape" fill="#463014"><path d="M12.226 24.242c-2.276-1.889-.58-3.642-.759-5.787-.098-1.142-.188-2.219-.564-2.813-2.094-3.308-7.036-4.312-7.085-4.322l-2.319-.454 1.535-1.796c.199-.233 6.503-6.249 16.259-3.099 6.824 2.201 11.876 9.667 12.064 9.968l-3.422 1.609c-.04-.064-4.034-7.08-9.889-8.969-4.733-1.527-9.095-.074-10.963.878 1.986.793 4.583 2.238 6.148 4.709.738 1.167.863 2.636.983 4.059.159 1.884.307 3.662 1.693 4.813l-3.68 1.205zM12.152 24.629l-.147-.122c-1.688-1.401-1.388-2.781-1.098-4.117.132-.616.271-1.253.214-1.907-.092-1.099-.181-2.135-.511-2.659-1.994-3.15-6.814-4.159-6.862-4.169l-2.896-.568 1.92-2.245c.035-.042 4.083-4.129 10.938-4.129 1.869 0 3.783.311 5.688.926 7.123 2.297 12.204 10.037 12.252 10.114l.205.329-4.048 1.904-.163-.258c-.435-.743-4.273-7.073-9.703-8.825-1.334-.431-2.738-.648-4.174-.648-2.601 0-4.71.709-5.833 1.185 1.876.845 4.15 2.267 5.59 4.537.783 1.237.909 2.748 1.034 4.209.152 1.816.296 3.524 1.57 4.581l.481.399-4.457 1.461z"/></g><g id="Shape" fill="#463014"><path d="M21.268 20.65c-.001-.008-.92-4.023-3.467-6.05-3.593-2.858-7.979-1.338-8.022-1.324l-.637-1.968c.212-.069 5.226-1.649 9.847 1.6 4.649 3.267 5.207 6.229 5.255 6.556l-2.976 1.187zM21.021 21.12l-.09-.395c-.009-.039-.91-3.917-3.346-5.854-1.388-1.106-3.062-1.667-4.973-1.667-1.491 0-2.6.356-2.721.398l-.329.109-.854-2.626.328-.106c.147-.047 1.478-.462 3.36-.462 2.483 0 4.831.729 6.793 2.106 4.765 3.349 5.347 6.447 5.396 6.788l.042.27-3.606 1.436zm-8.408-8.604c2.041 0 3.91.628 5.403 1.815 2.163 1.723 3.18 4.765 3.488 5.855l2.344-.934c-.212-.828-1.147-3.313-5.056-6.061-1.87-1.315-4.021-1.981-6.396-1.981-1.303 0-2.315.207-2.815.334l.423 1.307c.49-.132 1.434-.334 2.609-.334z"/></g><path d="M33.842 106.726c-1.018 0-2.058-.37-2.778-.993-.551-.475-2.416-2.188-3.238-4.287-.307-.785-.238-1.413.207-1.864.307-.31.944-.68 2.237-.68l.92-.001 4.52-.001h1.513c.984 0 1.689.213 2.094.627.521.535.354 1.216.208 1.574-.254.628-1.303 2.671-3.078 4.57-.636.68-1.561 1.056-2.605 1.056z" id="Shape" fill="#463014"/><path d="M34.909 53.299l-3.677-.237s.94 1.657 1.549 3.8c.688 2.424-.629 5.967-.629 5.967s4.902-5.552 2.757-9.531z" id="Shape" fill="#463014"/><path d="M30.319 116.437c-13.086-1.006-17.69-13.374-17.69-15.95l3.418.001-1.709-.001h1.709c.017 1.114 3.495 11.694 14.535 12.543l-.262 3.408z" id="Shape" fill="#463014"/><path d="M26.642 94.277c-.204-1.182-.226-2.303.024-3.405-.994-.748-2.779-1.025-4.118-1.46-1.095-.693-6.698.71-10.763-4.21-5.093-6.162-4.021-9.84-4.021-9.84-1.306 1.451-2.571.898-4.562 7.665-1.993 6.768.936 11.486 6.395 16.223 2.579 2.238 6.225 3.159 9.361 3.512-1.05-1.055 1.794-1.161 3.755-1.894-.156-1.583.105-3.121 1.286-4.359.712-.746 1.628-1.192 2.578-1.548l.148-.354-.082-.33z" id="Shape" fill="#fff"/><path d="M22.685 100.827c-.113-.332-.199-.671-.283-1.012-.091-.372-.542-1.427.014-.223-.143-.308-.237-.626-.306-.947-8.841-.011-16.532-6.083-15.046-18.847-1.157-1.537-2.778 3.099-2.778 3.099s-4.426 12.854 7.005 17.836c3.809 1.661 7.175 2.852 7.969 2.372 1.654.336 3.147-.817 3.708-1.576-.105-.233-.201-.466-.283-.703z" id="Shape" fill="#C9C9C9"/><path d="M26.482 92.427c.014-1.077.234-2.121.754-3.161l.118-.21c-3.402-.029-7.32-.355-10.656-1.691-3.667-1.467-8.254-6.487-9.043-12.384 0 0-6.906 5.331-4.877 16.74 1.905 10.714 10.868 14.206 21.09 14.797.005-.069-1.15-2.456-.785-3.917-5.805.422-12.295-1.821-15.429-6.978-2.869-4.72-2.064-12.779-.885-13.959 2.876 9.076 13.224 10.921 19.712 10.763z" id="Shape" fill="#463014"/><path d="M27.553 85.929c-1.84 5.399-5.597 9.769-5.597 9.769s5.169-.235 5.454-1.15c.211-.674 4.667-11.107 6.377-23.329-1.609 2.644-6.077 14.248-6.234 14.71z" id="Shape" fill="#463014"/><path d="M56.836 73.48s5.859 8.963 10.159 15.324c.665.984-4.3 1.052-4.3 1.052l-5.859-16.376z" id="Shape" fill="#E78724"/><path d="M54.045 54.898s1.767 4.408 2.733 6.745c1.05 2.541 5.055 3.804 5.055 3.804s-2.076-2.178-2.076-7.696c0-2.315-2.987-3.235-2.987-3.235l-2.725.381z" id="Shape" fill="#E78724"/><path d="M55.83 57.39s3.619 4.309 10.342 1.896c6.722-2.413 7.411-11.033 7.411-13.446 0-2.413-12.753 2.413-14.477 3.448-1.724 1.034-4.998 5.171-3.275 8.102z" id="Shape" fill="#E78724"/><path d="M81.216 11.341s-6.204-1.207-10.341 2.068c-4.136 3.275-5.343 5.861-5.343 5.861l6.972 5.527s3.37-1.562 4.404-6.045c1.034-4.482.344-6.55 4.308-7.412z" id="Shape" fill="#E78724"/><path d="M57.64 44.942c2.671-3.793 7.072-5.447 10.588-5.721 5.993-.469 8.837 1.65 8.837 1.65s-9.815.416-12.644 4.132c-5.267 6.917-12.947 7.479-14.176 5.96 1.42.071 2.984-.633 4.655-2.215 1.045-.99 1.892-2.602 2.74-3.806z" id="Shape" fill="#E78724"/><path d="M74.209 58.352s10.889-3.744 8.82-7.536c-2.068-3.793-.423-5.859-.423-5.859s6.082 4.54 4.531 9.366c-.952 2.963-2.55 5.107-11.322 9.219-4.208 7.817-.869 21.888-1.068 21.954-.334.111-5.907-2.756-5.527-15.92.116-4.042.439-9.561 4.988-11.224z" id="Shape" fill="#E78724"/><path d="M59.939 18.086c4.565 2.32 10.821 5.552 10.821 5.552l-2.462 1.232c.235.381.349.608.349.608l-2.527 1.149s-6.169 4.47-9.949 7.343c1.259-3.881 4.958-9.979 4.958-9.979s1.05-2.802-1.191-5.905z" id="Shape" fill="#E78724"/><path d="M44.77 112.669c14.033 0 18.787-7.127 18.787-7.127l-2.192 5.342c-.829 2.311-9.674 9.503-16.574 9.503" id="Shape" fill="#E78724"/><path d="M62.02 100.727s-1.293 7.894-6.462 7.894c-4.393 0-5.688-6.668-5.688-8.046l12.15.152z" id="Shape" fill="#E78724"/><path d="M70.624 88.822c-.459-1.265-2.068-6.379-2.586-11.033-.619-5.574-.392-13.726-.392-13.726s1.379 5.344 2.584 6.207c1.208.861 3.447 6.722 3.447 6.722s1.2 8.725 1.772 11.658c-1.581.317-2.91-.615-4.825.172z" id="Shape" fill="#E78724"/><path d="M83.111 54.238s-2.93-1.035-3.792-7.412c-.861-6.379 1.035-11.895 1.035-11.895s-.173 8.791.861 10.516c1.035 1.724 1.896 2.24 3.103 4.482 1.205 2.242-.518 3.62-1.207 4.309z" id="Shape" fill="#E78724"/><path id="Shape" fill="#FDC168" d="M79.612 12.85l.599-.379c1.764.06-.599.379-.599.379z"/><path d="M57.553 16.198s2.758-.459 4.136-2.528c1.379-2.069 5.286-6.207 11.513-6.253 6.226-.047 12.386 1.655 12.386 1.655l-5.378 3.398c-.569-.018-1.563-.011-3.209.044-6.747.224-7.786 6.901-7.786 6.901l-23.783-3.276" id="Shape" fill="#FBA919"/><path d="M55.256 53.075s3.218 3.218 8.158 2.183c4.941-1.034 7.929-3.218 8.159-7.01.229-3.793-1.034-5.286-1.034-5.286s-5.516 1.725-8.159 4.024c-2.643 2.299-4.596 5.976-7.124 6.09z" id="Shape" fill="#fff"/><path d="M59.149 51.925s2.791 1.275 5.909.237c4.084-1.362 4.356-5.609 4.356-5.609s2.503 7.352-4.519 8.767c-5.631 1.135-8.963-2.13-8.963-2.13l3.217-1.265z" id="Shape" fill="#C9C9C9"/><path d="M77.389 24.242c2.276-1.889.581-3.642.761-5.787.096-1.142.186-2.219.563-2.813 2.095-3.308 7.036-4.312 7.086-4.322l2.319-.454-1.535-1.796c-.199-.233-6.503-6.249-16.26-3.099-6.823 2.201-11.875 9.667-12.063 9.968l3.42 1.609c.042-.064 4.036-7.08 9.89-8.969 4.732-1.527 9.094-.074 10.962.878-1.985.793-4.583 2.238-6.148 4.709-.738 1.167-.862 2.636-.981 4.059-.159 1.884-.308 3.662-1.695 4.813l3.68 1.205z" id="Shape" fill="#463014"/><path d="M83.467 51.813s-2.866-3.557-3.715-10.478c-.334-2.726.258-8.103 1.206-10.171-.172 5.085 1.121 10.171 1.121 10.171s.872 9.443 1.388 10.478z" id="Shape" fill="#463014"/><path d="M68.348 20.65c.001-.008.92-4.023 3.467-6.05 3.592-2.858 7.979-1.338 8.02-1.324l.639-1.968c-.213-.069-5.226-1.649-9.849 1.6-4.649 3.267-5.205 6.229-5.255 6.556l2.977 1.187z" id="Shape" fill="#463014"/><path d="M74.462 49.263s1.504-2.154 1.232-4.523c-.133-1.17-.675-2.371-1.643-2.797-1.798-.79-2.596 1.249-2.596 1.249s2.531.625 3.006 6.072z" id="Shape" fill="#463014"/><path d="M57.944 52.546l-.095.183s4.691 3.522 9.5-.052c2.576-1.915 2.332-6.652 1.542-8.661-2.05.465-3.789 1.303-5.243 2.281 1.838-1.64 3.446-2.848 3.44-2.875l2.09-.591 4.059-1.391c.052.31 1.532 7.251-2.743 11.98-1.894 2.097-10.773 6.793-14.988-1.237l2.439.363z" id="Shape" fill="#463014"/><path d="M58.382 53.062c-2.642 4.022-9.306 1.724-9.191-2.528 0 0 4.453 2.459 8.388-2.068 2.297-2.643 9.66-9.93 19.643-7.508-6.894 1.516-16.022 7.817-18.84 12.105z" id="Shape" fill="#463014"/><path d="M78.156 64.413c-.636.367-2.878 2.689-2.878 6.162-.001 1.741.172 10.489 1.035 15.833-1.296.842-2.199 1.021-3.49 1.88-.646-6.189-1.111-15.16-.893-18.781.247-4.128 2.456-6.898 4.504-8.08.642-.369 1.313-.732 1.989-1.097 3.51-1.897 7.14-3.859 7.14-7.21 0-2.621-1.02-3.441-2.098-4.31l-.115-.094c-.716-.578-1.527-1.234-2.006-2.311-1.31-2.945-1.525-10.446-.001-12.35.759-.949 2.796-4.14 2.211-6.284-.224-.818-.74-1.425-1.578-1.855-.888-.455-2.085-.685-3.563-.685-2.898 0-6.116.883-7.774 1.408-5.929 1.88-13.083 7.299-15.136 8.915l-.099.076-1.313.913.821-1.374c.052-.086 5.249-8.634 14.542-11.769 1.808-.61 5.36-1.633 8.852-1.633 2.079 0 3.84.363 5.238 1.078 1.702.871 2.854 2.26 3.334 4.017 1.174 4.306-2.649 9.1-2.779 9.253-.446.796-.634 6.576.394 8.889.142.319.53.633 1.022 1.03l.508.392c1.453 1.097 3.648 2.753 3.648 6.572 0 5.225-5.295 8.059-9.548 10.337-.699.376-1.366.731-1.966 1.078z" id="Shape" fill="#463014"/><path d="M71.839 23.628c-.842-1.427-2.996-4.182-7.96-6.602-5.539-2.701-11.951-4.071-19.058-4.075v-.001h-.028v.001c-7.109.004-13.521 1.374-19.059 4.075-4.964 2.421-7.117 5.176-7.96 6.602l-.361.479 4.251.946.135-.17.071-.156c.066-.281.636-1.798 5.375-4.11 5.066-2.472 10.976-3.725 17.562-3.727 6.587.002 12.494 1.255 17.56 3.727 4.74 2.312 5.311 3.829 5.376 4.11l.071.156.133.17 4.252-.946-.36-.478z" id="Shape" fill="#463014"/><g id="Shape" fill="#463014"><path d="M77.389 24.242c2.276-1.889.581-3.642.761-5.787.096-1.142.186-2.219.563-2.813 2.095-3.308 7.036-4.312 7.086-4.322l2.319-.454-1.535-1.796c-.199-.233-6.503-6.249-16.26-3.099-6.823 2.201-11.875 9.667-12.063 9.968l3.42 1.609c.042-.064 4.036-7.08 9.89-8.969 4.732-1.527 9.094-.074 10.962.878-1.985.793-4.583 2.238-6.148 4.709-.738 1.167-.862 2.636-.982 4.059-.159 1.884-.308 3.662-1.695 4.813l3.68 1.205zM73.009 23.17l.479-.399c1.275-1.058 1.418-2.766 1.572-4.581.123-1.461.251-2.973 1.034-4.209 1.438-2.27 3.714-3.692 5.59-4.538-1.123-.476-3.232-1.185-5.834-1.185-1.437 0-2.839.217-4.173.648-5.431 1.752-9.268 8.082-9.703 8.825l-.163.258-4.048-1.904.206-.329c.048-.077 5.127-7.817 12.25-10.114 1.905-.615 3.819-.926 5.69-.926 6.855 0 10.903 4.088 10.938 4.129l1.92 2.245-2.897.568c-.048.01-4.867 1.018-6.863 4.169-.331.524-.417 1.559-.511 2.659-.055.654.083 1.291.216 1.907.29 1.335.589 2.717-1.1 4.117l-.147.122-4.455-1.461z"/></g><g id="Shape" fill="#463014"><path d="M68.348 20.65c.001-.008.92-4.023 3.467-6.05 3.592-2.858 7.979-1.338 8.02-1.324l.639-1.968c-.213-.069-5.226-1.649-9.849 1.6-4.649 3.267-5.205 6.229-5.255 6.556l2.977 1.187zM64.991 19.683l.04-.27c.051-.342.633-3.438 5.397-6.788 1.96-1.378 4.309-2.106 6.792-2.106 1.884 0 3.214.414 3.362.462l.327.106-.854 2.626-.33-.109c-.123-.042-1.231-.398-2.722-.398-1.91 0-3.583.561-4.971 1.667-2.436 1.938-3.338 5.816-3.346 5.854l-.09.394-3.605-1.436zm14.621-6.833l.424-1.307c-.5-.127-1.514-.334-2.817-.334-2.374 0-4.526.667-6.395 1.981-3.91 2.749-4.845 5.233-5.057 6.061l2.346.934c.307-1.091 1.323-4.133 3.487-5.855 1.493-1.187 3.361-1.815 5.401-1.815 1.174 0 2.119.203 2.609.334z"/></g><path d="M53.171 105.671c-1.776-1.899-2.826-3.942-3.08-4.57-.145-.358-.311-1.039.21-1.574.406-.415 1.109-.627 2.093-.627h1.514l4.52.001.92.001c1.292 0 1.929.37 2.236.68.446.451.515 1.079.208 1.864-.822 2.099-2.687 3.812-3.239 4.287-.722.624-1.759.993-2.777.993-1.044 0-1.969-.375-2.605-1.056z" id="Shape" fill="#463014"/><path d="M54.708 53.299l3.675-.237s-.939 1.657-1.547 3.8c-.688 2.424.629 5.967.629 5.967s-4.903-5.552-2.756-9.531z" id="Shape" fill="#463014"/><path d="M44.808 40.169c-2.343 0-5.399-.064-7.691-1.712 0 0 3.002 5.263 7.687 5.263l.004-.666.004.666c4.686 0 7.687-5.263 7.687-5.263-2.292 1.648-5.35 1.712-7.691 1.712z" id="Shape" fill="#E78724"/><path d="M51.26 40.143c-2.35 1.423-4.45 1.916-6.452 1.959-2.003-.044-4.101-.537-6.452-1.959 0 0 3.423 4.178 6.435 4.21v.003l.017-.001.017.001v-.003c3.011-.032 6.435-4.21 6.435-4.21z" id="Shape" fill="#463014"/><path d="M59.297 116.437l-.262-3.408c11.037-.849 14.515-11.429 14.533-12.543h3.418c.001 2.576-4.604 14.945-17.689 15.951z" id="Shape" fill="#463014"/><path d="M62.974 94.277c.205-1.182.225-2.303-.024-3.405.996-.748 2.779-1.025 4.118-1.46 1.095-.693 6.699.71 10.764-4.21 5.093-6.162 4.02-9.84 4.02-9.84 1.307 1.451 2.571.898 4.563 7.665 1.993 6.768-.937 11.486-6.396 16.223-2.579 2.238-6.225 3.159-9.361 3.512 1.05-1.055-1.794-1.161-3.754-1.894.157-1.583-.107-3.121-1.287-4.359-.71-.746-1.628-1.192-2.577-1.548l-.148-.354.081-.33z" id="Shape" fill="#fff"/><path d="M66.929 100.827c.115-.332.199-.671.283-1.012.092-.372.543-1.427-.014-.223.143-.308.237-.626.305-.947 8.841-.011 16.532-6.083 15.045-18.847 1.157-1.537 2.779 3.099 2.779 3.099s4.426 12.854-7.004 17.836c-3.809 1.661-7.174 2.852-7.969 2.372-1.656.336-3.149-.817-3.708-1.576.104-.233.202-.466.282-.703z" id="Shape" fill="#C9C9C9"/><path d="M63.132 92.427c-.012-1.077-.234-2.121-.753-3.161l-.118-.21c3.402-.029 7.32-.355 10.656-1.691 3.667-1.467 8.254-6.487 9.043-12.384 0 0 6.906 5.331 4.877 16.74-1.906 10.714-10.868 14.206-21.09 14.797-.005-.069 1.15-2.456.785-3.917 5.803.422 12.294-1.821 15.429-6.978 2.867-4.72 2.063-12.779.884-13.959-2.875 9.076-13.224 10.921-19.712 10.763z" id="Shape" fill="#463014"/><path d="M67.26 95.114c-1.221-1.321-3.467-2.895-8.644-2.895l-13.79-.008h-.034c-3.974.003-13.792.008-13.792.008-5.176 0-7.421 1.574-8.643 2.895-1.78 1.922-2.059 4.595-.828 7.937 3.272 8.895 7.87 17.931 23.262 17.944v.001l.017-.001.017.001v-.001c15.391-.013 19.989-9.049 23.262-17.944 1.231-3.342.952-6.015-.827-7.937zm-2.396 7.313c-1.559 4.467-5.749 15.278-20.056 15.297-14.309-.019-18.497-10.83-20.056-15.297-.863-2.478-.797-4.312.202-5.451.682-.779 2.249-1.708 5.821-1.708l3.731-.001c2.753-.003 6.209-.005 10.302-.007 4.092.001 7.55.004 10.302.007l3.73.001c3.573 0 5.14.929 5.822 1.708.998 1.14 1.064 2.973.202 5.451z" id="Shape" fill="#463014"/><path d="M62.062 85.929c1.84 5.399 5.596 9.769 5.596 9.769s-5.168-.235-5.454-1.15c-.21-.674-4.666-11.107-6.376-23.329 1.608 2.644 6.076 14.248 6.233 14.71z" fill="#463014"/></g></g></svg>