<svg width="200" height="200" xmlns="http://www.w3.org/2000/svg" xmlns:sketch="http://www.bohemiancoding.com/sketch/ns"><title>Artboard 1</title><desc>Created with Sketch.</desc><defs><linearGradient x1="99.407%" y1="-.476%" x2="1.559%" y2="99.454%" id="a"><stop stop-color="#FFAA2A" offset="0%"/><stop stop-color="#FFC06C" offset="100%"/></linearGradient><linearGradient x1="50%" y1="-.168%" x2="50%" y2="99.495%" id="b"><stop stop-color="#251200" offset="0%"/><stop offset="100%"/></linearGradient></defs><g sketch:type="MSArtboardGroup" fill="none"><g sketch:type="MSShapeGroup" transform="matrix(1 0 0 -1 0 200)" fill="#1F1B1C"><polygon points="100 0 186.60254 50 186.60254 150 100 200 13.3974596 150 13.3974596 50"/><polygon points="100 0 195.105652 69.0983006 158.778525 180.901699 41.2214748 180.901699 4.89434837 69.0983006"/></g><g sketch:type="MSLayerGroup" transform="translate(49.625 50.598)"><rect fill="url(#a)" sketch:type="MSShapeGroup" width="100.594" height="98.635"/><path d="M36.782 50.267h8.917l-4.458-17.314-4.458 17.314zm-29.086-42.49v83.237h85.5v-83.237h-85.5zm42.896 61.474l-3.262-11.252h-12.07l-3.262 11.252h-8.264l11.635-39.782v-4.356h11.092l13.266 44.138h-9.134zm21.966 0h-8.917v-33.575h8.917v33.575zm-4.404-37.604c-2.552 0-4.622-2.048-4.622-4.573 0-2.526 2.069-4.574 4.622-4.574s4.622 2.048 4.622 4.574-2.069 4.573-4.622 4.573z" fill="url(#b)" sketch:type="MSShapeGroup"/></g></g></svg>