<svg width="200" height="200" xmlns="http://www.w3.org/2000/svg" xmlns:sketch="http://www.bohemiancoding.com/sketch/ns"><title>Artboard 1</title><desc>Created with Sketch.</desc><g sketch:type="MSArtboardGroup" fill="none"><g sketch:type="MSShapeGroup" transform="matrix(1 0 0 -1 0 200)" fill="#1F1B1C"><polygon points="100 0 186.60254 50 186.60254 150 100 200 13.3974596 150 13.3974596 50"/><polygon points="100 0 195.105652 69.0983006 158.778525 180.901699 41.2214748 180.901699 4.89434837 69.0983006"/></g><g transform="translate(35 71) translate(0 -.265)" sketch:type="MSShapeGroup" fill="#036"><path d="M65.412 49.214h-7.66v-36.802h7.66v36.802z"/><path d="M78.15 19.367h8.911c2.221 0 3.433 1.251 3.433 3.388v3.328c0 2.137-1.212 4.615-3.433 4.615h-8.911v-11.33zm14.909 29.944h8.366l-8.847-12.694c2.892-1.093 4.685-4.359 4.685-7.705v-9.379c0-4.226-2.774-7.046-6.932-7.046h-19.745v36.824h7.565v-12.14h7.199l7.71 12.14z"/><path d="M129.714 49.214l-10.751-36.802h-10.352l-10.751 36.802h7.566l8.362-28.636 4.227 14.482h-4.227l-2.937 6.606h9.054l2.245 7.549h7.565z"/><path d="M52.18 41.421v-29.009h-7.428v27.299c0 4.305-1.978 4.618-2.489 4.82-.931.368-2.507.586-2.507.586l1.781 6.539c11.966-.323 10.642-10.236 10.642-10.236"/><path d="M.008 12.589s-.348 7.505 10.601 18.43c10.95 10.926 12.194 15.363 11.597 18.43h7.963s.724-12.679-11.62-21.581c0 0-8.497-7.68-9.882-13.778 0 0-4.183-.002-7.093-2.381 0 0-1.569-.956-1.567.879"/><path d="M16.958 29.924c2.199 1.586 3.976 3.293 5.424 5.027 1.056-1.145 2.238-2.373 3.565-3.697 10.95-10.926 10.601-18.665 10.601-18.665.002-1.836-1.567-.821-1.567-.821-2.91 2.379-7.093 2.44-7.093 2.44-1.384 6.098-9.882 13.895-9.882 13.895-.575.415-1.113.841-1.633 1.272l.585.549"/><path d="M16.853 41.778c-1.413-1.857-3.298-4.03-5.791-6.62-5.084 7.426-4.676 14.764-4.676 14.764h7.963c-.353-1.887-.061-4.275 2.503-8.144"/><path d="M14.267 14.771h7.89s1.031-.147.78 1.24c-.357 1.973-4.617 5.97-4.617 5.97s-3.114-2.939-4.501-5.7c0 0-.56-1.51.448-1.51"/><path d="M32.12 6.478c0 1.935-1.544 3.504-3.448 3.504s-3.448-1.569-3.448-3.504 1.544-3.504 3.448-3.504 3.448 1.569 3.448 3.504"/><path d="M11.813 6.478c0 1.935-1.544 3.504-3.448 3.504s-3.448-1.569-3.448-3.504 1.544-3.504 3.448-3.504 3.448 1.569 3.448 3.504"/><path d="M22.165 3.646c0 1.935-1.544 3.504-3.448 3.504s-3.448-1.569-3.448-3.504 1.544-3.504 3.448-3.504 3.448 1.569 3.448 3.504"/></g></g></svg>