<svg width="200" height="200" xmlns="http://www.w3.org/2000/svg" xmlns:sketch="http://www.bohemiancoding.com/sketch/ns"><title>Artboard 1</title><desc>Created with Sketch.</desc><g sketch:type="MSArtboardGroup" fill="none"><g sketch:type="MSShapeGroup" transform="matrix(1 0 0 -1 0 200)" fill="#1F1B1C"><polygon points="100 0 186.60254 50 186.60254 150 100 200 13.3974596 150 13.3974596 50"/><polygon points="100 0 195.105652 69.0983006 158.778525 180.901699 41.2214748 180.901699 4.89434837 69.0983006"/></g><g sketch:type="MSLayerGroup" fill="#0868AC"><path d="M50.314 65.473c-10.197 14.745-8.928 33.927-1.138 49.594.185.376.379.745.57 1.115l.364.706.227.406.406.73c.242.43.49.856.744 1.283l.424.703c.281.457.569.907.863 1.358l.367.571c.406.61.821 1.217 1.25 1.815l.036.048.211.285c.37.514.753 1.022 1.139 1.523l.429.55c.345.436.696.868 1.053 1.301l.402.484c.479.568.968 1.133 1.466 1.686l.03.03.057.063c.487.535.986 1.058 1.49 1.581l.478.484c.391.397.789.787 1.19 1.175l.487.466c.536.508 1.078 1.007 1.631 1.493l.025.021.284.243c.487.424.983.844 1.481 1.259l.614.493c.408.328.82.652 1.235.971l.66.505c.458.34.92.673 1.386 1.001l.505.361.139.099c.442.306.895.601 1.346.895l.582.391c.693.442 1.396.877 2.107 1.298l.582.331c.523.303 1.048.601 1.581.892l.875.454c.376.198.75.4 1.132.592l.261.126.463.225c.593.285 1.19.565 1.794.835l.379.171c.691.303 1.389.595 2.092.874l.509.201c.651.252 1.311.502 1.974.736l.248.087c.727.255 1.462.493 2.201.724l.532.159c.753.228 1.496.502 2.273.646 49.315 9.048 63.64-29.814 63.64-29.814-12.031 15.769-33.387 19.927-53.621 15.297-.766-.174-1.51-.415-2.258-.637l-.563-.171c-.73-.225-1.455-.463-2.174-.712l-.299-.108c-.645-.228-1.283-.469-1.918-.715l-.538-.213c-.696-.276-1.387-.565-2.07-.865l-.414-.183c-.587-.267-1.168-.538-1.746-.817l-.505-.243c-.454-.223-.903-.46-1.351-.692l-.902-.475c-.547-.294-1.084-.601-1.619-.913l-.547-.306c-.711-.421-1.413-.857-2.108-1.298l-.569-.382c-.504-.327-1.006-.661-1.5-1.003l-.483-.342c-.477-.34-.949-.683-1.418-1.031l-.629-.478c-.429-.331-.856-.665-1.28-1.007l-.57-.46c-.538-.445-1.069-.892-1.593-1.352l-.175-.147c-.567-.502-1.125-1.016-1.676-1.532l-.472-.457c-.408-.391-.809-.784-1.204-1.187l-.472-.475c-.502-.517-.995-1.04-1.477-1.571l-.073-.078c-.511-.562-1.01-1.136-1.498-1.716l-.393-.469c-.364-.442-.726-.889-1.078-1.34l-.395-.496c-.425-.554-.839-1.106-1.245-1.668-11.234-15.415-15.269-36.677-6.291-54.138" id="Shape" sketch:type="MSShapeGroup"/><path d="M81.968 53.05c-7.374 10.676-6.974 24.967-1.222 36.258.965 1.893 2.049 3.729 3.262 5.478 1.105 1.592 2.33 3.489 3.796 4.769.532.589 1.087 1.163 1.655 1.728l.436.433c.551.538 1.111 1.067 1.691 1.581l.069.06.016.015c.641.565 1.302 1.109 1.974 1.644l.448.352c.674.52 1.361 1.031 2.065 1.517l.06.045c.311.216.627.418.942.625l.447.297c.503.325 1.013.64 1.531.944l.217.126c.447.258.899.514 1.353.76l.481.252c.314.165.627.334.947.493l.143.066c.65.322 1.305.631 1.974.925l.436.18c.535.228 1.075.451 1.619.661l.693.255c.493.183.987.352 1.486.52l.672.216c.709.222 1.41.502 2.149.625 38.076 6.346 46.866-23.146 46.866-23.146-7.924 11.481-23.269 16.959-39.644 12.683-.727-.192-1.444-.403-2.156-.628l-.648-.21c-.506-.165-1.01-.34-1.508-.523l-.681-.255c-.547-.21-1.087-.43-1.623-.658l-.438-.186c-.672-.294-1.334-.604-1.986-.928-.336-.165-.666-.34-.996-.511l-.575-.297c-.424-.231-.845-.472-1.26-.715l-.302-.171c-.515-.303-1.023-.616-1.526-.937l-.46-.31c-.332-.216-.663-.436-.989-.658-.702-.487-1.384-.998-2.058-1.514l-.463-.367c-7.168-5.694-12.849-13.473-15.551-22.295-2.831-9.15-2.22-19.42 2.684-27.755" id="Shape" sketch:type="MSShapeGroup"/><path d="M108.59 43.769c-4.347 6.436-4.774 14.43-1.758 21.538 3.181 7.545 9.7 13.465 17.307 16.271.314.117.627.222.945.331l.417.132c.448.141.893.306 1.356.394 21.024 4.087 26.726-10.853 28.245-13.052-4.995 7.236-13.39 8.972-23.69 6.457-.814-.199-1.708-.495-2.492-.774-1.006-.361-1.997-.772-2.959-1.237-1.829-.884-3.572-1.957-5.188-3.185-9.217-7.035-14.943-20.457-8.928-31.387" sketch:type="MSShapeGroup"/></g></g></svg>