<svg width="200" height="200" xmlns="http://www.w3.org/2000/svg" xmlns:sketch="http://www.bohemiancoding.com/sketch/ns"><title>Artboard 1</title><desc>Created with Sketch.</desc><g sketch:type="MSArtboardGroup" fill="none"><g sketch:type="MSShapeGroup" transform="matrix(1 0 0 -1 0 200)" fill="#1F1B1C"><polygon points="100 0 186.60254 50 186.60254 150 100 200 13.3974596 150 13.3974596 50"/><polygon points="100 0 195.105652 69.0983006 158.778525 180.901699 41.2214748 180.901699 4.89434837 69.0983006"/></g><g sketch:type="MSLayerGroup" transform="translate(54 54)"><rect fill="#F0DB4F" sketch:type="MSShapeGroup" width="92" height="92"/><path d="M84.47 70.058c-.673-4.198-3.411-7.722-11.517-11.01-2.816-1.294-5.956-2.221-6.891-4.355-.332-1.242-.376-1.941-.166-2.694.603-2.44 3.516-3.201 5.824-2.501 1.487.498 2.895 1.644 3.743 3.472 3.97-2.571 3.962-2.554 6.734-4.32-1.014-1.574-1.557-2.3-2.221-2.973-2.387-2.667-5.641-4.04-10.844-3.935l-2.711.35c-2.597.656-5.072 2.02-6.524 3.848-4.355 4.941-3.113 13.59 2.186 17.149 5.221 3.918 12.89 4.81 13.87 8.474.953 4.486-3.297 5.938-7.521 5.422-3.113-.647-4.845-2.23-6.716-5.107-3.446 1.994-3.446 1.994-6.987 4.032.84 1.837 1.723 2.667 3.131 4.259 6.664 6.76 23.341 6.428 26.332-3.804.122-.35.927-2.694.28-6.305zm-34.456-27.775h-8.605l-.035 22.248c0 4.731.245 9.069-.525 10.398-1.259 2.615-4.521 2.291-6.008 1.784-1.513-.743-2.283-1.802-3.175-3.297-.245-.429-.429-.761-.49-.787l-6.996 4.285c1.163 2.387 2.877 4.46 5.072 5.807 3.279 1.968 7.687 2.571 12.296 1.513 3-.875 5.588-2.685 6.944-5.44 1.959-3.612 1.539-7.984 1.522-12.821.044-7.888 0-15.776 0-23.691z" fill="#323330" sketch:type="MSShapeGroup"/></g></g></svg>