<svg width="200" height="200" xmlns="http://www.w3.org/2000/svg" xmlns:sketch="http://www.bohemiancoding.com/sketch/ns"><title>Artboard 1</title><desc>Created with Sketch.</desc><g sketch:type="MSArtboardGroup" fill="none"><g sketch:type="MSShapeGroup" transform="matrix(1 0 0 -1 0 200)" fill="#1F1B1C"><polygon points="100 0 186.60254 50 186.60254 150 100 200 13.3974596 150 13.3974596 50"/><polygon points="100 0 195.105652 69.0983006 158.778525 180.901699 41.2214748 180.901699 4.89434837 69.0983006"/></g><path d="M64.109 70.011v37.819c0 4.551.498 5.223 4.948 6.52l-1.066 6.336c-2.373-.546-4.663-.793-6.729-1.617-3.944-1.571-4.565-5.201-4.582-8.93-.052-10.691-.018-21.381-.018-32.071v-2.112c-1.813.141-3.477.126-5.081.435-1.842.354-2.896 1.891-2.957 4.139-.086 3.134-.029 6.27-.08 9.403-.024 1.436-.088 2.88-.257 4.304-.319 2.681-1.533 4.865-3.76 6.325.02.2-.009.353.043.39 3.34 2.371 3.914 5.925 3.973 9.67.046 2.981-.003 5.962.016 8.943.027 4.494 1.174 5.709 5.615 5.995l.718.111v5.867c-3.085-.081-6.098-.207-8.857-1.707-3.073-1.671-4.109-4.566-4.258-7.837-.154-3.384-.095-6.78-.129-10.171-.007-.617.018-1.236-.017-1.851-.222-3.931-1.728-5.658-5.535-6.321-.029-.176-.089-.373-.09-.57-.008-1.643-.004-3.286-.004-4.877l.272-.252c4.005-.981 5.317-2.64 5.367-6.892.031-2.724-.046-5.449.026-8.171.048-1.842.124-3.705.447-5.513.713-3.994 3.576-6.409 8.158-7.035 1.352-.184 2.721-.298 4.082-.317 3.182-.045 6.365-.013 9.757-.013zm12.912 35.418c-.473 3.954 2.53 7.577 6.691 8.366 3.941.745 7.74.056 11.675-1.191.315 1.853.658 3.645.882 5.452.034.276-.432.804-.763.908-5.77 1.834-11.592 2.44-17.383.184-3.568-1.39-6.152-3.976-7.527-7.606-2.181-5.763-2.206-11.567.363-17.213 3.755-8.252 13.11-10.401 20.11-7.093 4.231 1.998 6.275 5.717 7.002 10.178.414 2.551.379 5.178.562 8.016-7.433-.001-14.538-.001-21.612-.001zm13.989-5.568c.085-4.814-2.6-7.821-6.813-7.795-4.027.027-7.297 3.527-7.195 7.795h14.008zm54.438 31.739v-5.957l1.682-.119c3.166-.259 4.575-1.684 4.656-4.903.078-3.082.003-6.166.057-9.249.027-1.487.111-2.984.328-4.452.374-2.542 1.652-4.582 3.999-6.128-4.153-2.675-4.293-6.766-4.336-10.879-.029-2.826.029-5.654-.025-8.48-.074-3.839-1.472-5.241-5.262-5.409l-1.046-.076v-5.921c3.293.072 6.558.178 9.443 2.074 2.687 1.766 3.527 4.564 3.658 7.575.159 3.643.077 7.295.145 10.943.022 1.071.074 2.175.342 3.203.691 2.639 2.493 4.005 5.224 4.098v5.778c-2.616.117-4.488 1.382-5.193 4.023-.274 1.025-.35 2.127-.371 3.196-.071 3.596.003 7.197-.125 10.79-.201 5.701-3.16 8.878-8.752 9.536-1.437.171-2.887.236-4.425.358zm1.368-44.261l-1.351 5.97c-3.129-1.054-6.211-1.777-9.443-1.248-2.035.333-3.237 1.241-3.487 2.685-.276 1.569.475 2.956 2.346 3.896 1.58.793 3.257 1.384 4.885 2.083.976.419 1.957.835 2.905 1.315 4.565 2.31 6.145 5.275 5.622 10.492-.367 3.659-2.962 6.351-7.525 7.372-5.44 1.215-10.828.873-16.251-1.2l1.187-6.01c2.335.541 4.554 1.245 6.826 1.52 1.88.227 3.83.046 5.729-.145 1.249-.127 2.301-.776 2.611-2.205.317-1.467-.093-2.744-1.314-3.498-1.499-.927-3.139-1.627-4.728-2.399-1.91-.928-3.897-1.711-5.736-2.764-5.405-3.098-5.355-12.692.656-15.607 1.783-.863 3.801-1.384 5.768-1.668 3.811-.552 7.519.241 11.302 1.41zm-24.509-.271l-1.411 6.251c-3.135-1.083-6.174-1.766-9.36-1.269-2.133.332-3.331 1.248-3.585 2.772-.257 1.54.512 2.896 2.436 3.848 1.676.829 3.449 1.456 5.171 2.191.839.358 1.672.731 2.486 1.142 4.727 2.392 6.38 5.612 5.628 10.916-.519 3.655-3.658 6.465-8.285 7.203-4.697.748-9.361.627-13.949-.865-1.123-.367-1.596-.81-1.249-2.059.41-1.468.657-2.986.978-4.494 2.321.534 4.541 1.239 6.81 1.51 1.88.225 3.831.044 5.731-.147 1.332-.133 2.368-.891 2.653-2.364.274-1.42-.214-2.655-1.371-3.339-1.737-1.025-3.617-1.803-5.433-2.687-1.684-.817-3.425-1.532-5.038-2.471-5.411-3.149-5.326-12.672.773-15.75 2.713-1.369 5.588-1.882 8.536-1.644 2.787.224 5.546.806 8.479 1.256z" fill="#2A4F84" sketch:type="MSShapeGroup"/></g></svg>