<svg width="200" height="200" xmlns="http://www.w3.org/2000/svg" xmlns:sketch="http://www.bohemiancoding.com/sketch/ns"><title>Artboard 1</title><desc>Created with Sketch.</desc><defs><linearGradient x1="104.304%" y1="65.547%" x2="99.98%" y2="64.301%" id="a"><stop stop-color="#E3E2CE" offset="0%"/><stop stop-color="#CECEB5" offset="45.08%"/><stop stop-color="#95966F" offset="100%"/></linearGradient><linearGradient x1="50.124%" y1="97.369%" x2="50.098%" y2="80.155%" id="b"><stop stop-color="#198332" offset="0%"/><stop stop-color="#24933B" offset="100%"/></linearGradient><linearGradient x1="-3.562%" y1="73.365%" x2="28.101%" y2="65.451%" id="c"><stop stop-color="#0F9B36" offset="0%"/><stop stop-color="#64BB66" offset="100%"/></linearGradient></defs><g sketch:type="MSArtboardGroup" fill="none"><g sketch:type="MSShapeGroup" transform="matrix(1 0 0 -1 0 200)" fill="#1F1B1C"><polygon points="100 0 186.60254 50 186.60254 150 100 200 13.3974596 150 13.3974596 50"/><polygon points="100 0 195.105652 69.0983006 158.778525 180.901699 41.2214748 180.901699 4.89434837 69.0983006"/></g><g sketch:type="MSLayerGroup" transform="translate(72 33)"><g transform="translate(0 -.291)" sketch:type="MSShapeGroup"><path d="M27.562.292c-.35-.056.719 2.024-1.846 5.274-2.764 3.502-25.014 17.898-25.706 56.687-.472 26.424 20.403 44.872 25.709 48.311 0 0 1.957 6.794 2.021 14.812l3.507.914c-.419-8.243-.54-13.009 1.842-16.647 3.341-1.572 24.39-19.588 23.492-47.445-1.07-33.184-19.704-47.574-25.006-54.493-2.292-2.991-3.273-7.349-4.014-7.413z" fill="url(#a)"/><path d="M27.562.292c1.929 6.239 1.572 34.646 1.989 61.907.378 24.723-4.269 43.91 3.539 47.445 3.341-1.572 24.39-19.588 23.492-47.445-1.07-33.184-19.704-47.574-25.006-54.493-2.292-2.991-3.273-7.349-4.014-7.413z" fill="url(#b)"/><path d="M27.565.292c-.35-.056.713 2.025-1.852 5.275-2.764 3.502-25.013 17.897-25.706 56.686-.472 26.424 20.409 44.869 25.716 48.308 1.459-.67 2.158-7.556 2.793-15.535.048-8.458 1.229-19.875 1.031-32.823-.391-25.557-.1-52.129-1.652-60.49l-.01-.06-.32-1.361z" fill="url(#c)"/></g></g></g></svg>