<svg width="200" height="200" xmlns="http://www.w3.org/2000/svg" xmlns:sketch="http://www.bohemiancoding.com/sketch/ns"><title>Artboard 1</title><desc>Created with Sketch.</desc><g sketch:type="MSArtboardGroup" fill="none"><g sketch:type="MSShapeGroup" transform="matrix(1 0 0 -1 0 200)" fill="#1F1B1C"><polygon points="100 0 186.60254 50 186.60254 150 100 200 13.3974596 150 13.3974596 50"/><polygon points="100 0 195.105652 69.0983006 158.778525 180.901699 41.2214748 180.901699 4.89434837 69.0983006"/></g><g sketch:type="MSLayerGroup"><path d="M40.918 118.618h4.017v-15.894l6.219 13.856c.734 1.677 1.738 2.271 3.708 2.271 1.97 0 2.936-.593 3.67-2.271l6.219-13.856v15.894h4.017v-15.868c0-1.548-.618-2.297-1.893-2.683-3.052-.955-5.099-.129-6.026 1.935l-6.103 13.675-5.91-13.675c-.888-2.064-2.974-2.89-6.026-1.935-1.275.387-1.893 1.135-1.893 2.683v15.868z" id="Shape" fill="#00618A" sketch:type="MSShapeGroup"/><path d="M72.109 105.681h4.016v8.757c-.038.476.152 1.592 2.353 1.627 1.123.018 8.665 0 8.736 0v-10.426h4.025c.018 0-.004 14.219-.004 14.279.022 3.507-4.343 4.268-6.354 4.327h-12.685v-2.708c.022 0 12.675.003 12.707-.001 2.585-.274 2.28-1.561 2.28-1.995v-1.056h-8.538c-3.973-.037-6.502-1.774-6.534-3.772-.003-.185.086-8.945-.002-9.033z" id="Shape" fill="#00618A" sketch:type="MSShapeGroup"/><path d="M94.335 118.617h11.549c1.352 0 2.666-.284 3.708-.774 1.738-.8 2.588-1.883 2.588-3.303v-2.941c0-1.161-.966-2.245-2.859-2.967-1.004-.387-2.24-.594-3.438-.594h-4.867c-1.622 0-2.395-.49-2.588-1.574-.039-.129-.039-.233-.039-.361v-1.832c0-.103 0-.207.039-.336.193-.826.618-1.058 2.047-1.187l.386-.026h11.472v-2.683h-11.279c-1.622 0-2.472.103-3.245.335-2.395.748-3.438 1.935-3.438 4v2.348c0 1.806 2.047 3.354 5.485 3.715.387.026.773.051 1.159.051h4.172c.155 0 .309 0 .425.026 1.275.103 1.815.335 2.202.8.231.232.309.465.309.722v2.348c0 .284-.193.645-.579.955-.348.31-.927.516-1.7.568l-.425.026h-11.086v2.683z" id="Shape" fill="#E48E00" sketch:type="MSShapeGroup"/><path d="M137.241 113.947c0 2.761 2.047 4.309 6.18 4.619.386.026.773.051 1.159.051h10.468v-2.683h-10.545c-2.356 0-3.245-.594-3.245-2.013v-13.882h-4.017v13.907z" id="Shape" fill="#E48E00" sketch:type="MSShapeGroup"/><path d="M114.744 114.088v-9.567c0-2.43 1.703-3.904 5.071-4.37.348-.051.736-.077 1.084-.077h7.625c.387 0 .736.026 1.123.077 3.368.465 5.071 1.94 5.071 4.37v9.567c0 1.972-.723 3.027-2.39 3.715l3.957 3.579h-4.664l-3.201-2.895-3.223.205h-4.297c-.735 0-1.509-.104-2.361-.336-2.554-.698-3.793-2.043-3.793-4.266zm4.336-.233c0 .129.038.259.077.414.232 1.112 1.277 1.732 2.864 1.732h3.65l-3.352-3.032h4.664l2.924 2.645c.539-.288.893-.728 1.017-1.293.038-.129.038-.259.038-.388v-9.179c0-.103 0-.233-.038-.362-.232-1.034-1.278-1.629-2.826-1.629h-6.077c-1.78 0-2.941.776-2.941 1.991v9.101z" id="Shape" fill="#E48E00" sketch:type="MSShapeGroup"/><path d="M158.583 95.589c-2.469-.067-4.356.163-5.968.844-.458.194-1.189.199-1.264.774.252.265.291.659.491.985.385.624 1.035 1.461 1.615 1.9.634.479 1.287.992 1.966 1.407 1.208.738 2.558 1.16 3.721 1.9.686.436 1.367.985 2.036 1.477.331.243.553.622.983.774v-.07c-.226-.288-.284-.684-.491-.985l-.913-.915c-.892-1.187-2.026-2.229-3.23-3.095-.96-.691-3.11-1.624-3.511-2.744l-.07-.071c.681-.077 1.478-.324 2.107-.492 1.056-.284 1.999-.21 3.089-.492l1.475-.422v-.281c-.551-.567-.944-1.316-1.545-1.829-1.572-1.341-3.288-2.682-5.055-3.799-.98-.62-2.191-1.023-3.23-1.548-.349-.177-.963-.268-1.194-.563-.546-.697-.843-1.58-1.263-2.392-.882-1.701-1.747-3.558-2.528-5.347-.533-1.22-.881-2.423-1.545-3.518-3.188-5.252-6.62-8.422-11.937-11.538-1.131-.663-2.493-.924-3.932-1.266l-2.317-.141c-.471-.197-.962-.775-1.404-1.055-1.761-1.115-6.279-3.54-7.583-.352-.824 2.012 1.231 3.976 1.966 4.995.516.715 1.176 1.517 1.545 2.322.242.529.284 1.059.492 1.618.511 1.378.954 2.877 1.615 4.151.334.644.702 1.323 1.124 1.9.259.354.702.509.772 1.055-.434.608-.458 1.552-.702 2.322-1.097 3.467-.684 7.776.913 10.342.49.788 1.644 2.477 3.23 1.829 1.388-.566 1.078-2.321 1.475-3.87.09-.351.035-.609.211-.844v.07l1.264 2.532c.935 1.509 2.595 3.087 4.002 4.151.729.552 1.304 1.506 2.247 1.829v-.071h-.07c-.183-.286-.469-.404-.702-.633-.55-.54-1.161-1.211-1.615-1.829-1.279-1.74-2.41-3.646-3.44-5.628-.492-.947-.92-1.991-1.334-2.955-.16-.372-.158-.933-.491-1.126-.454.706-1.123 1.277-1.475 2.111-.562 1.333-.634 2.958-.842 4.643l-.141.07c-.978-.236-1.322-1.245-1.685-2.11-.919-2.189-1.09-5.713-.281-8.232.209-.652 1.155-2.705.772-3.307-.183-.601-.786-.948-1.123-1.407-.418-.568-.835-1.315-1.124-1.97-.752-1.706-1.104-3.622-1.896-5.347-.379-.825-1.019-1.659-1.545-2.392-.582-.812-1.234-1.41-1.685-2.392-.16-.349-.379-.908-.14-1.266.076-.242.182-.343.421-.422.407-.315 1.542.105 1.966.281 1.126.469 2.066.915 3.02 1.548.458.304.921.893 1.474 1.055h.632c.989.228 2.096.071 3.019.352 1.632.497 3.095 1.27 4.424 2.111 4.047 2.56 7.356 6.205 9.62 10.553.364.7.522 1.368.842 2.111.647 1.497 1.462 3.038 2.106 4.503.643 1.461 1.269 2.935 2.177 4.151.478.639 2.322.982 3.16 1.337.587.249 1.55.508 2.107.844 1.063.643 2.093 1.407 3.09 2.111.498.352 2.03 1.123 2.106 1.759z" id="Shape" fill="#00618A" sketch:type="MSShapeGroup"/><path d="M127.196 68.783c-.515-.009-.879.056-1.264.141v.07h.07c.246.506.679.831.983 1.267l.702 1.477.07-.07c.435-.307.634-.798.632-1.548-.174-.184-.2-.414-.351-.633-.201-.292-.589-.458-.842-.703z" id="Shape" fill="#00618A" sketch:type="MSShapeGroup"/><path d="M156.934 115.858c0 1.772 1.397 2.966 2.961 2.966 1.563 0 2.961-1.194 2.961-2.966 0-1.772-1.397-2.966-2.961-2.966-1.563 0-2.961 1.194-2.961 2.966zm5.258 0c0 1.345-1.026 2.349-2.297 2.349-1.287 0-2.297-1.005-2.297-2.349 0-1.345 1.011-2.349 2.297-2.349 1.271 0 2.297 1.005 2.297 2.349zm-1.5 1.693h.663l-.971-1.487c.521-.055.915-.309.915-.926 0-.688-.434-.973-1.271-.973h-1.319v3.385h.568v-1.463h.529l.884 1.463zm-1.413-1.938v-.973h.655c.34 0 .75.063.75.459 0 .474-.371.514-.797.514h-.608z" fill="#E48E00" sketch:type="MSShapeGroup"/></g></g></svg>