<svg width="200" height="200" xmlns="http://www.w3.org/2000/svg" xmlns:sketch="http://www.bohemiancoding.com/sketch/ns"><title>Artboard 1</title><desc>Created with Sketch.</desc><g sketch:type="MSArtboardGroup" fill="none"><g sketch:type="MSShapeGroup" transform="matrix(1 0 0 -1 0 200)" fill="#1F1B1C"><polygon points="100 0 186.60254 50 186.60254 150 100 200 13.3974596 150 13.3974596 50"/><polygon points="100 0 195.105652 69.0983006 158.778525 180.901699 41.2214748 180.901699 4.89434837 69.0983006"/></g><g sketch:type="MSLayerGroup" transform="translate(33 28)"><g transform="translate(29.795 16.109)" sketch:type="MSShapeGroup"><g transform="translate(9.595 74)"><ellipse id="Oval" fill="#8CB6C1" cx="22.085" cy="22.015" rx="22.085" ry="22.015"/><g transform="translate(1.515 1.51)"><ellipse id="Oval" fill="#C9FAA2" cx="20.666" cy="20.601" rx="20.666" ry="20.601"/><path d="M.587 21.475c0-11.377 9.252-20.601 20.666-20.601 5.702 0 10.865 2.302 14.604 6.024-3.785-4.222-9.286-6.882-15.413-6.882-11.414 0-20.666 9.224-20.666 20.601 0 5.692 2.316 10.844 6.061 14.572-3.265-3.642-5.251-8.446-5.251-13.715z" id="Shape" fill="#ADE871"/></g></g><g id="Shape"><path d="M92.814 42.186c0 14.589-11.866 26.424-26.502 26.424-14.637 0-26.502-11.834-26.502-26.424s11.864-26.418 26.502-26.418c14.636 0 26.502 11.828 26.502 26.418z" fill="#8CB6C1"/><path d="M131.007 57.792c0 13.652-11.104 24.726-24.8 24.726-13.696 0-24.8-11.073-24.8-24.726 0-13.652 11.103-24.72 24.8-24.72 13.696 0 24.8 11.068 24.8 24.72z" fill="#C9FAA2"/><path d="M82.379 58.822c0-13.653 11.103-24.721 24.8-24.721 6.841 0 13.036 2.763 17.523 7.229-4.542-5.066-11.143-8.258-18.495-8.258-13.696 0-24.8 11.068-24.8 24.72 0 6.831 2.78 13.014 7.273 17.492-3.917-4.376-6.301-10.141-6.301-16.462z" fill="#ADE871"/></g><ellipse id="Oval" fill="#8CB6C1" cx="15.46" cy="15.411" rx="15.46" ry="15.411"/><g transform="translate(1.01 1.007)"><ellipse id="Oval" fill="#C9FAA2" cx="14.466" cy="14.42" rx="14.466" ry="14.42"/><path d="M.446 15.021c0-7.964 6.476-14.42 14.466-14.42 3.992 0 7.605 1.612 10.222 4.217-2.649-2.955-6.5-4.818-10.788-4.818-7.99 0-14.466 6.457-14.466 14.42 0 3.984 1.622 7.591 4.241 10.201-2.285-2.55-3.675-5.912-3.675-9.6z" id="Shape" fill="#ADE871"/></g><path d="M15.988 61.238c0 2.145-1.744 3.883-3.896 3.883-2.151 0-3.895-1.738-3.895-3.883s1.744-3.887 3.895-3.887c2.152 0 3.896 1.743 3.896 3.887z" fill="#fff"/><ellipse id="Oval" fill="#fff" cx="17.531" cy="71.339" rx="3.896" ry="3.883"/><ellipse id="Oval" fill="#fff" cx="9.956" cy="48.686" rx="3.896" ry="3.883"/><ellipse id="Oval" fill="#fff" cx="9.451" cy="37.611" rx="3.896" ry="3.883"/><ellipse id="Oval" fill="#fff" cx="38.236" cy="10.931" rx="3.896" ry="3.883"/><ellipse id="Oval" fill="#fff" cx="48.336" cy="14.455" rx="3.896" ry="3.883"/><ellipse id="Oval" fill="#fff" cx="59.951" cy="84.931" rx="3.896" ry="3.883"/><ellipse fill="#fff" cx="67.02" cy="76.876" rx="3.895" ry="3.883"/></g><rect sketch:type="MSShapeGroup" x="127.26" y="34.231" width="468.667" height="95.443"/></g></g></svg>