<svg width="200" height="200" xmlns="http://www.w3.org/2000/svg" xmlns:sketch="http://www.bohemiancoding.com/sketch/ns"><title>Artboard 1</title><desc>Created with Sketch.</desc><g sketch:type="MSArtboardGroup" fill="none"><g sketch:type="MSShapeGroup" transform="matrix(1 0 0 -1 0 200)" fill="#1F1B1C"><polygon points="100 0 186.60254 50 186.60254 150 100 200 13.3974596 150 13.3974596 50"/><polygon points="100 0 195.105652 69.0983006 158.778525 180.901699 41.2214748 180.901699 4.89434837 69.0983006"/></g><g sketch:type="MSShapeGroup" transform="translate(38 79)"><path d="M65.668 0c-.09.001-.181.023-.262.07-.16.094-.262.267-.262.454v13.349c0 .131-.061.248-.174.314-.114.066-.252.066-.366 0l-2.18-1.256c-.325-.187-.721-.187-1.046 0l-8.701 5.026c-.325.188-.523.549-.523.925v10.051c0 .375.198.719.523.907l8.701 5.026c.325.188.721.188 1.046 0l8.701-5.026c.325-.188.523-.532.523-.907v-25.058c0-.381-.208-.739-.541-.925l-5.179-2.897c-.081-.045-.171-.053-.262-.052zm-55.973 12.546c-.166.007-.322.036-.471.122l-8.701 5.026c-.324.188-.523.529-.523.907l.017 13.489c0 .188.097.362.262.454.162.097.362.097.523 0l5.161-2.967c.327-.194.541-.532.541-.907v-6.299c0-.376.198-.721.523-.907l2.197-1.274c.164-.095.34-.14.523-.14.179 0 .364.045.523.14l2.197 1.274c.326.187.523.532.523.907v6.299c0 .375.216.715.541.907l5.161 2.967c.162.097.362.097.523 0 .16-.092.262-.266.262-.454l.017-13.489c0-.378-.197-.72-.523-.907l-8.701-5.026c-.147-.086-.304-.115-.471-.122h-.105zm78.188.122c-.182 0-.36.046-.523.14l-8.701 5.026c-.325.188-.523.532-.523.907v10.051c0 .378.213.721.541.907l8.631 4.921c.319.182.708.196 1.029.017l5.231-2.914c.166-.092.278-.264.279-.454.001-.19-.098-.359-.262-.454l-8.753-5.026c-.164-.094-.279-.283-.279-.471v-3.141c0-.188.116-.36.279-.454l2.72-1.571c.162-.094.361-.094.523 0l2.72 1.571c.163.094.262.266.262.454v2.478c0 .188.099.36.262.454.163.094.361.094.523 0l5.214-3.036c.324-.188.523-.533.523-.907v-2.426c0-.375-.199-.719-.523-.907l-8.649-5.026c-.163-.094-.341-.139-.523-.14zm-26.016 7.503l.139.035 2.982 1.728c.081.047.139.133.139.227v3.455c0 .094-.058.18-.139.227l-2.982 1.727c-.081.046-.18.046-.262 0l-2.982-1.727c-.081-.047-.139-.133-.139-.227v-3.455c0-.094.059-.18.139-.227l2.982-1.727.122-.035z" fill="#404137"/><path d="M113.951 12.424c-.302 0-.595.062-.854.209l-8.213 4.746c-.531.306-.854.885-.854 1.501v9.475c0 .615.323 1.193.854 1.501l2.145 1.239c1.042.514 1.426.506 1.901.506 1.543 0 2.424-.937 2.424-2.565v-9.353c0-.132-.114-.227-.244-.227h-1.029c-.132 0-.244.095-.244.227v9.353c0 .722-.751 1.448-1.97.838l-2.232-1.309c-.079-.043-.139-.119-.139-.209v-9.475c0-.09.06-.181.139-.227l8.195-4.729c.077-.044.168-.044.244 0l8.195 4.729c.078.047.139.134.139.227v9.475c0 .091-.045.183-.122.227l-8.213 4.729c-.07.042-.167.042-.244 0l-2.11-1.256c-.063-.037-.149-.034-.209 0-.582.33-.692.369-1.238.558-.135.047-.339.12.07.349l2.755 1.623c.262.152.554.227.854.227.304 0 .592-.075.854-.227l8.213-4.729c.531-.309.854-.885.854-1.501v-9.475c0-.616-.323-1.193-.854-1.501l-8.213-4.746c-.257-.147-.553-.209-.854-.209zm-78.118.192c-.181 0-.361.046-.523.14l-8.701 5.008c-.325.188-.523.549-.523.925v10.051c0 .376.198.719.523.907l8.701 5.026c.325.188.721.188 1.046 0l8.701-5.026c.325-.188.523-.532.523-.907v-10.051c0-.376-.198-.737-.523-.925l-8.701-5.008c-.162-.094-.342-.14-.523-.14zm90.306.052v.244h.68v1.797h.279v-1.797h.697v-.244h-1.657zm1.901 0v2.042h.262v-1.727l.575 1.727h.279l.593-1.727-.017.314v1.413h.262v-2.042h-.384l-.593 1.728-.575-1.728h-.401zm-11.892 6.526c-2.339 0-3.732.996-3.732 2.652 0 1.797 1.382 2.291 3.627 2.513 2.685.263 2.895.658 2.895 1.187 0 .917-.731 1.309-2.459 1.309-2.171 0-2.648-.542-2.807-1.623-.019-.116-.108-.209-.227-.209h-1.064c-.131 0-.244.113-.244.244 0 1.383.752 3.019 4.342 3.019 2.599 0 4.098-1.021 4.098-2.809 0-1.773-1.211-2.249-3.732-2.583-2.547-.337-2.79-.502-2.79-1.099 0-.493.206-1.152 2.092-1.152 1.685 0 2.308.364 2.563 1.501.022.107.116.192.227.192h1.064c.066 0 .129-.04.174-.087.045-.05.076-.107.07-.174-.165-1.958-1.47-2.879-4.098-2.879zm-28.283 2.391l-.105.017-1.674.977c-.063.036-.105.102-.105.174v1.919c0 .072.042.138.105.174l1.674.96c.063.036.13.036.192 0l1.674-.96c.062-.036.105-.102.105-.174v-1.919c0-.072-.043-.139-.105-.174l-1.674-.977-.087-.017z" fill="#83CD29"/></g></g></svg>