<svg width="200" height="200" xmlns="http://www.w3.org/2000/svg" xmlns:sketch="http://www.bohemiancoding.com/sketch/ns"><title>Artboard 1</title><desc>Created with Sketch.</desc><g sketch:type="MSArtboardGroup" fill="none"><g sketch:type="MSShapeGroup" transform="matrix(1 0 0 -1 0 200)" fill="#1F1B1C"><polygon points="100 0 186.60254 50 186.60254 150 100 200 13.3974596 150 13.3974596 50"/><polygon points="100 0 195.105652 69.0983006 158.778525 180.901699 41.2214748 180.901699 4.89434837 69.0983006"/></g><path d="M35 75h130v43.938h-65v7.062h-28.86v-7.062h-36.14v-43.938zm7.359 36.483h14.36v-21.952h7.22v21.952h7.155v-29.031h-28.735v29.031zm35.888-29.16l.087 36.615h14.3v-7.305h14.477v-29.31h-28.863zm14.213 7.062h7.54v14.908h-7.54v-14.908zm21.927-7.062v29.031h14.386v-21.795h7.193v21.795h7.186v-21.708h7.201v21.708h7.195v-29.031h-43.161z" sketch:type="MSShapeGroup" fill="#CD3632"/></g></svg>