<svg width="200" height="200" xmlns="http://www.w3.org/2000/svg" xmlns:sketch="http://www.bohemiancoding.com/sketch/ns"><title>Artboard 1</title><desc>Created with Sketch.</desc><defs><linearGradient x1="0%" y1="50%" y2="50%" id="a"><stop stop-color="#E4E4E4" offset="0%"/><stop stop-color="#B3B1B3" offset="100%"/></linearGradient><linearGradient x1="0%" y1="50%" y2="50%" id="b"><stop stop-color="#fff" offset="0%"/><stop stop-color="#CDCBCA" offset="100%"/></linearGradient><linearGradient x1="-18.73%" y1="90.526%" x2="59.545%" y2="30.131%" id="c"><stop stop-color="#969796" offset="0%"/><stop stop-color="#59595C" offset="100%"/></linearGradient><linearGradient x1="-18.746%" y1="90.517%" x2="59.559%" y2="30.121%" id="d"><stop stop-color="#969796" offset="0%"/><stop stop-color="#59595C" offset="100%"/></linearGradient><linearGradient x1="-18.733%" y1="90.522%" x2="59.56%" y2="30.126%" id="e"><stop stop-color="#969796" offset="0%"/><stop stop-color="#59595C" offset="100%"/></linearGradient><linearGradient x1="12.273%" y1="26.128%" x2="87.73%" y2="73.874%" id="f"><stop stop-color="#CDCAC8" offset="35.58%"/><stop stop-color="#969796" offset="100%"/></linearGradient><linearGradient x1="0%" y1="50%" y2="50%" id="g"><stop stop-color="#fff" offset="0%"/><stop stop-color="#E4E4E4" offset="100%"/></linearGradient></defs><g sketch:type="MSArtboardGroup" fill="none"><g sketch:type="MSShapeGroup" transform="matrix(1 0 0 -1 0 200)" fill="#1F1B1C"><polygon points="100 0 186.60254 50 186.60254 150 100 200 13.3974596 150 13.3974596 50"/><polygon points="100 0 195.105652 69.0983006 158.778525 180.901699 41.2214748 180.901699 4.89434837 69.0983006"/></g><g sketch:type="MSLayerGroup"><path d="M99.776 111.957l-54.754 27.123 56.378 27.123 54.561-27.123-56.185-27.123z" id="Shape" opacity=".1" sketch:type="MSShapeGroup"/><path d="M47.578 77.937l53.362-27.172 53.405 26.224-53.365 27.22-53.402-26.272z" id="Shape" fill="url(#a)" sketch:type="MSShapeGroup"/><path d="M128.618 54.743l-8.131 4.041v-2.426l-8.127-9.698-8.129 4.041v-2.423l-8.129-9.698-30.885 15.354v55.763l32.509 16.162 39.019-19.395v-42.023l-8.127-9.698z" id="Shape" fill="url(#b)" sketch:type="MSShapeGroup"/><path d="M96.101 38.58l8.129 11.315-9.753 4.847 1.624-16.163z" id="Shape" opacity=".1" fill="#343433" sketch:type="MSShapeGroup"/><path d="M96.101 38.58l8.129 9.698-8.129 3.233v-12.931z" id="Shape" fill="url(#c)" sketch:type="MSShapeGroup"/><path d="M112.359 46.66l8.127 11.315-9.751 4.851 1.624-16.166z" id="Shape" opacity=".1" fill="#343433" sketch:type="MSShapeGroup"/><path d="M112.359 46.66l8.127 9.698-8.127 3.235v-12.933z" id="Shape" fill="url(#d)" sketch:type="MSShapeGroup"/><path d="M128.618 54.743l8.127 11.312-9.757 4.851 1.631-16.163z" id="Shape" opacity=".1" fill="#343433" sketch:type="MSShapeGroup"/><path d="M128.618 54.743l8.127 9.698-8.127 3.233v-12.93z" id="Shape" fill="url(#e)" sketch:type="MSShapeGroup"/><path d="M153.046 77.723v45.213l-52.066 25.878v-45.211l52.066-25.881z" id="Shape" fill="url(#f)" sketch:type="MSShapeGroup"/><path d="M48.915 77.717v45.214l52.062 25.884v-45.217l-52.062-25.88z" id="Shape" fill="url(#g)" sketch:type="MSShapeGroup"/><path d="M135.642 92.273c.145-.07 2.908-1.406 2.918 2.151l.087 26.691c.011 3.56-2.752 4.897-2.896 4.966l-11.624 5.625c-.145.07-2.908 1.406-2.919-2.154-.011-3.557-.082-25.533-.086-26.69-.012-3.558 2.751-4.894 2.896-4.965l11.624-5.624zm1.54 25.987l-.062-19.573c-.006-1.78-1.387-1.112-1.46-1.077l-11.624 5.624c-.074.035-1.454.704-1.449 2.484.003.8.052 16.013.063 19.573.006 1.781 1.386 1.112 1.46 1.077l11.624-5.624c.072-.035 1.454-.704 1.448-2.484z" id="Shape" fill="#343434" sketch:type="MSShapeGroup"/><path d="M154.173 74.663l-14.832-7.097v-3.125c0-.604-.213-1.188-.601-1.652l-8.127-9.698c-.762-.909-2.09-1.186-3.156-.656l-4.862 2.416c-.036-.05-8.241-9.843-8.241-9.843-.762-.909-2.091-1.187-3.157-.656l-4.862 2.417c-.034-.049-8.24-9.84-8.24-9.84-.761-.91-2.091-1.187-3.156-.656l-30.884 15.353c-.88.437-1.435 1.331-1.435 2.308v14.285l-14.905 7.409c-.88.437-1.435 1.331-1.435 2.308v45.209c0 .991.572 1.895 1.47 2.325l52.103 24.934c.718.344 1.575.337 2.288-.017l52.065-25.879c.88-.437 1.436-1.331 1.436-2.307v-45.213c0-.991-.572-1.895-1.47-2.325zm-18.232-10.424l-6.837 2.72v-10.878l6.837 8.159zm-23.095-16.242l6.838 8.159-6.838 2.722v-10.881zm-.974-.554v12.15c0 .337.353.574.668.449l7.459-2.97v1.412l-22.492 11.178c-.165.082-.269.249-.269.433v2.719l-3.511 1.705-.803 4.919 4.313-2.094v2.926l-4.835 2.347-.794 4.917 5.629-2.733v6.494l-2.879.07.393-2.431-3.634 1.764-.957 5.901 7.077-.165v4.762l-15.283-7.597v-31.285l29.917-14.873zm-15.285-7.526l6.839 8.159-6.839 2.72v-10.879zm-30.885 14.316l29.911-14.87v12.148c0 .336.353.574.668.449l7.461-2.968v1.41l-22.492 11.182c-.165.082-.269.249-.269.433v3.647l-2.094 1.061.058 16.097c.005 1.281-.25 2.685-1.301 3.542-.528.431-1.303.905-2.008.639-.589-.222-.911-.842-1.215-1.349l-2.397 3.01-6.323-3.143v-31.289zm15.279 33.275v5.608l-4.104-2.04c1.666-.785 3.098-2.032 4.104-3.568zm-18.362-16.404v12.884l-12.959-6.442 12.959-6.442zm37.87 76.741l-9.983-4.778-41.105-20.436v-44.132l51.088 25.396v43.949zm.495-44.785l-2.773-1.378v-31.286l29.919-14.869v12.147c0 .337.353.574.668.449l7.459-2.967v20.371l-8.644 4.297 2.072-19.08-20.735 9.195.654 18.836-8.619 4.284zm14.438-14.459l9.46-4.197-.779 7.164-2.621 1.303.439-4.03-8.996 3.99-.323-9.304 13.001-5.765-.365 3.285-9.923 4.402.109 3.152zm.239 7.164l-2.591 1.288-.093-2.683 2.605-1.155.079 2.549zm36.896 26.679l-51.092 25.395v-43.935l51.092-25.397v43.937zm-13.218-38.449v-13.564l13.705 6.558-13.705 7.006z" fill="#343433" sketch:type="MSShapeGroup"/></g></g></svg>