<svg width="200" height="200" xmlns="http://www.w3.org/2000/svg" xmlns:sketch="http://www.bohemiancoding.com/sketch/ns"><title>Artboard 1</title><desc>Created with Sketch.</desc><g sketch:type="MSArtboardGroup" fill="none"><g sketch:type="MSShapeGroup" transform="matrix(1 0 0 -1 0 200)" fill="#1F1B1C"><polygon points="100 0 186.60254 50 186.60254 150 100 200 13.3974596 150 13.3974596 50"/><polygon points="100 0 195.105652 69.0983006 158.778525 180.901699 41.2214748 180.901699 4.89434837 69.0983006"/></g><g transform="translate(51.096 51.089) translate(-.237 .073)" sketch:type="MSShapeGroup"><rect fill="#9CD0FF" width="98.091" height="98.091"/><path d="M6.9 49.378v-41.901h41.892c39.13 0 41.895.013 41.929.19.02.104.024 18.96.008 41.901l-.029 41.711h-83.8v-41.901zm57.677 24.028c2.954-.225 5.548-.932 7.398-2.016 2.283-1.339 4.376-4.11 4.881-6.462.347-1.617.156-4.031-.467-5.901-.397-1.191-.955-2-2.227-3.226-1.705-1.643-2.603-2.157-6.417-3.669-4.154-1.646-5.256-2.415-5.524-3.854-.235-1.256.296-2.488 1.343-3.115.857-.514 1.217-.601 2.768-.67 2.101-.093 4.075.328 6.216 1.326 1.059.494 1.373.547 1.462.25.291-.968 1.652-5.985 1.652-6.088 0-.367-3.331-1.45-5.754-1.871-2.8-.486-6.476-.263-8.814.535-3.09 1.055-5.801 3.358-6.813 5.788-1.254 3.012-.975 6.559.714 9.088 1.449 2.17 3.695 3.603 8.396 5.356 2.937 1.096 4.235 2.004 4.619 3.235.621 1.988-.197 3.657-2.159 4.402-.557.212-.866.246-2.154.237-3.164-.021-5.443-.535-8.138-1.834-1.092-.526-1.304-.489-1.503.266l-.392 1.44c-.415 1.498-1.073 4.156-1.073 4.334 0 .089.317.299.707.469 2.504 1.094 5.264 1.802 7.719 1.98 1.711.124 1.916.124 3.562-.001zm-35.01-.74c.158-.158.178-1.102.178-8.681v-8.504l3.025-.008c3.091-.008 4.338-.105 6.531-.509 2.175-.401 3.391-.806 5.259-1.753 2.399-1.216 3.847-2.378 5.159-4.142 3.301-4.436 3.838-10.749 1.349-15.864-2.94-6.042-9.596-8.52-21.096-7.855-3.631.21-8.58.804-9.019 1.083l-.254.162v22.989c0 17.73.031 23.02.136 23.125.101.101 1.222.136 4.346.136 3.677 0 4.233-.023 4.388-.178zm1.931-24.431c-.311-.024-.833-.073-1.159-.109l-.594-.066v-15.448l.424-.068c1.275-.203 3.58-.292 4.893-.187 3.248.258 5.252 1.031 6.738 2.601.68.719 1.089 1.436 1.421 2.496.362 1.157.362 3.767-.001 5.117-.799 2.974-3.086 4.788-6.864 5.447-1.005.175-3.785.3-4.858.217z" fill="#2B3773"/></g></g></svg>