<svg width="200" height="200" xmlns="http://www.w3.org/2000/svg" xmlns:sketch="http://www.bohemiancoding.com/sketch/ns"><title>Artboard 1</title><desc>Created with Sketch.</desc><defs><radialGradient cx="25.527%" cy="4.621%" fx="25.527%" fy="4.621%" id="a"><stop stop-color="#DDDCE9" offset="0%"/><stop stop-color="#5664A3" offset="37%"/><stop offset="100%"/></radialGradient></defs><g sketch:type="MSArtboardGroup" fill="none"><g sketch:type="MSShapeGroup" transform="matrix(1 0 0 -1 0 200)" fill="#1F1B1C"><polygon points="100 0 186.60254 50 186.60254 150 100 200 13.3974596 150 13.3974596 50"/><polygon points="100 0 195.105652 69.0983006 158.778525 180.901699 41.2214748 180.901699 4.89434837 69.0983006"/></g><g sketch:type="MSLayerGroup" transform="translate(35 66)"><ellipse stroke="url(#a)" stroke-width="2.449" fill="#6C7EB7" sketch:type="MSShapeGroup" cx="65" cy="33.836" rx="65" ry="33.836"/><path d="M18.253 53.87l7.123-36.062h16.473c7.123.445 10.685 4.007 10.685 10.24 0 10.685-8.459 16.918-16.027 16.473h-8.014l-1.781 9.349h-8.459zm12.021-16.027l2.226-13.356h5.788c3.116 0 5.342 1.336 5.342 4.007-.445 7.568-4.007 8.904-8.014 9.349h-5.342z" id="p" stroke="#fff" stroke-width=".89" sketch:type="MSShapeGroup"/><path d="M49.863 44.521l7.123-36.062h8.459l-1.781 9.349h8.014c7.123.445 9.795 4.007 8.904 8.459l-3.116 18.253h-8.904l3.116-16.473c.445-2.226.445-3.562-2.671-3.562h-6.678l-4.007 20.034h-8.459z" stroke="#fff" stroke-width=".89" sketch:type="MSShapeGroup"/><path d="M0 36.062l7.123-36.062h16.473c7.123.445 10.685 4.007 10.685 10.24 0 10.685-8.459 16.918-16.027 16.473h-8.014l-1.781 9.349h-8.459zm12.021-16.027l2.226-13.356h5.788c3.116 0 5.342 1.336 5.342 4.007-.445 7.568-4.007 8.904-8.014 9.349h-5.342z" transform="translate(77.911 17.808)" stroke="#fff" stroke-width=".89" sketch:type="MSShapeGroup"/></g></g></svg>