<svg width="200" height="200" xmlns="http://www.w3.org/2000/svg" xmlns:sketch="http://www.bohemiancoding.com/sketch/ns"><title>Artboard 1</title><desc>Created with Sketch.</desc><g sketch:type="MSArtboardGroup" fill="none"><g sketch:type="MSShapeGroup" transform="matrix(1 0 0 -1 0 200)" fill="#1F1B1C"><polygon points="100 0 186.60254 50 186.60254 150 100 200 13.3974596 150 13.3974596 50"/><polygon points="100 0 195.105652 69.0983006 158.778525 180.901699 41.2214748 180.901699 4.89434837 69.0983006"/></g><g sketch:type="MSLayerGroup"><g sketch:type="MSShapeGroup"><path d="M83.156 83.879c.773-6.435.541-7.378 5.337-6.336l1.217.107c3.687.168 8.511-.593 11.345-1.909 6.1-2.829 9.717-7.552 3.702-6.311-13.721 2.829-14.664-1.814-14.664-1.814 14.488-21.485 20.545-48.759 15.317-55.435-14.259-18.21-38.941-9.599-39.354-9.375l-.131.024c-2.711-.562-5.745-.898-9.153-.953-6.209-.102-10.92 1.627-14.494 4.336 0 0-44.031-18.13-41.982 22.801.436 8.707 12.488 65.886 26.862 48.615 5.254-6.315 10.331-11.655 10.331-11.655 2.521 1.674 5.54 2.528 8.705 2.221l.245-.209c-.077.784-.043 1.551.098 2.459-3.702 4.135-2.614 4.861-10.018 6.384-7.49 1.543-3.09 4.29-.217 5.008 3.483.871 11.54 2.104 16.986-5.514l-.217.869c1.453 1.161 1.354 8.348 1.56 13.483.206 5.135.55 9.927 1.597 12.752 1.047 2.825 2.283 10.102 12.013 8.017 8.132-1.742 14.349-4.248 14.915-27.566" id="Shape" stroke="#000" stroke-width="8" transform="translate(43.826 49.463)"/><path d="M148.585 118.893c-13.722 2.829-14.665-1.814-14.665-1.814 14.488-21.487 20.545-48.761 15.318-55.436-14.259-18.209-38.942-9.597-39.354-9.374l-.133.024c-2.711-.562-5.745-.898-9.155-.953-6.209-.102-10.919 1.627-14.493 4.336 0 0-44.032-18.13-41.984 22.801.436 8.708 12.487 65.887 26.862 48.616 5.254-6.315 10.33-11.655 10.33-11.655 2.521 1.674 5.54 2.528 8.704 2.221l.246-.209c-.076.784-.041 1.551.098 2.459-3.703 4.135-2.615 4.861-10.018 6.384-7.491 1.543-3.09 4.29-.217 5.008 3.483.871 11.541 2.104 16.986-5.514l-.217.869c1.451 1.161 2.47 7.555 2.299 13.351-.171 5.796-.285 9.775.858 12.884 1.143 3.108 2.283 10.102 12.014 8.017 8.132-1.742 12.345-6.255 12.932-13.784.416-5.352 1.357-4.561 1.417-9.346l.755-2.265c.871-7.255.138-9.596 5.148-8.507l1.217.107c3.687.168 8.513-.593 11.346-1.909 6.099-2.829 9.716-7.552 3.703-6.311h.001z" id="Shape" fill="#336791"/><path d="M53.875 73.589c-.378 13.5.095 27.095 1.417 30.399 1.322 3.304 4.153 9.73 13.885 7.646 8.131-1.742 11.089-5.114 12.373-12.556.945-5.475 2.768-20.681 3.002-23.797" id="Shape" stroke="#fff" stroke-width="3" transform="translate(43.826 49.463)"/><path d="M42.21 5.911s-44.062-17.999-42.013 22.932c.436 8.708 12.488 65.889 26.863 48.617 5.253-6.316 10.004-11.27 10.004-11.27" id="Shape" stroke="#fff" stroke-width="3" transform="translate(43.826 49.463)"/><path d="M66.009 2.625c-1.525.478 24.51-9.512 39.306 9.384 5.226 6.675-.83 33.95-15.318 55.437" id="Shape" stroke="#fff" stroke-width="3" transform="translate(43.826 49.463)"/><path d="M89.997 67.446s.944 4.645 14.666 1.814c6.012-1.241 2.394 3.483-3.704 6.313-5.004 2.321-16.224 2.916-16.407-.291-.472-8.276 5.905-5.762 5.445-7.836-.416-1.868-3.268-3.701-5.154-8.272-1.647-3.99-22.586-34.585 5.807-30.041 1.04-.215-7.405-26.992-33.977-27.428-26.566-.435-25.694 32.653-25.694 32.653" id="Shape" stroke="#fff" stroke-width="3" transform="translate(43.826 49.463)"/><path d="M46.438 70.276c-3.704 4.135-2.614 4.861-10.018 6.385-7.491 1.543-3.09 4.29-.217 5.007 3.483.871 11.541 2.104 16.986-5.515 1.658-2.32-.01-6.022-2.287-6.965-1.1-.456-2.572-1.027-4.463 1.089z" id="Shape" stroke="#fff" stroke-width="3" transform="translate(43.826 49.463)"/><path d="M46.196 70.204c-.373-2.431.799-5.324 2.056-8.709 1.888-5.078 6.245-10.157 2.76-26.266-2.598-12.004-20.022-2.498-20.033-.871-.011 1.627.788 8.25-.291 15.963-1.408 10.064 6.407 18.576 15.407 17.705" id="Shape" stroke="#fff" stroke-width="3" transform="translate(43.826 49.463)"/><path d="M42.05 34.114c-.079.556 1.018 2.039 2.449 2.238 1.428.199 2.65-.96 2.727-1.516.077-.556-1.018-1.168-2.449-1.367-1.429-.199-2.651.091-2.727.645z" id="Shape" stroke="#fff" stroke-width="3" fill="#fff" transform="translate(43.826 49.463)"/><path d="M85.539 32.981c.077.556-1.018 2.039-2.449 2.238-1.429.199-2.651-.96-2.729-1.516-.076-.556 1.02-1.168 2.449-1.367 1.429-.199 2.651.091 2.728.646z" id="Shape" stroke="#fff" stroke-width="3" fill="#fff" transform="translate(43.826 49.463)"/><path d="M90.65 29.133c.235 4.361-.94 7.331-1.088 11.973-.219 6.747 3.219 14.47-1.962 22.203" stroke="#fff" stroke-width="3" transform="translate(43.826 49.463)"/></g></g></g></svg>