<svg width="200" height="200" xmlns="http://www.w3.org/2000/svg" xmlns:sketch="http://www.bohemiancoding.com/sketch/ns"><title>Artboard 1</title><desc>Created with Sketch.</desc><defs><linearGradient x1="194.008%" y1="155.543%" x2="268.529%" y2="219.653%" id="a"><stop stop-color="#5A9FD4" offset="0%"/><stop stop-color="#306998" offset="100%"/></linearGradient><linearGradient x1="243.614%" y1="236.635%" x2="217.057%" y2="199.274%" id="b"><stop stop-color="#FFD43B" offset="0%"/><stop stop-color="#FFE873" offset="100%"/></linearGradient><radialGradient cx="272.172%" cy="977.529%" fx="272.172%" fy="977.529%" r="23.376%" id="c"><stop stop-color="#525252" stop-opacity=".498" offset="0%"/><stop stop-color="#666" stop-opacity="0" offset="100%"/></radialGradient></defs><g sketch:type="MSArtboardGroup" fill="none"><g sketch:type="MSShapeGroup" transform="matrix(1 0 0 -1 0 200)" fill="#1F1B1C"><polygon points="100 0 186.60254 50 186.60254 150 100 200 13.3974596 150 13.3974596 50"/><polygon points="100 0 195.105652 69.0983006 158.778525 180.901699 41.2214748 180.901699 4.89434837 69.0983006"/></g><g sketch:type="MSShapeGroup" transform="translate(39 41)"><path d="M59.331.001c-4.952.023-9.681.446-13.842 1.185-12.258 2.171-14.483 6.715-14.483 15.096v11.068h28.967v3.689h-39.838c-8.418 0-15.79 5.073-18.096 14.724-2.66 11.062-2.778 17.965 0 29.515 2.059 8.598 6.976 14.724 15.395 14.724h9.959v-13.268c0-9.586 8.272-18.041 18.096-18.041h28.933c8.054 0 14.483-6.648 14.483-14.758v-27.653c0-7.87-6.622-13.782-14.483-15.096-4.976-.83-10.139-1.208-15.091-1.185zm-15.665 8.902c2.992 0 5.435 2.49 5.435 5.551 0 3.05-2.443 5.517-5.435 5.517-3.003 0-5.435-2.467-5.435-5.517 0-3.061 2.433-5.551 5.435-5.551z" fill="url(#a)"/><path d="M92.518 31.039v12.896c0 9.998-8.455 18.413-18.096 18.413h-28.933c-7.925 0-14.483 6.8-14.483 14.758v27.653c0 7.87 6.826 12.5 14.483 14.758 9.169 2.703 17.962 3.192 28.933 0 7.292-2.117 14.483-6.377 14.483-14.758v-11.068h-28.933v-3.689h43.416c8.419 0 11.556-5.887 14.483-14.724 3.024-9.097 2.896-17.845 0-29.515-2.08-8.402-6.054-14.724-14.483-14.724h-10.871zm-16.273 70.031c3.003 0 5.435 2.467 5.435 5.517 0 3.061-2.433 5.551-5.435 5.551-2.992 0-5.435-2.49-5.435-5.551 0-3.05 2.443-5.517 5.435-5.517z" fill="url(#b)"/><path d="M99.119 138.315c0 4.168-17.379 7.546-38.818 7.546-21.438 0-38.818-3.379-38.818-7.546 0-4.168 17.379-7.546 38.818-7.546 21.438 0 38.818 3.379 38.818 7.546z" opacity=".444" fill="url(#c)"/></g></g></svg>