<svg width="200" height="200" xmlns="http://www.w3.org/2000/svg" xmlns:sketch="http://www.bohemiancoding.com/sketch/ns"><title>Artboard 1</title><desc>Created with Sketch.</desc><g sketch:type="MSArtboardGroup" fill="none"><g sketch:type="MSShapeGroup" transform="matrix(1 0 0 -1 0 200)" fill="#1F1B1C"><polygon points="100 0 186.60254 50 186.60254 150 100 200 13.3974596 150 13.3974596 50"/><polygon points="100 0 195.105652 69.0983006 158.778525 180.901699 41.2214748 180.901699 4.89434837 69.0983006"/></g><g transform="translate(56.055 44.898)" sketch:type="MSShapeGroup"><g><path d="M10.478.102c-5.135-.023-10.584 5.093-10.533 10.479v99.521h75.457c5.135.023 10.584-5.104 10.533-10.49v-99.511h-75.457zm2.14 1.969h71.105v94.99000000000001c.048 5.141-5.094 10.032-9.933 10.01h-71.105v-94.99000000000001c-.048-5.141 5.094-10.033 9.933-10.01z"/><path d="M12.608 2.018c-4.839-.022-9.992 4.869-9.944 10.01v52.657000000000004l8.838-15.052-8.269-20.667 17.402-26.896-8.026-.052zm-9.944 65.625l.016 39.432h17.699l-17.714-39.434v.001zm81.058.448l-15.865 38.979h5.93c4.839.022 9.982-4.869 9.933-10.01l.002-28.968v-.001zm-40.488 15.549l-20.723 23.43 45.062.005-24.339-23.435z" fill="#8B1E25"/><path d="M20.641 2.06l.238 24.339-17.656 2.56 8.167 20.43 9.685-23.104 24.146-9.333-24.58-14.891zm-9.417 48.047l-8.569 14.594.052 1.854 19.03 5.7-.284 34.811h1.065l20.72-23.417 24.332 23.432.289-.01 15.864-38.977v-1.188l-40.486 16.378-21.498-11.035-10.514-22.142z" fill="#A42F38"/><path d="M20.643 2.056l-17.426 26.909 17.671-2.567-.245-24.342zm-17.965 64.458v1.135h-.01l17.696 39.417 1.1.004.275-34.817-19.061-5.74z" fill="#932630"/><path d="M76.679 50.018l-9.595-23.996-23.647-9.17 23.96-14.771-.316 23.94 16.645 5.192-.004 1.469-6.876 17.336 6.879 16.889-16.804 6.797 9.759-23.687z" fill="#C68A66"/><path d="M43.467 16.825l23.929-14.74-46.68-.01 22.751 14.75zm23.609 9.187l16.649 5.203-16.329-29.14-.32 23.938zm16.642 6.667l-6.946 17.365 6.946 16.865v-34.229z" fill="#BE785F"/><path d="M83.77 1.908l-16.373.167 16.326 29.14.047-29.307zm-40.664 14.615l-21.996 9.5-10.419 23.833 11.044 22.401 21.498 11.04 23.69-9.592 9.798-23.693-9.634-23.99-23.981-9.5z" fill="#AA4042"/></g><path d="M53.965 5.437c-.386.007-.656.053-.724.125-.136.143-.016.82.258 1.5.447 1.108.637 1.251 1.881 1.365.764.07 1.57.145 1.788.177.218.032.494-.094.61-.281.116-.188.037-.842-.165-1.458-.346-1.051-.479-1.136-2.243-1.344-.517-.061-1.02-.09-1.406-.083zm-13.624 2.563c-.733 0-3.096 1.329-3.297 1.854-.227.593 2.057 3.5 2.75 3.5.267 0 1.079-.401 1.809-.885.73-.485 1.333-1.053 1.333-1.271 0-.614-2.098-3.198-2.594-3.198zm31.227 2.344c-.802 0-.098 1.281 1.137 2.063 1.491.944 2.243 1.15 2.243.625 0-.356-2.932-2.688-3.38-2.688zm-14.998.115c-1.132.028-2.238.198-4.093.531-3.893.699-8.648 2.217-10.264 3.281-6.125 4.034-11.429 9.996-16.249 18.271-6.873 11.798-10.655 25.581-11.897 43.302l-.217 3.052.134.052h17.179c9.528 0 17.393-.07 17.479-.156.086-.086-.479-2.085-1.261-4.438-2.535-7.626-4.16-16.53-4.176-22.854-.021-8.308 2.533-17.521 6.533-23.552 2.149-3.241 5.481-6.564 6.595-6.573.426-.003 1.438-.456 2.253-1.01.816-.555 2.531-1.331 3.804-1.719 3.942-1.201 9.257-.517 14.171 1.813 1.737.823 2.182.927 2.419.552.602-.954.247-1.662-1.654-3.25-5.023-4.195-10.457-6.404-17.438-7.104-1.181-.119-2.04-.191-2.832-.198h-.486zm-31.32 9.479c-.744.138-3.226 3.374-2.801 3.76.911.829 3.964 2.655 4.197 2.51.15-.093.719-.829 1.271-1.635.553-.806 1.003-1.605 1.003-1.771 0-.257-2.205-2.024-3.545-2.844l-.124-.021zm46.215.563c-.265 0-.493.049-.61.167-.183.183-.239.586-.124.885.272.712 2.719.581 2.719-.146 0-.452-1.19-.907-1.985-.906zm-9.913.333c-.138.003-.309.033-.517.083-1.209.29-2.098.753-2.098 1.094 0 .149.305.542.672.875.367.333.662.815.662 1.063 0 .546.261.56 1.623.083 1.197-.419 1.228-.559.558-2.167-.326-.784-.486-1.038-.899-1.031zm-8.517 6.573c-.411 0-1.437 1.113-1.437 1.563 0 .578 1.669 3.125 2.047 3.125.155 0 .518-.376.817-.833.515-.789.497-.909-.341-2.344-.485-.831-.97-1.51-1.085-1.51zm-39.237 11.042c-.449 0-1.881 3.469-1.881 4.552 0 .403 3.668 2.054 4.703 2.115.376.022.76-.634 1.271-2.198.595-1.817.642-2.305.289-2.625-.553-.503-3.737-1.844-4.383-1.844zm33.707.135c-.097.019-.175.092-.248.208-.173.275-.318.67-.32.885-.003.215-.088.623-.196.906-.127.333.314.991 1.251 1.865 1.622 1.511 1.79 1.574 2.078.823.507-1.325.179-2.367-1.147-3.667-.695-.681-1.066-.984-1.313-1.021h-.103zm-1.757 12.979c-.377-.015-.478.279-.475.865.009 1.873.342 2.344 2.274 3.208 2.537 1.135 2.749 1.12 2.522-.198-.307-1.782-.363-1.859-2.202-2.917-1.094-.629-1.742-.943-2.119-.958zm-38.586 9.646c-.56 0-2.11 5.05-1.799 5.865.168.44 1.411.65 4.579.771l1.53.052.61-2.688c.367-1.614.494-2.785.31-2.948-.299-.264-4.214-1.052-5.23-1.052zm41.036 6.792l-.186.042c-.11.11.058 1.022.372 2.021.482 1.536.711 1.831 1.478 1.948 1.275.195 4.744.272 4.744.104 0-.698-1.416-3.186-1.892-3.323-1.415-.406-3.82-.816-4.517-.792zm24.301 16.375c-.793 0-1.613.028-2.264.094-1.914.193-2.558.421-3.39 1.167-.91.816-1.041 1.163-1.147 3.052-.097 1.717.007 2.348.558 3.229.853 1.364 1.835 1.754 4.465 1.76 2.498.006 2.987.264 2.843 1.531l-.114.969-3.752.094-3.752.094v3.323h4.186c3.089 0 4.436-.125 5.158-.5 1.376-.714 1.995-2.114 1.995-4.531 0-1.894-.093-2.151-1.137-3.198-1.149-1.153-1.295-1.191-4.869-1.281-1.449-.037-1.995-.37-1.995-1.219 0-.944 1.259-1.313 4.517-1.313h2.812v-2.9480000000000004l-2.005-.229c-.552-.064-1.316-.095-2.109-.094zm-25.231.219l-1.747.104-1.757.104-.093 7.021c-.05 3.861-.007 7.203.083 7.438.102.268.787.427 1.84.427h1.675v-15.094zm-37.356.042v15.052h3.638l.103-1.917c.059-1.139.244-1.927.465-1.927.206 0 1.084.869 1.943 1.927l1.561 1.917h1.985c1.091 0 1.985-.082 1.985-.188s-.684-1.069-1.509-2.146c-.825-1.076-1.499-2.068-1.499-2.198 0-.13.673-.864 1.499-1.635l1.488-1.396.021-.052v-2.562c0-2.515-.042-2.641-1.137-3.74l-1.137-1.135h-9.406zm22.72 0c-5.551.012-5.706.261-5.706 8.844v6.208h1.664c1.658 0 1.669-.003 1.675-1.083.008-1.738.323-1.968 2.522-1.854l1.974.094.103 1.448.103 1.438 1.726-.104 1.737-.104.103-5.521c.16-8.744-.24-9.377-5.902-9.365zm19.97 0v15.073l4.92-.094 4.92-.094v-3.3440000000000003l-2.998-.167-3.008-.167-.093-5.604-.083-5.604h-3.66zm-36.571 3.344c.521.007 1.028.079 1.364.208.745.287.745 3.317 0 3.604-.898.346-2.99.225-3.411-.198-.22-.221-.403-.942-.403-1.604 0-.663.183-1.383.403-1.604.263-.264 1.178-.418 2.047-.406zm16.59.01c.818 0 1.649.142 1.902.396.22.221.403 1.165.403 2.104 0 .939-.183 1.883-.403 2.104-.605.607-3.114.505-3.773-.156-.678-.68-.521-3.687.217-4.156.256-.162.753-.254 1.302-.281l.351-.01z" fill="#F2F2F2"/></g></g></svg>