<svg width="200" height="200" xmlns="http://www.w3.org/2000/svg" xmlns:sketch="http://www.bohemiancoding.com/sketch/ns"><title>Artboard 1</title><desc>Created with Sketch.</desc><g sketch:type="MSArtboardGroup" fill="none"><g sketch:type="MSShapeGroup" transform="matrix(1 0 0 -1 0 200)" fill="#1F1B1C"><polygon points="100 0 186.60254 50 186.60254 150 100 200 13.3974596 150 13.3974596 50"/><polygon points="100 0 195.105652 69.0983006 158.778525 180.901699 41.2214748 180.901699 4.89434837 69.0983006"/></g><g transform="translate(36 81) translate(-.279 -.285)" sketch:type="MSShapeGroup"><g id="Shape" fill="#636466"><path d="M69.806 12.889c0 1.03-.828 1.95-1.908 1.95-.828 0-1.548.221-2.16.699-.684.442-1.224 1.067-1.655 1.766-.864 1.178-1.295 2.576-1.476 3.09v6.991c0 1.067-.9 1.95-1.979 1.95-1.044 0-1.908-.883-1.908-1.95v-14.497c0-1.067.864-1.913 1.908-1.913 1.08 0 1.979.846 1.979 1.913v.258c.216-.258.504-.552.756-.736 1.188-.809 2.735-1.472 4.535-1.435 1.08 0 1.908.846 1.908 1.913zM68.749 20.137c.036-5.004 3.851-9.199 8.782-9.199 4.679 0 8.386 3.569 8.674 8.536v.184c0 .074 0 .257-.036.331-.108.883-.864 1.472-1.872 1.472h-11.445c.18.846.576 1.803 1.224 2.428.756.883 2.195 1.545 3.455 1.655 1.296.11 2.843-.221 3.743-.92.756-.81 2.231-.699 2.699-.111.468.516.828 1.619 0 2.392-1.764 1.655-3.887 2.428-6.443 2.428-4.93-.036-8.745-4.194-8.781-9.198zm3.923-1.803h10.185c-.36-1.472-2.195-3.642-5.327-3.9-3.059.147-4.571 2.392-4.859 3.9zM104.542 27.349c0 1.067-.864 1.987-1.944 1.987-.972 0-1.727-.699-1.908-1.582-1.367.956-3.095 1.582-4.895 1.582-4.859 0-8.746-4.195-8.746-9.162 0-5.041 3.887-9.236 8.746-9.236 1.764 0 3.491.589 4.823 1.545v-6.917c0-1.067.864-1.987 1.979-1.987 1.08 0 1.944.92 1.944 1.987v21.782zm-8.746-12.4c-1.296 0-2.483.552-3.383 1.508-.9.92-1.44 2.244-1.44 3.716 0 1.398.54 2.723 1.44 3.642.899.957 2.087 1.509 3.383 1.509 1.332 0 2.483-.552 3.383-1.509.9-.92 1.44-2.244 1.44-3.642 0-1.472-.54-2.796-1.44-3.716-.9-.957-2.051-1.508-3.383-1.508zM111.389 6.34c0 1.104-.828 2.024-1.944 2.024-1.08 0-1.943-.92-1.943-2.024v-.773c0-1.104.864-1.987 1.943-1.987 1.116 0 1.944.883 1.944 1.987v.773zm0 6.66v14.35c0 1.104-.828 1.987-1.944 1.987-1.08 0-1.943-.883-1.943-1.987v-14.35c0-1.177.864-2.024 1.943-2.024 1.116 0 1.944.846 1.944 2.024zM113.864 24.074c.648-.883 1.908-.993 2.699-.294.936.81 2.556 1.655 3.959 1.619.972 0 1.872-.331 2.448-.699.504-.442.648-.809.648-1.104 0-.184-.036-.257-.108-.368-.036-.11-.18-.257-.468-.441-.504-.368-1.584-.773-2.879-1.03h-.036c-1.116-.221-2.196-.515-3.131-.957-.972-.478-1.836-1.14-2.483-2.134-.396-.662-.612-1.472-.612-2.318 0-1.693.936-3.128 2.123-4.048 1.26-.883 2.771-1.361 4.427-1.361 2.483 0 4.247 1.214 5.399 2.024.864.589 1.116 1.803.576 2.723-.576.883-1.764 1.141-2.663.515-1.152-.772-2.16-1.362-3.311-1.362-.9 0-1.692.294-2.16.662-.468.331-.576.663-.576.846 0 .147 0 .184.072.294.036.073.144.221.396.368.468.331 1.404.662 2.627.883l.036.037h.036c1.188.22 2.304.552 3.347 1.067.972.442 1.944 1.141 2.556 2.171.432.736.684 1.582.684 2.428 0 1.803-.972 3.312-2.268 4.268-1.296.92-2.915 1.472-4.679 1.472-2.807-.037-4.967-1.361-6.406-2.539-.792-.662-.9-1.914-.252-2.723z"/></g><path d="M45.612 32.041c-2.528 1.347-15.626 6.853-18.414 8.339-2.788 1.487-4.337 1.472-6.54.395-2.203-1.077-16.141-6.832-18.652-8.059-1.255-.613-1.915-1.131-1.915-1.619v-4.896s18.146-4.039 21.075-5.113c2.929-1.075 3.946-1.113 6.439-.18 2.493.934 17.4 3.683 19.864 4.606l-.001 4.826c0 .484-.568 1.015-1.855 1.701z" id="Shape" fill="#A41E11"/><path d="M45.612 27.144c-2.528 1.347-15.626 6.853-18.414 8.339-2.788 1.487-4.337 1.472-6.54.395-2.203-1.076-16.141-6.833-18.652-8.059-2.511-1.227-2.563-2.071-.097-3.058 2.466-.988 16.328-6.547 19.258-7.622 2.929-1.074 3.946-1.113 6.439-.179 2.493.934 15.513 6.231 17.976 7.154 2.464.923 2.559 1.684.031 3.031z" id="Shape" fill="#D82C20"/><path d="M45.612 24.058c-2.528 1.347-15.626 6.853-18.414 8.339-2.788 1.486-4.337 1.471-6.54.395-2.203-1.076-16.141-6.832-18.652-8.059-1.255-.613-1.915-1.13-1.915-1.619v-4.896s18.146-4.038 21.075-5.113c2.929-1.074 3.946-1.113 6.439-.18 2.493.934 17.4 3.683 19.864 4.605l-.001 4.827c0 .484-.568 1.015-1.855 1.7z" id="Shape" fill="#A41E11"/><path d="M45.612 19.161c-2.528 1.347-15.626 6.853-18.414 8.339-2.788 1.486-4.337 1.471-6.54.395-2.203-1.076-16.141-6.832-18.652-8.059-2.511-1.227-2.563-2.071-.097-3.059 2.466-.987 16.328-6.547 19.258-7.621 2.929-1.074 3.946-1.113 6.439-.18 2.493.934 15.513 6.231 17.976 7.154 2.464.923 2.559 1.684.031 3.031z" id="Shape" fill="#D82C20"/><path d="M45.612 15.779c-2.528 1.347-15.626 6.853-18.414 8.34-2.788 1.486-4.337 1.471-6.54.395-2.203-1.076-16.141-6.832-18.652-8.059-1.255-.613-1.915-1.13-1.915-1.619v-4.896s18.146-4.038 21.075-5.112c2.929-1.075 3.946-1.113 6.439-.18 2.493.934 17.4 3.683 19.864 4.605l-.001 4.827c0 .483-.568 1.014-1.855 1.7z" id="Shape" fill="#A41E11"/><path d="M45.612 10.882c-2.528 1.347-15.626 6.853-18.414 8.339-2.788 1.486-4.337 1.471-6.54.395-2.203-1.076-16.141-6.832-18.652-8.059-2.511-1.227-2.563-2.071-.097-3.059 2.466-.987 16.328-6.547 19.258-7.621 2.929-1.075 3.946-1.113 6.439-.179 2.493.934 15.513 6.231 17.976 7.154 2.464.923 2.559 1.683.031 3.03z" id="Shape" fill="#D82C20"/><path d="M24.524 3.923l3.124-1.045-.846 2.069 3.184 1.218-4.104.435-.92 2.262-1.486-2.523-4.74-.435 3.537-1.305-1.061-2.001 3.311 1.325z" id="Shape" fill="#fff"/><path d="M24.718 17.135l-7.664-3.249 10.979-1.723-3.315 4.972z" id="Shape" fill="#fff"/><ellipse fill="#fff" cx="14.223" cy="9.728" rx="5.868" ry="2.325"/><path d="M34.84 6.784l6.497 2.627-6.493 2.621-.004-5.248z" id="Shape" fill="#7A0C00"/><path d="M34.84 6.784l.004 5.248-.703.284-6.49-2.624 7.189-2.907z" fill="#AD2115"/></g></g></svg>