<svg width="200" height="200" xmlns="http://www.w3.org/2000/svg" xmlns:sketch="http://www.bohemiancoding.com/sketch/ns"><title>Artboard 1</title><desc>Created with Sketch.</desc><g sketch:type="MSArtboardGroup" fill="none"><g sketch:type="MSShapeGroup" transform="matrix(1 0 0 -1 0 200)" fill="#1F1B1C"><polygon points="100 0 186.60254 50 186.60254 150 100 200 13.3974596 150 13.3974596 50"/><polygon points="100 0 195.105652 69.0983006 158.778525 180.901699 41.2214748 180.901699 4.89434837 69.0983006"/></g><g transform="matrix(1 0 0 -1 39 132.397)" sketch:type="MSShapeGroup"><path d="M36.513 75.649l11.832-13.81c.507-.657-.165-1.142-.165-1.142-4.741-2.563-8.172-6.436-11.106-10.872-.583-.88-1.211-.241-1.211-.241l-14.992 11.253s-.644.38-.08 1.131c4.39 5.843 8.378 9.964 14.754 13.854 0 0 .483.456.969-.173" fill="#D52C24"/><path d="M15.526 53.151l17.718-8.585c.842-.327.421-1.096.421-1.096-2.448-5.839-3.939-10.768-5.09-16.741-.193-1-.87-.68-.87-.68l-19.93 8.674s-.598.224-.348.994c.885 2.733 5.393 13.642 7.202 17.207 0 0 .317.541.897.227" fill="#C82624"/><path d="M5.612 25.573c4.053-1.251 21.059-5.177 21.059-5.177 1.019-.315.716-1.081.716-1.081-1.173-9.26-.919-16.328-.919-18.769 0-1.083-.786-.923-.786-.923h-24.817c-1.079 0-.842.974-.842.974.203 3.085 1.09 11.862 4.512 24.447 0 0 .17.811 1.078.53" fill="#AC1F22"/><path d="M86.816 75.649l-11.831-13.81c-.507-.657.165-1.142.165-1.142 4.741-2.563 8.172-6.436 11.106-10.872.583-.88 1.211-.241 1.211-.241l14.992 11.253s.644.38.08 1.131c-4.39 5.843-8.378 9.964-14.754 13.854 0 0-.483.456-.969-.173" fill="#D52C24"/><path d="M61.666 63.828c1.991 0 5.678-.191 7.419-.48.909-.151 1.134.451 1.134.451l7.447 15.599s.499.587-.544.969c-5.559 2.039-8.516 2.977-15.456 2.977-6.858 0-9.898-.938-15.457-2.977-1.042-.382-.544-.969-.544-.969l7.447-15.599s.225-.602 1.134-.451c1.74.289 5.428.48 7.42.48" fill="#DF3D3C"/><path d="M107.805 53.151l-17.718-8.585c-.842-.327-.421-1.096-.421-1.096 2.448-5.839 3.94-10.768 5.091-16.741.193-1 .869-.68.869-.68l19.931 8.674s.598.224.348.994c-.885 2.733-5.393 13.642-7.202 17.207 0 0-.317.541-.897.227" fill="#C82624"/><path d="M117.718 25.573c-4.053-1.251-21.059-5.177-21.059-5.177-1.019-.315-.715-1.081-.715-1.081 1.173-9.26.918-16.328.918-18.769 0-1.083.786-.923.786-.923h24.818c1.079 0 .842.974.842.974-.203 3.085-1.09 11.862-4.512 24.447 0 0-.17.811-1.078.53" fill="#AC1F22"/></g></g></svg>