<svg width="200" height="200" xmlns="http://www.w3.org/2000/svg" xmlns:sketch="http://www.bohemiancoding.com/sketch/ns"><title>Artboard 1</title><desc>Created with Sketch.</desc><defs><linearGradient x1="84.75%" y1="111.399%" x2="58.254%" y2="64.584%" id="a"><stop stop-color="#FB7655" offset="0%"/><stop stop-color="#FB7655" offset="0%"/><stop stop-color="#E42B1E" offset="41%"/><stop stop-color="#900" offset="99%"/><stop stop-color="#900" offset="100%"/></linearGradient><linearGradient x1="116.651%" y1="60.89%" x2="1.746%" y2="19.288%" id="b"><stop stop-color="#871101" offset="0%"/><stop stop-color="#871101" offset="0%"/><stop stop-color="#911209" offset="99%"/><stop stop-color="#911209" offset="100%"/></linearGradient><linearGradient x1="75.774%" y1="219.327%" x2="38.978%" y2="7.829%" id="c"><stop stop-color="#871101" offset="0%"/><stop stop-color="#871101" offset="0%"/><stop stop-color="#911209" offset="99%"/><stop stop-color="#911209" offset="100%"/></linearGradient><linearGradient x1="50.012%" y1="7.234%" x2="66.483%" y2="79.135%" id="d"><stop stop-color="#fff" offset="0%"/><stop stop-color="#fff" offset="0%"/><stop stop-color="#E57252" offset="23%"/><stop stop-color="#DE3B20" offset="46%"/><stop stop-color="#A60003" offset="99%"/><stop stop-color="#A60003" offset="100%"/></linearGradient><linearGradient x1="46.174%" y1="16.348%" x2="49.932%" y2="83.047%" id="e"><stop stop-color="#fff" offset="0%"/><stop stop-color="#fff" offset="0%"/><stop stop-color="#E4714E" offset="23%"/><stop stop-color="#BE1A0D" offset="56%"/><stop stop-color="#A80D00" offset="99%"/><stop stop-color="#A80D00" offset="100%"/></linearGradient><linearGradient x1="36.965%" y1="15.594%" x2="49.528%" y2="92.478%" id="f"><stop stop-color="#fff" offset="0%"/><stop stop-color="#fff" offset="0%"/><stop stop-color="#E46342" offset="18%"/><stop stop-color="#C82410" offset="40%"/><stop stop-color="#A80D00" offset="99%"/><stop stop-color="#A80D00" offset="100%"/></linearGradient><linearGradient x1="13.609%" y1="58.346%" x2="85.764%" y2="-46.717%" id="g"><stop stop-color="#fff" offset="0%"/><stop stop-color="#fff" offset="0%"/><stop stop-color="#C81F11" offset="54%"/><stop stop-color="#BF0905" offset="99%"/><stop stop-color="#BF0905" offset="100%"/></linearGradient><linearGradient x1="27.624%" y1="21.135%" x2="50.745%" y2="79.056%" id="h"><stop stop-color="#fff" offset="0%"/><stop stop-color="#fff" offset="0%"/><stop stop-color="#DE4024" offset="31%"/><stop stop-color="#BF190B" offset="99%"/><stop stop-color="#BF190B" offset="100%"/></linearGradient><linearGradient x1="-20.667%" y1="122.282%" x2="104.242%" y2="-6.342%" id="i"><stop stop-color="#BD0012" offset="0%"/><stop stop-color="#BD0012" offset="0%"/><stop stop-color="#fff" offset="7%"/><stop stop-color="#fff" offset="17%"/><stop stop-color="#C82F1C" offset="27%"/><stop stop-color="#820C01" offset="33%"/><stop stop-color="#A31601" offset="46%"/><stop stop-color="#B31301" offset="72%"/><stop stop-color="#E82609" offset="99%"/><stop stop-color="#E82609" offset="100%"/></linearGradient><linearGradient x1="58.792%" y1="65.205%" x2="11.964%" y2="50.128%" id="j"><stop stop-color="#8C0C01" offset="0%"/><stop stop-color="#8C0C01" offset="0%"/><stop stop-color="#990C00" offset="54%"/><stop stop-color="#A80D0E" offset="99%"/><stop stop-color="#A80D0E" offset="100%"/></linearGradient><linearGradient x1="79.319%" y1="62.754%" x2="23.088%" y2="17.888%" id="k"><stop stop-color="#7E110B" offset="0%"/><stop stop-color="#7E110B" offset="0%"/><stop stop-color="#9E0C00" offset="99%"/><stop stop-color="#9E0C00" offset="100%"/></linearGradient><linearGradient x1="92.88%" y1="74.122%" x2="59.841%" y2="39.704%" id="l"><stop stop-color="#79130D" offset="0%"/><stop stop-color="#79130D" offset="0%"/><stop stop-color="#9E120B" offset="99%"/><stop stop-color="#9E120B" offset="100%"/></linearGradient><radialGradient cx="32.001%" cy="40.21%" fx="32.001%" fy="40.21%" r="69.573%" id="m"><stop stop-color="#A80D00" offset="0%"/><stop stop-color="#A80D00" offset="0%"/><stop stop-color="#7E0E08" offset="99%"/><stop stop-color="#7E0E08" offset="100%"/></radialGradient><radialGradient cx="13.549%" cy="40.86%" fx="13.549%" fy="40.86%" r="88.386%" id="n"><stop stop-color="#A30C00" offset="0%"/><stop stop-color="#A30C00" offset="0%"/><stop stop-color="#800E08" offset="99%"/><stop stop-color="#800E08" offset="100%"/></radialGradient><linearGradient x1="56.57%" y1="101.717%" x2="3.105%" y2="11.993%" id="o"><stop stop-color="#8B2114" offset="0%"/><stop stop-color="#8B2114" offset="0%"/><stop stop-color="#9E100A" offset="43%"/><stop stop-color="#B3100C" offset="99%"/><stop stop-color="#B3100C" offset="100%"/></linearGradient><linearGradient x1="30.87%" y1="35.599%" x2="92.471%" y2="100.694%" id="p"><stop stop-color="#B31000" offset="0%"/><stop stop-color="#B31000" offset="0%"/><stop stop-color="#910F08" offset="44%"/><stop stop-color="#791C12" offset="99%"/><stop stop-color="#791C12" offset="100%"/></linearGradient></defs><g sketch:type="MSArtboardGroup" fill="none"><g sketch:type="MSShapeGroup" transform="matrix(1 0 0 -1 0 200)" fill="#1F1B1C"><polygon points="100 0 186.60254 50 186.60254 150 100 200 13.3974596 150 13.3974596 50"/><polygon points="100 0 195.105652 69.0983006 158.778525 180.901699 41.2214748 180.901699 4.89434837 69.0983006"/></g><g sketch:type="MSLayerGroup"><path d="M125.424 112.229l-54.846 32.567 71.015-4.819 5.47-71.608-21.639 43.859z" fill="url(#a)" sketch:type="MSShapeGroup"/><path d="M141.71 139.928l-6.104-42.128-16.626 21.954 22.73 20.175z" fill="url(#b)" sketch:type="MSShapeGroup"/><path d="M141.792 139.928l-44.717-3.51-26.259 8.287 70.976-4.776z" fill="url(#c)" sketch:type="MSShapeGroup"/><path d="M70.879 144.714l11.171-36.596-24.582 5.256 13.411 31.34z" fill="url(#d)" sketch:type="MSShapeGroup"/><path d="M118.976 119.875l-10.279-40.262-29.416 27.573 39.695 12.688z" fill="url(#e)" sketch:type="MSShapeGroup"/><path d="M144.731 80.181l-27.806-22.71-7.743 25.033 35.549-2.322z" fill="url(#f)" sketch:type="MSShapeGroup"/><path d="M131.727 49.373l-16.354 9.038-10.318-9.159 26.672.121z" fill="url(#g)" sketch:type="MSShapeGroup"/><path d="M51 125.65l6.851-12.495-5.542-14.885-1.309 27.379z" fill="url(#h)" sketch:type="MSShapeGroup"/><path d="M51.941 97.8l5.576 15.816 24.228-5.436 27.661-25.707 7.806-24.795-12.291-8.679-20.897 7.821c-6.584 6.124-19.36 18.24-19.82 18.468-.456.233-8.436 15.316-12.262 22.512z" fill="#fff" sketch:type="MSShapeGroup"/><path d="M71.519 69.388c14.269-14.148 32.664-22.507 39.724-15.384 7.055 7.122-.427 24.432-14.696 38.575-14.269 14.143-32.436 22.962-39.491 15.84-7.059-7.118.194-24.887 14.463-39.03z" fill="url(#i)" sketch:type="MSShapeGroup"/><path d="M70.879 144.699l11.084-36.713 36.81 11.825c-13.309 12.48-28.112 23.03-47.893 24.887z" fill="url(#j)" sketch:type="MSShapeGroup"/><path d="M109.453 82.401l9.45 37.43c11.118-11.69 21.096-24.257 25.983-39.801l-35.432 2.371z" fill="url(#k)" sketch:type="MSShapeGroup"/><path d="M144.789 80.219c3.782-11.413 4.655-27.787-13.179-30.827l-14.633 8.082 27.811 22.744z" fill="url(#l)" sketch:type="MSShapeGroup"/><path d="M51 125.485c.524 18.837 14.114 19.118 19.903 19.283l-13.372-31.23-6.531 11.947z" fill="#9E1209" sketch:type="MSShapeGroup"/><path d="M109.506 82.459c8.543 5.251 25.76 15.796 26.11 15.99.543.305 7.423-11.602 8.984-18.332l-35.094 2.342z" fill="url(#m)" sketch:type="MSShapeGroup"/><path d="M81.948 107.987l14.817 28.587c8.761-4.752 15.622-10.541 21.905-16.742l-36.722-11.845z" fill="url(#n)" sketch:type="MSShapeGroup"/><path d="M57.473 113.577l-2.099 24.999c3.961 5.411 9.411 5.881 15.127 5.459-4.136-10.293-12.398-30.875-13.028-30.458z" fill="url(#o)" sketch:type="MSShapeGroup"/><path d="M116.891 57.538l29.435 4.131c-1.571-6.657-6.395-10.953-14.618-12.296l-14.817 8.165z" fill="url(#p)" sketch:type="MSShapeGroup"/></g></g></svg>