<svg width="200" height="200" xmlns="http://www.w3.org/2000/svg" xmlns:sketch="http://www.bohemiancoding.com/sketch/ns"><title>Artboard 1</title><desc>Created with Sketch.</desc><g sketch:type="MSArtboardGroup" fill="none"><g sketch:type="MSShapeGroup" transform="matrix(1 0 0 -1 0 200)" fill="#1F1B1C"><polygon points="100 0 186.60254 50 186.60254 150 100 200 13.3974596 150 13.3974596 50"/><polygon points="100 0 195.105652 69.0983006 158.778525 180.901699 41.2214748 180.901699 4.89434837 69.0983006"/></g><g sketch:type="MSShapeGroup" transform="translate(35 43)"><path d="M130 72.237c-1.364 3.273-3.168 6.038-7.274 6.272 2.345-2.159 4.795-4.203 4.688-7.767.837.299 1.52 1.424 2.586.484v1.01z" id="Shape" fill="#BE6E94"/><path d="M96.355 40.963c-.47 1.618-1.751 1.543-3.031 1.468-1.493-.086-2.103.271-2.177 2.11-.055 1.348-.009 3.543-2.277 3.945.493-1.76.868-3.566 1.506-5.272 1.107-2.955 3.739-2.151 5.979-2.251z" id="Shape" fill="#B86C91"/><path d="M80.33 45.482c-2.301.117-4.793-.614-6.626 1.604-.164.198-.383-.362-.44-.665 1.479-1.731 4.409-2.121 7.066-.939z" id="Shape" fill="#AD6E8E"/><path d="M41.673 44.859c2.491-.683 4.985-.64 7.481-.027-2.493.238-4.987.228-7.481.027z" id="Shape" fill="#A06E89"/><path d="M97.704 45.403c-.667-1.326-.22-2.729-.283-4.097 1.122.104 1.391.698 1.024 1.721-.28.78-.496 1.584-.741 2.376z" id="Shape" fill="#B86C91"/><path d="M81.658 18.66c-.561-1.654-.546-3.309-.006-4.965.28 1.655.296 3.309.006 4.965z" id="Shape" fill="#A3748B"/><path d="M118.328 57.229c-5.441-1.42-10.896-1.181-16.13.99-1.648.684-2.388.467-3.222-1.164-1.925-3.765-2.341-7.603-1.271-11.651-.367-1.347.757-2.798-.283-4.097-.272-.379-.65-.423-1.067-.343-.896.695-1.956.795-3.031.841-1.583.067-2.505.579-2.64 2.481-.106 1.482-.552 3.091-1.814 4.2-2.328 4.175-4.318 8.554-7.206 12.604-2.439-4.188-2.596-8.311-1.259-12.566.325-1.038.847-2.049-.073-3.042-2.473-.578-4.849-.428-7.066.938-3.652 10.199-8.281 19.948-13.198 29.578-.602-1.516-.414-2.918-.082-4.289.868-3.581 1.796-7.146 2.691-10.721.432-1.722.283-3.805-1.736-3.6-2.811.285-2.115-1.311-2.165-2.727-.15-4.184-2.575-5.917-6.509-4.568-3.272 1.123-5.695 3.448-7.944 5.967-.673.754-1.323 1.5-2.223 1.998-3.51 1.943-7.017 3.89-10.512 5.862-.781.441-1.359.666-2.156-.141-3.837-3.89-8.482-6.809-12.557-10.409-4.24-3.745-7.79-7.898-6.863-14.268.624-4.293 2.761-7.749 5.693-10.686 10.279-10.294 22.745-16.649 36.812-19.689 5.876-1.269 11.949-1.561 17.697 1.119 3.205 1.494 4.884 3.942 4.606 7.594-.428 5.588-3.524 9.702-7.437 13.256-6.817 6.193-14.992 9.326-24.06 10.01-4.067.307-7.984-.545-11.209-3.379-.531-.467-.976-1.483-1.784-.81-.673.559-.063 1.393.217 2.078.428 1.045 1.216 1.8 2.026 2.528 2.592 2.325 5.696 3.406 9.101 3.733 2.493-.284 4.987-.223 7.481-.027 4.672-.487 9.253-1.458 13.522-3.43 9.857-4.554 16.902-11.571 18.982-22.742-.169-1.655-.16-3.31-.006-4.965-.835-6.243-5.006-9.528-10.385-11.579-2.425-.923-5.009-1.424-7.521-2.116h-9.537c-3.257.568-6.615.451-9.797 1.549-13.547 4.678-26.245 10.766-36.323 21.434-3.921 4.149-7.095 8.629-8.089 14.399v5.052c.672 3.481 2.399 6.386 4.764 8.962 3.306 3.6 6.974 6.766 11.035 9.472 2.3 1.533 4.492 3.22 6.761 4.797 1.388.965 1.403 1.633-.154 2.459-3.628 1.925-7.121 4.103-10.289 6.725-3.161 2.616-6.235 5.349-7.65 9.456-2.362 6.854.331 12.53 6.575 13.695h5.521c5.779-.462 10.18-3.375 13.676-7.848 4.574-5.851 5.514-12.517 3.944-19.579-.436-1.958-.12-3.067 1.673-3.777.884-.349 1.589-1.164 2.666-1.209.109 1.265-.494 2.305-.244 3.405.314 2.836.247 5.678.051 8.521.072 2.354 1.045 4.417 2.194 6.369 2.042 3.465 6.68 3.623 8.996.346 1.499-2.121 2.576-4.472 3.666-7.24-.256 1.951.029 3.507.595 4.99 1.154 3.021 3.669 3.706 6.167 1.707 1.462-1.169 2.547-2.663 3.435-4.299 2.684-4.943 5.389-9.873 7.582-15.073.826-1.955 1.644-3.936 2.762-6.425.549 2.712 1.136 4.763 2.192 6.562 1.119 1.905.782 3.293-.475 5.013-2.13 2.918-5.004 5.209-6.843 8.336-1.713 2.914-.619 5.065 2.739 5.109 5.018.066 9.3-1.805 12.563-5.733.805-.969 1.398-2.103 1.306-3.456-.321-1.611-.279-3.229-.08-4.851.119-1.414-1.12-2.847-.274-4.169 2.182-3.409 4.052-7.009 6.172-10.662.941 1.767.806 3.608 2.014 4.897 1.159.888 2.505 1.72 1.027 3.41-1.057.948-2.094 1.926-3.041 2.99-2.102 2.36-3.623 5.045-4.142 8.201-.51 3.105 1.438 5.428 4.211 5.15 7.333-.736 12.413-6.993 11.622-14.394-.116-1.089.052-1.773 1.183-2.093 5.151-1.455 10.26-1.228 15.274.526 3.966 1.389 6.427 4.355 7.841 8.262.949.682 1.856 1.842 2.983.235v-2.526c-1.703-6.074-5.675-9.903-11.672-11.468zm-100.201 33.592c-1.828.657-3.873 1.278-5.43-.268-1.638-1.627-.904-3.8-.295-5.665.848-2.594 2.552-4.725 4.592-6.472 2.786-2.386 5.759-4.546 8.889-6.464 2.431-1.489 2.583-1.384 2.779 1.559.039.585.067 1.171.086 1.505.069 7.065-4.331 13.542-10.622 15.805zm36.15-31.442c-1.498 5.509-3.575 10.815-5.902 16.022-.306.685-.695 1.339-1.097 1.975-.309.489-.646 1.132-1.294 1.052-.766-.095-.996-.901-1.139-1.505-.308-1.298-.446-2.639-.589-3.552.342-6.211 2.271-11.382 5.874-15.912l.161-.193c1.172-1.06 2.532-2.703 4.012-1.923 1.624.855.334 2.715-.026 4.037zm18.57 19.436l5.967-6.882c-.21 3.756-2.712 5.639-5.967 6.882zm18.472-4.177c.248-3.777 2.288-6.377 4.778-8.914 1.519 3.973-.411 7.561-4.778 8.914z" id="Shape" fill="#CC6598"/><path d="M38.768 77.752c-.677-3.007-.39-6.013.013-9.02.584 3.007.615 6.014-.013 9.02z" id="Shape" fill="#B06B8B"/><path d="M94.771 62.61c.005-1.508-1.276-2.557-1.419-4.012 1.885.831 2.746 2.031 1.419 4.012z" id="Shape" fill="#B27495"/><path d="M84.705 68.718c.29 1.667.364 3.335.029 5.006-.669-1.665-.63-3.334-.029-5.006z" fill="#AA6A87"/></g></g></svg>