<svg width="200" height="200" xmlns="http://www.w3.org/2000/svg" xmlns:sketch="http://www.bohemiancoding.com/sketch/ns"><title>Artboard 1</title><desc>Created with Sketch.</desc><g sketch:type="MSArtboardGroup" fill="none"><g sketch:type="MSShapeGroup" transform="matrix(1 0 0 -1 0 200)" fill="#1F1B1C"><polygon points="100 0 186.60254 50 186.60254 150 100 200 13.3974596 150 13.3974596 50"/><polygon points="100 0 195.105652 69.0983006 158.778525 180.901699 41.2214748 180.901699 4.89434837 69.0983006"/></g><g sketch:type="MSShapeGroup" transform="translate(50 50)"><path d="M98 88.822c0 3.815-1.473 8.178-5.24 8.178h-84.476c-3.767 0-8.284-4.363-8.284-8.178v-75.037c0-3.815 4.516-5.781 8.284-5.781h84.476c3.767 0 5.24 1.966 5.24 5.781v75.037z" id="Shape" fill="#999"/><path d="M98 85.997c0 3.815-1.473 8.178-5.24 8.178h-84.476c-3.767 0-8.284-4.363-8.284-8.178v-73.153c0-3.815 4.516-5.781 8.284-5.781h84.476c3.767 0 5.24 1.966 5.24 5.781v73.153z" id="Shape" fill="#D9D9D9"/><path d="M92.842 79.937c0 3.41-2.495 6.232-5.861 6.232h-75.493c-3.367 0-6.33-2.823-6.33-6.232v-64.111c0-3.41 2.963-5.938 6.33-5.938h75.493c3.367 0 5.861 2.529 5.861 5.938v64.111z" id="Shape" fill="#262626"/><path d="M92.842 70.049c0 3.41-2.495 6.232-5.861 6.232h-75.493c-3.367 0-6.33-2.823-6.33-6.232v-64.111c0-3.41 2.963-5.938 6.33-5.938h75.493c3.367 0 5.861 2.529 5.861 5.938v64.111z" id="Shape" fill="#4C4C4C"/><path d="M38.931 47.312c2.953 2.524 6.723 4.291 10.116 4.291 3.833 0 5.717-1.515 5.717-3.975 0-2.587-2.324-3.407-5.906-4.922l-5.341-2.271c-4.21-1.704-8.232-5.237-8.232-11.232 0-6.814 6.032-12.241 14.578-12.241 4.712 0 9.677 1.893 13.195 5.426l-4.713 5.868c-2.702-2.082-5.216-3.281-8.482-3.281-3.204 0-5.216 1.388-5.216 3.723 0 2.524 2.702 3.407 6.221 4.858l5.278 2.145c4.964 2.019 8.105 5.364 8.105 11.168 0 6.815-5.655 12.746-15.457 12.746-5.34 0-10.995-2.019-15.142-5.931l5.278-6.372z" fill="#FF8100"/></g></g></svg>