<svg width="200" height="200" xmlns="http://www.w3.org/2000/svg" xmlns:sketch="http://www.bohemiancoding.com/sketch/ns"><title>Artboard 1</title><desc>Created with Sketch.</desc><g sketch:type="MSArtboardGroup" fill="none"><g sketch:type="MSShapeGroup" transform="matrix(1 0 0 -1 0 200)" fill="#1F1B1C"><polygon points="100 0 186.60254 50 186.60254 150 100 200 13.3974596 150 13.3974596 50"/><polygon points="100 0 195.105652 69.0983006 158.778525 180.901699 41.2214748 180.901699 4.89434837 69.0983006"/></g><g transform="translate(53.96 53.007)" sketch:type="MSShapeGroup"><rect fill="#f90" width="92.679" height="92.259"/><rect fill="#DE8500" x="46.874" y="45.986" width="46.341" height="45.988"/><rect fill="#FFB13B" width="46.341" height="46.131"/><g transform="translate(.679)" fill="#f90"><ellipse cx="17.027" cy="46.029" rx="17.027" ry="16.949"/><ellipse transform="rotate(45 25.383 25.461)" cx="25.384" cy="25.461" rx="17.027" ry="16.949"/><ellipse transform="rotate(90 46.066 16.937)" cx="46.066" cy="16.937" rx="17.027" ry="16.949"/><ellipse transform="rotate(135 66.746 25.469)" cx="66.746" cy="25.469" rx="17.027" ry="16.949"/><ellipse cx="75.45" cy="46.029" rx="17.027" ry="16.949"/><ellipse transform="rotate(225 66.739 66.645)" cx="66.739" cy="66.645" rx="17.027" ry="16.949"/><ellipse transform="rotate(-90 46.056 75.169)" cx="46.056" cy="75.169" rx="17.027" ry="16.949"/><ellipse transform="rotate(-45 25.376 66.637)" cx="25.376" cy="66.637" rx="17.027" ry="16.949"/></g><path d="M58.854 16.941c0-6.657-5.425-12.058-12.113-12.058s-12.113 5.401-12.113 12.058c-4.731-4.706-12.4-4.706-17.131 0-4.728 4.71-4.728 12.344 0 17.054-6.688 0-12.113 5.401-12.113 12.058s5.425 12.058 12.113 12.058c-4.728 4.71-4.728 12.344 0 17.054 4.731 4.706 12.4 4.706 17.131 0 0 6.657 5.425 12.058 12.113 12.058s12.113-5.401 12.113-12.058c4.731 4.706 12.4 4.706 17.131 0 4.728-4.71 4.728-12.344 0-17.054 6.688 0 12.11-5.401 12.11-12.058s-5.422-12.058-12.11-12.058c4.728-4.71 4.728-12.344 0-17.054-4.731-4.706-12.4-4.706-17.131 0z"/><path d="M51.376 21.558v13.352l9.486-9.443c0-1.669.64-3.341 1.919-4.614 2.562-2.551 6.715-2.551 9.274 0 2.562 2.547 2.562 6.681 0 9.232-1.279 1.274-2.959 1.91-4.635 1.91l-9.486 9.443h13.413c1.187-1.182 2.826-1.914 4.639-1.914 3.619 0 6.554 2.925 6.554 6.528 0 3.603-2.935 6.528-6.554 6.528-1.813 0-3.452-.732-4.639-1.914h-13.413l9.486 9.443c1.676 0 3.356.637 4.635 1.91 2.562 2.551 2.562 6.685 0 9.232-2.559 2.551-6.712 2.551-9.274 0-1.279-1.274-1.919-2.946-1.919-4.614l-9.486-9.443v13.352c1.187 1.182 1.922 2.813 1.922 4.618 0 3.603-2.938 6.525-6.558 6.525-3.619 0-6.558-2.922-6.558-6.525 0-1.805.735-3.436 1.922-4.618v-13.352l-9.486 9.443c0 1.669-.64 3.341-1.919 4.614-2.562 2.551-6.715 2.551-9.274 0-2.562-2.547-2.562-6.681 0-9.232 1.279-1.274 2.959-1.91 4.635-1.91l9.486-9.443h-13.413c-1.187 1.182-2.826 1.914-4.639 1.914-3.619 0-6.554-2.925-6.554-6.528 0-3.603 2.935-6.528 6.554-6.528 1.813 0 3.452.732 4.639 1.914h13.413l-9.486-9.443c-1.676 0-3.356-.637-4.635-1.91-2.562-2.551-2.562-6.685 0-9.232 2.559-2.551 6.712-2.551 9.274 0 1.279 1.274 1.919 2.946 1.919 4.614l9.486 9.443v-13.352c-1.187-1.182-1.922-2.813-1.922-4.618 0-3.603 2.938-6.525 6.558-6.525 3.619 0 6.558 2.922 6.558 6.525 0 1.805-.735 3.436-1.922 4.618z" fill="#fff"/><rect x="5.435" y="45.986" width="82.704" height="41.097"/><rect x="5.435" y="68.978" width="82.704" height="18.035"/><path d="M14.055 49.935h66.042c2.706 0 4.916 2.2 4.916 4.893v16.505c-25.522-3.143-50.826-7.488-75.873-7.086v-9.419c0-2.694 2.21-4.893 4.916-4.893z" fill="#3F3F3F"/><path d="M57.468 48.825l-7.635 36.709h-6.328l-7.639-36.709h6.329l4.474 21.501 4.471-21.501h6.328z" stroke="#000" stroke-width="2.119" fill="#fff"/><path d="M68.271 64.03h10.803v10.751c0 5.939-4.837 10.754-10.799 10.754-5.966 0-10.803-4.815-10.803-10.754v-15.205h-.003c0-5.935 4.837-10.751 10.803-10.751 5.966 0 10.803 4.815 10.803 10.751h-6.328c0-2.459-2.005-4.451-4.474-4.451-2.47 0-4.471 1.992-4.471 4.451v15.205c0 2.459 2.001 4.454 4.471 4.454s4.474-1.995 4.474-4.451v-4.454h-4.474v-6.3z" stroke="#000" stroke-width="2.119" fill="#fff"/><path d="M17.428 67.179c-1.953-1.948-3.164-4.635-3.164-7.604 0-5.939 4.837-10.751 10.803-10.751 5.962 0 10.799 4.812 10.799 10.751h-6.325c0-2.459-2.005-4.454-4.474-4.454-2.47 0-4.474 1.995-4.474 4.454 0 1.229.499 2.339 1.307 3.146h.003c.811.807 1.929 1.304 3.164 1.304v.003c2.983 0 5.682 1.202 7.635 3.15 1.957 1.944 3.164 4.635 3.164 7.601 0 5.939-4.837 10.754-10.799 10.754-5.966 0-10.803-4.815-10.803-10.754h6.328c0 2.462 2.005 4.454 4.474 4.454 2.47 0 4.474-1.992 4.474-4.454 0-1.226-.499-2.339-1.31-3.146-.811-.804-1.929-1.304-3.164-1.304-2.983 0-5.682-1.205-7.639-3.15z" stroke="#000" stroke-width="2.119" fill="#fff"/></g></g></svg>