<svg width="200" height="200" xmlns="http://www.w3.org/2000/svg" xmlns:sketch="http://www.bohemiancoding.com/sketch/ns"><title>Artboard 1</title><desc>Created with Sketch.</desc><g sketch:type="MSArtboardGroup" fill="none"><g sketch:type="MSShapeGroup" transform="matrix(1 0 0 -1 0 200)" fill="#1F1B1C"><polygon points="100 0 186.60254 50 186.60254 150 100 200 13.3974596 150 13.3974596 50"/><polygon points="100 0 195.105652 69.0983006 158.778525 180.901699 41.2214748 180.901699 4.89434837 69.0983006"/></g><path d="M97.171 126.841v-61.34c0-.559-.18-1.018-.539-1.378-.359-.359-.819-.539-1.378-.539h-28.753c-.559 0-1.018.18-1.378.539-.359.359-.539.819-.539 1.378v61.34c0 .559.18 1.018.539 1.378.359.359.819.539 1.378.539h28.753c.559 0 1.018-.18 1.378-.539.359-.359.539-.819.539-1.378zm40.254-23.002v-38.337c0-.559-.18-1.018-.539-1.378-.359-.359-.819-.539-1.378-.539h-28.753c-.559 0-1.018.18-1.378.539-.359.359-.539.819-.539 1.378v38.337c0 .559.18 1.018.539 1.378.359.359.819.539 1.378.539h28.753c.559 0 1.018-.18 1.378-.539.359-.359.539-.819.539-1.378zm9.584-46.005v84.342c0 1.038-.379 1.937-1.138 2.696-.759.759-1.657 1.138-2.696 1.138h-84.342c-1.038 0-1.937-.379-2.696-1.138-.759-.759-1.138-1.657-1.138-2.696v-84.342c0-1.038.379-1.937 1.138-2.696.759-.759 1.657-1.138 2.696-1.138h84.342c1.038 0 1.937.379 2.696 1.138.759.759 1.138 1.657 1.138 2.696z" fill="#fff" sketch:type="MSShapeGroup"/></g></svg>