<svg width="200" height="200" xmlns="http://www.w3.org/2000/svg" xmlns:sketch="http://www.bohemiancoding.com/sketch/ns"><title>Artboard 1</title><desc>Created with Sketch.</desc><g sketch:type="MSArtboardGroup" fill="none"><g sketch:type="MSShapeGroup" transform="matrix(1 0 0 -1 0 200)" fill="#1F1B1C"><polygon points="100 0 186.60254 50 186.60254 150 100 200 13.3974596 150 13.3974596 50"/><polygon points="100 0 195.105652 69.0983006 158.778525 180.901699 41.2214748 180.901699 4.89434837 69.0983006"/></g><path d="M40 100c0-10.88 2.68-20.92 8.04-30.12 5.36-9.2 12.64-16.48 21.84-21.84 9.2-5.36 19.24-8.04 30.12-8.04 10.88 0 20.92 2.68 30.12 8.04 9.2 5.36 16.48 12.64 21.84 21.84 5.36 9.2 8.04 19.24 8.04 30.12 0 10.88-2.68 20.92-8.04 30.12-5.36 9.2-12.64 16.48-21.84 21.84-9.2 5.36-19.24 8.04-30.12 8.04-10.88 0-20.92-2.68-30.12-8.04-9.2-5.36-16.48-12.64-21.84-21.84-5.36-9.2-8.04-19.24-8.04-30.12zm4.68 0c0 10.8 2.86 20.68 8.58 29.64 5.72 8.96 13.26 15.68 22.62 20.16l-26.4-72.36c-3.2 7.12-4.8 14.64-4.8 22.56zm9-30.36h3.6c3.84 0 8.76-.24 14.76-.72.96-.08 1.66.24 2.1.96.44.72.5 1.48.18 2.28-.32.8-.96 1.24-1.92 1.32l-6.36.6 20.16 59.88 12.12-36.24-8.64-23.64c-1.92-.24-3.84-.44-5.76-.6-.96-.08-1.6-.52-1.92-1.32-.32-.8-.26-1.56.18-2.28.44-.72 1.14-1.04 2.1-.96l14.52.72c3.92 0 8.84-.24 14.76-.72.96-.08 1.66.24 2.1.96.44.72.5 1.48.18 2.28-.32.8-.96 1.24-1.92 1.32l-6.24.6 19.92 59.52 5.52-18.48c2.88-9.36 4.32-15.32 4.32-17.88 0-5.12-1.56-10.24-4.68-15.36-.16-.24-.66-1.08-1.5-2.52s-1.38-2.38-1.62-2.82c-.24-.44-.6-1.2-1.08-2.28-.48-1.08-.8-2.02-.96-2.82-.16-.8-.24-1.64-.24-2.52 0-2.64.9-4.94 2.7-6.9 1.8-1.96 4.02-2.94 6.66-2.94.08 0 .2.02.36.06.16.04.28.06.36.06-10.48-9.68-22.96-14.52-37.44-14.52-9.52 0-18.36 2.24-26.52 6.72-8.16 4.48-14.76 10.56-19.8 18.24zm30.72 83.52c4.96 1.44 10.16 2.16 15.6 2.16 6.4 0 12.52-1.04 18.36-3.12l-.36-.72-17.04-46.68-16.56 48.36zm43.44-5.28c8.4-4.88 15.08-11.58 20.04-20.1 4.96-8.52 7.44-17.78 7.44-27.78 0-9.6-2.24-18.44-6.72-26.52.24 1.68.36 3.56.36 5.64 0 5.04-1.4 11.64-4.2 19.8l-16.92 48.96z" fill="#fff" sketch:type="MSShapeGroup"/></g></svg>